<svg width="11" height="8" viewBox="0 0 11 8" fill="none" xmlns="http://www.w3.org/2000/svg">
<path d="M0.902419 4.76765C0.511895 4.37713 0.511895 3.74396 0.902419 3.35344C1.29294 2.96292 1.92611 2.96292 2.31663 3.35344L5.14506 6.18187C5.53558 6.57239 5.53558 7.20556 5.14506 7.59608C4.75454 7.9866 4.12137 7.9866 3.73085 7.59608L0.902419 4.76765Z" fill="#464A50"/>
<path d="M5.14506 7.59608C4.75454 7.9866 4.12137 7.9866 3.73085 7.59608C3.34032 7.20556 3.34032 6.57239 3.73085 6.18187L8.68059 1.23212C9.07112 0.841596 9.70428 0.841596 10.0948 1.23212C10.4853 1.62264 10.4853 2.25581 10.0948 2.64633L5.14506 7.59608Z" fill="#464A50"/>
</svg>
