<svg width="163" height="26" viewBox="0 0 163 26" fill="none" xmlns="http://www.w3.org/2000/svg">
<path d="M0 23.6099V0.355281L12.469 0.387578C16.789 0.387578 19.8653 2.19627 19.8653 5.84596C19.8653 7.97764 19.3417 10.0124 16.6253 11.1106C19.9635 12.3702 20.8471 14.4696 20.8471 17.118C20.8471 21.6398 17.2799 23.5776 12.6981 23.5776L0 23.6099ZM12.3708 19.928C14.7599 19.928 16.3635 18.8298 16.3962 16.6012C16.429 14.082 13.6144 13.5006 12.2072 13.5006H4.45088V19.928H12.3708ZM11.8799 9.81863C14.1053 9.81863 15.3817 8.6882 15.3817 6.78261C15.3817 4.90932 13.8435 4.00497 11.1599 4.00497H4.45088V9.81863H11.8799Z" fill="#F6F4FB"/>
<path d="M31.6018 23.6099C26.1364 23.6422 22.34 20.1217 22.34 15.277C22.34 10.9491 25.6782 6.9441 31.34 6.9441C36.6417 6.9441 40.2417 10.5938 40.2417 15.2124V15.5031L40.1435 16.3752H26.4964C26.7909 18.2162 28.6563 20.0571 31.6018 19.9602C33.5327 19.8957 34.8745 18.7652 35.2017 18.2162L39.2599 19.2497C38.1472 21.4783 35.1036 23.5776 31.6018 23.6099ZM36.0854 14.1143C35.7254 12.1764 33.6963 10.5938 31.34 10.5938C29.2127 10.5938 27.02 11.7888 26.4964 14.1143H36.0854Z" fill="#F6F4FB"/>
<path d="M44.1076 23.6099V10.5938H41.2603V6.9441H44.1076V0.355281H48.1003V6.9441H53.5984V10.5938H48.1003V23.6099H44.1076Z" fill="#F6F4FB"/>
<path d="M64.3539 10.4969C59.6739 10.4 59.3466 13.4683 59.3466 17.9901V23.5776H55.3867V15.1478C55.3867 9.20497 58.3321 6.68571 64.3539 6.81491V10.4969Z" fill="#F6F4FB"/>
<path d="M85.5451 22.7056C83.8106 23.513 81.847 23.9329 79.687 23.9329C72.6834 23.9329 66.9562 19.282 66.9562 11.9826C66.9562 4.65093 72.6834 0 79.687 0C86.7233 0 92.516 4.65093 92.516 11.9826C92.516 15.4385 91.2069 18.2807 89.0469 20.3478L93.6614 26H88.2287L85.5451 22.7056ZM79.687 20.2186C84.5306 20.2186 88.0651 17.4087 88.0651 11.9826C88.0651 6.52422 84.5306 3.71429 79.687 3.71429C74.9088 3.71429 71.407 6.52422 71.407 11.9826C71.407 17.4087 74.9088 20.2186 79.687 20.2186Z" fill="#60E886"/>
<path d="M101.438 23.5453C97.3468 23.4484 94.7613 20.6708 94.7613 17.1826V6.8795H98.7213V17.0534C98.7213 18.636 99.8668 19.8957 102.256 19.8957C105.234 19.8957 106.51 18.1193 107.132 17.0211V6.8795H110.209V6.9118H111.059V18.7329C111.059 20.6385 111.518 22.2857 112.434 23.513H108.31C107.885 22.8348 107.59 22.0273 107.394 21.1876C105.823 22.5764 103.761 23.5776 101.438 23.5453Z" fill="#60E886"/>
<path d="M122.36 23.6099C117.713 23.6099 113.426 20.5739 113.426 15.277C113.426 9.98012 117.713 6.9441 122.36 6.9441C127.073 6.9441 131.328 9.98012 131.328 15.277C131.328 20.5739 127.04 23.6099 122.36 23.6099ZM122.36 19.9602C124.979 19.9602 127.368 18.2484 127.368 15.277C127.368 12.3056 124.979 10.5938 122.36 10.5938C119.775 10.5938 117.386 12.3056 117.386 15.277C117.386 18.2484 119.775 19.9602 122.36 19.9602Z" fill="#60E886"/>
<path d="M135.194 23.6099V10.5938H132.346V6.9441H135.194V0.355281H139.186V6.9441H144.684V10.5938H139.186V23.6099H135.194Z" fill="#60E886"/>
<path d="M154.36 23.6099C148.895 23.6422 145.098 20.1217 145.098 15.277C145.098 10.9491 148.436 6.9441 154.098 6.9441C159.4 6.9441 163 10.5938 163 15.2124V15.5031L162.902 16.3752H149.255C149.549 18.2162 151.415 20.0571 154.36 19.9602C156.291 19.8957 157.633 18.7652 157.96 18.2162L162.018 19.2497C160.905 21.4783 157.862 23.5776 154.36 23.6099ZM158.844 14.1143C158.484 12.1764 156.455 10.5938 154.098 10.5938C151.971 10.5938 149.778 11.7888 149.255 14.1143H158.844Z" fill="#60E886"/>
</svg>
