<svg width="49" height="60" viewBox="0 0 49 60" fill="none" xmlns="http://www.w3.org/2000/svg">
<path fill-rule="evenodd" clip-rule="evenodd" d="M5.52875 0.95423C3.6485 0.505711 1.76067 1.66635 1.31215 3.54659C0.863634 5.42683 2.02427 7.31467 3.90452 7.76319L26.2768 13.0999C28.157 13.5485 30.0449 12.3878 30.4934 10.5076C30.9419 8.62734 29.7813 6.7395 27.901 6.29099L5.52875 0.95423ZM6.45435 12.7999C3.36782 12.1997 0.5 14.5636 0.5 17.7079V54.1421C0.5 56.9035 2.73858 59.1421 5.5 59.1421H13.5C16.2614 59.1421 18.5 56.9035 18.5 54.1421V19.2635C18.5 16.87 16.8038 14.8123 14.4543 14.3554L6.45435 12.7999ZM45.2381 14.4657C46.8101 14.0738 48.4354 15.0367 48.4917 16.6559C48.5252 17.6214 48.4588 18.5903 48.292 19.5472C47.9565 21.4709 47.2224 23.3031 46.1367 24.9262C45.051 26.5493 43.6377 27.9273 41.9878 28.9716C41.0137 29.5882 39.9698 30.0805 38.8805 30.4393L38.5999 35.6118C38.4978 37.4941 37.4389 39.1929 35.794 40.1134L29 43.9156V55.1422C29 57.0752 27.433 58.6422 25.5 58.6422C23.567 58.6422 22 57.0752 22 55.1422V43.0361C22 41.0448 23.0763 39.2091 24.814 38.2366L31.655 34.4082L31.8459 30.8883C31.4854 30.8187 31.1272 30.7348 30.7721 30.6368C28.8899 30.1168 27.1373 29.2088 25.6269 27.9712C24.1165 26.7335 22.8816 25.1936 22.0018 23.4503C21.5641 22.5832 21.2191 21.6753 20.9707 20.7417C20.5542 19.1761 21.8296 17.7825 23.4477 17.7007C25.0658 17.619 26.3974 18.9079 27.045 20.3929C27.1059 20.5325 27.1707 20.6705 27.2395 20.8068C27.7506 21.8195 28.4679 22.7141 29.3454 23.4331C30.2228 24.152 31.241 24.6795 32.3344 24.9816C33.4278 25.2837 34.5724 25.3537 35.6945 25.1871C36.8166 25.0205 37.8914 24.621 38.8499 24.0143C39.8084 23.4076 40.6294 22.6071 41.2601 21.6642C41.8908 20.7213 42.3173 19.6569 42.5122 18.5394C42.5384 18.389 42.5604 18.2381 42.5781 18.0869C42.7662 16.4777 43.666 14.8575 45.2381 14.4657Z" fill="white"/>
</svg>
