<svg width="38" height="38" viewBox="0 0 38 38" fill="none" xmlns="http://www.w3.org/2000/svg">
<path d="M18.9896 3.16602C15.8581 3.16602 12.7968 4.09462 10.1931 5.83441C7.58928 7.5742 5.55989 10.047 4.3615 12.9402C3.16311 15.8334 2.84956 19.0169 3.46049 22.0883C4.07142 25.1596 5.5794 27.9809 7.79373 30.1952C10.0081 32.4095 12.8293 33.9175 15.9007 34.5285C18.972 35.1394 22.1556 34.8258 25.0487 33.6274C27.9419 32.4291 30.4147 30.3997 32.1545 27.7959C33.8943 25.1921 34.8229 22.1309 34.8229 18.9993C34.8231 16.92 34.4137 14.8611 33.618 12.94C32.8224 11.0189 31.6561 9.2734 30.1858 7.80311C28.7155 6.33281 26.97 5.16654 25.049 4.37091C23.1279 3.57527 21.0689 3.16584 18.9896 3.16602ZM24.0238 27.1574C23.9646 27.3052 23.8744 27.4386 23.7593 27.5487C23.6443 27.6587 23.5071 27.743 23.3568 27.7957C23.2066 27.8484 23.0468 27.8683 22.8882 27.8543C22.7297 27.8402 22.5759 27.7923 22.4373 27.714L18.1391 24.3741L15.3804 26.9192C15.3164 26.9665 15.2415 26.9969 15.1627 27.0077C15.0838 27.0185 15.0035 27.0092 14.9292 26.9808L15.458 22.2491L15.4749 22.2625L15.4857 22.1691C15.4857 22.1691 23.2203 15.1272 23.5354 14.8272C23.8544 14.528 23.7492 14.463 23.7492 14.463C23.7673 14.098 23.1767 14.463 23.1767 14.463L12.9286 21.0561L8.66073 19.6026C8.66073 19.6026 8.00523 19.3675 7.94348 18.8505C7.87856 18.3375 8.68209 18.0588 8.68209 18.0588L25.6507 11.3178C25.6507 11.3178 27.0456 10.6963 27.0456 11.7255L24.0238 27.1574Z" fill="white"/>
</svg>
