<svg width="24" height="25" viewBox="0 0 24 25" fill="none" xmlns="http://www.w3.org/2000/svg">
<path d="M8.67187 12.2C9.44364 13.7938 10.7324 15.0792 12.3281 15.8469C12.4458 15.9026 12.576 15.9268 12.7059 15.9169C12.8358 15.907 12.9608 15.8635 13.0687 15.7907L15.4125 14.225C15.516 14.1548 15.6357 14.1119 15.7603 14.1005C15.8849 14.089 16.0104 14.1093 16.125 14.1594L20.5125 16.0438C20.6625 16.1062 20.7877 16.2162 20.869 16.3568C20.9504 16.4974 20.9832 16.6608 20.9625 16.8219C20.8234 17.9073 20.2937 18.9048 19.4723 19.6278C18.6509 20.3508 17.5943 20.7498 16.5 20.75C13.1185 20.75 9.87548 19.4067 7.48439 17.0156C5.0933 14.6246 3.75 11.3815 3.75 8.00003C3.75025 6.90578 4.1492 5.84911 4.87221 5.02774C5.59522 4.20637 6.59274 3.67659 7.67812 3.53753C7.83922 3.51684 8.00266 3.54967 8.14326 3.63099C8.28386 3.7123 8.39384 3.83758 8.45625 3.98753L10.3406 8.38441C10.3896 8.49723 10.4101 8.62038 10.4003 8.74299C10.3905 8.86561 10.3507 8.98393 10.2844 9.08753L8.71875 11.4688C8.64905 11.5765 8.60814 11.7003 8.59993 11.8283C8.59172 11.9563 8.61649 12.0843 8.67187 12.2V12.2Z" stroke="black" stroke-width="1.5" stroke-linecap="round" stroke-linejoin="round"/>
</svg>
