<svg width="24" height="24" viewBox="0 0 24 24" fill="none" xmlns="http://www.w3.org/2000/svg">
<g clip-path="url(#clip0_130_220)">
<path d="M14.1951 12.0001L23.5451 2.65012C23.6899 2.50596 23.8047 2.33451 23.8828 2.1457C23.9609 1.95688 24.0008 1.75445 24.0001 1.55012C24.0027 1.34626 23.9636 1.14402 23.8854 0.955749C23.8072 0.76748 23.6914 0.597135 23.5451 0.455118C23.4031 0.308843 23.2328 0.193054 23.0445 0.114824C22.8562 0.0365934 22.654 -0.00243657 22.4501 0.000117743C22.2458 -0.000548482 22.0434 0.0393232 21.8545 0.117424C21.6657 0.195526 21.4943 0.310305 21.3501 0.455118L12.0001 9.80512L2.65012 0.455118C2.50596 0.310305 2.33451 0.195526 2.1457 0.117424C1.95688 0.0393232 1.75445 -0.000548482 1.55012 0.000117743C1.34626 -0.00243657 1.14402 0.0365934 0.955749 0.114824C0.76748 0.193054 0.597135 0.308843 0.455118 0.455118C0.308843 0.597135 0.193054 0.76748 0.114824 0.955749C0.0365934 1.14402 -0.00243657 1.34626 0.000117743 1.55012C-0.000548482 1.75445 0.0393232 1.95688 0.117424 2.1457C0.195526 2.33451 0.310305 2.50596 0.455118 2.65012L9.80512 12.0001L0.455118 21.3501C0.310305 21.4943 0.195526 21.6657 0.117424 21.8545C0.0393232 22.0434 -0.000548482 22.2458 0.000117743 22.4501C-0.00243657 22.654 0.0365934 22.8562 0.114824 23.0445C0.193054 23.2328 0.308843 23.4031 0.455118 23.5451C0.597135 23.6914 0.76748 23.8072 0.955749 23.8854C1.14402 23.9636 1.34626 24.0027 1.55012 24.0001C1.75445 24.0008 1.95688 23.9609 2.1457 23.8828C2.33451 23.8047 2.50596 23.6899 2.65012 23.5451L12.0001 14.1951L21.3501 23.5451C21.4943 23.6899 21.6657 23.8047 21.8545 23.8828C22.0434 23.9609 22.2458 24.0008 22.4501 24.0001C22.8608 23.9988 23.2543 23.8351 23.5447 23.5447C23.8351 23.2543 23.9988 22.8608 24.0001 22.4501C24.0008 22.2458 23.9609 22.0434 23.8828 21.8545C23.8047 21.6657 23.6899 21.4943 23.5451 21.3501L14.1951 12.0001Z" fill="black"/>
</g>
<defs>
<clipPath id="clip0_130_220">
<rect width="24" height="24" fill="white"/>
</clipPath>
</defs>
</svg>
