<svg width="16" height="16" viewBox="0 0 16 16" fill="none" xmlns="http://www.w3.org/2000/svg">
<g id="ic:round-keyboard-arrow-left">
<path id="Vector" d="M5.93204 4.37925L9.05701 7.50422L5.93204 10.6292C5.85748 10.7038 5.79833 10.7923 5.75797 10.8897C5.71762 10.9871 5.69685 11.0915 5.69685 11.197C5.69685 11.3024 5.71762 11.4069 5.75797 11.5043C5.79833 11.6017 5.85748 11.6902 5.93204 11.7648C6.00661 11.8394 6.09513 11.8985 6.19256 11.9389C6.28998 11.9792 6.3944 12 6.49985 12C6.6053 12 6.70972 11.9792 6.80715 11.9389C6.90457 11.8985 6.9931 11.8394 7.06766 11.7648L10.7645 8.068C10.8391 7.99349 10.8984 7.90499 10.9388 7.80755C10.9792 7.71012 11 7.60567 11 7.50019C11 7.39471 10.9792 7.29026 10.9388 7.19283C10.8984 7.0954 10.8391 7.00689 10.7645 6.93238L7.06766 3.23558C6.75355 2.92147 6.24615 2.92147 5.93204 3.23558C5.62599 3.54969 5.61793 4.06515 5.93204 4.37925Z" fill="white"/>
</g>
</svg>
