<svg xmlns="http://www.w3.org/2000/svg" width="13" height="18" fill="none"><path fill="#fff" fill-rule="evenodd" d="M6.34 0C2.826 0 .106 2.323.106 5.718H2.93c0-1.759 1.466-3.026 3.391-3.026s3.39 1.267 3.39 3.026h2.826C12.538 2.323 9.836 0 6.34 0M1.519 9.625c.847 0 1.518-.651 1.518-1.514 0-.862-.67-1.513-1.518-1.513S0 7.25 0 8.111c0 .863.671 1.514 1.519 1.514m-1.413.88v1.724c0 3.29 2.455 5.718 5.474 5.718 1.89 0 3.55-.95 4.521-2.393v2.13h2.543v-7.18H5.828v2.464h2.808c-.265 1.302-1.449 2.287-2.844 2.287-1.571 0-2.86-1.214-2.86-3.026v-1.724z" clip-rule="evenodd"/></svg>