<svg xmlns="http://www.w3.org/2000/svg" width="22" height="22" fill="none"><path fill="#fff" fill-rule="evenodd" d="m8.95 1.646-.03.111a46 46 0 0 1-.567 2.047c-.456 1.471-.954 2.565-1.47 3.08-.514.515-1.608 1.013-3.08 1.469a46 46 0 0 1-2.046.568l-.111.029c-.592.153-1.189.308-1.646.46v3.18c.457.152 1.054.307 1.646.46l.111.03c.657.17 1.355.353 2.047.567 1.471.456 2.565.954 3.08 1.47.515.514 1.013 1.608 1.469 3.08.214.691.397 1.39.568 2.046l.029.111c.153.592.308 1.189.46 1.646h3.18c.152-.457.307-1.054.46-1.646l.03-.111c.17-.657.353-1.355.567-2.047.456-1.471.954-2.565 1.47-3.08.514-.515 1.608-1.013 3.08-1.469.691-.214 1.39-.397 2.046-.568l.111-.029c.592-.153 1.189-.308 1.646-.46V9.41c-.457-.152-1.054-.307-1.646-.46l-.111-.03a46 46 0 0 1-2.047-.567c-1.471-.456-2.565-.954-3.08-1.47-.515-.514-1.013-1.608-1.469-3.08a46 46 0 0 1-.568-2.046l-.029-.111c-.153-.592-.308-1.189-.46-1.646H9.41a28 28 0 0 0-.46 1.646m.303 7.607c.765-.765 1.325-1.825 1.747-2.877.422 1.052.982 2.112 1.747 2.877s1.825 1.325 2.877 1.747c-1.052.422-2.112.982-2.877 1.747S11.422 14.572 11 15.624c-.422-1.052-.982-2.112-1.747-2.877S7.428 11.422 6.376 11c1.052-.422 2.112-.982 2.877-1.747" clip-rule="evenodd"/></svg>