<svg width="19" height="18" viewBox="0 0 19 18" fill="none" xmlns="http://www.w3.org/2000/svg">
<path fill-rule="evenodd" clip-rule="evenodd" d="M16.774 1.72584L2.54417 7.11147L8.29585 9.44345C8.47114 9.50558 8.63045 9.60609 8.76209 9.73773C8.89371 9.86934 8.9942 10.0286 9.05634 10.2039L11.3894 15.953L16.774 1.72584ZM16.9781 0.312061C17.1468 0.247839 17.3305 0.233693 17.5071 0.271338C17.6841 0.309087 17.8465 0.397301 17.9745 0.52532C18.1025 0.653338 18.1907 0.815688 18.2285 0.99276C18.2661 1.16921 18.252 1.35276 18.1879 1.52138L18.1872 1.52314L12.2743 17.1461C12.2735 17.1483 12.2726 17.1506 12.2718 17.1528L12.2708 17.1552C12.2002 17.3332 12.0769 17.4853 11.9173 17.5911C11.7576 17.6969 11.5695 17.7513 11.378 17.747C11.1866 17.7426 11.0011 17.6798 10.8464 17.5669C10.6975 17.4581 10.5841 17.3079 10.5201 17.1353L7.89191 10.6587C7.88695 10.6465 7.88238 10.6341 7.87821 10.6216C7.86576 10.6175 7.85345 10.6129 7.84129 10.608L1.36697 7.98301C1.19363 7.92009 1.04251 7.80735 0.932739 7.65871C0.817944 7.50326 0.75399 7.31614 0.749629 7.12295C0.745267 6.92976 0.800711 6.73994 0.908373 6.57947C1.01604 6.419 1.17066 6.29572 1.35107 6.2265L1.35372 6.22549L16.9767 0.312594L16.9781 0.312061Z" fill="white"/>
<path fill-rule="evenodd" clip-rule="evenodd" d="M17.9107 0.589227C18.1548 0.833305 18.1548 1.22903 17.9107 1.47311L8.80913 10.5747C8.56505 10.8188 8.16932 10.8188 7.92525 10.5747C7.68117 10.3306 7.68117 9.93487 7.92525 9.69079L17.0268 0.589227C17.2709 0.345149 17.6666 0.345149 17.9107 0.589227Z" fill="white"/>
</svg>
