<svg width="35" height="35" viewBox="0 0 35 35" fill="none" xmlns="http://www.w3.org/2000/svg">
<g id="&#240;&#159;&#166;&#134; icon &#34;arrow ios downward&#34;">
<path id="Vector" d="M23.3333 17.5002C23.3339 17.1595 23.2153 16.8292 22.9979 16.5669L15.7062 7.81687C15.4586 7.51905 15.1029 7.33176 14.7173 7.29621C14.3317 7.26066 13.9477 7.37975 13.6499 7.62728C13.3521 7.87482 13.1648 8.23052 13.1293 8.61614C13.0937 9.00176 13.2128 9.38572 13.4604 9.68353L19.9937 17.5002L13.6937 25.3169C13.5725 25.466 13.4821 25.6377 13.4275 25.8219C13.3729 26.0062 13.3553 26.1994 13.3756 26.3905C13.3959 26.5815 13.4538 26.7667 13.5459 26.9354C13.6381 27.104 13.7626 27.2528 13.9124 27.3731C14.0624 27.5067 14.2383 27.6078 14.4292 27.6702C14.62 27.7326 14.8217 27.7549 15.0216 27.7358C15.2215 27.7166 15.4152 27.6564 15.5908 27.5588C15.7663 27.4613 15.9198 27.3286 16.0416 27.1689L23.0854 18.4189C23.2684 18.149 23.3557 17.8256 23.3333 17.5002Z" fill="#383838"/>
</g>
</svg>
