<svg width="28" height="28" viewBox="0 0 28 28" fill="none" xmlns="http://www.w3.org/2000/svg">
<path d="M6.99967 1.16675H3.49967C3.19026 1.16675 2.89351 1.28966 2.67472 1.50846C2.45592 1.72725 2.33301 2.024 2.33301 2.33341C2.33301 2.64283 2.45592 2.93958 2.67472 3.15837C2.89351 3.37717 3.19026 3.50008 3.49967 3.50008H5.83301V19.8334C5.83301 20.1428 5.95592 20.4396 6.17472 20.6584C6.39351 20.8772 6.69026 21.0001 6.99967 21.0001H20.9997C21.2507 21.0001 21.495 20.9192 21.6963 20.7693C21.8977 20.6195 22.0453 20.4087 22.1173 20.1683L25.6173 8.50158C25.6695 8.32739 25.6803 8.1434 25.6487 7.96432C25.6172 7.78523 25.5442 7.616 25.4356 7.47013C25.327 7.32426 25.1859 7.20579 25.0234 7.12418C24.8608 7.04256 24.6815 7.00007 24.4997 7.00008H8.16634V2.33341C8.16634 2.024 8.04342 1.72725 7.82463 1.50846C7.60584 1.28966 7.30909 1.16675 6.99967 1.16675ZM22.9317 9.33342L20.1317 18.6667H8.16634V9.33342H22.9317Z" fill="black" fill-opacity="0.6"/>
<path d="M7.58301 25.6667C8.54951 25.6667 9.33301 24.8832 9.33301 23.9167C9.33301 22.9502 8.54951 22.1667 7.58301 22.1667C6.61651 22.1667 5.83301 22.9502 5.83301 23.9167C5.83301 24.8832 6.61651 25.6667 7.58301 25.6667Z" fill="black" fill-opacity="0.6"/>
<path d="M19.25 25.6667C20.2165 25.6667 21 24.8832 21 23.9167C21 22.9502 20.2165 22.1667 19.25 22.1667C18.2835 22.1667 17.5 22.9502 17.5 23.9167C17.5 24.8832 18.2835 25.6667 19.25 25.6667Z" fill="black" fill-opacity="0.6"/>
</svg>
