<svg width="28" height="28" viewBox="0 0 28 28" fill="none" xmlns="http://www.w3.org/2000/svg">
<g filter="url(#filter0_d_63_2885)">
<rect x="2" y="1.5" width="24" height="24" rx="12" fill="white"/>
<path d="M14.9542 13.5L17.852 10.6022C18.1156 10.3385 18.1156 9.91138 17.852 9.64771C17.5883 9.38403 17.1611 9.38403 16.8975 9.64771L13.9997 12.5455L11.102 9.64771C10.8383 9.38403 10.4111 9.38403 10.1475 9.64771C9.88379 9.91138 9.88379 10.3385 10.1475 10.6022L13.0452 13.5L10.1475 16.3977C9.88379 16.6614 9.88379 17.0885 10.1475 17.3522C10.2793 17.484 10.452 17.55 10.6247 17.55C10.7974 17.55 10.9701 17.484 11.102 17.3522L13.9997 14.4544L16.8975 17.3522C17.0293 17.484 17.202 17.55 17.3747 17.55C17.5474 17.55 17.7201 17.484 17.852 17.3522C18.1156 17.0885 18.1156 16.6614 17.852 16.3977L14.9542 13.5Z" fill="#D0D0D0"/>
<rect x="2.375" y="1.875" width="23.25" height="23.25" rx="11.625" stroke="#D0D0D0" stroke-width="0.75"/>
</g>
<defs>
<filter id="filter0_d_63_2885" x="0.5" y="0.75" width="27" height="27" filterUnits="userSpaceOnUse" color-interpolation-filters="sRGB">
<feFlood flood-opacity="0" result="BackgroundImageFix"/>
<feColorMatrix in="SourceAlpha" type="matrix" values="0 0 0 0 0 0 0 0 0 0 0 0 0 0 0 0 0 0 127 0" result="hardAlpha"/>
<feOffset dy="0.75"/>
<feGaussianBlur stdDeviation="0.75"/>
<feColorMatrix type="matrix" values="0 0 0 0 0.0627451 0 0 0 0 0.0941176 0 0 0 0 0.156863 0 0 0 0.05 0"/>
<feBlend mode="normal" in2="BackgroundImageFix" result="effect1_dropShadow_63_2885"/>
<feBlend mode="normal" in="SourceGraphic" in2="effect1_dropShadow_63_2885" result="shape"/>
</filter>
</defs>
</svg>
