<svg width="16" height="16" viewBox="0 0 16 16" fill="none" xmlns="http://www.w3.org/2000/svg">
<g id="fi_3405244">
<path id="Vector" d="M12.6667 4.6665C12.4899 4.6665 12.3204 4.73674 12.1953 4.86177C12.0703 4.98679 12.0001 5.15636 12.0001 5.33317V12.7938C11.981 13.131 11.8294 13.4469 11.5784 13.6728C11.3274 13.8986 10.9974 14.0162 10.6601 13.9998H5.34008C5.00281 14.0162 4.67274 13.8986 4.42175 13.6728C4.17077 13.4469 4.01921 13.131 4.00008 12.7938V5.33317C4.00008 5.15636 3.92984 4.98679 3.80482 4.86177C3.67979 4.73674 3.51023 4.6665 3.33341 4.6665C3.1566 4.6665 2.98703 4.73674 2.86201 4.86177C2.73699 4.98679 2.66675 5.15636 2.66675 5.33317V12.7938C2.68578 13.4847 2.9778 14.1398 3.47887 14.6157C3.97993 15.0917 4.6492 15.3497 5.34008 15.3332H10.6601C11.351 15.3497 12.0202 15.0917 12.5213 14.6157C13.0224 14.1398 13.3144 13.4847 13.3334 12.7938V5.33317C13.3334 5.15636 13.2632 4.98679 13.1382 4.86177C13.0131 4.73674 12.8436 4.6665 12.6667 4.6665Z" fill="#F26124"/>
<path id="Vector_2" d="M13.3333 2.6665H10.6667V1.33317C10.6667 1.15636 10.5964 0.98679 10.4714 0.861766C10.3464 0.736742 10.1768 0.666504 10 0.666504H6C5.82319 0.666504 5.65362 0.736742 5.5286 0.861766C5.40357 0.98679 5.33333 1.15636 5.33333 1.33317V2.6665H2.66667C2.48986 2.6665 2.32029 2.73674 2.19526 2.86177C2.07024 2.98679 2 3.15636 2 3.33317C2 3.50998 2.07024 3.67955 2.19526 3.80457C2.32029 3.9296 2.48986 3.99984 2.66667 3.99984H13.3333C13.5101 3.99984 13.6797 3.9296 13.8047 3.80457C13.9298 3.67955 14 3.50998 14 3.33317C14 3.15636 13.9298 2.98679 13.8047 2.86177C13.6797 2.73674 13.5101 2.6665 13.3333 2.6665ZM6.66667 2.6665V1.99984H9.33333V2.6665H6.66667Z" fill="#F26124"/>
<path id="Vector_3" d="M7.33333 11.3333V6.66667C7.33333 6.48986 7.2631 6.32029 7.13807 6.19526C7.01305 6.07024 6.84348 6 6.66667 6C6.48986 6 6.32029 6.07024 6.19526 6.19526C6.07024 6.32029 6 6.48986 6 6.66667V11.3333C6 11.5101 6.07024 11.6797 6.19526 11.8047C6.32029 11.9298 6.48986 12 6.66667 12C6.84348 12 7.01305 11.9298 7.13807 11.8047C7.2631 11.6797 7.33333 11.5101 7.33333 11.3333Z" fill="#F26124"/>
<path id="Vector_4" d="M10.0001 11.3333V6.66667C10.0001 6.48986 9.92984 6.32029 9.80482 6.19526C9.67979 6.07024 9.51023 6 9.33341 6C9.1566 6 8.98703 6.07024 8.86201 6.19526C8.73699 6.32029 8.66675 6.48986 8.66675 6.66667V11.3333C8.66675 11.5101 8.73699 11.6797 8.86201 11.8047C8.98703 11.9298 9.1566 12 9.33341 12C9.51023 12 9.67979 11.9298 9.80482 11.8047C9.92984 11.6797 10.0001 11.5101 10.0001 11.3333Z" fill="#F26124"/>
</g>
</svg>
