<svg width="24" height="24" viewBox="0 0 24 24" fill="none" xmlns="http://www.w3.org/2000/svg">
<g id="fi_9125834" clip-path="url(#clip0_63_1766)">
<g id="Group">
<path id="Vector" d="M11.9999 23.9999C16.6066 23.9999 20.4374 22.0603 20.4374 19.3124C20.4374 18.5285 20.1109 17.7625 19.4932 17.0972C19.1409 16.7178 18.5477 16.6958 18.1683 17.0481C17.7888 17.4004 17.7669 17.9936 18.1191 18.373C18.4132 18.6898 18.5623 19.0059 18.5623 19.3124C18.5623 20.6401 15.7558 22.1249 11.9998 22.1249C8.24383 22.1249 5.43733 20.6401 5.43733 19.3124C5.43733 19.0058 5.58644 18.6898 5.88053 18.373C6.23285 17.9936 6.21086 17.4004 5.83146 17.0481C5.45205 16.6959 4.85885 16.7178 4.50653 17.0972C3.88886 17.7625 3.56238 18.5285 3.56238 19.3124C3.56238 22.0562 7.38682 23.9999 11.9999 23.9999Z" fill="#F26124"/>
<path id="Vector_2" d="M9.758 19.1358C10.2874 19.8338 11.1242 20.25 11.9999 20.25C12.8757 20.25 13.7125 19.8338 14.2419 19.1359L18.7551 13.4882C19.8557 12.0196 20.4374 10.2731 20.4374 8.4375C20.4374 3.78506 16.6524 0 11.9999 0C7.3475 0 3.56244 3.78506 3.56244 8.4375C3.56244 10.2731 4.14416 12.0196 5.24469 13.4883L9.758 19.1358ZM11.9999 1.875C15.6185 1.875 18.5624 4.81894 18.5624 8.4375C18.5624 9.85978 18.1132 11.2132 17.2632 12.3525C17.2632 12.3525 12.757 17.9909 12.7511 17.9986C12.5719 18.2378 12.2981 18.375 11.9999 18.375C11.7018 18.375 11.428 18.2378 11.2488 17.9986C11.2429 17.9908 11.237 17.9831 11.2309 17.9755L6.73667 12.3525C5.88664 11.2132 5.43744 9.85983 5.43744 8.4375C5.43744 4.81894 8.38138 1.875 11.9999 1.875Z" fill="#F26124"/>
<path id="Vector_3" d="M11.9999 13.125C14.5846 13.125 16.6874 11.0222 16.6874 8.4375C16.6874 5.85281 14.5846 3.75 11.9999 3.75C9.41519 3.75 7.31238 5.85281 7.31238 8.4375C7.31238 11.0222 9.41519 13.125 11.9999 13.125ZM11.9999 5.625C13.5507 5.625 14.8124 6.88669 14.8124 8.4375C14.8124 9.98831 13.5507 11.25 11.9999 11.25C10.4491 11.25 9.18738 9.98831 9.18738 8.4375C9.18738 6.88669 10.4491 5.625 11.9999 5.625Z" fill="#F26124"/>
</g>
</g>
<defs>
<clipPath id="clip0_63_1766">
<rect width="24" height="24" fill="white"/>
</clipPath>
</defs>
</svg>
