<svg width="128" height="64" viewBox="0 0 128 64" fill="none" xmlns="http://www.w3.org/2000/svg">
<g id="4" clip-path="url(#clip0_65_4794)">
<g id="Capa 2">
<g id="Capa 1">
<path id="Vector" d="M15.1836 63.8249H5.11198C3.78376 63.8894 2.47807 63.4641 1.44266 62.6297C0.963145 62.1891 0.588935 61.6463 0.347773 61.0414C0.106611 60.4365 0.00468088 59.7851 0.0495388 59.1355V42.0374H4.31265V59.1355C4.31265 59.8054 4.78464 60.1403 5.72861 60.1403H15.1836V63.8249Z" fill="black"/>
<path id="Vector_2" d="M19.7284 46.3005C18.0231 46.3005 17.1629 45.4935 17.1629 43.8796C17.1629 42.2657 18.0231 41.5349 19.7284 41.5349C21.4336 41.5349 22.2786 42.2962 22.2786 43.8796C22.2786 45.4631 21.426 46.3005 19.7284 46.3005ZM21.8523 63.8097H17.5587V47.8002H21.8219L21.8523 63.8097Z" fill="black"/>
<path id="Vector_3" d="M39.8639 63.825H35.6008V54.2482C35.6751 53.4153 35.4482 52.5834 34.9614 51.9035C34.5274 51.4239 33.6291 51.1422 32.2513 51.1422C30.8734 51.1422 29.9674 51.3858 29.5335 51.9035C29.0408 52.5808 28.8109 53.414 28.8864 54.2482V63.825H24.6233V54.1492C24.6233 51.7893 25.2932 50.1145 26.6483 49.1248C28.3003 48.0333 30.2586 47.4997 32.236 47.6023C34.6416 47.6023 36.5144 48.1098 37.8542 49.1248C39.194 50.1399 39.8639 51.8147 39.8639 54.1492V63.825Z" fill="black"/>
<path id="Vector_4" d="M58.3704 63.8249H53.1633L48.0095 57.0953H46.8981V63.8554H42.635V41.1086H46.8981V53.3651H48.0933L52.2498 47.7698H57.3427L51.5723 55.0018L58.3704 63.8249Z" fill="black"/>
<path id="Vector_5" d="M78.506 63.8248H73.3598L68.2289 55.8162H64.4225V63.8248H60.1898V42.0372H68.0309C70.2076 41.9143 72.3597 42.5491 74.1211 43.8338C74.877 44.4586 75.4745 45.2532 75.8648 46.1528C76.2551 47.0525 76.4271 48.0317 76.3668 49.0105C76.3668 51.9287 75.1234 53.8902 72.6366 54.8951L78.506 63.8248ZM68.0157 52.1088C69.0858 52.1852 70.1525 51.9185 71.0608 51.3476C71.4061 51.0643 71.6777 50.7018 71.8527 50.2909C72.0277 49.88 72.1007 49.4329 72.0657 48.9876C72.0992 48.5441 72.04 48.0985 71.8919 47.6791C71.7438 47.2597 71.51 46.8757 71.2054 46.5516C70.6345 46.0111 69.5687 45.7446 68.0081 45.7446H64.4301V52.1012L68.0157 52.1088Z" fill="black"/>
<path id="Vector_6" d="M85.2204 64.0001C83.5923 64.0653 81.9877 63.5946 80.6528 62.6602C80.0747 62.2453 79.6081 61.6938 79.2947 61.055C78.9812 60.4161 78.8306 59.7097 78.8562 58.9985C78.8271 58.2386 79.0113 57.4857 79.388 56.8251C79.7648 56.1645 80.3189 55.6226 80.9877 55.2607C82.4113 54.4309 84.4211 54.0046 87.0246 53.997H89.6053V53.525C89.6053 51.9568 88.4253 51.1803 86.0654 51.1803C84.7408 51.1803 82.8605 51.2488 80.4168 51.401V48.2342C82.2816 47.8571 84.1781 47.6583 86.0806 47.6404C88.6842 47.6404 90.6483 48.158 91.9272 49.1629C92.5789 49.7081 93.0939 50.3983 93.4309 51.1782C93.768 51.9582 93.9179 52.8062 93.8684 53.6544V63.825H89.6053V62.5232C88.7425 63.5078 87.2809 64.0001 85.2204 64.0001ZM85.5706 60.4449C86.6224 60.5148 87.6738 60.3019 88.6157 59.8283C88.9213 59.6702 89.1775 59.431 89.3561 59.1369C89.5347 58.8428 89.6288 58.5052 89.6281 58.1611V56.8746H86.7506C85.7763 56.79 84.7971 56.9633 83.911 57.377C83.6787 57.5112 83.4859 57.7043 83.3522 57.9369C83.2185 58.1695 83.1487 58.4333 83.1497 58.7016C83.1527 58.9412 83.2105 59.177 83.3187 59.3907C83.4269 59.6045 83.5826 59.7907 83.774 59.9349C84.2974 60.3043 84.9311 60.4842 85.5706 60.4449Z" fill="black"/>
<path id="Vector_7" d="M104.656 63.9847C102.382 64.104 100.149 63.3496 98.4132 61.876C96.8907 60.4676 96.0913 58.4274 96.0913 55.7402C96.0913 53.0529 96.8526 51.0203 98.4132 49.65C100.173 48.2283 102.396 47.5071 104.656 47.625C106.408 47.7013 108.147 47.9564 109.847 48.3863V51.9414C108.152 51.5117 106.418 51.2566 104.671 51.1801C103.072 51.1801 101.953 51.5456 101.314 52.2764C100.595 53.2756 100.255 54.498 100.354 55.7249C100.259 56.973 100.592 58.2165 101.298 59.2496C101.938 60.0109 103.057 60.4296 104.656 60.4296C106.393 60.3734 108.124 60.1851 109.832 59.8662V63.1854C108.141 63.6406 106.405 63.9087 104.656 63.9847Z" fill="black"/>
<path id="Vector_8" d="M127.943 63.8249H122.736L117.582 57.0953H116.524V63.8554H112.261V41.1086H116.524V53.3651H117.719L121.853 47.8002H126.953L121.175 55.0323L127.943 63.8249Z" fill="black"/>
<path id="Vector_9" d="M77.5849 9.18091V14.7458H85.1367V26.6444H58.6673V14.7458H67.498V9.18091H63.6917C60.6416 9.18696 57.7186 10.4034 55.5647 12.563C53.4108 14.7226 52.2021 17.6488 52.2041 20.6989C52.2031 22.2118 52.5004 23.71 53.0789 25.1079C53.6573 26.5057 54.5057 27.7759 55.5755 28.8456C56.6452 29.9154 57.9153 30.7637 59.3132 31.3422C60.7111 31.9207 62.2093 32.2179 63.7221 32.2169H80.059C81.5722 32.2179 83.0708 31.9207 84.4691 31.3424C85.8674 30.764 87.138 29.9157 88.2084 28.8461C89.2787 27.7764 90.1278 26.5064 90.7071 25.1084C91.2864 23.7105 91.5846 22.2121 91.5846 20.6989C91.5846 19.1857 91.2864 17.6873 90.7071 16.2894C90.1278 14.8915 89.2787 13.6214 88.2084 12.5518C87.138 11.4821 85.8674 10.6339 84.4691 10.0555C83.0708 9.47709 81.5722 9.17991 80.059 9.18091H77.5849Z" fill="url(#paint0_linear_65_4794)"/>
<path id="Vector_10" d="M36.4154 11.518C36.4154 14.5748 37.6297 17.5064 39.7912 19.6679C41.9526 21.8293 44.8842 23.0436 47.941 23.0436H50.4151V17.5092H42.8633V5.56488H69.3251V17.5092H60.502V23.0741H64.3083C65.8215 23.0701 67.3191 22.768 68.7155 22.185C70.1119 21.602 71.3798 20.7495 72.4466 19.6763C73.5134 18.6031 74.3583 17.3303 74.933 15.9304C75.5077 14.5306 75.8009 13.0312 75.7959 11.518C75.7959 8.46325 74.5824 5.53359 72.4223 3.37355C70.2623 1.2135 67.3326 0 64.2779 0L47.941 0C44.8856 -6.66493e-07 41.9551 1.21326 39.7939 3.37309C37.6326 5.53291 36.4174 8.46255 36.4154 11.518Z" fill="url(#paint1_linear_65_4794)"/>
</g>
</g>
</g>
<defs>
<linearGradient id="paint0_linear_65_4794" x1="89.415" y1="3.17449" x2="57.7842" y2="34.8052" gradientUnits="userSpaceOnUse">
<stop stop-color="#F7931E"/>
<stop offset="1" stop-color="#F15A24"/>
</linearGradient>
<linearGradient id="paint1_linear_65_4794" x1="73.2913" y1="-5.66385" x2="46.1368" y2="21.4983" gradientUnits="userSpaceOnUse">
<stop stop-color="#3ADEE1"/>
<stop offset="1" stop-color="#09ACF2"/>
</linearGradient>
<clipPath id="clip0_65_4794">
<rect width="127.901" height="63.9999" fill="white" transform="translate(0.0495377)"/>
</clipPath>
</defs>
</svg>
