<svg xmlns="http://www.w3.org/2000/svg" xmlns:xlink="http://www.w3.org/1999/xlink" viewBox="0 0 250 42.32"><defs><style>.cls-1{fill:url(#Degradado_sin_nombre_558);}.cls-2{fill:url(#Degradado_sin_nombre_544);}</style><linearGradient id="Degradado_sin_nombre_558" x1="69.62" y1="4.17" x2="28.07" y2="45.72" gradientUnits="userSpaceOnUse"><stop offset="0" stop-color="#f7931e"/><stop offset="1" stop-color="#f15a24"/></linearGradient><linearGradient id="Degradado_sin_nombre_544" x1="48.44" y1="-7.44" x2="12.76" y2="28.24" gradientUnits="userSpaceOnUse"><stop offset="0" stop-color="#3adee1"/><stop offset="1" stop-color="#09acf2"/></linearGradient></defs><g id="Capa_2" data-name="Capa 2"><g id="Capa_1-2" data-name="Capa 1"><path d="M101.87,36H88.64a7.19,7.19,0,0,1-4.82-1.57A5.72,5.72,0,0,1,82,29.79V7.33h5.6V29.79c0,.85.62,1.28,1.86,1.28h12.42Z"/><path d="M107.84,12.93c-2.24,0-3.37-1.06-3.37-3.19s1.13-3.08,3.37-3.08,3.35,1,3.35,3.08S110.07,12.93,107.84,12.93Zm2.79,23H105V14.89h5.6Z"/><path d="M134.29,36h-5.6V23.36a4.61,4.61,0,0,0-.84-3.08c-.57-.63-1.75-1-3.56-1s-3,.32-3.57,1a4.55,4.55,0,0,0-.85,3.08V36h-5.6V23.24q0-4.65,2.65-6.6a12.13,12.13,0,0,1,7.35-2c3.16,0,5.61.65,7.38,2s2.64,3.5,2.64,6.6Z"/><path d="M158.6,36h-6.84L145,27.06h-1.45V36h-5.6V6.15h5.6v16.1h1.57l5.46-7.36h6.69l-7.58,9.51Z"/><path d="M185.05,36h-6.76l-6.74-10.52h-5V36H161V7.33h10.32a12.39,12.39,0,0,1,8,2.35,8.18,8.18,0,0,1,2.95,6.8q0,5.74-4.9,7.73Zm-13.79-15.4a6.65,6.65,0,0,0,4-1,3.62,3.62,0,0,0,1.32-3.1,4.19,4.19,0,0,0-1.13-3.19c-.75-.71-2.15-1.07-4.21-1.07h-4.69v8.35Z"/><path d="M193.87,36.17a9.78,9.78,0,0,1-6-1.75,5.69,5.69,0,0,1-2.36-4.82,5.34,5.34,0,0,1,2.8-4.9c1.87-1.1,4.51-1.65,7.93-1.67h3.39v-.62q0-3.07-4.65-3.08-2.61,0-7.42.29V15.47a38.58,38.58,0,0,1,7.44-.79c3.42,0,6,.69,7.68,2.06a7.14,7.14,0,0,1,2.55,5.9V36h-5.6V34.23C198.49,35.53,196.57,36.17,193.87,36.17Zm.46-4.66a7.69,7.69,0,0,0,3.95-.81,2.47,2.47,0,0,0,1.34-2.19v-1.7h-3.78a7.19,7.19,0,0,0-3.73.67,2,2,0,0,0-1,1.73,2,2,0,0,0,.82,1.62A3.7,3.7,0,0,0,194.33,31.51Z"/><path d="M219.39,36.15a11.73,11.73,0,0,1-8.19-2.76q-3-2.78-3-8.06c0-3.55,1-6.2,3-8a12,12,0,0,1,8.19-2.67,33.63,33.63,0,0,1,6.82,1v4.68a32.92,32.92,0,0,0-6.8-1c-2.09,0-3.56.49-4.4,1.45a6.77,6.77,0,0,0-1.26,4.53A7.19,7.19,0,0,0,215,29.93c.84,1,2.31,1.55,4.4,1.55a43.46,43.46,0,0,0,6.8-.74v4.34A30.63,30.63,0,0,1,219.39,36.15Z"/><path d="M250,36h-6.84l-6.78-8.89h-1.44V36h-5.61V6.15h5.61v16.1h1.57L242,14.89h6.7l-7.59,9.51Z"/><path class="cls-1" d="M54.08,12.06v7.31H64V35H29.2V19.37H40.83V12.06h-5A15.13,15.13,0,0,0,20.73,27.19h0A15.13,15.13,0,0,0,35.87,42.32H57.33A15.12,15.12,0,0,0,72.46,27.19h0A15.12,15.12,0,0,0,57.33,12.06Z"/><path class="cls-2" d="M0,15.13H0A15.14,15.14,0,0,0,15.13,30.27h3.25V23H8.46V7.31h34.8V23H31.64v7.31h5A15.14,15.14,0,0,0,51.73,15.13h0A15.14,15.14,0,0,0,36.59,0H15.13A15.14,15.14,0,0,0,0,15.13Z"/></g></g></svg>