<svg width="28" height="28" viewBox="0 0 28 28" fill="none" xmlns="http://www.w3.org/2000/svg">
<path d="M13.9993 26.8336C14.6182 26.8336 15.2117 26.5877 15.6493 26.1502C16.0868 25.7126 16.3327 25.1191 16.3327 24.5002H11.666C11.666 25.1191 11.9118 25.7126 12.3494 26.1502C12.787 26.5877 13.3805 26.8336 13.9993 26.8336Z" fill="black" fill-opacity="0.6"/>
<path d="M24.4111 21.4469C24.4994 21.2337 24.5225 20.999 24.4774 20.7727C24.4324 20.5463 24.3212 20.3384 24.1579 20.1752L22.1664 18.1837V11.6667C22.1641 9.70459 21.4554 7.80886 20.17 6.32636C18.8846 4.84387 17.1084 3.87372 15.1664 3.59341V2.33341C15.1664 2.024 15.0435 1.72725 14.8247 1.50846C14.6059 1.28966 14.3092 1.16675 13.9998 1.16675C13.6903 1.16675 13.3936 1.28966 13.1748 1.50846C12.956 1.72725 12.8331 2.024 12.8331 2.33341V3.59341C10.8911 3.87372 9.11486 4.84387 7.82946 6.32636C6.54406 7.80886 5.83538 9.70459 5.83308 11.6667V18.1837L3.84158 20.1752C3.67847 20.3384 3.5674 20.5463 3.5224 20.7725C3.47741 20.9988 3.50051 21.2334 3.58879 21.4465C3.67708 21.6597 3.82657 21.8419 4.01838 21.97C4.21019 22.0982 4.43571 22.1667 4.66642 22.1667H23.3331C23.5638 22.1668 23.7894 22.0984 23.9813 21.9703C24.1731 21.8422 24.3227 21.66 24.4111 21.4469ZM7.48275 19.8334L7.82458 19.4916C8.04339 19.2728 8.16635 18.9761 8.16642 18.6667V11.6667C8.16642 10.1197 8.781 8.63592 9.87496 7.54196C10.9689 6.448 12.4527 5.83341 13.9998 5.83341C15.5468 5.83341 17.0306 6.448 18.1245 7.54196C19.2185 8.63592 19.8331 10.1197 19.8331 11.6667V18.6667C19.8332 18.9761 19.9561 19.2728 20.1749 19.4916L20.5168 19.8334H7.48275Z" fill="black" fill-opacity="0.6"/>
</svg>
