<svg width="17" height="16" viewBox="0 0 17 16" fill="none" xmlns="http://www.w3.org/2000/svg">
<g id="fi_10396924">
<g id="Edit / Edit_Pencil_Line_01">
<path id="Vector (Stroke)" fill-rule="evenodd" clip-rule="evenodd" d="M10.7547 2.34114C11.0225 2.25413 11.3109 2.25413 11.5787 2.34114C11.7717 2.40383 11.9194 2.51008 12.0357 2.60882C12.1417 2.69871 12.2572 2.81425 12.3756 2.93271L13.5655 4.12261C13.6845 4.24158 13.8004 4.35745 13.8905 4.4636C13.9895 4.58015 14.0959 4.7281 14.1587 4.92127C14.2457 5.18911 14.2456 5.47757 14.1586 5.74532C14.0959 5.93837 13.9896 6.08623 13.8907 6.20272C13.8007 6.30879 13.6849 6.42453 13.5661 6.5433L13.5449 6.56446L7.4428 12.6666H13.8333C14.2015 12.6666 14.5 12.965 14.5 13.3332C14.5 13.7014 14.2015 13.9999 13.8333 13.9999H3.16667C2.79848 13.9999 2.5 13.7014 2.5 13.3332V10.6666C2.5 10.4898 2.57024 10.3202 2.69526 10.1952L8.0286 4.86185L9.94433 2.94611L9.9572 2.93326C10.0758 2.81463 10.1914 2.69896 10.2974 2.60899C10.4138 2.51018 10.5617 2.40386 10.7547 2.34114ZM8.5 6.27606L3.83333 10.9427V12.6666H5.55719L10.2239 7.99991L8.5 6.27606ZM11.1667 7.05711L12.6138 5.60994C12.7499 5.47386 12.8245 5.39841 12.8742 5.33985C12.8762 5.33755 12.878 5.33535 12.8797 5.33327C12.878 5.33113 12.8761 5.32888 12.8741 5.32651C12.8236 5.26705 12.7475 5.19017 12.6077 5.05039L11.4478 3.89053C11.3086 3.75131 11.2321 3.67556 11.1729 3.62533C11.1707 3.62349 11.1687 3.62174 11.1667 3.62009C11.1647 3.62178 11.1625 3.62357 11.1603 3.62547C11.101 3.67579 11.0244 3.75169 10.885 3.89109L10.8817 3.89438L9.4428 5.33325L11.1667 7.05711Z" fill="black"/>
</g>
</g>
</svg>
