<svg width="24" height="24" viewBox="0 0 24 24" fill="none" xmlns="http://www.w3.org/2000/svg">
<g id="fi_3820143" clip-path="url(#clip0_63_1773)">
<path id="Vector" d="M23.0603 12.1882C22.5426 12.1882 22.1229 11.7686 22.1229 11.2509C22.1229 6.08208 17.9178 1.87694 12.749 1.87694C12.2313 1.87694 11.8116 1.45727 11.8116 0.939545C11.8116 0.421824 12.2313 0.00215335 12.749 0.00215335C18.7954 -0.122754 24.1227 5.20454 23.9976 11.251C23.9977 11.7686 23.578 12.1882 23.0603 12.1882ZM16.4986 11.2509C16.4986 9.18334 14.8165 7.50129 12.749 7.50129C12.2313 7.50129 11.8116 7.92096 11.8116 8.43868C11.8116 8.9564 12.2313 9.37607 12.749 9.37607C13.7828 9.37607 14.6238 10.2171 14.6238 11.2509C14.6238 11.7686 15.0435 12.1882 15.5612 12.1882C16.0789 12.1882 16.4986 11.7686 16.4986 11.2509ZM20.2481 11.2509C20.2481 7.11583 16.8841 3.75172 12.749 3.75172C12.2313 3.75172 11.8116 4.17139 11.8116 4.68911C11.8116 5.20683 12.2313 5.62651 12.749 5.62651C15.8503 5.62651 18.3733 8.14959 18.3733 11.2509C18.3733 11.7686 18.793 12.1882 19.3107 12.1882C19.8285 12.1882 20.2481 11.7686 20.2481 11.2509ZM16.519 23.9996C16.7603 23.9942 16.9903 23.896 17.161 23.7253L20.5356 20.3507C20.9017 19.9846 20.9017 19.3911 20.5356 19.025L15.4386 13.928C15.0725 13.5619 14.479 13.5619 14.1129 13.928L12.8416 15.1992C11.5699 14.5879 9.38873 12.3987 8.79728 11.1294L10.0558 9.87088C10.4189 9.52179 10.4189 8.89425 10.0558 8.54522L4.92805 3.4174C4.56195 3.0513 3.96845 3.0513 3.60239 3.4174L0.274652 6.74514C0.102734 6.91706 0.00430825 7.14906 0.000230595 7.39218C-0.014299 14.2628 9.30338 23.9141 16.4775 24C16.4974 24 16.5114 23.9998 16.519 23.9996ZM4.26522 5.40594L8.06733 9.20805L7.02383 10.2516C6.78742 10.488 6.6948 10.8325 6.78081 11.1556C7.27299 13.1349 10.8696 16.7267 12.8103 17.2187C13.1337 17.3056 13.4792 17.2131 13.7161 16.9762L14.7757 15.9165L18.5471 19.6879L16.1286 22.1063C10.9298 21.8018 2.56897 14.5745 1.89676 7.77435L4.26522 5.40594Z" fill="#F26124"/>
</g>
<defs>
<clipPath id="clip0_63_1773">
<rect width="24" height="24" fill="white"/>
</clipPath>
</defs>
</svg>
