<svg width="16" height="16" viewBox="0 0 16 16" fill="none" xmlns="http://www.w3.org/2000/svg">
<g id="file/upload_2_line">
<g id="Union">
<path d="M11.2996 5.02692C11.5599 5.28727 11.5599 5.70938 11.2996 5.96973C11.0392 6.23008 10.6171 6.23008 10.3568 5.96973L8.66642 4.27937V10.6668C8.66642 11.0349 8.36795 11.3334 7.99976 11.3334C7.63157 11.3334 7.33309 11.0349 7.33309 10.6668V4.27937L5.64273 5.96973C5.38238 6.23008 4.96027 6.23008 4.69992 5.96973C4.43957 5.70938 4.43957 5.28727 4.69992 5.02692L7.4105 2.31634C7.73594 1.99091 8.26357 1.99091 8.58901 2.31634L11.2996 5.02692Z" fill="white"/>
<path d="M2.66642 10.0001C3.03461 10.0001 3.33309 10.2986 3.33309 10.6668V13.3334H12.6664V10.6668C12.6664 10.2986 12.9649 10.0001 13.3331 10.0001C13.7013 10.0001 13.9998 10.2986 13.9998 10.6668V13.3334C13.9998 14.0698 13.4028 14.6668 12.6664 14.6668H3.33309C2.59671 14.6668 1.99976 14.0698 1.99976 13.3334V10.6668C1.99976 10.2986 2.29823 10.0001 2.66642 10.0001Z" fill="white"/>
</g>
</g>
</svg>
