<svg width="16" height="16" viewBox="0 0 16 16" fill="none" xmlns="http://www.w3.org/2000/svg">
<path d="M15.8799 2.83682C15.7736 2.15497 15.454 1.52432 14.9671 1.03529C14.4781 0.548388 13.8475 0.228855 13.1656 0.122516C11.7547 -0.0905326 10.3158 -0.0252499 8.93001 0.314679C8.87531 0.325888 8.82172 0.341965 8.76988 0.362719C6.74205 0.873819 4.89082 1.92534 3.41333 3.4053C1.92734 4.89344 0.87064 6.75512 0.354729 8.79388C0.354729 8.84192 0.354729 8.88996 0.314695 8.94601C-0.0252592 10.3345 -0.0905374 11.7761 0.122531 13.1896C0.236826 13.8572 0.555798 14.4728 1.03531 14.9511C1.52433 15.438 2.15499 15.7575 2.83684 15.8639C3.38748 15.9534 3.94438 15.9989 4.50225 16C5.38229 15.9949 6.25857 15.8847 7.11247 15.6717H7.22456C9.25499 15.1577 11.1091 14.1054 12.5916 12.6258C14.074 11.1462 15.1298 9.29403 15.6477 7.26458C15.6477 7.21654 15.6477 7.1685 15.6878 7.11245C16.0319 5.71368 16.0972 4.26082 15.8799 2.83682ZM11.5002 1.58776C11.9722 1.58527 12.4437 1.62277 12.9094 1.69985C12.9747 1.71374 13.039 1.73247 13.1016 1.7559L12.0046 2.86084L10.7716 1.62779C11.0118 1.58776 11.26 1.58776 11.5002 1.58776ZM4.53428 4.52626C5.73972 3.32733 7.22613 2.44925 8.85795 1.97209L10.8757 3.9898L9.1542 5.71126L8.56971 5.12677C8.49527 5.05172 8.40672 4.99215 8.30915 4.9515C8.21158 4.91085 8.10692 4.88993 8.00122 4.88993C7.89552 4.88993 7.79087 4.91085 7.6933 4.9515C7.59573 4.99215 7.50717 5.05172 7.43274 5.12677C7.28361 5.27678 7.19991 5.47972 7.19991 5.69124C7.19991 5.90277 7.28361 6.10571 7.43274 6.25572L8.01724 6.84022L6.84824 7.9932L6.26375 7.4087C6.11373 7.25958 5.9108 7.17587 5.69927 7.17587C5.48774 7.17587 5.28481 7.25958 5.13479 7.4087C5.05974 7.48314 5.00018 7.57169 4.95953 7.66926C4.91888 7.76683 4.89795 7.87149 4.89795 7.97719C4.89795 8.08288 4.91888 8.18754 4.95953 8.28511C5.00018 8.38268 5.05974 8.47124 5.13479 8.54567L5.71928 9.13017L3.99782 10.8676L1.98812 8.85793C2.46017 7.22338 3.33575 5.73379 4.53428 4.52626ZM1.76393 13.0935C1.7405 13.031 1.72176 12.9667 1.70788 12.9014C1.58664 12.1956 1.54902 11.4781 1.59578 10.7636L2.86886 11.9966L1.76393 13.0935ZM3.09305 14.2865C3.0277 14.2727 2.96346 14.2539 2.90089 14.2305L3.99782 13.1256L5.23087 14.3986C4.51634 14.4454 3.79878 14.4078 3.09305 14.2865ZM11.4682 11.4601C10.2606 12.6587 8.77105 13.5342 7.13649 14.0063L5.12678 11.9966L6.84824 10.2751L7.43274 10.8596C7.50687 10.9343 7.59497 10.9936 7.69203 11.0342C7.78908 11.0748 7.89319 11.0959 7.99839 11.0963C8.1036 11.0967 8.20785 11.0763 8.30518 11.0364C8.40252 10.9965 8.49105 10.9378 8.5657 10.8636C8.64036 10.7895 8.69968 10.7014 8.74028 10.6043C8.78089 10.5073 8.80198 10.4032 8.80235 10.298C8.80272 10.1928 8.78237 10.0885 8.74245 9.99119C8.70253 9.89385 8.64383 9.80533 8.56971 9.73067L8.00122 9.14618L9.1542 7.9932L9.7387 8.5777C9.81351 8.6519 9.90224 8.71061 9.99979 8.75046C10.0973 8.79031 10.2018 8.8105 10.3072 8.80989C10.4655 8.80923 10.6201 8.76162 10.7514 8.6731C10.8827 8.58457 10.9848 8.4591 11.0448 8.31255C11.1048 8.166 11.12 8.00495 11.0885 7.84977C11.0569 7.69459 10.9801 7.55224 10.8677 7.44073L10.2832 6.85623L12.0046 5.11876L14.0143 7.12847C13.5423 8.76302 12.6667 10.2526 11.4682 11.4601ZM14.4067 5.22285L13.1336 3.9898L14.2385 2.89287C14.2619 2.95544 14.2807 3.01967 14.2946 3.08503C14.4158 3.79076 14.4534 4.50831 14.4067 5.22285Z" fill="#464A50"/>
</svg>
