<svg width="1440" height="919" viewBox="0 0 1440 919" fill="none" xmlns="http://www.w3.org/2000/svg">
<path d="M312.958 1232.77L374.497 1360.09C380.184 1371.86 394.202 1376.96 406.122 1371.6L535.103 1313.63C543.22 1309.98 552.759 1311.91 558.821 1318.42L655.154 1421.94C664.056 1431.51 678.956 1432.26 688.767 1423.62L794.929 1330.2C801.61 1324.32 811.293 1323.36 819.006 1327.79L941.574 1398.33C952.901 1404.84 967.358 1401.16 974.188 1390.02L1048.1 1269.46C1052.75 1261.87 1061.72 1258.09 1070.4 1260.06L1208.31 1291.33C1221.05 1294.22 1233.78 1286.44 1237.02 1273.78L1272.11 1136.79C1274.32 1128.17 1281.78 1121.92 1290.65 1121.24L1431.65 1110.47C1444.68 1109.47 1454.55 1098.29 1453.92 1085.24L1447.08 943.989C1446.64 935.101 1451.92 926.926 1460.2 923.663L1591.77 871.811C1603.92 867.019 1610.06 853.421 1605.61 841.134L1557.43 708.181C1554.4 699.815 1557.04 690.446 1563.99 684.888L1674.42 596.561C1684.63 588.398 1686.48 573.596 1678.6 563.167L1593.38 450.321C1588.02 443.22 1587.78 433.491 1592.78 426.131L1672.27 309.177C1679.62 298.369 1677.03 283.677 1666.43 276.033L1551.73 193.321C1544.51 188.115 1541.41 178.89 1544.02 170.383L1585.51 35.1937C1589.34 22.7005 1582.54 9.42513 1570.16 5.24524L1436.17 -39.9843C1427.74 -42.8305 1422.06 -50.7324 1422.05 -59.6313L1421.84 -201.043C1421.83 -214.112 1411.41 -224.791 1398.34 -225.136L1256.98 -228.864C1248.09 -229.098 1240.33 -234.974 1237.69 -243.474L1195.82 -378.544C1191.95 -391.026 1178.85 -398.161 1166.26 -394.64L1030.08 -356.534C1021.51 -354.136 1012.37 -357.465 1007.34 -364.81L927.514 -481.536C920.137 -492.323 905.515 -495.279 894.527 -488.205L775.627 -411.652C768.145 -406.835 758.425 -407.32 751.46 -412.859L640.773 -500.869C630.544 -509.003 615.7 -507.517 607.286 -497.518L516.233 -389.321C510.503 -382.512 501.072 -380.11 492.783 -383.35L361.073 -434.825C348.901 -439.582 335.154 -433.787 330.06 -421.752L274.945 -291.523C271.476 -283.328 263.172 -278.253 254.297 -278.905L113.265 -289.271C100.232 -290.229 88.804 -280.64 87.4841 -267.638L73.2027 -126.949C72.3039 -118.096 65.8645 -110.799 57.1915 -108.806L-80.6299 -77.1419C-93.3664 -74.2157 -101.46 -61.684 -98.8892 -48.8711L-71.0674 89.7773C-69.3167 98.5022 -73.3193 107.373 -81.0196 111.833L-203.385 182.715C-214.693 189.265 -218.733 203.626 -212.5 215.112L-145.047 339.4C-140.802 347.221 -142.012 356.877 -148.056 363.409L-244.092 467.209C-252.967 476.802 -252.595 491.716 -243.253 500.854L-142.162 599.738C-135.8 605.96 -134.11 615.545 -137.96 623.568L-199.134 751.063C-204.787 762.846 -200.036 776.987 -188.415 782.966L-62.6693 847.659C-54.7562 851.731 -50.3164 860.391 -51.6301 869.192L-72.5062 1009.05C-74.4354 1021.98 -65.727 1034.09 -52.8605 1036.38L86.3681 1061.14C95.1296 1062.69 101.925 1069.66 103.264 1078.46L124.54 1218.26C126.507 1231.18 138.398 1240.19 151.368 1238.58L291.707 1221.2C300.539 1220.1 309.086 1224.76 312.958 1232.77Z" stroke="white" stroke-opacity="1" stroke-width="3.36771"/>
</svg>
