<svg width="330" height="328" viewBox="0 0 330 328" fill="none" xmlns="http://www.w3.org/2000/svg">
<path d="M152.256 8.91749C159.35 2.01742 170.648 2.01742 177.742 8.91749C183.357 14.3781 191.826 15.6546 198.801 12.0916C207.614 7.58922 218.41 10.9193 223.156 19.604C226.911 26.4768 234.628 30.1931 242.343 28.8442C252.092 27.1396 261.427 33.5038 263.401 43.2014C264.964 50.8759 271.243 56.7017 279.013 57.6867C288.831 58.9314 295.875 67.7643 294.904 77.6132C294.135 85.4074 298.418 92.8251 305.552 96.0565C314.567 100.14 318.694 110.657 314.863 119.782C311.831 127.003 313.737 135.353 319.602 140.544C327.013 147.103 327.857 158.369 321.507 165.96C316.481 171.967 315.841 180.508 319.915 187.197C325.064 195.649 322.55 206.663 314.244 212.045C307.671 216.303 304.542 224.276 306.464 231.869C308.892 241.463 303.243 251.247 293.72 253.941C286.184 256.073 280.844 262.77 280.442 270.591C279.934 280.475 271.653 288.159 261.759 287.927C253.929 287.743 246.852 292.568 244.163 299.924C240.765 309.219 230.586 314.121 221.2 310.982C213.772 308.498 205.587 311.023 200.849 317.259C194.863 325.14 183.691 326.823 175.647 321.058C169.282 316.495 160.716 316.495 154.351 321.058C146.307 326.823 135.136 325.14 129.149 317.259C124.411 311.023 116.226 308.498 108.798 310.982C99.4124 314.121 89.2335 309.219 85.8353 299.924C83.1461 292.568 76.0692 287.743 68.2393 287.927C58.3454 288.159 50.0636 280.475 49.5561 270.591C49.1545 262.77 43.8142 256.073 36.278 253.941C26.7551 251.247 21.1062 241.463 23.5345 231.869C25.4563 224.276 22.3271 216.303 15.7541 212.045C7.44829 206.663 4.93431 195.649 10.0827 187.197C14.157 180.508 13.5169 171.967 8.4912 165.96C2.1406 158.369 2.98488 147.103 10.3958 140.544C16.2607 135.353 18.1666 127.003 15.1348 119.782C11.3036 110.657 15.4311 100.14 24.4462 96.0565C31.5805 92.8251 35.8631 85.4074 35.0944 77.6132C34.1231 67.7643 41.1671 58.9314 50.9852 57.6867C58.755 56.7017 65.0338 50.8759 66.5966 43.2014C68.5715 33.5038 77.9061 27.1396 87.6549 28.8442C95.3699 30.1931 103.087 26.4768 106.842 19.604C111.588 10.9193 122.384 7.58922 131.197 12.0916C138.172 15.6546 146.641 14.3781 152.256 8.91749Z" fill="#183422"/>
<path d="M178.916 7.71039C171.168 0.174645 158.83 0.174645 151.082 7.71039C145.984 12.6679 138.295 13.8269 131.963 10.5921C122.338 5.67492 110.547 9.31176 105.365 18.7965C101.955 25.0362 94.9491 28.4102 87.9449 27.1855C77.298 25.3238 67.1035 32.2744 64.9467 42.8654C63.5278 49.8329 57.8275 55.122 50.7734 56.0162C40.0508 57.3755 32.3579 67.0222 33.4187 77.7784C34.1165 84.8546 30.2285 91.5889 23.7514 94.5226C13.9059 98.9821 9.39808 110.468 13.5822 120.433C16.3348 126.989 14.6044 134.571 9.27984 139.283C1.18615 146.447 0.264087 158.751 7.19974 167.04C11.7625 172.494 12.3436 180.248 8.64461 186.321C3.02194 195.551 5.76751 207.581 14.8385 213.458C20.8059 217.324 23.6469 224.563 21.9022 231.456C19.2501 241.934 25.4194 252.619 35.8196 255.561C42.6616 257.497 47.5099 263.577 47.8745 270.678C48.4287 281.472 57.4735 289.864 68.2789 289.61C75.3874 289.443 81.8124 293.824 84.2538 300.502C87.9651 310.653 99.0817 316.007 109.332 312.579C116.076 310.324 123.506 312.616 127.808 318.278C134.346 326.884 146.547 328.723 155.332 322.426C161.111 318.284 168.887 318.284 174.666 322.426C183.451 328.723 195.652 326.884 202.19 318.278C206.492 312.616 213.922 310.324 220.666 312.579C230.916 316.007 242.033 310.653 245.744 300.502C248.186 293.824 254.611 289.443 261.719 289.61C272.525 289.864 281.569 281.472 282.124 270.678C282.488 263.577 287.336 257.497 294.178 255.561C304.579 252.619 310.748 241.934 308.096 231.456C306.351 224.563 309.192 217.324 315.16 213.458C324.231 207.581 326.976 195.551 321.353 186.321C317.654 180.248 318.236 172.494 322.798 167.04C329.734 158.751 328.812 146.447 320.718 139.283C315.394 134.571 313.663 126.989 316.416 120.433C320.6 110.468 316.092 98.9821 306.247 94.5226C299.77 91.5889 295.882 84.8546 296.579 77.7784C297.64 67.0222 289.947 57.3755 279.225 56.0162C272.171 55.122 266.47 49.8329 265.051 42.8654C262.895 32.2744 252.7 25.3238 242.053 27.1855C235.049 28.4102 228.043 25.0362 224.633 18.7965C219.451 9.31176 207.66 5.67492 198.035 10.5921C191.703 13.8269 184.014 12.6679 178.916 7.71039Z" stroke="white" stroke-opacity="0.7" stroke-width="3.36771"/>
</svg>
