<svg width="22" height="20" viewBox="0 0 22 20" fill="none" xmlns="http://www.w3.org/2000/svg">
<path d="M12.1428 9.99993C14.4995 9.99993 16.5816 7.78075 16.7856 5.05264C16.8869 3.68212 16.457 2.404 15.5749 1.45445C14.7021 0.516514 13.482 0 12.1428 0C10.7928 0 9.57181 0.513389 8.7053 1.44553C7.82896 2.38793 7.40173 3.66872 7.49995 5.05175C7.70039 7.7803 9.78207 9.99993 12.1428 9.99993ZM21.4007 18.2034C21.024 16.1133 19.8476 14.3575 17.9994 13.1254C16.3579 12.0312 14.278 11.4285 12.1428 11.4285C10.0075 11.4285 7.92762 12.0312 6.28612 13.1249C4.43791 14.357 3.26158 16.1128 2.8848 18.203C2.79864 18.682 2.9156 19.1557 3.20578 19.5025C3.3374 19.6606 3.50265 19.7873 3.68949 19.8733C3.87632 19.9594 4.08001 20.0026 4.28568 19.9999H19.9999C20.2056 20.0028 20.4095 19.9597 20.5965 19.8737C20.7835 19.7878 20.9489 19.6611 21.0807 19.503C21.3699 19.1561 21.4869 18.6825 21.4007 18.2034ZM3.92854 11.4285V9.64279H5.71425C5.90368 9.64279 6.08536 9.56754 6.21932 9.43358C6.35327 9.29963 6.42853 9.11795 6.42853 8.92851C6.42853 8.73907 6.35327 8.55739 6.21932 8.42344C6.08536 8.28948 5.90368 8.21423 5.71425 8.21423H3.92854V6.42853C3.92854 6.23909 3.85329 6.05741 3.71934 5.92345C3.58538 5.7895 3.4037 5.71425 3.21426 5.71425C3.02482 5.71425 2.84314 5.7895 2.70919 5.92345C2.57524 6.05741 2.49998 6.23909 2.49998 6.42853V8.21423H0.714281C0.524842 8.21423 0.343162 8.28948 0.209208 8.42344C0.0752543 8.55739 0 8.73907 0 8.92851C0 9.11795 0.0752543 9.29963 0.209208 9.43358C0.343162 9.56754 0.524842 9.64279 0.714281 9.64279H2.49998V11.4285C2.49998 11.6179 2.57524 11.7996 2.70919 11.9336C2.84314 12.0675 3.02482 12.1428 3.21426 12.1428C3.4037 12.1428 3.58538 12.0675 3.71934 11.9336C3.85329 11.7996 3.92854 11.6179 3.92854 11.4285Z" fill="black"/>
</svg>
