<svg width="16" height="16" viewBox="0 0 16 16" fill="none" xmlns="http://www.w3.org/2000/svg"><path d="M0.5 1.53694C0.5 0.94011 0.996095 0.45599 1.60809 0.45599H14.3868C14.9987 0.45599 15.4949 0.94011 15.4949 1.53694V14.465C15.4949 15.0621 14.9987 15.546 14.3868 15.546H1.60809C0.996095 15.546 0.5 15.0621 0.5 14.465V1.53694Z" fill="#006699"/><path fill-rule="evenodd" clip-rule="evenodd" d="M5.0457 13.0879V6.2739H2.78086V13.0879H5.0457ZM3.91327 5.34356C4.70306 5.34356 5.19465 4.82032 5.19465 4.16643C5.17993 3.49782 4.70306 2.9891 3.92825 2.9891C3.15352 2.9891 2.64697 3.49782 2.64697 4.16643C2.64697 4.82032 3.13845 5.34356 3.8985 5.34356H3.91327Z" fill="#FFFFFF"/><path fill-rule="evenodd" clip-rule="evenodd" d="M6.29883 13.0879H8.56365V9.28266C8.56365 9.07901 8.57837 8.87556 8.63817 8.72999C8.8019 8.32309 9.17456 7.90168 9.80022 7.90168C10.6198 7.90168 10.9476 8.52654 10.9476 9.44256V13.0879H13.2122V9.18084C13.2122 7.08789 12.0949 6.114 10.6048 6.114C9.38298 6.114 8.8466 6.79693 8.54858 7.2621H8.56371V6.2739H6.29889C6.32861 6.91327 6.29883 13.0879 6.29883 13.0879Z" fill="#FFFFFF"/></svg>