<svg xmlns="http://www.w3.org/2000/svg" fill="none" width="310" height="592" viewBox="0 0 310 592"><path fill="#FFC29E" d="M259.9 366c-2.4 5.8-13.3-1-13.3-1s1.3-5.4 1.7-13.3c.2-5.7-1-18.4-2.7-32.8v-.2a988 988 0 0 0-2-16.4c-2.8-20.4-1.4-27.5-3.5-37.1-1.8-8.7-8.1-22.3-9.3-24.8l-.2-.4h.1l33.3-14 2.3 6.1c3 8.4 8 23.6 8.2 34.5.3 15.6-12.3 93.7-14.6 99.5Z"/><path fill="#E88479" d="M244.1 303.6c.7 6 1.2 11.1 1.5 15.1l-2.1-16.4c-2.8-20.4-1.4-27.5-3.4-37.1-1.9-8.7-8.2-22.3-9.4-24.8v-.5l33.2-13.9 2.3 6.1c-5 3.3-25.7 16.4-27 17.4-1.3 1.2 3.3 8.6 3.6 18.5.2 10-.3 22 1.3 35.6Z" opacity=".3"/><path fill="#273752" d="m20.3 183.7-3.2.7a2 2 0 0 0-1.6 2.2l1 7.1a2 2 0 0 0 2.2 1.7l3.1-.5-1.5-11.2Z"/><path fill="#FFC29E" d="M108.3 238.3a92.7 92.7 0 0 1-8 12.2c-11.7 16.5-29.6 37-36 37.3-2.7.1-5.8-.9-8.9-2.9a54.9 54.9 0 0 1-18.6-23.1c-7.2-15.6-18.3-76.3-18.3-82.8 0-6.6 7.7-17.5 11.8-1.1a134 134 0 0 0 16.8 38.6c10.2 15.2 17 27.9 17 27.9l10.6-20.8 1.4-2.8.7-1.2s17.9 1.2 27.2 6.7l.7.4c4.2 2.7 6.4 6.5 3.6 11.6Z"/><path fill="#E88479" d="M108.2 238.3c-9 16-35.8 49.1-44 49.5-2.6.1-5.7-.9-8.8-2.9 3.3 1.4 6.8 2 9.4.9 6.8-3 34.2-39.8 33-41.2-1.1-1.3-12.8-6.9-23.1-21l1.4-2.8 28.5 5.9c4.3 2.7 6.5 6.5 3.6 11.6Z" opacity=".3"/><path fill="#DADFF2" d="M110.7 239.7v.1c-1.3 2.5-3 3.7-5.3 3.2l-.9-.2c-1-.5-2-1-3.2-1.4a130 130 0 0 1-26.7-17.8l-1.4-1.2 2.4-5c5.5-11.4 19.6-39.3 29-46.5l6.7 14.5s5.5 41.8-.6 54.3Z"/><path fill="#E3E9FF" d="M110.7 239.8c-1.4 2.7-3.4 4-6.1 3-15-5.9-31.3-20.4-31.3-20.4l2.4-5c9.9 10 26.5 18.4 35 22.4Z"/><path fill="#4A2206" d="M96 328s-11 6.7-12.9 12c-1.9 5.3-.7 32.8.4 35.7 1.1 2.8 5.5 1.7 5.5 1.7l12.7-29.2-5.6-20.1Z"/><path fill="#5E2B07" d="M95.7 342.3s-8.6 5.1-10.2 8.1c-1.8 3 4.9 58.1 6.4 62 1.5 4 12.1 6.7 12.1 6.7l-8.3-76.8Z"/><path fill="#8A3F0B" d="m142.2 576.9.5 11.1-16.8 1.9-1-5.6s-5.2 4.3-8 5.4c-3 1.2-38.6-1.7-38.6-1.7s2.3-6 5.8-8.1c3.6-2.1 8.7.9 15.7.6 7-.2 17.3-11.7 17.3-11.7l25 8Z"/><path fill="#5E2B07" d="M144.3 585.7v6.3H124l.3-3.8 20-2.5Zm-19.5-1.3s-5.8 2.9-9.2 3.7c-3.4.8-38.6-3-38.6-3v6.9h36.2c4.7 0 11.6-7.6 11.6-7.6Z"/><path fill="#B0500E" d="M82 583.4c.2-.3 2.3-2.7 4.3-3.2 2-.6 11.5 1.5 11.5 1.5s-9.1-.6-11.3-.2c-2 .5-4.4 2-4.4 2Z"/><path fill="#5E2B07" d="m101.2 580.2 5.2 2.7 1-1-4.3-2.5-1.9.8Zm4.8-2.5 4.4 2.5 1.1-1-3.8-2.2-1.6.7Z"/><path fill="#8A3F0B" d="m224.1 576.9-.5 11.1 16.8 1.9 1-5.6s5.2 4.3 8 5.4c3 1.2 38.6-1.7 38.6-1.7s-2.3-6-5.8-8.1c-3.6-2.1-8.7.9-15.7.6-6.9-.2-17.3-11.7-17.3-11.7l-25 8Z"/><path fill="#5E2B07" d="M222 585.7v6.3h20.3l-.3-3.8-20-2.5Zm19.5-1.3s5.8 2.9 9.2 3.7c3.4.8 38.6-3 38.6-3v6.9h-36.2c-4.7 0-11.6-7.6-11.6-7.6Z"/><path fill="#B0500E" d="M284.2 583.4c0-.3-2.2-2.7-4.2-3.2-2-.6-11.5 1.5-11.5 1.5s9.1-.6 11.3-.2c2 .5 4.4 2 4.4 2Z"/><path fill="#5E2B07" d="m265 580.2-5.1 2.7-1-1 4.3-2.5 1.9.8Zm-4.8-2.5-4.3 2.5-1.1-1 3.8-2.2 1.6.7Z"/><path fill="#9E6CA1" d="m110 239.2.7.4v.2c-1.3 2.4-3 3.7-5.3 3.2l-5.1 7.5c.2-2.4.5-5.7 1-9.1l.9-5.2 1.8-9.9a94.1 94.1 0 0 1 4.2-17l4.6 9.4c-.7 7-1.8 14.3-2.9 20.5Z" opacity=".3"/><path fill="#E6E9F4" d="M267.4 231.4 231.1 250l-4.1 2.3-1.7-5.1-10.7-25s-18.9 35.8-20.2 57.4c0 .8-.3 1.5-.5 2.1-7.3 17.6-91.6-6.2-91.6-6.2s-.4-5.7-.1-15a278.8 278.8 0 0 1 6-51.2c-3.3-10.8-11.6-28.3-7.3-35 2.9-4.5 22.4-15.9 35-23l4.3-2.4 6.7-3.7 4.6-23.1 34.8-10.8-.9 30.1 10.2 5.1 4.5 2.4c14.4 7.6 35 19.2 40.5 26.8a266.8 266.8 0 0 1 26.8 55.7Z"/><path fill="#C1CCD6" d="M127.2 157.2c0 1.1 5.7 45.7 7.2 47.9 1.5 2.2 45 2.8 45 2.8l-6.6 14.5-44.5-9.9-1.1-55.3Z" opacity=".7"/><path fill="#F1F4FF" d="m267.4 231.4-40.4 21-1.7-5.2 40.8-20.1 1.3 4.3Z"/><path fill="#C1CCD6" d="m231.1 250-4.1 2.3-1.7-5.1-10.7-25s-18.9 35.8-20.2 57.4c0 .8-.3 1.5-.5 2.1l-2 1.7s-21.7-54.4-15.3-66.9c6.3-12.5 41.7-55.7 41.7-55.7l-28.6 59.7s3.1 30.5 4.6 34.9c1.6 4.4 20.5-36.9 20.5-36.9L231 250Z" opacity=".7"/><path fill="#E3E9FF" d="M200.1 149c-12 7.3-37.5 18.4-64 2.3l4.1-2.4 6.8-3.7 4.6-23.1 34.7-10.8-.8 30.1 10.1 5.1 4.5 2.4Z"/><path fill="url(#a)" d="m192.5 329.7-5.5.5-1.3.2-91 9.3.1-4.9a871 871 0 0 1 2.9-60.6 272 272 0 0 1 16.5-51.6 150.2 150.2 0 0 1 5.9-12.7c.6-.8 6-1 13.4-1a958.5 958.5 0 0 1 52 2.3l1.1 11.7c1.2 10.8 3.4 27.1 6.8 40v.2l.7 2.7.2.7a336 336 0 0 1 3.9 16c.5 4.6-5.7 47.2-5.7 47.2Z"/><path fill="#102676" d="M134.2 218.3a7 7 0 0 1-6.3 6.8 7 7 0 0 1-8.2-6.3l-.6-7.3 1-1.6c.7-.8 6-1 13.4-1l.7 9v.4Z"/><path fill="url(#b)" d="m113.4 160.3 4.8 57.7c.3 4 4 6.8 8.2 6.3a7 7 0 0 0 6.2-7.3l-4.6-63.8-14.6 7Z"/><path fill="#102676" d="m186.7 222.9-2 3.6a8 8 0 0 1-13.9-7.6l4.5-8.3 10.3.6s.3 4.7 1 11.7Z" opacity=".5"/><path fill="url(#c)" d="m206.4 149.7-36.2 67.1a8 8 0 0 0 14 7.6l36.5-66.2-14.3-8.5Z"/><path fill="#142457" d="M123.8 209.5c-.7 7 1.7 12 1.7 12s1.5-5.8-1.7-12Zm56.4 6.3a19.3 19.3 0 0 0-5.7 9.2s4.5-3 5.7-9.2Z" opacity=".5"/><path fill="#90420C" d="m130.7 229-9 52.4h7.7l6.9-52.5h-5.6Z"/><path fill="#C1CCD6" d="m122.9 230-1 8.2 16 .4 7.1-1.7c1.2-.3 1.7-1.9.6-2.5l-6-3.9-16.7-.5Z"/><path fill="#FFA001" d="m162.7 256.2-9-.8 4.1-22.3a5 5 0 0 1 5.3-3.8 4 4 0 0 1 3.7 4.6l-4.1 22.3Z"/><path fill="#C4611A" d="M159.7 234.5c-.6 0-1.2.4-1.3 1l-3.7 20 2.1.2 3.8-20c0-.6-.4-1-1-1.2Zm4.1.3c-.6 0-1.2.4-1.3 1l-3.7 20 2.1.2 3.7-20a1 1 0 0 0-.8-1.2Z"/><path fill="#F97314" d="M185.8 329.2v1.2l1.2-.2.1-.9-1.3-.1Zm.6-5.3-.3 2.6 1.3.2.3-2.7-1.3-.1Zm.6-5.3-.3 2.6 1.3.2.3-2.7-1.3-.1Zm.6-5.3-.3 2.7 1.3.1.3-2.6-1.3-.2Zm.6-5.3-.3 2.7 1.3.1.3-2.6-1.3-.2Zm.6-5.2-.3 2.6 1.3.2.3-2.7-1.3-.1Zm.6-5.3-.3 2.6 1.3.2.3-2.7-1.3-.1Zm.6-5.3-.3 2.6 1.3.2.3-2.7-1.3-.1Zm.6-5.3-.3 2.6 1.3.2.3-2.7-1.3-.1Zm.6-5.3-.3 2.6 1.3.2.3-2.7-1.3-.1Zm.7-5.3-.3 2.7 1.2.1.3-2.6-1.2-.2Zm.6-5.3-.3 2.7 1.3.1.3-2.6-1.3-.2Zm1.6-5.2h-1l-.4 2.6 1.3.1.3-2-.2-.7Zm-.7-2.8v.1-.1Zm-15.9-39.6a3.2 3.2 0 1 0 0-6.4 3.2 3.2 0 0 0 0 6.4ZM125 219a3.2 3.2 0 1 0 0-6.3 3.2 3.2 0 0 0 0 6.4Z"/><path fill="#1890FF" d="m142.3 244-7 39.8h-3.1l-16.3-.5 4-39.5h3.2l16 .1h3.2Zm29.6.1-9.4 40.5H161l-1.4-.1-17.5-.5 7.6-40h3l15.7.1h3.5Z"/><path fill="#1A3BBD" d="M120.5 255.9h1.4l.3-2.6h-1.5l-.2 2.6Zm-.5 5.1h1.4l.3-2.6h-1.5l-.2 2.6Zm1-10.3h1.4l.3-2.6h-1.5l-.2 2.6Zm2-6.9-.1 1.8h-1.4l.1-1.8h1.5Zm-3.5 22.4h1.4l.2-2.6h-1.4l-.2 2.6Zm-1.6 15.4h1.5l.2-2.5h-1.4l-.3 2.5Zm.5-5.1h1.5l.2-2.6h-1.4l-.3 2.6Zm.6-5.2h1.4l.3-2.6h-1.5l-.3 2.6Zm21.6-27.3-.4 1.9-1.4-.1.3-1.9h1.5Zm-4.6 18.1 1.4.1.5-2.7h-1.4l-.5 2.6Zm-1 5.5h1.5l.4-2.6-1.4-.1-.5 2.7Zm2.9-16.4 1.4.1.5-2.7-1.4-.1-.5 2.7Zm-3.8 21.8 1.4.1.5-2.7-1.4-.1-.5 2.7Zm2.9-16.3h1.4l.4-2.6-1.4-.1-.5 2.7Zm-3.8 21.7 1.4.2.5-2.8h-1.5l-.4 2.6Zm.9 2.9-.4 2.5h-1.5l.5-2.6h1.4Zm17.6-32.1-1.5-.1-.5 2.7 1.5.1.5-2.7Zm.9-5.2-.4 2.5h-1.5l.5-2.5h1.4Zm-7.9 34.6 1.4.1.5-2.7-1.4-.1-.5 2.7Zm3-16.1 1.5.1.4-2.7h-1.4l-.5 2.6Zm-1 5.3 1.4.2.5-2.7-1.4-.1-.5 2.6Zm-1 5.4 1.4.1.5-2.7h-1.4l-.5 2.6Zm3.5-18.8-.5 2.7 1.5.1.4-2.6-1.4-.2Zm-3.6 27-1.4-.1-.5 2.6 1.4.2.5-2.7Zm20.4-26.8 1.4.2.6-2.6-1.4-.1-.6 2.5Zm1.1-5.1 1.4.2.6-2.5-1.4-.2-.6 2.5Zm2.7-5.4-.2.5-1.4-.2.1-.3h1.5Zm-4.9 15.6 1.4.2.5-2.6-1.4-.1-.5 2.5Zm-3.6 23-.4 1.8h-1.4l.4-2 1.4.2Zm.2-7.7 1.5.1.5-2.5-1.4-.2-.6 2.5Zm-1.1 5 1.4.2.6-2.5-1.4-.2-.6 2.5Zm2.3-10.1 1.4.1.5-2.5-1.4-.2-.5 2.6Zm1.1-5.1 1.4.1.6-2.5-1.5-.2-.5 2.6Z"/><path fill="url(#d)" d="M251.7 566.3c-6.8 10.8-29.2 13.2-29.2 13.2s-16.7-57.1-28.4-91.7c-5.5-16.4-12.3-36.6-19.6-56-8-21.6-16.8-42.1-25.2-55.4-4.4-1.5-15.6 1.9-15.6 1.9s-1.9 27.4-.8 62c.4 11.4 1 23.6 2.3 35.9 4.8 49.1 10.6 100.7 10.6 100.7s-19.5 4.9-34-6.8a478 478 0 0 0-7.3-129.5 517.3 517.3 0 0 1-8.4-54.8v-1.5c-2-20.8-2-39-2-39L194.2 334a1240.5 1240.5 0 0 0 5.6 37.7c2.2 12.4 5.1 27.7 8.8 43.1 8.7 36.5 20.6 110.7 43 151.5Z"/><path fill="#0B308F" d="m139.9 340.1 1.4 27.7-6.2 1.8-5.2-27-1.3.4 5.5 28.4 8.6-2.3-1.5-29h-1.3Z"/><path fill="#78370A" d="m91.6 334.4 1 12.1 103.8-6.8-1-11.7-103.8 6.4Z"/><path fill="#1A99FF" d="m163.9 344.2-1.7-16.3 6.7-.7 1.1 16.1-6.1.9Zm-59.1 4.3-1.2-16.6 6.4.2.7 16.4h-5.9Z"/><path fill="#273752" d="m34.8 189.2-16.7 5-.8-9 15.4-3.8 2.1 7.8Z"/><path fill="url(#e)" d="m33.7 188.3-15 4.5-.6-6.6 13.8-3.4 1.8 5.5Z"/><path fill="#1C2433" d="M25.3 188.2a.6.6 0 1 0 0-1.2.6.6 0 0 0 0 1.2Zm-3.8.8a.6.6 0 1 0 0-1.2.6.6 0 0 0 0 1.2Zm7.1-1.5a.6.6 0 1 0 0-1.2.6.6 0 0 0 0 1.2Z"/><path fill="#0B308D" d="M174.5 432.3c-8-21.5-16.8-42-25.2-55.4-4.4-1.4-15.6 2-15.6 2s-2 27.4-.8 62c-3.3-21.5-.9-58.4-1.6-59.5a81 81 0 0 0-10.4-6.4s8.4 1.6 11.4 2c3 .4 16.5-3 18.3-3.2 1.8-.2 9.6-6.2 9.6-6.2s-6.6 7.2-7.4 8.8c-.8 1.6 17.3 37.6 21.7 56Z"/><path fill="#FFC29E" d="M195.6 146.5c-11.8 7-33 15-55.4 2.4l6.8-3.7 4.6-23.1 34.7-10.8-.8 30.1 10.1 5.1Z"/><path fill="#30130D" d="M202.7 333.2c-6.5 1.8-19.4 9.2-21 8.2a94.8 94.8 0 0 1-10.4-13.3c1.3-.2 26.6-4.5 29-1.6.4.5 1.2 3 2.4 6.7Z"/><path fill="#8A3F0B" d="M217 407.6c-3 3.8-26.3 5.1-26.3 5.1l-19.4-84.6c.3 0 10.3 8.8 10.9 9.3 1.7 1 14-2.4 20.5-4.2 5 16.6 13.7 58.8 14.5 71 0 1.8 0 3-.3 3.4Z"/><path fill="#30130D" d="M182.2 337.4c-2.2-1.3-10.9-9.3-10.9-9.3.3 0 10.3 8.8 10.9 9.3Z"/><path fill="#5E2B07" d="M217 407.6c-3 3.8-26.3 5.1-26.3 5.1l-19.4-84.6c.3 0 10.3 8.8 10.9 9.3 0 0 11.8 66.8 14.3 68.2a90 90 0 0 0 20.7-1.3c0 1.7 0 2.9-.3 3.3Z"/><path fill="#A1490D" d="M171.3 328.1s16.3 1.1 18.8 4.1c2.6 3 8.6 29.6 8.6 29.6s12.3-1 14.8-3.5c2.6-2.6-2.7-25-6.2-30a12.1 12.1 0 0 0-11.4-5.5c-2.7.3-24.6 5.3-24.6 5.3Z"/><path fill="#C48153" d="m201.6 354.5 1 2.8 9-2-.8-2.4-9.2 1.6Z"/><path fill="#C1CCD6" d="M162.5 287.3c8.8-2 17.4 3.7 19.3 12.4v.3l17 77.6c.5 2.5-1.1 5-3.6 5.5-1.2.3-2.5 0-3.5-.6-1-.7-1.7-1.7-2-3L172.8 302l-22.7 5v-.3a16.2 16.2 0 0 1 12.4-19.3Z"/><path fill="#372F57" d="m179.3 331.8 10.4 47.8c.3 1.3 1 2.3 2 3 1 .6 2.3.8 3.5.6 2.5-.6 4-3 3.5-5.5l-10.3-47.8-9 2Z"/><path fill="#697582" d="m168 312.7-18 4 .7 3 18-4-.7-3Z"/><path fill="#C1CCD6" d="M152.8 319.2a8 8 0 0 0 9.6 6.2l14.8-3.3-1.7-7.8-22.7 4.9Z"/><path fill="#C1CCD6" d="M153.6 319a8 8 0 0 0 9.3 5.1l14-3v-.6l-13.5 3c-2.2.4-4.4 0-6.1-1.1-1.3-.9-2.4-2-3-3.5l-.7.1Z" opacity=".5"/><path fill="#888F96" d="m181.1 305.5-5.4 1.2 2.8 12.8 5.4-1.1-2.8-12.9Z"/><path fill="#C1CCD6" d="M181 309.4c-1.3-2-4-1.7-4-1.7a6 6 0 0 0 4 1.7Zm.5 1.9c-1.4-2-4-1.7-4-1.7s1.4 1.7 4 1.7Zm.5 2c-1.5-2-4.1-1.7-4.1-1.7a6 6 0 0 0 4 1.7Zm.3 2c-1.4-2-4-1.8-4-1.8s1.5 1.7 4 1.8Zm.5 1.9c-1.4-2-4-1.7-4-1.7a6 6 0 0 0 4 1.7Z"/><path fill="#C1CCD6" d="M151.7 307.5v.3l1.3-.3c-1.4-8.3 3.2-16 10.5-17.7 7.5-1.6 15.1 4 17 12.7l16.4 75.2c.5 2.3-.7 4.6-2.6 5.2h.3c2.3-.6 3.8-3 3.3-5.5l-16.6-76.3c-2-8.7-10-14.4-18.3-12.6-8.2 1.7-13.3 10.3-11.3 19Z" opacity=".5"/><path fill="#697582" d="m166 303.5-18 3.9.7 3 18-3.9-.7-3Z"/><path fill="#8A3F0B" d="M207.1 410.9c-7.5 1.3-16.4 1.8-16.4 1.8l-19.3-84.6c.3 0 10.2 8.8 10.8 9.3 1 .5 4.7-.1 9-1.2a6197.5 6197.5 0 0 0 16 74.7Z"/><path fill="#5E2B07" d="M207.1 410.9c-7.5 1.3-16.4 1.8-16.4 1.8l-19.3-84.6c.3 0 10.2 8.8 10.8 9.3 0 0 11.8 66.8 14.4 68.2.7.4 4.3.3 9.3-.1a82 82 0 0 0 1.2 5.4Z"/><path fill="url(#f)" d="m211 56.6-1.4 2a50 50 0 0 0-5 13.2c-2.6 11.2-7 18.3-8.9 23.1-2 4.8-5.6 12.5-5 17 .5 4.2-.6 7.1-5.3 11.2l-1.3 1-1.5 1c-4.7 3-8 2-12.4 6.8l-.9 1c-1 1.2-1.9 1.9-2.9 2.5-4.6 2.3-9.1-1.2-9.1-1.2s-2.2.7-5.2 1.2c-2.6.4-5.7.6-8.3-.2-.9-.3-1.7-.7-2.5-1.2-5-3.8-2-6.7-8-10.9a14 14 0 0 1-2.5-2.3c-3.2-4-2.7-9-1.3-14.5 1.8-6.5-1.7-8.6-1.3-13a14.7 14.7 0 0 1 3.3-7.5l.6-1.3 4.1-9.6s-6.8-14.3-4.6-21a36 36 0 0 0 2.2-10.4v-5.7a9.2 9.2 0 0 1 1-4.8c1.3-2.5 3.6-4 5.2-6.4 1-1.3 1.9-3.4 3-5.7 2-4.2 4.6-9.1 9.4-11.9a23 23 0 0 1 5-2.2c4-1.2 6.1.2 7.8 2.5 2.4 3 7.4-.4 14-1.6a11 11 0 0 1 4.8.1c3 .8 5 3.2 6.7 6l.7 1.2a6 6 0 0 0 3.9 2.8c2 .6 4.2 1 6.3 3.8l1.2 2c3.6 6.6 5.7 8.4 8 11.4 1.4 3.6.8 20.7.1 21.6Z"/><path fill="#781642" d="m168.6 94-.1.7c-.3 1-.7 2.7-1.5 4.7-1 2.7-2.5 5.7-4.6 7.3-.8.6-1.6 1-2.6 1-3.2.2-5.6.1-7.1 0l-2.2-.3-.7-2a81 81 0 0 1-.9-2.5l-2.1-6.2-1-3 20.7.2h2.1Z"/><path fill="#E55757" d="M168.5 94.7c-.3 1-.7 2.7-1.5 4.7-1 2.7-2.5 5.7-4.6 7.3-5.2 0-10.4-1.8-10.4-1.8.9-5.7 7.3-8.8 9.4-9.6 1.6-.5 5.3-.6 7-.6Z"/><path fill="#fff" d="M167 99.4c-1.3 3.8-3.7 8.2-7.2 8.4-3.2.2-5.6 0-7.1-.1a9.5 9.5 0 0 1-3-2.3c-1.1-1.5-1.4-2.8-1.4-2.8l.6.4c4.6 2.5 13.8 1.1 17.5-3l.6-.6Zm-.5-5.4c-1.7 1.6-12.8 6.7-19.8 2.7l-1-3 20.8.2Z"/><path fill="#F8B59A" d="M143.1 93.7c2.9 3 16.7 1.5 16.7 1.5S156 92 151 91.5c-5-.6-8 2.2-8 2.2Zm7.7 12c-2.2.2-2.7 2.1-.3 3.6 1.7 1 10.8 1.8 14.2-1.5 3.3-3.3 2.7-11.6 2.7-11.6s-1.6 7-5.5 9c-3.9 1.9-9.8.4-11.1.5Z"/><path fill="#F8B59A" d="M151.7 106c-3-1.3-5.4-10-5.4-10s.5 7.4 2.2 10.6c1.7 3.3 2.3 2.8 4.7 2.8 2.4.2-1.5-3.4-1.5-3.4Z"/><path fill="#873F2A" d="m183.7 89.1-.3 1.5s-5.5 9.8-17.6 9c-12-.9-15.3-6-15.3-6s-5.2 5-11.9 4c-5.5-1-7.4-7.7-8.2-10.3.5-.9 1-1.4 1.1-1.5l.6-1.3 51.6 4.6Z" opacity=".6"/><path fill="#944734" d="M190 23.8c4.6 0 8.8-1.2 11.6-2.2-2.2-2.8-4.4-3.1-6.4-3.7a58 58 0 0 0-4.2.5c-8.5 1.5-15.5 8.3-8 17l2.1.4c-5.7-5.4-3.4-12 4.9-12Zm-23.4-4.4c10.4-1.3 14.3-4.8 17.1-6 2.9-1.2 4.2-2.2 6.1 0 .3.3.6.5 1 .5-2-3-3.8-5.3-6.9-6-3.7.4-5.4 4.1-12.2 5.6-6.7 1.5-12.3 3.5-14.6 8.3-3 6-2.2 11.4 3.6 13.5-7.2-4.6-4.6-14.7 5.9-16ZM152.3 9a25.5 25.5 0 0 0-9.4 12c-.4 3.6.7 7 3.3 7.8-2.8-6.4 1.8-17.3 11.1-22a23 23 0 0 0-5 2.2Zm-9 26.2c-4.1.6-6.8-.5-8.5-2.2-.4.6-.7 1.4-.8 2.2 2.3 1 5.3 2 8.2 1.6 6-.8 3.2 2.3-1.9 4.5-2.3 1-4.6 1.3-6.5 1.2v1c2.1-.2 4.8-.1 7.1 1 4.4 2.2 8.1-6.5 7.8-8-.4-1.7-5.4-1.3-5.4-1.3Z" opacity=".3"/><path fill="#FFC29E" d="M195.2 54.2s-2 27-8.7 33.8c-6.9 6.8-21.4 5.7-33.9 3.4-12.5-2.3-21.1-4.9-21.1-4.9l.7-8.2.1-1.4a268.4 268.4 0 0 1 4.5-29l1.2-4.1c4.4-13.4 8.6-14.7 8.6-14.7 3 6.3 26.2 10.3 44.7 4.5-2.6 13.4 4 20.6 4 20.6Z"/><path fill="url(#g)" d="M153 66.8c-1 5.5-6.8 13.3-6.8 13.3l-14-1.8V77a268 268 0 0 1 4.6-29c5-1.9 15.5 0 15.5 0s1.9 13.4.8 18.8Z"/><path fill="url(#h)" d="M162.4 55.4a27.6 27.6 0 0 0-2.9 22.4c1.1 3 22.5 3.3 25 .3 2.6-3 2.2-18.5 1.4-20.6-1-2-8.6-3.7-9-3.9-.6-.2-14.5 1.8-14.5 1.8Z"/><path fill="#E88479" d="M153 54.6s.5 12.4-1.6 17.5c-2 5-7.9 10.1-8.3 12.6-.4 2.4 8.3 5 8.3 5s-6.6-3-6.6-5.2c0-2 5.4-5.4 7.6-12.4 2.4-6.9.7-17.5.7-17.5Z"/><path fill="#BD4F4F" d="M155.3 89s5.5-3.5 6.8-2.5c1.3 1-1.8 2.7-6.8 2.4Z"/><path fill="#E88479" d="M160.5 81s6 1.7 5.5 5.2c1.7-3.8-.7-5.4-5.5-5.2Z" opacity=".4"/><path fill="#5E313B" d="m167 63.7-.2 2.1 14 6.3s.4-5-1.3-6.4c-1.6-1.4-12.5-2-12.5-2Z"/><path fill="#fff" d="M167 65.2c-1.5 2.8-1 7.7-1 7.7l15-.3s.1-4.2-1.6-5.6a43.7 43.7 0 0 0-12.3-1.8Z"/><path fill="url(#i)" d="M173.6 74.6a4.8 4.8 0 1 0 0-9.6 4.8 4.8 0 0 0 0 9.6Z"/><path fill="#fff" d="M169.6 68.3a1 1 0 1 0 0-2 1 1 0 0 0 0 2Z"/><path fill="#5E313B" d="m150 62.3-.2 2.1-12 4s.6-5 2.1-6.1c1.6-1.1 10 0 10 0Z"/><path fill="#fff" d="M149.7 63.8c.7 3-.5 7.7-.5 7.7L137.7 69s.6-4.2 2-5.4c1.6-1.1 10 .3 10 .3Z"/><path fill="url(#j)" d="M143.9 66.8c-.5 2.7.8 5 2.9 5.3 2 .3 4-1.6 4.4-4.2.5-2.6-.8-5-2.8-5.3-2-.3-4 1.6-4.5 4.2Z"/><path fill="#fff" d="M145.7 65.3c0-.6-.4-1-1.1-1.1-.7 0-1.2.3-1.3 1 0 .5.5 1 1.1 1 .7.1 1.3-.3 1.3-.9Z"/><path fill="#5E313B" d="M187.2 58.6c-.3-.1-3.6-1.3-6.5-2.1l-1-.3-1.8-.4H174c-1.2 0-2.5.2-3.8.4-1.3 0-2.5.3-3.6.4l-4.3.6-.7-5.7 2-.5.4 5 .8-5 1.3-.1 2.2-.2h5.6a23.1 23.1 0 0 1 5.5.6l.7.4 1.3.8c2.9 2 5.6 5.8 5.8 6ZM153.7 43l-1 6.3h-3.8l-3.4-.2H144a88.7 88.7 0 0 0-5.7 0l-1.3.5-1.1.5a18 18 0 0 0-2 1.4s.6-4.7 2-5.6l.3-.1 1-.4 2.6-.5 4.2-.8 1.5-.2 1.7-.3.8-.1 1.3-.2 1.9-.3v4.3l1-4.4 1.4.1Z"/><path fill="#ED7A3C" d="M216.3 77.4c0 .3 0 .5-.2.7 0 .3-.3.5-.5.7-.7.7-1.8 1-2.8.5l-1.9-.9-18.4-8.8-1.6-2.8-1.6-3 3.3-.2 3.5-.2 17.8 10.8 1.3.8c.8.5 1.2 1.5 1.1 2.4Z"/><path fill="#FAA357" d="M216.3 77.4c0 .3 0 .5-.2.7 0 .3-.3.5-.5.7l-23-12.1 1-1.6 22.7 12.3Z"/><path fill="#F1DEC1" d="M195.7 66c.5 2.6-2.3 1.4-2.3 1.4s1.5 2.8-.9 2.2l-1.6-2.8-1.6-3 3.4-.2 3.4-.2s2.2 2.4-.4 2.5Z"/><path fill="#353C4D" d="m191 66.8-1.7-3 3.4-.2c.3 1.2.3 3-1.8 3.2Z"/><path fill="#AEB6D1" d="M216.3 77.4c0 .3 0 .5-.2.7 0 .3-.3.5-.5.7-.7.7-1.8 1-2.8.5l-.7-.3-1.2-.6a3.9 3.9 0 0 0 3-4.2l1 .7.3.1c.8.5 1.2 1.5 1.1 2.4Z"/><path fill="#EBD1D8" d="M216.3 77.4c0 .3 0 .5-.2.7 0 .3-.3.5-.5.7-.7.7-1.8 1-2.8.5l-.7-.3c2.2-.6 3-2.5 2.8-4.1l.3.1c.8.5 1.2 1.5 1.1 2.4Z"/><path fill="#8C52B0" d="M215.6 78.8c-.7.7-1.7 1-2.7.5l-2-.9-18.4-8.8-1.6-2.8-1.6-3 4.8 5c.8.7 21.5 10 21.5 10Z" opacity=".6"/><path fill="#FFC29E" d="M210 80.3c-1.2 6.3-9.7 18.8-11.8 18.7h-.4c-2.2-.6-6.4-4-6.7-5.5-.3-1.6 4-17 7.6-20.5 0 0 8-2 9.1-.7.5.6 1.2 2 1.7 3.5.5 1.6.8 3.3.6 4.5Z"/><path fill="url(#k)" d="M210 80.3c-1.2 6.3-9.7 18.8-11.8 18.7h-.4c5.3-8.8-2.2-9-2.2-9s5.1-11.3 13.1-14l.8-.2c.5 1.6.8 3.3.6 4.5Z"/><path fill="#E88479" d="M197.4 89.1s3 .2 3 3.4a8 8 0 0 1-2.6 6.5c5.3-8.8-2.2-9-2.2-9s5.1-11.3 13.1-14h.1a31 31 0 0 0-11.4 13.1Z"/><path fill="url(#l)" d="M183.2 88.3c-2.5 6.4-8 9.2-14.2 9.6a29 29 0 0 1-7.2-.4 28 28 0 0 1-11-5.5h-.1a20.5 20.5 0 0 1-10 4.2c-1.9.3-3.5-.4-4.9-1.5a14 14 0 0 1-3.5-4.3 26.3 26.3 0 0 1-2-5V85a9 9 0 0 0 4 1.8l.6.1c2 .4 2.8.4 4 .4h1.2c.9 0 2 .2 3.5.4 5.1.7 6 1.9 9.2 1.9 6.9 0 7.3-1.3 12.7-.9 3 .2 6 1.1 8.9 1.5h1.1c2.7.3 5.4-.1 7.7-2Z"/><path fill="#873F2A" d="M150.7 92a20.6 20.6 0 0 1-10 4.2c-1.9.3-3.5-.4-4.9-1.5a14 14 0 0 1-3.5-4.3 26.3 26.3 0 0 1-2-5s4 9.7 8.7 10.1c4.4.4 11.2-3.2 11.7-3.5Zm32.5-3.7c-2.5 6.4-8 9.2-14.2 9.6a29 29 0 0 1-7.2-.4 28 28 0 0 1-11-5.5c1 .7 9.5 6 16.7 5.3 10.3-1 13.4-4.2 15.7-9Z" opacity=".5"/><path fill="#73331C" d="m136 50.1 1-.5.4-4.2-1.1.4-.3 4.3Zm3.6-1.1h4.5v-4.9l-4.2.8-.3 4.2Zm8.5-5.5-.4 4.9-.4-4.8c-.6 0-1.1.2-1.7.3l-.1 5.2h3.4l.4-5.8-1.2.2ZM168.6 55l-.3-4.3-2.1.2.4 5.7 3.6-.4.6-5.5h-1.6l-.6 4.3Zm5.4.8h1.6v-5l-1.7-.1.1 5Zm6.2-4.1-.4 4.5.9.3.7-4-1.2-.8Z" opacity=".3"/><path fill="#1A99FF" d="m216.7 573.5 2 8s18.3-2 37-11.4c-2.6-5-2.9-12-2.9-12s-20.3 11.5-36.1 15.4Zm-108.4-13.1c13 7.6 41.4 10.6 41.4 10.6l-3.4 10.6s-23 0-35.8-9.5c-.3-6.6-2.2-11.7-2.2-11.7Z"/><path fill="#5E2B07" d="M134.4 339.3c.8 0 1.5-.8 1.5-1.8s-.7-1.8-1.5-1.8c-.9 0-1.5.8-1.5 1.8s.6 1.8 1.5 1.8Z"/><path fill="#C1CCD6" d="M144 330c-.4-.8-17.8-.2-18.5 1.4-.6 1.3 0 12.8 1 13.9.7 1 17.2 0 17.8-.8.6-.9 0-13.6-.4-14.4Zm-1.2 13a84.5 84.5 0 0 1-15 .7c-.5-2-1-9.1-.8-11.1a62.4 62.4 0 0 1 15.5-1c.2 2.3.5 9.2.3 11.4Z"/><path fill="#C1CCD6" d="m143.4 336-9 .4s-.6.4-.5 1c0 .8.6 1 .6 1l9-.3V336Z"/><path fill="#2C6BC4" d="M224.8 401.7c0-.5 4.5-19 6.2-20.5 1.6-1.5 20-1.1 21.2-.1 1.1 1 6.4 20.9 6.4 20.9l-4.8-.1s-3.2-11.9-4.4-13.4c-1.3-1.5-13.7-1-15.2-.6-1.4.3-4.5 14.4-4.5 14.4l-5-.6Z"/><path fill="#2431A0" d="M229.5 401.7c0-.5 4.5-19 6.2-20.5 1.6-1.5 20-1.1 21.2-.1 1.1 1 6.4 20.9 6.4 20.9l-4.8-.1s-3.2-11.9-4.4-13.4c-1.3-1.5-13.7-1-15.2-.6-1.4.3-4.5 14.4-4.5 14.4l-5-.6Zm73.3 24.4-.8 4.7-8.1 43.8a9.6 9.6 0 0 1-9.5 7.9h-86.3a9.6 9.6 0 0 1-9.4-7.9l-8.1-43.8-1-4.7h123.2Z"/><path fill="#2C6BC4" d="m236.3 426.1-5 48.5c-.5 4.6-2.6 7.8-5.2 7.8h-28a9.6 9.6 0 0 1-9.4-7.8l-9-48.5h56.6Z"/><path fill="#2A42B8" d="m264 423.2-7.4 46.8a4.6 4.6 0 0 1-4.6 3.9h-.7a4.6 4.6 0 0 1-3.8-5.3l7.2-45.4h9.3Z"/><path fill="#1B2578" d="m262.6 423.2-7.4 46.8c-.3 2-2 3.5-3.9 3.8a4.6 4.6 0 0 1-3.8-5.2l7.2-45.4h7.9Z"/><path fill="#2A42B8" d="m291 423.2-7.4 46.8a4.6 4.6 0 0 1-4.6 3.9h-.7a4.6 4.6 0 0 1-3.8-5.3l7.2-45.4h9.3Z"/><path fill="#1B2578" d="M289.6 423.2 282 470c-.3 2-1.8 3.5-3.8 3.8a4.6 4.6 0 0 1-3.8-5.2l7.2-45.4h7.9Z"/><path fill="#1F4E91" d="M218.4 474.4h-.8a3.2 3.2 0 0 1-3.2-3l-2-49h7l1.9 48.3c0 1.8-1.2 3.3-2.9 3.7Z"/><path fill="#245CAB" d="M218.4 474.4a3.3 3.3 0 0 1-2.5-3l-1.9-49h5.4l1.9 48.3c0 1.8-1.2 3.3-2.9 3.7Z"/><path fill="#1F4E91" d="M201.2 474.4h-.7a3.7 3.7 0 0 1-3.7-3l-7.8-49h7l7.7 48.3c.2 1.8-.9 3.3-2.5 3.7Z"/><path fill="#245CAB" d="M201.2 474.4a3.8 3.8 0 0 1-2.8-3l-7.8-49h5.3l7.8 48.3c.2 1.8-.9 3.3-2.5 3.7Z"/><path fill="#2431A0" d="m179.7 426.1.9 4.7H302l.8-4.7H179.7Z" opacity=".4"/><path fill="#F97314" d="m307.6 417.8-.7 3.7-.7 3.7c-.5 2-2.2 3.5-4.3 3.5H179.5c-2 0-3.8-1.4-4.2-3.5l-.8-3.7-.7-3.7h133.8Z"/><path fill="#FAAC37" d="m241.3 417.8-1.5 7.4c-.4 2-2.2 3.5-4.2 3.5h-56a4.3 4.3 0 0 1-4.3-3.5l-1.5-7.4h67.5Z"/><path fill="#F97314" d="m307.6 417.8-.7 3.7H174.5l-.7-3.7h133.8Z" opacity=".5"/><path fill="#F97314" d="M307.3 416H175l.8-2.6 2.8-9.3a4 4 0 0 1 4-3h117.2c1.8 0 3.5 1.2 4 3l2.7 9.3.8 2.7Z"/><path fill="#FAAC37" d="M241.3 416H175l3.6-11.9a4 4 0 0 1 4-3h51.2a4 4 0 0 1 4 3l3.5 12Z"/><path fill="#F97314" d="M307.3 416H175l.8-2.6h130.7l.8 2.7Z" opacity=".5"/><path fill="#FF8D14" d="M310 417.6c0 1.3-1 2.3-2.3 2.3H174.3c-1.3 0-2.3-1-2.3-2.3 0-1.3 1-2.3 2.3-2.3h133.4c1.3 0 2.3 1 2.3 2.3Z"/><path fill="#FABC37" d="M243.5 417.6c0 1.3-1 2.3-2.2 2.3h-67c-1.3 0-2.3-1-2.3-2.3 0-1.3 1-2.3 2.3-2.3h67c1.2 0 2.2 1 2.2 2.3Z"/><path fill="#1B2578" d="M252.7 408.6h11.5s2.9 10.7 1.4 14.2c-.8 1.8-12.1.8-12.1.8s.6-1.9.8-5.5c.1-3.6-1.6-9.5-1.6-9.5Z"/><path fill="#1B2578" d="M263 413h-6.5a.6.6 0 0 1-.7-.6c0-.4.3-.6.7-.6h6.5c.3 0 .6.3.6.6s-.3.6-.6.6Zm.3 3.5h-6.5a.6.6 0 0 1-.6-.7c0-.3.3-.6.6-.6h6.5c.4 0 .6.3.6.6 0 .4-.2.7-.6.7Zm.1 3.5H257a.6.6 0 0 1-.6-.6c0-.3.3-.6.6-.6h6.5c.4 0 .7.3.7.6s-.3.6-.7.6Z" opacity=".4"/><path fill="#1B2578" d="M283.8 408.6h11.5s2.9 10.7 1.4 14.2c-.8 1.8-12.1.8-12.1.8s.6-1.9.8-5.5c.1-3.6-1.6-9.5-1.6-9.5Z"/><path fill="#1B2578" d="M294 413h-6.5a.6.6 0 0 1-.6-.6c0-.4.3-.6.6-.6h6.5c.4 0 .7.3.7.6s-.3.6-.7.6Zm.4 3.5h-6.5a.6.6 0 0 1-.6-.7c0-.3.3-.6.6-.6h6.5c.4 0 .6.3.6.6 0 .4-.2.7-.6.7Zm.1 3.5H288a.6.6 0 0 1-.6-.6c0-.3.3-.6.6-.6h6.5c.4 0 .7.3.7.6s-.3.6-.7.6Z" opacity=".4"/><path fill="url(#m)" d="M11.5 156.8 23 159s1-1.3-1.5-7.1a9.4 9.4 0 0 1 3.7-12c2.8-1.6 5-.9 3.6 3s1.3 10.1 3.4 15.5c2 5.3-1.6 16-4.3 18.3-2.7 2.2-7.1 3.5-7.1 3.5l-8.6-1.3s-4.4-8-3.3-13.8c1-5.8 2.6-8.3 2.6-8.3Z"/><path fill="#FFC29E" d="M14 174c.4.4.8 1 1 1.6.7 1.9.5 3.6-.4 3.6-1.2 0-10-.2-11.2-1.8-.5-.7-.8-3.9 0-5.4.2-.4.5-.7 1-.8A24 24 0 0 1 14 174Z"/><path fill="#E88479" d="M14 174c.4.4.8 1 1 1.6-3-.4-9.9-2.3-11.6-3.6.2-.4.5-.7 1-.8A24 24 0 0 1 14 174Z"/><path fill="#FFC29E" d="M2.7 164.7a36 36 0 0 1 11.6 3.7l.8 1c1.1 2.1 1.1 5.3 0 5.2-1.5 0-12.3-2-13.8-3.8-.7-1-.8-5.3 1-6l.4-.1Z"/><path fill="#E88479" d="M2.7 164.7a36 36 0 0 1 11.6 3.7l.8 1a43 43 0 0 1-12.8-4.7h.4Z"/><path fill="#FFC29E" d="M2 158.1c1.2 0 10.2 2.3 12.3 4l.8 1c1.2 2.1 1.3 5.3 0 5.2-1.6 0-13-2.2-14.5-4-.7-.8-1-4.3.2-5.6.3-.3.7-.5 1.2-.6Z"/><path fill="#E88479" d="M2 158.1c1.2 0 10.2 2.3 12.3 4l.8 1c-1.7 0-9.5-.8-13.1-5Z"/><path fill="#FFC29E" d="M15.8 162.6a40 40 0 0 1-13.7-3.9c-.8-1-.8-6 1.4-6 .2-.1.7 0 1.5.1a32.4 32.4 0 0 1 10.2 3.7c1.8 1.8 2 6.2.6 6ZM260 385.2v.4a32 32 0 0 1-7 8.7c-1 .9-6.2-.2-6.2-.2s-3 2.2-4.3 2.1l-.6-.1c-1.8-.5-5.4-2-5.4-2v-.1c.2-.7 1.5-5.2 2-5.7h.3c.8-.4 3-.4 3-.4l-.7-2.4c-.8-2.5-1.4-5-1.7-5.1-.6-.3-7 .2-7 .2s1.3-4 2.4-6c1-1.9 11-10 13-10.5 1.9-.4 12 .2 12 .2 0 .5.7 18.3.2 21Z"/><path fill="#E88479" d="M259.9 385.7a32 32 0 0 1-6.9 8.6c-1 1-6.2-.1-6.2-.1s-3.1 2.2-4.3 2h-.6c-1.5-.5-4.4-1.7-5.4-2.2.2-.7 1.5-5.2 2-5.6l.2-.1c1.1-.3 3-.4 3-.4l-.7-2.4c1 1 3 2.8 4.5 3.1 2.2.5 5.4-2.5 7.3-2.5 1.6 0 5.3.6 7-.4Z" opacity=".3"/><path fill="url(#n)" d="M129.7 45.9c4.4 1.4 6.8-.3 8-.8 1.3-4.7 1-6 6.4-14.3-21.3-4-35 8.4-14.4 15Z"/><path fill="#E4E7F3" d="M211 56.3c-5.2-4.5-10.6-8.4-16.4-11.8a146 146 0 0 0-54.7-17.6c2.3-10.3 6.4-18.5 11-21.2 4-2.3 14-5.2 19.1-5.6l1.8-.1h.7c3.9.7 15.5 4.8 24.7 10 5 2.8 9.4 6 11.3 9.2 6.8 11.2 3.8 33.2 2.6 37Z"/><path fill="#2F54EB" d="m162.8 9.7-4.4 13-3.5-.2 1.7-5-4.6-.2-1.6 4.9-3.1-.3 4.1-12 3.2-.1-1.6 4.6h4.6l1.6-4.7h3.6Zm13.6 13.5c-.8 2.5-3.6 3.4-7.7 2.3l-7.7-2 4.5-13.4 7.5 1.3c4 .7 5.6 2.6 4.9 4.8a4.1 4.1 0 0 1-3.2 2.7c1.6 1 2.3 2.5 1.7 4.3Zm-7.8-9.6-1 2.6 3 .6c1.4.3 2.3 0 2.6-.9.3-.9-.3-1.5-1.7-1.7l-3-.6Zm3.4 8c.4-1-.3-1.5-1.8-1.9l-3.4-.8-1 2.8 3.5.9c1.5.3 2.4 0 2.7-1Z"/><path fill="url(#o)" d="M211 56.3c-4.4-3.8-8.9-7.2-13.7-10.2a74 74 0 0 0 1.2-35.3 28 28 0 0 1 10 8.5c6.8 11.1 3.8 33.1 2.6 37Z"/><path fill="#A1ABCF" d="M172.5.1a28 28 0 0 0-7 7.3c.2-.5 2.3-4.3 3.8-6.5l.2-.2.5-.7h1.8l.7.1Z"/><path fill="#1890FF" d="M124.2 31.2c5-3.8 15.7-4.3 15.7-4.3s11.3-2.8 32.7 5.1c17.4 6.5 24.9 14.2 24.9 14.2s-4.7 4.1-13.7 2.5C174.8 47 168 38 154 33.3c-14-4.6-29.8-2-29.8-2Z"/><path fill="#1378D5" d="M197.3 46.2s-2.7 1.1-9.1 1.4c-8.5.3-16-8-26.4-13-10.5-5.2-31.7-9.3-39.6-2.4C111.5 41.3 130 46 130 46s-15.3-6.3-6.3-12.7c8-5.7 28.6-1.2 36.2 2.7 8.6 4.5 17.3 13.7 28.7 13.3 6.5-.3 8.6-3.1 8.6-3.1Z"/><defs><linearGradient id="a" x1="131.9" x2="162.3" y1="333.1" y2="206" gradientUnits="userSpaceOnUse"><stop offset="0" stop-color="#0F3BA6"/><stop offset="1" stop-color="#0431D7"/></linearGradient><linearGradient id="b" x1="115.7" x2="153.5" y1="224.4" y2="206.5" gradientUnits="userSpaceOnUse"><stop stop-color="#0F3AA5"/><stop offset="1" stop-color="#0532D4"/></linearGradient><linearGradient id="c" x1="175.5" x2="229.2" y1="228.5" y2="167.4" gradientUnits="userSpaceOnUse"><stop stop-color="#0F3AA5"/><stop offset="1" stop-color="#0532D4"/></linearGradient><linearGradient id="d" x1="188.1" x2="147.5" y1="594.2" y2="338.1" gradientUnits="userSpaceOnUse"><stop offset=".1" stop-color="#042FD5"/><stop offset="1" stop-color="#0E389C"/></linearGradient><linearGradient id="e" x1="19.5" x2="31.2" y1="188.8" y2="186.9" gradientUnits="userSpaceOnUse"><stop stop-color="#636E7A" stop-opacity=".4"/><stop offset="1" stop-color="#273752"/></linearGradient><linearGradient id="f" x1="125.4" x2="210.2" y1="36.4" y2="112.5" gradientUnits="userSpaceOnUse"><stop stop-color="#8A5442"/><stop offset="1" stop-color="#380E24"/></linearGradient><linearGradient id="i" x1="173.4" x2="173.9" y1="73.3" y2="64.4" gradientUnits="userSpaceOnUse"><stop stop-color="#BD6745"/><stop offset="1" stop-color="#591624"/></linearGradient><linearGradient id="j" x1="146.9" x2="148.3" y1="70.8" y2="63.2" gradientUnits="userSpaceOnUse"><stop stop-color="#BD6745"/><stop offset="1" stop-color="#591624"/></linearGradient><linearGradient id="l" x1="156.6" x2="153.8" y1="88.1" y2="114.9" gradientUnits="userSpaceOnUse"><stop stop-color="#8A5442"/><stop offset="1" stop-color="#380E24"/></linearGradient><linearGradient id="n" x1="122.3" x2="127.6" y1="50.8" y2="27.9" gradientUnits="userSpaceOnUse"><stop stop-color="#202B38"/><stop offset="1" stop-color="#193CCA"/></linearGradient><linearGradient id="o" x1="199" x2="232.4" y1="68.3" y2="35.3" gradientUnits="userSpaceOnUse"><stop stop-color="#173A96"/><stop offset="1" stop-color="#0736C5"/></linearGradient><radialGradient id="g" cx="0" cy="0" r="1" gradientTransform="translate(149 34.7) scale(39.22)" gradientUnits="userSpaceOnUse"><stop stop-color="#E66B5E"/><stop offset="1" stop-color="#FFC29E"/></radialGradient><radialGradient id="h" cx="0" cy="0" r="1" gradientTransform="matrix(28.68 0 0 28.69 171.6 45)" gradientUnits="userSpaceOnUse"><stop stop-color="#E66B5E"/><stop offset="1" stop-color="#FFC29E"/></radialGradient><radialGradient id="k" cx="0" cy="0" r="1" gradientTransform="translate(190.4 81.3) scale(23.74)" gradientUnits="userSpaceOnUse"><stop stop-color="#E66B5E"/><stop offset="1" stop-color="#FFC29E"/></radialGradient><radialGradient id="m" cx="0" cy="0" r="1" gradientTransform="rotate(9 -1044.1 108.4) scale(19.7)" gradientUnits="userSpaceOnUse"><stop stop-color="#E66B5E"/><stop offset="1" stop-color="#FFC29E"/></radialGradient></defs></svg>