<svg width="23" height="20" viewBox="0 0 23 20" fill="none" xmlns="http://www.w3.org/2000/svg">
<path d="M7.92839 20C8.84886 20 9.59505 19.2538 9.59505 18.3334C9.59505 17.4129 8.84886 16.6667 7.92839 16.6667C7.00791 16.6667 6.26172 17.4129 6.26172 18.3334C6.26172 19.2538 7.00791 20 7.92839 20Z" fill="black"/>
<path d="M19.5944 20C20.5149 20 21.2611 19.2538 21.2611 18.3334C21.2611 17.4129 20.5149 16.6667 19.5944 16.6667C18.6739 16.6667 17.9277 17.4129 17.9277 18.3334C17.9277 19.2538 18.6739 20 19.5944 20Z" fill="black"/>
<path d="M22.5527 2.95729C22.4357 2.81409 22.2882 2.69875 22.121 2.61965C21.9538 2.54056 21.771 2.49968 21.5861 2.5H5.73451L5.41523 0.688542C5.38119 0.495588 5.28025 0.320799 5.13013 0.194879C4.98002 0.0689585 4.79034 -4.11674e-05 4.5944 1.84272e-08H1.26107C1.04005 1.84272e-08 0.828092 0.0877976 0.671812 0.244078C0.515532 0.400358 0.427734 0.61232 0.427734 0.833333C0.427734 1.05435 0.515532 1.26631 0.671812 1.42259C0.828092 1.57887 1.04005 1.66667 1.26107 1.66667H3.89544L6.27357 15.1448C6.30761 15.3377 6.40856 15.5125 6.55867 15.6385C6.70878 15.7644 6.89847 15.8334 7.0944 15.8333H20.4277C20.6487 15.8333 20.8607 15.7455 21.017 15.5893C21.1733 15.433 21.2611 15.221 21.2611 15C21.2611 14.779 21.1733 14.567 21.017 14.4107C20.8607 14.2545 20.6487 14.1667 20.4277 14.1667H7.79336L7.49961 12.5H20.0861C20.3751 12.4996 20.6551 12.3994 20.8787 12.2163C21.1023 12.0333 21.2558 11.7786 21.3132 11.4953L22.8132 3.99531C22.8493 3.8138 22.8447 3.62653 22.7996 3.44702C22.7546 3.26751 22.6703 3.10024 22.5527 2.95729Z" fill="black"/>
</svg>
