<svg width="16" height="17" viewBox="0 0 16 17" fill="none" xmlns="http://www.w3.org/2000/svg">
<path d="M15.9805 3.18652C15.9515 3.07793 15.9012 2.97618 15.8326 2.88714C15.764 2.79811 15.6784 2.72355 15.5808 2.66779L11.1589 0.11669C11.0624 0.0601128 10.9556 0.0231482 10.8447 0.00791535C10.7339 -0.00731746 10.6211 -0.000518989 10.5129 0.0279211C10.4046 0.0563611 10.3031 0.105883 10.214 0.173649C10.125 0.241414 10.0502 0.32609 9.99391 0.422822L8.00405 3.87532L6.01419 0.422822C5.95792 0.32609 5.88312 0.241414 5.79407 0.173649C5.70501 0.105883 5.60346 0.0563611 5.49523 0.0279211C5.387 -0.000518989 5.27422 -0.00731746 5.16336 0.00791535C5.0525 0.0231482 4.94573 0.0601128 4.84918 0.11669L0.427265 2.66779C0.32967 2.72355 0.244097 2.79811 0.175495 2.88714C0.106893 2.97618 0.056623 3.07793 0.027592 3.18652C-0.0286882 3.40204 0.00184559 3.63105 0.112629 3.8243L3.5141 9.63231C3.13462 10.3275 2.92483 11.1026 2.90184 11.8943C2.89981 12.6667 3.07317 13.4294 3.40884 14.125C3.74451 14.8207 4.23373 15.431 4.83962 15.91C5.4455 16.3891 6.15224 16.7243 6.90654 16.8904C7.66084 17.0566 8.44301 17.0493 9.19409 16.8691C9.94516 16.689 10.6455 16.3407 11.2424 15.8504C11.8393 15.3602 12.317 14.7409 12.6397 14.0391C12.9624 13.3374 13.1215 12.5715 13.1051 11.7993C13.0887 11.0271 12.8972 10.2687 12.545 9.58129L15.8615 3.8328C15.9232 3.73836 15.9655 3.63258 15.9859 3.52162C16.0064 3.41067 16.0045 3.29676 15.9805 3.18652ZM2.05147 3.71375L4.99374 2.01301L7.73193 6.79208C6.56473 6.86419 5.45871 7.33906 4.60257 8.13566L2.05147 3.71375ZM8.00405 15.2958C7.10192 15.2958 6.23674 14.9374 5.59884 14.2995C4.96094 13.6616 4.60257 12.7964 4.60257 11.8943C4.60257 10.9922 4.96094 10.127 5.59884 9.48909C6.23674 8.85119 7.10192 8.49282 8.00405 8.49282C8.90617 8.49282 9.77135 8.85119 10.4093 9.48909C11.0472 10.127 11.4055 10.9922 11.4055 11.8943C11.4055 12.7964 11.0472 13.6616 10.4093 14.2995C9.77135 14.9374 8.90617 15.2958 8.00405 15.2958ZM11.4055 8.11015C10.9438 7.68847 10.4074 7.35679 9.82384 7.13223L8.99047 5.57605L11.0484 2.01301L13.9906 3.71375L11.4055 8.11015Z" fill="#464A50"/>
</svg>
