<svg width="16" height="16" viewBox="0 0 16 16" fill="none" xmlns="http://www.w3.org/2000/svg">
<path d="M15.7753 14.64L12.8091 11.6978C13.9605 10.2621 14.5181 8.43994 14.3672 6.60583C14.2164 4.77172 13.3685 3.06512 11.998 1.83694C10.6275 0.608763 8.83851 -0.0476432 6.9989 0.00269517C5.15928 0.0530336 3.40887 0.806291 2.10758 2.10758C0.806291 3.40887 0.0530336 5.15928 0.00269517 6.9989C-0.0476432 8.83851 0.608763 10.6275 1.83694 11.998C3.06512 13.3685 4.77172 14.2164 6.60583 14.3672C8.43994 14.5181 10.2621 13.9605 11.6978 12.8091L14.64 15.7514C14.7143 15.8263 14.8028 15.8858 14.9002 15.9264C14.9976 15.967 15.1021 15.9879 15.2077 15.9879C15.3132 15.9879 15.4177 15.967 15.5152 15.9264C15.6126 15.8858 15.701 15.8263 15.7753 15.7514C15.9194 15.6023 16 15.403 16 15.1957C16 14.9883 15.9194 14.7891 15.7753 14.64ZM7.21243 12.8091C6.10552 12.8091 5.02346 12.4809 4.10309 11.8659C3.18272 11.2509 2.46538 10.3768 2.04178 9.35419C1.61818 8.33153 1.50735 7.20622 1.7233 6.12058C1.93925 5.03493 2.47228 4.0377 3.25499 3.25499C4.0377 2.47228 5.03493 1.93925 6.12058 1.7233C7.20622 1.50735 8.33153 1.61818 9.35419 2.04178C10.3768 2.46538 11.2509 3.18272 11.8659 4.10309C12.4809 5.02346 12.8091 6.10552 12.8091 7.21243C12.8091 8.69676 12.2195 10.1203 11.1699 11.1699C10.1203 12.2195 8.69676 12.8091 7.21243 12.8091Z" fill="white"/>
</svg>
