<svg width="12" height="10" viewBox="0 0 12 10" fill="none" xmlns="http://www.w3.org/2000/svg">
<path d="M11.4609 5.27466L7.24795 1.06167C7.16485 0.978574 7.0662 0.912655 6.95762 0.867681C6.84905 0.822708 6.73268 0.79956 6.61515 0.79956C6.49763 0.79956 6.38126 0.822708 6.27269 0.867681C6.16411 0.912655 6.06546 0.978574 5.98236 1.06167C5.89926 1.14477 5.83334 1.24343 5.78836 1.352C5.74339 1.46058 5.72024 1.57695 5.72024 1.69447C5.72024 1.81199 5.74339 1.92836 5.78836 2.03694C5.83334 2.14552 5.89926 2.24417 5.98236 2.32727L8.0347 4.37961L1.24487 4.37961C1.00749 4.37961 0.779833 4.47391 0.611979 4.64177C0.444125 4.80962 0.349827 5.03728 0.349827 5.27466C0.349827 5.51204 0.444125 5.7397 0.611979 5.90755C0.779833 6.07541 1.00749 6.16971 1.24487 6.16971L8.0347 6.16971L5.98236 8.22205C5.89895 8.30498 5.83276 8.40358 5.7876 8.51218C5.74243 8.62077 5.71918 8.73723 5.71918 8.85485C5.71918 8.97246 5.74243 9.08892 5.7876 9.19752C5.83276 9.30612 5.89895 9.40472 5.98236 9.48764C6.0654 9.57084 6.16404 9.63683 6.27263 9.68186C6.38121 9.7269 6.4976 9.75007 6.61515 9.75007C6.7327 9.75007 6.8491 9.7269 6.95768 9.68186C7.06626 9.63683 7.1649 9.57084 7.24795 9.48764L11.4609 5.27466Z" fill="#59788E"/>
</svg>
