<svg width="97" height="97" viewBox="0 0 97 97" fill="none" xmlns="http://www.w3.org/2000/svg">
<path fill-rule="evenodd" clip-rule="evenodd" d="M48.7683 16.3673L56.3927 20.1001L55.5133 21.8963L49.3152 18.8619V48.3687L77.8673 62.4854V32.8402L70.7895 29.3751L71.6689 27.5789L79.307 31.3183C79.6499 31.4861 79.8673 31.8346 79.8673 32.2164V63.7253C79.9121 63.8397 79.936 63.963 79.936 64.0896V70.1946C79.936 70.5735 79.7219 70.9199 79.383 71.0892L49.0875 86.2259C49.0382 86.2727 48.9837 86.3148 48.9247 86.3513C48.7498 86.4594 48.5491 86.5093 48.35 86.4995C48.151 86.5092 47.9504 86.4594 47.7755 86.3513C47.7165 86.3148 47.662 86.2727 47.6128 86.2259L17.3158 71.0892C16.9768 70.9199 16.7627 70.5735 16.7627 70.1946V64.0896L16.7628 64.0739V56.1256H18.7628V62.4854L47.3149 48.3687V18.8619L18.7628 32.8402V40.1861H16.7628V32.2164C16.7628 31.8346 16.9802 31.4861 17.3231 31.3183L47.8618 16.3673C48.0037 16.2952 48.1592 16.2588 48.3151 16.2588C48.4709 16.2588 48.6264 16.2952 48.7683 16.3673ZM47.3014 79.9638V83.8346L18.7627 69.5764V65.707L47.3014 79.9638ZM49.3988 83.8346V79.9638L77.936 65.707V69.5764L49.3988 83.8346ZM48.3501 78.252L43.1336 75.646V70.1176H53.5999V75.6293L48.3501 78.252ZM55.5999 74.6301L66.0105 69.4291V65.0248H55.5999V74.6301ZM55.5999 63.0248H66.0105V58.8543L55.5999 53.707V63.0248ZM53.5999 52.7182L48.3151 50.1053L43.1336 52.6671V57.8922H53.5999V52.7182ZM53.5999 59.8922H43.1336V68.1176H53.5999V59.8922ZM41.1336 74.3897V74.6469L30.6125 69.391V65.0248H41.1336V74.3847H41.1141V74.3897H41.1336ZM41.1336 53.6559V63.0248H30.6125V58.8578L41.1336 53.6559ZM68.0105 68.4299L76.6491 64.1142L68.0105 59.8431V68.4299ZM28.6125 59.8466V68.3919L20.0155 64.0971L28.6125 59.8466Z" fill="#2F54EB"/>
<path fill-rule="evenodd" clip-rule="evenodd" d="M68.3671 25.8213L68.3491 25.8213C65.8203 25.8309 63.793 27.8562 63.793 30.3218H63.7929H61.793H61.7929C61.7929 27.8562 59.7656 25.8309 57.2368 25.8213C57.2308 25.8213 57.2248 25.8213 57.2188 25.8213V25.8213V23.8213V23.8213C57.2248 23.8213 57.2308 23.8213 57.2368 23.8213C59.7656 23.8117 61.7929 21.7865 61.7929 19.3208H61.793H63.7929H63.793C63.793 21.7865 65.8202 23.8117 68.3491 23.8213L68.3671 23.8213V23.8213V25.8213V25.8213ZM60.7219 24.8213C61.5576 25.3428 62.2671 26.0455 62.7929 26.8744C63.3187 26.0455 64.0282 25.3428 64.864 24.8213C64.0282 24.2998 63.3187 23.5971 62.7929 22.7682C62.2671 23.5971 61.5576 24.2998 60.7219 24.8213ZM15.6916 47.8684C16.5273 47.3469 17.2368 46.6442 17.7626 45.8153C18.2884 46.6442 18.998 47.3469 19.8337 47.8684C18.998 48.39 18.2884 49.0926 17.7626 49.9215C17.2368 49.0926 16.5273 48.39 15.6916 47.8684ZM12.1885 48.8684V46.8685V46.8684L12.2064 46.8684C14.7352 46.8589 16.7626 44.8336 16.7626 42.3679H16.7627H18.7626H18.7627C18.7627 44.8336 20.7901 46.8589 23.3189 46.8684L23.3368 46.8684V46.8685V48.8684V48.8685L23.3189 48.8684C20.7901 48.8779 18.7627 50.9032 18.7627 53.369H18.7626H16.7627H16.7626C16.7626 50.9032 14.7352 48.8779 12.2064 48.8684L12.1885 48.8685V48.8684Z" fill="#FA8C16"/>
</svg>
