<svg width="50" height="60" viewBox="0 0 50 60" fill="none" xmlns="http://www.w3.org/2000/svg">
<path d="M1.50771 3.43868C1.95623 1.55844 3.84406 0.397801 5.7243 0.84632L28.0966 6.18307C29.9768 6.63159 31.1375 8.51943 30.6889 10.3997C30.2404 12.2799 28.3526 13.4405 26.4724 12.992L4.10007 7.65528C2.21983 7.20676 1.05919 5.31892 1.50771 3.43868Z" fill="white"/>
<path d="M0.695557 17.6C0.695557 14.4557 3.56338 12.0918 6.6499 12.692L14.6499 14.2475C16.9994 14.7044 18.6956 16.7621 18.6956 19.1556V54.0342C18.6956 56.7956 16.457 59.0342 13.6956 59.0342H5.69556C2.93413 59.0342 0.695557 56.7956 0.695557 54.0342V17.6Z" fill="white"/>
<path d="M21.0681 18.0499C20.8623 16.6846 21.8023 15.4111 23.1676 15.2053L45.9109 11.7783C47.2762 11.5726 48.5498 12.5126 48.7555 13.8779C48.9612 15.2432 48.0212 16.5168 46.6559 16.7225L23.9126 20.1495C22.5473 20.3552 21.2738 19.4152 21.0681 18.0499Z" fill="white"/>
<path d="M49.2961 19.6832C49.2398 18.0641 47.6145 17.1012 46.0425 17.493C44.4705 17.8849 43.5707 19.505 43.3825 21.1142C43.3648 21.2654 43.3429 21.4163 43.3166 21.5667C43.1218 22.6842 42.6953 23.7486 42.0646 24.6915C41.4338 25.6344 40.6128 26.4349 39.6543 27.0416C38.6958 27.6483 37.621 28.0478 36.4989 28.2144C35.3768 28.381 34.2323 28.311 33.1388 28.0089C32.0454 27.7069 31.0273 27.1794 30.1498 26.4604C29.2724 25.7414 28.555 24.8469 28.0439 23.8341C27.9751 23.6979 27.9103 23.5599 27.8494 23.4203C27.2019 21.9352 25.8702 20.6463 24.2521 20.7281C22.6341 20.8099 21.3586 22.2034 21.7752 23.7691C22.0236 24.7027 22.3686 25.6106 22.8062 26.4777C23.6861 28.221 24.9209 29.7609 26.4313 30.9985C27.9417 32.2362 29.6943 33.1441 31.5765 33.6641C31.9316 33.7622 32.2898 33.8461 32.6503 33.9157L32.4594 37.4355L25.6184 41.264C23.8808 42.2364 22.8044 44.0722 22.8044 46.0635V55.75C22.8044 57.683 24.3714 59.25 26.3044 59.25C28.2374 59.25 29.8044 57.683 29.8044 55.75V46.943L36.5984 43.1408C38.2434 42.2202 39.3023 40.5214 39.4044 38.6392L39.685 33.4666C40.7742 33.1078 41.8181 32.6156 42.7922 31.999C44.4422 30.9546 45.8554 29.5766 46.9411 27.9536C48.0268 26.3305 48.761 24.4983 49.0964 22.5746C49.2633 21.6177 49.3296 20.6487 49.2961 19.6832Z" fill="white"/>
</svg>
