<svg width="97" height="97" fill="none" xmlns="http://www.w3.org/2000/svg"><path fill-rule="evenodd" clip-rule="evenodd" d="M31.957 67.348A6.534 6.534 0 0 0 34 65.298a6.535 6.535 0 0 0 2.043 2.05A6.534 6.534 0 0 0 34 69.397a6.533 6.533 0 0 0-2.043-2.05Zm-3.457.999v-1.998h.029a4.507 4.507 0 0 0 4.481-4.501h1.98a4.507 4.507 0 0 0 4.481 4.5h.029v1.999h-.029a4.507 4.507 0 0 0-4.481 4.5h-1.98a4.507 4.507 0 0 0-4.481-4.5H28.5Z" fill="#FA8C16"/><path fill-rule="evenodd" clip-rule="evenodd" d="M30.69 43.662a1 1 0 0 0-.716 1.699l17.189 17.61.294.302h6.421v-2H48.3l-15.237-15.61h8.963v-2H30.69Zm50.177 17.905-7.73-7.769-1.417 1.41 6.033 6.065H64.184v2H80.16l.708-1.706Z" fill="#2F54EB"/><path d="M30.69 44.662 13.5 62.238h6.203l8.973-8.798m3.101-3.105-1.55 1.552" stroke="#2F54EB" stroke-width="2" stroke-linejoin="bevel"/><path stroke="#2F54EB" stroke-width="2" d="M19.5 62.848v16M50.5 62.848v16M74.49 62.273v12.386m0 4.188V76.73M68.123 78.848v-11h-6v11"/><path d="m52.568 41.998 5.875 6.032 10.612-10.84" stroke="#2F54EB" stroke-width="2" stroke-miterlimit="10" stroke-linejoin="bevel"/><path fill-rule="evenodd" clip-rule="evenodd" d="M59.849 18.9a1 1 0 0 0-.64 0L41.257 24.96a1 1 0 0 0-.68.947h1-1v18.347c0 6.586 4.665 12.123 9.068 15.91a51.058 51.058 0 0 0 8.705 5.99l.154.08.042.022.011.006.004.002.455-.89-.454.89a1 1 0 0 0 .884.012l-.43-.903.43.903h.002l.003-.002.012-.006.044-.021.162-.08a50.723 50.723 0 0 0 2.738-1.497c1.76-1.034 4.113-2.546 6.47-4.455 4.653-3.768 9.604-9.309 9.604-15.961v-1.405h-2v1.405c0 5.677-4.282 10.697-8.862 14.406-2.259 1.83-4.523 3.285-6.224 4.285a48.799 48.799 0 0 1-2.364 1.303 45.868 45.868 0 0 1-2.21-1.3 49.05 49.05 0 0 1-5.872-4.3c-4.317-3.713-8.372-8.736-8.372-14.394V26.624l16.952-5.72 16.952 5.72v1.224h2v-1.941h-1 1a1 1 0 0 0-.68-.948L59.848 18.9Z" fill="#2F54EB"/><path fill-rule="evenodd" clip-rule="evenodd" d="M75.457 35.348a6.533 6.533 0 0 0 2.043-2.053 6.533 6.533 0 0 0 2.043 2.053A6.53 6.53 0 0 0 77.5 37.4a6.53 6.53 0 0 0-2.043-2.053Zm-3.457 1v-2h.018a4.509 4.509 0 0 0 4.495-4.5h1.974c0 2.465 2 4.49 4.495 4.5H83v2h-.018a4.509 4.509 0 0 0-4.495 4.5h-1.974c0-2.466-2-4.49-4.495-4.5H72Z" fill="#FA8C16"/></svg>