<svg width="96" height="97" viewBox="0 0 96 97" fill="none" xmlns="http://www.w3.org/2000/svg">
    <g clip-path="url(#clip0_1851_54951)">
        <path d="M36.17 43.8097H18.0537C15.4253 43.8097 13.293 41.6874 13.293 39.0675V21.0215C13.293 18.4034 15.4236 16.2793 18.0537 16.2793H36.17C38.7984 16.2793 40.9307 18.4016 40.9307 21.0215V39.0675C40.929 41.6856 38.7984 43.8097 36.17 43.8097Z"
              fill="#E1E0E6"/>
        <path d="M36.1671 45.0967H18.0525C14.7145 45.0967 12 42.391 12 39.0676V21.0217C12 17.6984 14.7145 14.9927 18.0525 14.9927H36.1688C39.5051 14.9927 42.2213 17.6966 42.2213 21.0217V39.0676C42.2196 42.391 39.5051 45.0967 36.1671 45.0967ZM18.0525 17.5663C16.1389 17.5663 14.5836 19.1173 14.5836 21.0217V39.0676C14.5836 40.9721 16.1389 42.5231 18.0525 42.5231H36.1688C38.0807 42.5231 39.6377 40.9738 39.6377 39.0676V21.0217C39.6377 19.1173 38.0824 17.5663 36.1688 17.5663H18.0525Z"
              fill="#2F54EB"/>
        <path d="M73.4768 80.0683H55.3623C52.7339 80.0683 50.6016 77.9459 50.6016 75.326V57.2818C50.6016 54.6636 52.7322 52.5396 55.3623 52.5396H73.4786C76.1069 52.5396 78.2393 54.6619 78.2393 57.2818V75.3277C78.2376 77.9459 76.1069 80.0683 73.4768 80.0683Z"
              fill="#E1E0E6"/>
        <path d="M73.4757 81.3552H55.3611C52.0248 81.3552 49.3086 78.6512 49.3086 75.3262V57.282C49.3086 53.9586 52.0231 51.2529 55.3611 51.2529H73.4774C76.8137 51.2529 79.5299 53.9569 79.5299 57.282V75.3279C79.5282 78.6512 76.8137 81.3552 73.4757 81.3552ZM55.3611 53.8265C53.4493 53.8265 51.8922 55.3758 51.8922 57.282V75.3279C51.8922 77.2323 53.4475 78.7833 55.3611 78.7833H73.4774C75.3892 78.7833 76.9463 77.234 76.9463 75.3279V57.282C76.9463 55.3775 75.391 53.8265 73.4774 53.8265H55.3611Z"
              fill="#2F54EB"/>
        <path d="M77.0003 29.7377V39.0678C77.0003 40.9722 75.3898 42.5781 73.4762 42.5781H55.3617C53.4498 42.5781 51.8531 40.9722 51.8531 39.0678V21.0219C51.8531 19.1174 53.4481 17.5287 55.3617 17.5287H73.4779C75.3898 17.5287 77.002 19.1174 77.002 21.0219V24.8839L79.5856 22.3104V21.0219C79.5839 17.6985 76.8142 14.9551 73.4762 14.9551H55.3617C52.0254 14.9551 49.2695 17.6985 49.2695 21.0219V39.0678C49.2695 42.3911 52.0237 45.1517 55.3617 45.1517H73.4779C76.8142 45.1517 79.5856 42.3911 79.5856 39.0678V27.1641L77.0003 29.7377Z"
              fill="#2F54EB"/>
        <path d="M39.6249 66.387V75.3276C39.6249 77.232 38.0816 78.7796 36.1698 78.7796H18.0535C16.1416 78.7796 14.65 77.232 14.65 75.3276V57.2817C14.65 55.3772 16.1399 53.9017 18.0535 53.9017H36.1698C38.0816 53.9017 39.6249 55.3755 39.6249 57.2817V61.5349L42.2085 58.9614V57.2817C42.2085 53.9583 39.5061 51.3281 36.1698 51.3281H18.0535C14.7172 51.3281 12.0664 53.9566 12.0664 57.2817V75.3276C12.0664 78.6509 14.7155 81.3532 18.0535 81.3532H36.1698C39.5061 81.3532 42.2085 78.6509 42.2085 75.3276V63.8134L39.6249 66.387Z"
              fill="#2F54EB"/>
        <path d="M63.7311 38.0727C63.2902 38.0727 62.8493 37.9046 62.5134 37.57L56.2473 31.3282C55.5738 30.6574 55.5738 29.5714 56.2473 28.9022C56.9207 28.2314 58.011 28.2314 58.6828 28.9022L63.7311 33.931L81.0602 16.6692C81.7337 15.9983 82.824 15.9983 83.4957 16.6692C84.1675 17.34 84.1675 18.426 83.4957 19.0952L64.9489 37.57C64.613 37.9046 64.1721 38.0727 63.7311 38.0727Z"
              fill="#FA8C16"/>
        <path d="M26.528 74.6176C26.0871 74.6176 25.6461 74.4495 25.3103 74.1149L19.0442 67.8731C18.3707 67.2023 18.3707 66.1162 19.0442 65.4471C19.7176 64.7762 20.8079 64.7762 21.4796 65.4471L26.528 70.4759L43.051 54.017C43.7245 53.3479 44.8148 53.3479 45.4865 54.017C46.1583 54.6878 46.1583 55.7739 45.4865 56.443L27.7458 74.1149C27.4099 74.4495 26.9689 74.6176 26.528 74.6176Z"
              fill="#FA8C16"/>
    </g>
    <defs>
        <clipPath id="clip0_1851_54951">
            <rect width="72" height="66.4" fill="white" transform="translate(12 14.9551)"/>
        </clipPath>
    </defs>
</svg>
