<svg width="1920" height="550" fill="none" xmlns="http://www.w3.org/2000/svg"><g clip-path="url(#a)"><path fill="#2F54EB" d="M0 0h1920v550H0z"/><g style="mix-blend-mode:overlay" opacity=".2"><path d="M1287 187c5-7 35-51 51-45 9 4 10 26 7 39-3 18-13 30-25 43-7 8-19 20-37 30 14-8 35-17 62-19 16-1 36-2 43 9 8 13-9 38-19 49-34 37-91 34-110 32-4 0-58 5-87-34-24-33-19-85-3-91 6-2 17 2 37 25-1-45 24-74 45-74 14 1 28 16 36 36Z" fill="#7F8E53"/><path d="M1483 381c7-2 18 2 38 26-1-46 24-75 45-75 14 1 28 17 36 36 5-7 35-51 51-44 9 3 10 25 7 38-3 18-13 30-25 43-7 8-19 20-38 31 15-9 36-18 63-20h20v62c-34 33-88 30-106 28-4 0-58 5-87-34-24-33-19-84-4-91Z" fill="#6E801F"/><path d="M981 262c1-8 8-62 24-63 10-1 21 18 25 30 5 18 2 33-3 50-2 10-7 27-18 45 9-14 23-33 46-47 13-8 31-19 42-12 13 8 10 38 6 52-13 49-64 72-82 80-3 2-49 31-92 10-37-18-57-65-46-78 4-5 16-7 45 5-23-40-14-78 4-87 13-6 33 1 49 15Z" fill="#A6B75F"/><path d="m975 504 121 1c160 2 465 11 465 11l7-120 1-29v-1l5 1 23 1v-16l-3-1-179-85-301-14-101 75-38 177Z" fill="#CFCB87"/><path opacity=".4" d="m1249 358-4 139-246-4 47-182 70-48 112 98 21-3Z" fill="#601C50"/><path opacity=".3" d="M1174 382v78h-88l9-75 79-3Z" fill="#361A30"/><path opacity=".3" d="M1164 385v72h-80l8-69 72-3Z" fill="#361A30"/><path d="m812 496 297 18 1-148v-43l-284 7-2 18-12 145v3Z" fill="#EACCBC"/><path opacity=".2" d="m807 493 61 4 11-126 231-5v-25a5399168 5399168 0 0 1-288 7l-15 145Z" fill="#520649"/><path d="m836 336 1 11 126-1 213-3-2-13a395167665 395167665 0 0 1-338 6Z" fill="#EAECED"/><path d="m789 336 386-5-313-75-52-12-9 39-12 53Z" fill="#9F2446"/><path opacity=".2" d="m801 283 19 52 144-1-102-78-52-12-9 39ZM836 336l1 11 126-1 1-12-128 2Z" fill="#520649"/><path d="m889 374 1 121v16l50 1 138 4v-16l3-128-192 2Z" fill="#610E39"/><path opacity=".4" d="M881 499a2727 2727 0 0 0 59 13l138 4v-16l-58-16a188 188 0 0 0-139 15Z" fill="#CFCCAD"/><path d="m1068 370-5 145 15-4 3-141h-13Z" fill="#BF7268"/><path d="M1680 502v117L240 630V472c388 1 1046 29 1440 30Z" fill="#B4B013"/><path d="m814 124-1 25h-12c-47 2-148 1-153-23-1-7 5-12 15-22 29-29 64-36 80-38l71 58Z" fill="#B29587"/><path d="M614 118 411 74 302 199l295-61 17-20Z" fill="#9F2446"/><path opacity=".6" d="M920 506a828 828 0 0 0-252-21c0 7 3 12 3 20 17 7 30 17 47 25l202-24Z" fill="#B47A8C"/><path d="M607 129c-28-7-136-29-195-48L304 199c96-20 303-49 303-70Z" fill="#B29587"/><path d="m419 105 1 128 179 8 8-112-14 7-174-31Z" fill="#EACCBC"/><path d="M300 317v17h20v6l-1 25v16l-1 4v21a2187 2187 0 0 1-1 15v20l-1 11v9l100 20 1-62 1-89a27137 27137 0 0 0 2-97l2-127-3-1h-1l-98 91-3 105v3l-17 13Z" fill="#BF7268"/><path d="m696 484 140-3 2-70 2-100-140-13-2 69-2 117Z" fill="#D9BBAC"/><path d="m836 481 46 5-172 6-47-8 173-3ZM653 298l-3 199s-33-9-49-16c-62 1-123-3-186-1l1-161c81 9 237-21 237-21Z" fill="#BF7268"/><path d="m809 171 42-23v-14L745 44 556 151l8 5c71-47 178-89 178-89s84 53 75 73c-8 16-8 31-8 31Z" fill="#9F2446"/><path d="m603 305-2 176c-63 2-125-2-188 0l4-168c62 8 124-16 186-8Z" fill="#F3BBB7"/><path d="M650 519h46l5-165 2-57-51 5a46350 46350 0 0 0-2 217Z" fill="#EACCBC"/><path d="M718 511v19l19-1 182-4 1-19-5-1-197 6Z" fill="#E8DDBC"/><path opacity=".2" d="m652 352 49 2 2-57-51 5v50Z" fill="#520649"/><path d="m882 486 2 12-176 6v-12l174-6Z" fill="#E8DDBC"/><path d="m655 127-46 28h-46l55-33 37 5Z" fill="#B29587"/><path d="M278 326h125c143 1 516-6 526-6l-120-72h-1c-129-4-258-11-388-15l-1 1-44 29-27 17a6737 6737 0 0 1-70 46Z" fill="#9F2446"/><path d="m599 241 56 45 1 2 152 2 1-145-83-60-70 40-52 30-5 86Z" fill="#EACCBC"/><path d="m599 241 56 45 1-161-52 30-5 86Z" fill="#BF7268"/><path d="m273 465 39 23 66 52 302-10-2-23c-25-12-52-15-77-26-73 2-145 1-218 2l32-2-99-21h-42l-1 5Z" fill="#E8DDBC"/><path opacity=".4" d="m273 465 39 23 66 52 3-25c-36-27-64-45-83-55h-24l-1 5Z" fill="#520649"/><path d="m678 507-297 16-108-63 43-2 97 22 188 1 77 26Z" fill="#CC9B9B"/><path d="m552 441 5-89-104-3 5 91 94 1Z" fill="#CE5353"/><path d="M459 354v10l1 15 3 57h85l2-79-91-3Z" fill="#00CE9D"/><path d="M532 357v79h16l3-79h-19Z" fill="#437D6F"/><path d="m552 374-95-1v2l94 2 1-3ZM564 441v4l-116-1v-5l116 2ZM571 349l-2 4-132-3-3-6 137 5Z" fill="#CE5353"/><path opacity=".4" d="m460 379 3 57h78c-1-6-3-13-8-20-16-23-51-33-73-37Z" fill="#B5EEDD"/><path opacity=".2" d="m319 365 3 5c23 33 64 45 92 49h3a555 555 0 0 0 185-34l50-52-234-3-98-1v11l-1 25Z" fill="#520649"/><path d="m873 329-6 156h-18l-2-156h26Z" fill="#EACCBC"/><path d="m845 484 4 1-1-156h-8l5 155Z" fill="#BF7268"/><path d="m927 320-2 11-525 6v-13l527-4Z" fill="#EAECED"/><path d="m779 349-63 1-3 133 65-2 1-132Z" fill="#A33549"/><path d="m776 352-1 128-59 3 2-131h58Z" fill="#7E2438"/><path d="m770 356-48 1v37h47l1-38ZM769 399l1 78-49 1 2-80 46 1Z" fill="#A33651"/><path d="M764 402a4 4 0 1 1 7 0 4 4 0 0 1-7 0Z" fill="#5A1C2D"/><path opacity=".4" d="M763 404a4 4 0 1 1 8 0 4 4 0 0 1-8 0Z" fill="#520649"/><path d="m247 334 152-8h4l16-92-102 59-70 41Z" fill="#6D1430"/><path d="m404 324-2 13-155 2v-5c52-3 104-8 157-10Z" fill="#B29587"/><path opacity=".3" d="m692 231 12 9h77v-7l-12-5v4l-77-1Z" fill="#5C0048"/><path d="m761 228 5-86-69-6 2 92h62Z" fill="#CE5353"/><path opacity=".3" d="m776 138 8 9v9l-91-9-5-11 86 6 2-4Z" fill="#5C0048"/><path d="M701 142v24l1 57h56l1-78-58-3Z" fill="#00CE9D"/><path d="m750 145-3 78h11l1-78h-9Z" fill="#437D6F"/><path d="m762 162-63-2v3l63 2v-3ZM769 228v4l-77-1v-4l77 1ZM775 138l-1 4-87-6-2-6 90 8Z" fill="#CE5353"/><path opacity=".4" d="m701 166 1 57h51c0-6-1-13-4-20-11-23-33-33-48-37Z" fill="#B5EEDD"/><path opacity=".3" d="m465 227 12 8h77v-6l-12-6v4h-77Z" fill="#5C0048"/><path d="m534 223 5-86-69-5 2 91h62Z" fill="#CE5353"/><path opacity=".3" d="m549 133 9 10v8l-92-9-4-11 85 6 2-4Z" fill="#5C0048"/><path d="M474 137v25l1 57h56l2-79-59-3Z" fill="#00CE9D"/><path d="m523 140-2 79h10l2-79h-10Z" fill="#437D6F"/><path d="m535 157-63-1v2l63 2v-3ZM542 223v4h-77v-5l77 1ZM548 133l-1 4-87-6-2-6 90 8Z" fill="#CE5353"/><path opacity=".4" d="m474 162 1 57h52c-1-7-2-13-5-20-10-23-33-33-48-37Z" fill="#B5EEDD"/><path opacity=".6" d="m718 510-10-6v-12l-11-2-1 28 22 12v-20Z" fill="#B47A8C"/><path opacity=".2" d="M701 367a203 203 0 0 1 137 44l2-79-138 1-1 34Z" fill="#520649"/><path d="m851 148-41 23-1-24 2-1 40 2Z" fill="#B29587"/><path d="m615 125 40 2 3-16 82-42 2 3 70 57-1 17 40 2-107-93-126 68-3 2Z" fill="#EAECED"/><path opacity=".2" d="M654 285a656 656 0 0 0-234-52l178 7 56 45Z" fill="#520649"/><path opacity=".2" d="m852 285 56 30-488 3 8-35a1321 1321 0 0 0 424 2Z" fill="#FFE1FF"/><path d="M918 524c92 26 309 91 309 91l4 18H819v-14s-70-65-98-89c63-4 135-3 197-6Z" fill="#CEB2AD"/><path d="M1230 634 918 523l2-8 306 101 4 18Z" fill="#E5D1B3"/><path opacity=".1" d="m1101 324-132 3-77-53 209 50Z" fill="#FFE1FF"/><path d="m1085 369-2 57H886v-54l199-3Z" fill="#AAB5BD"/><path opacity=".2" d="m1083 373-1 7-193 3v-8l194-2ZM1083 384l-1 7-193 3v-8l194-2ZM1083 397l-1 6-193 4v-8l194-2ZM1083 409l-1 3-193 3v-5l194-1ZM1083 417l-1 4-193 2v-5l194-1Z" fill="#520649"/><path opacity=".5" d="m739 526 217 130h264L832 524l-93 2Z" fill="#E5D1B3"/><path d="M1438 614c-34-5-50-11-107-28a4160 4160 0 0 0-379-89l-57-8h63a3150 3150 0 0 1 625 125c-34 5-85 9-145 0Z" fill="#CEB2AD"/><path d="M1074 494c27 2 159 6 214 14a3310 3310 0 0 1 392 80v34l-37-4c-35-5-50-11-108-28-81-24-128-35-198-52-68-16-135-28-180-32l-144-14 61 2Z" fill="#CEB2AD"/><path opacity=".5" d="M1622 584a1914 1914 0 0 0-428-78 1864 1864 0 0 1 439 109c24 3 36 3 37 0 2-5-14-15-48-31Z" fill="#E5D1B3"/><path d="M363 365h1l-5-10c-3-8-3-17-3-25 2-13 7-26 15-35h-1c-3 0-5-2-5-2l3-2-1-3s2-1 4 1l3 4 9-8c19-11 43-6 57 12 4 5 7 12 8 18 2 10 1 20-3 29a17 17 0 0 1 10 1l-1 1-6 1h-4v1c3 1 5 5 5 5l-6-2h-1c-5 8-12 15-20 20a114 114 0 0 1-3 21l-5 13c-3 3-5 7-6 11l-2 13-1 26c-1 35 1 70-1 106h-2c1-36-1-71-1-106l1-25-8-15-3-4-2-5-2-10-2-16a32 32 0 0 1-13-7v1a10 10 0 0 1-3 6v-2l-1-4 1-3h-1c-1 3-4 4-4 4l1-6h1-6l-2-1 2-1 3-2Zm55 13v-4h-1l-2 1a12 12 0 0 1 2 7v-1l1-3Zm-1 7-3-4-1 1-1 1v-2l-1-3v-1l-7 2v1l2 5 3 4 5 7 3-11Zm-27 11 2 9c0 3 2 6 4 9l7 11 2-10 5-12 2-4-5-8-4-5-2-6a43 43 0 0 1-12 0l1 16Z" fill="#705021"/><path d="m360 367-2 1 2 1h6-1l-1 6s3-1 4-4l1-1v1a12 12 0 0 0 0 9l2-2 1-4v-1a30 30 0 0 0 13 7h4a18 18 0 0 0 5 1l7-1 3-1 7-2v1l1 3v2l1-1 1-1 3 4v-4 1-4l-2-3 2-1h1l4-3a61 61 0 0 0 20-20h1l6 2s-2-4-5-5v-1h4l6-1 1-2h-2a18 18 0 0 0-8 0c4-9 5-19 3-29-1-6-4-13-8-18-14-18-38-23-57-12a46 46 0 0 0-9 7l-3-3c-2-2-4-1-4-1l1 3-3 2s2 2 5 2h1a63 63 0 0 0-12 60l5 10h-1l-3 2Z" fill="#B4B013"/><path opacity=".3" d="m360 367-2 1 2 1h6-1l-1 6s3-1 4-4l1-1v1a12 12 0 0 0 0 9l2-2 1-4v-1a30 30 0 0 0 13 7h4a18 18 0 0 0 5 1l7-1 3-1 7-2v1l1 3v2l1-1 1-1 3 4v-4 1-4l-2-3 2-1h1l4-3c8-5 15-12 20-20h-1c-17 7-31 7-38 6-8 0-15-1-22-6-10-7-17-20-16-32 0-8 3-14 7-22l5-7-3 3-3-4c-2-2-4-1-4-1l1 3-3 2s2 2 5 2h1a63 63 0 0 0-12 60l5 10h-1l-3 2Z" fill="#3A0C30"/><path d="M463 510a51 51 0 0 0-7 10l-1 1-1 2-1 2-1 2v1l-1 1-1 1v2l-1 2v2l-1 1v5l-1 2v12l1 2v6l1 2 1 4v2l1-2 2-7 1-8 2-7 1-4 1-4 1-3v-4l1-4 1-4 1-3v-4l1-4 1-4h-1Zm0 1-1 3-1 4-1 3v4l-1 4-1 3-1 4-1 4-1 4-1 3-1 8-2 7-1 8h1l-1-4-1-2v-2l-1-2v-16l1-2 1-4v-2l1-1v-2l1-1v-2l1-1v-2l2-3 1-2 1-2 1-1v-1l1-1a74 74 0 0 1 4-6Z" fill="#644633"/><path d="M481 467c-6-10-29-5-32-5-16 4-27 14-32 20-3-1-9-2-16 0-10 3-19 15-15 27 3 10 13 16 24 15h19c0 3 1 7 4 10 8 10 31 8 36-2 1-2 2-4 1-9l17 5c16 3 33 6 41-2 9-10 7-32-6-44-11-9-26-11-40-5 1-3 1-7-1-10Z" fill="#EAE341"/><path d="m526 529-2 2c-9 6-24 3-39 0-7-1-13-3-16-5l-1 10c-6 10-29 12-37 1-3-3-4-7-4-10h-18c-12 2-22-5-25-15l-1-6c1-10 8-18 16-21 7-2 13 0 16 1 5-7 16-17 32-20 3-1 26-6 32 4 2 4 2 8 1 11 14-7 29-5 40 4 13 12 15 35 6 44Z" fill="#C8C221"/><path d="M445 492c-1 0-6 2-6 5s5 5 6 6c7 3 16 2 23-4 2-1 8-7 7-14-1-5-5-8-7-9l2 4c0 6-5 11-10 12-5 2-9-2-15 0Z" fill="#A0A000"/><path d="M509 515a14 14 0 0 0 1 1l3 2 1 1a5 5 0 0 0 2 0h1v-1h2v-1h1l1-1v-1a18 18 0 0 0 3-8v-3c0-1 0 0 0 0v-3l-1-1v-2h-1l-2-3-4-3h-1l-1-1h-2v-1h-4l-1-1h-4v1h-2c1 0 0 0 0 0h-1l-4 2a22 22 0 0 0-8 8l-1 1v1l-1 1v2l-1 1v3l-1 1v7-2l-1-1v-6h1a26 26 0 0 1 3-10l1-1v-1l1-1a21 21 0 0 1 10-7h9l4 2 8 4v1h1v1h1v1l1 1v1h1v1l1 1v2l1 3v3h-1v2a16 16 0 0 1-3 6l-1 1a9 9 0 0 1-1 1h-2v1h-3a7 7 0 0 1-3-2 11 11 0 0 1-3-2v-1Z" fill="#EAE341"/><path d="M446 490c-2 0 2-7 0-8l-5 2c0 2 0 3 2 4l-4 4c0 3 6 7 11 6 6-2 11-10 8-14-8-7-10 1-11 2s2-1 1 1c0 2-1 3-2 3ZM478 505h4l-1-2h-2l-2-2c-2 0-4 3-4 6 1 4 6 6 8 5 4-4 0-6-1-6h-1l-1-1Z" fill="#A2207C"/><path d="m501 474 4-2-2-1-2 1h-3c-1 1-1 5 1 7s7 2 8 0c2-6-3-5-4-5v1l-2-1Z" fill="#E25ED6"/><path d="m427 507-3-2-3 3h4s-2 0-2 2v3c3 2 7 0 8-1 4-6-1-3-1-4 0-3 2-5-3-5l-1 3 3 1h-2Z" fill="#A2207C"/><path d="m434 470-2-2-2 3h3l-2 1 1 3c2 2 6 0 6-1 3-5-1-2-1-4s2-3-2-3l-1 2 2 1h-2Z" fill="#D03EC3"/><path d="M442 511c-2 0-8 0-11 5-4 4-3 10-3 11 1-3 2-6 5-9 7-7 21-1 21-3 1-1-5-5-12-4Z" fill="#A0A000"/><path d="M421 494s-4-6-10-8c-8-1-16 3-16 4l6-1c12 0 19 6 20 5ZM524 531c-9 6-24 3-39 0-7-1-13-3-16-5l-1 10c-6 10-29 12-37 1-3-3-4-7-4-10h-18c-12 2-22-5-25-15l-1-6 5 8c5 5 11 6 16 7 11 2 20 0 26-3-1 2-2 6-1 10 1 8 9 13 10 13 6 3 14 4 20 0 2 0 5-3 7-7s2-8 1-10l15 5c11 2 19 4 30 3l12-1Z" fill="#7E7B0A"/><path d="m416 520 2 2 2 1 1 1 1 1 3 2 1 2 2 1 1 1 1 2 2 1 1 2 2 3 1 1 2 2 2 3 2 4 1 1v2l1 1v1l1 2 1 2v2l1 1v2l1 2v2l1 4-2-3-2-4-4-6-4-7-2-3-2-3-2-3-2-3-3-4-2-3-2-3-2-3-2-3-2-3Zm-1 0 2 3 2 4 2 3 2 3 2 3 2 4 2 3 2 3 3 3 2 3 4 7 4 6 2 3 3 3 1 2v-2l-1-4-1-2v-2l-1-2v-2l-1-2v-1l-1-1v-1l-1-1v-1l-2-4-1-3-2-4-1-1-1-1v-1h-1l-2-3-1-2-2-1-1-2-2-1-1-1-2-2-1-1-2-1a60 60 0 0 0-7-4ZM434 497l2 4 1 2 1 2 1 2 1 2 1 4 1 1v1l1 2 1 2a39 39 0 0 1 1 7v1l1 1v2h1l-2-4v-2l-1-2-1-4a172 172 0 0 0-3-9l-1-2-1-2-1-2-1-2-2-4Zm0 0a113 113 0 0 0 2 6l1 3v2l1 2a251 251 0 0 0 3 8l1 4 1 2 1 2 2 4 1 5v-5l-1-1v-3l-1-2v-3l-1-2v-2l-1-2a58 58 0 0 0-1-4v-1l-1-1a62 62 0 0 0-2-5l-1-2a44 44 0 0 0-4-5ZM489 516a49 49 0 0 0-6 4l-2 2-1 1-2 1-1 2-1 1-1 1-1 1-1 1v1h-1v1l-1 2-1 1-2 4-1 1v1l-1 2v2l-1 1-1 2v3l-1 1v2l-1 4v4l-1 4v6l1-2 4-6 3-7 4-7 2-3 1-4 2-3 2-3 1-4 2-3 2-4 1-3 2-4 2-3h-1Zm0 0-2 3-1 3-2 4-2 3-2 3-2 4-1 3-2 4-2 3-2 3-3 7-3 7-4 7h1v-8l1-2v-6l1-2v-1l1-2 1-2v-1l1-1v-2l1-2 1-1 1-2 1-2 1-2 1-1 1-1v-1s0 1 0 0l1-1 1-1 1-1 1-1a74 74 0 0 1 11-11ZM473 491a118 118 0 0 0-1 9v3l-1 2v6l-1 3v6a60 60 0 0 1-3 8l-1 3a50 50 0 0 1-2 5h1l1-5 1-3v-3l2-6a303 303 0 0 0 2-11v-3l1-3v-2l1-3 1-6h-1Zm0 0-1 6-1 2v3l-1 3-1 3a377 377 0 0 0-2 11l-1 6-1 3v2l-1 6-1 4 2-4v-1l1-1v-2l1-1 1-3 1-3 1-2v-3l1-3 1-3v-6l1-2v-9l1-3v-4l-1 1Z" fill="#644633"/><path d="M669 531c2-8 2-10 1-10l-4 4-2 5c0-3-2-5-3-5l-1 5c-2-3-5-4-8-3-4 1-5 4-5 5l-22-3a53 53 0 0 0-36 5c11 5 40 15 68 3l12-6Z" fill="#B4B013"/><path d="M512 535a91 91 0 0 1 4 6l1 1v1l1 1 1 2 1 2 2 3v1l1 1v2l1 1v3l1 1v2l1 4 1 2v16l-1 2v4l-2 4h1l-1-8-2-7-1-8-1-3-1-4-1-4-1-4v-3l-1-4-1-4-1-3-1-4-1-3Zm0-1v4l1 4 1 4v3l1 4 1 4 1 4v3l1 4 1 4 2 7 2 8 1 7 1 2v-2l1-4 1-2v-2l1-4v-14l-1-2v-5l-1-1v-2l-1-2v-2l-1-1v-1l-1-1-1-2-1-2-1-2-1-1a51 51 0 0 0-7-10Z" fill="#603112"/><path d="M494 491c6-10 29-5 32-5 16 4 27 14 32 20 3-1 9-2 16 0 10 3 19 15 15 27-3 10-13 16-24 15h-19c0 3-1 7-3 10-9 10-32 8-37-2-1-2-2-4-1-9l-17 5c-16 3-33 6-41-2-9-10-7-32 6-44 11-9 27-11 40-5 0-3-1-7 1-10Z" fill="#EAE341"/><path d="m449 553 2 2c9 6 24 3 39 0 7-1 13-3 17-5-1 5 0 8 1 10 5 10 28 12 37 1 2-3 3-7 3-10h19c11 2 21-5 24-15l1-6c-1-10-8-18-16-21-7-2-13 0-16 1-5-7-16-17-32-20-3-1-26-6-32 4-2 4-2 8-1 11-14-7-29-5-40 4-13 12-15 35-6 44Z" fill="#EBD300"/><path d="M530 516c1 0 6 2 6 5s-5 5-6 6c-6 3-16 2-23-4-1-1-8-7-7-14 1-5 5-8 7-9l-1 4c0 6 4 11 9 12 6 2 9-2 15 0Z" fill="#A0A000"/><path d="M529 514c2 0-2-7 0-8l5 2c0 2 1 3-2 4 4 2 4 3 4 4 0 3-6 7-11 6-6-2-11-10-7-14 7-7 9 1 10 2s-2-1-1 1c0 2 1 3 2 3Z" fill="#7E21D7"/><path d="M497 529h-4l1-2h2l2-2c2 0 4 3 4 6-1 4-6 6-8 5-4-4 0-6 1-6h1l1-1Z" fill="#65208C"/><path d="M474 498c1-1-4-1-4-2l2-1 2 1h3c1 1 2 5 0 7-3 2-8 2-9 0-1-6 3-5 4-5v1l2-1Z" fill="#7E21D7"/><path d="m549 531 2-2 3 3h-4s2 0 2 2v3c-3 2-7 0-8-1-4-6 1-3 1-4 0-3-2-5 3-5l1 3-3 1h3Z" fill="#65208C"/><path d="m541 494 2-2 2 3h-3l2 1-1 3c-2 2-5 0-6-1-3-5 1-2 1-4s-2-3 2-3l1 2-2 1h2Z" fill="#7E21D7"/><path d="M533 535c2 0 8 0 12 5 3 4 2 10 2 11-1-3-2-6-5-9-7-7-21-1-21-3-1-1 5-5 12-4Z" fill="#7E7B0A"/><path d="M554 518s4-6 10-8c8-1 16 3 16 4l-6-1c-11 0-19 6-20 5Z" fill="#EAE341"/><path d="M451 555c9 6 24 3 39 0 7-1 13-3 17-5-1 5 0 8 1 10 5 10 28 12 37 1 2-3 3-7 3-10h19c11 2 21-5 24-15l1-6-5 8c-5 5-11 6-16 7-11 2-20 0-26-3 1 2 2 6 1 10-1 8-9 13-10 13-6 3-14 4-20 0-2 0-5-3-7-7s-1-8-1-10l-15 5c-11 2-19 4-30 3l-12-1Z" fill="#7E7B0A"/><path d="M560 544a60 60 0 0 0-7 4l-2 1-1 1-2 2-1 1-2 1-1 2-2 1-1 2-2 3h-1v2l-2 1-2 4-1 3-2 4v1l-1 1v2l-1 1-1 2v2l-1 2v2l-1 2v4l-1 2 1-2 3-3 2-3 4-6 4-7 3-3 2-3 2-3 2-3 2-4 2-3 2-3 2-3 2-4 2-3Zm-1 0-2 3-2 3-2 3-2 3-2 3-3 4-2 3-2 3-2 3-2 3-4 7-4 6-2 4-2 3h1v-6l1-2v-2l1-1v-2l1-2 1-2v-1l1-1v-2l1-1 2-4 3-3 1-2 1-1 2-3 2-2 1-1 1-2 2-1 1-1 1-2 3-2 1-1 1-1 2-1 2-2ZM541 521l-2 2-1 2-1 2-1 1a75 75 0 0 0-2 5v1l-1 1a24 24 0 0 0-1 2 54 54 0 0 0-1 4v2l-1 2v3l-1 2v3l-1 1v5l1-5 2-4 1-2 1-2 1-4a176 176 0 0 0 3-8l1-2v-2l1-3a149 149 0 0 0 2-6Zm0 0a129 129 0 0 0-3 6l-1 2-1 2v2a209 209 0 0 0-3 8l-2 5-1 2v2l-2 4h1l1-2v-4l1-1a26 26 0 0 1 0-4l1-2 1-2v-1l1-1 1-4 1-2 1-2 1-2 1-2 2-4ZM486 540a95 95 0 0 1 11 11l2 1v1l1 1 1 1v1s0-1 0 0l1 1 1 2 1 1 1 2 1 2h1v1l1 2 1 2v2l1 2 1 2v1l1 2v5l1 1v10h1l-4-7-3-7-3-7-2-3-2-3-1-4-2-3-2-3-2-4-2-3-1-4-2-3-2-3Zm0 0 1 3 2 4 1 3 2 4 2 3 1 4 2 3 2 3 1 4 2 3 4 7 3 7 4 6 1 2v-6l-1-4v-4l-1-4v-2l-1-1v-3l-1-2v-1l-1-2-1-2v-1l-1-1-2-4-1-1-1-2v-1h-1v-1l-1-1-1-1v-1l-2-1-1-2-2-1-1-1-2-2a49 49 0 0 0-6-4h-1 1ZM501 515a141 141 0 0 0 1 9v6l1 2v6l1 3 1 3v3l1 2 1 3 1 3 1 1v2l1 1v1l2 4-1-4-1-6v-2l-1-3-1-6a289 289 0 0 0-2-11l-1-3v-3l-1-3a278 278 0 0 0-2-8l-1-1v1Zm0 0 1 6 1 3v3l1 2v3a364 364 0 0 0 2 11l2 6v3l1 3 1 5h1a67 67 0 0 1-5-13v-3l-1-3v-6l-1-3v-3l-1-2v-3a136 136 0 0 0-1-9h-1Z" fill="#603112"/><path d="m742 548 2-4c1-2-1-4-1-4l-1 3-1 4-1-2-1 1 1 2h2Z" fill="#B4B013"/><path d="m1117 249 118 100c122 2 242 5 365 6v-6l-3-1-20-10-159-75-228-10-73-4Z" fill="#9B9450"/><path opacity=".2" d="m1521 466-1 4h-53l1-8h3l3-63 30 2 17 65Z" fill="#601C50"/><path d="M1533 393v8h-8l-3 58h6v6h-58v-6h5l2-59-6-1v-6h62Z" fill="#865E3F"/><path opacity=".2" d="m1521 402-40-1-3 58h13a74 74 0 0 0 29-40l1-17Z" fill="#ACACFF"/><path opacity=".2" d="M1342 466v4h-53v-8h4l2-63 31 2 16 65Z" fill="#601C50"/><path d="M1355 393v8h-8l-3 58h6v6h-58v-6h5l2-59-6-1v-6h62Z" fill="#865E3F"/><path opacity=".2" d="m1342 402-40-1-2 58h13a74 74 0 0 0 29-40v-17Z" fill="#ACACFF"/><path opacity=".3" d="M1247 438a913 913 0 0 1 324-45l1-29v-1l5 1v-7l-328 3-2 78Z" fill="#601C50"/><path d="M1227 343v17l345 4v-1l28 2v-16l-3-1-370-5Z" fill="#EAE3A3"/><path opacity=".6" d="M1190 253c20 11 38 19 51 25a760 760 0 0 0 336 60l-159-75-228-10Z" fill="#E6D76E"/><path d="M1402 500a26 26 0 0 0 3 6l21-1h1l14-1h2l28-1h5a41 41 0 0 0 3-6c0-2 0-5-2-6s-3 0-5 1l-1 2-3 4a79 79 0 0 0 4-11c2-5 3-11 0-14l-2-1c-9-4-12 4-13 5v1-1c1-1 5-14-1-14-4 0-5 9-5 16l-1 1v-2c0-9-1-23-8-24h-2c-10 1-8 31-8 31l-6-11-2-1-4-1c-5 3-4 17-4 17s-5-10-7-6c-3 4 1 14 1 14s-6-7-8-3v6Z" fill="url(#b)"/><g opacity=".3"><path opacity=".3" d="M1457 477v1c2-4 11-9 14-1 2 7-4 22-4 22s7-8 10-6v9c1-3 4-10 0-11l-5 1-1 2-3 4a79 79 0 0 0 4-11c2-5 3-11 0-14l-2-1c-9-4-12 4-13 5Z" fill="url(#c)"/><path opacity=".3" d="M1451 479v2s3-16 6-16 1 9 0 12c1-1 5-14-1-14-4 0-5 9-5 16Z" fill="url(#d)"/><path opacity=".3" d="m1402 500 3 6c-1-4-2-8-1-10 2-3 7 4 7 4-3-5-3-14-1-15 3-2 6 6 6 6s1-13 5-15c5-2 12 12 12 12-1-5 0-29 8-30 6-1 9 14 9 20 0-9-1-23-8-24h-2c-10 1-8 31-8 31l-6-11-2-1-4-1c-5 3-4 17-4 17s-5-10-7-6c-3 4 0 14 0 14s-5-7-7-3v6Z" fill="url(#e)"/></g><path opacity=".3" d="m1404 504 1 2 21-1h1l14-1h2l28-1h5a41 41 0 0 0 3-6c-3 2-11 5-14 1 0 0-12 9-19 3-6-5-6-10-5-12-1 3-4 14-10 12-4-2-6-6-7-9 1 4 0 10-5 10-8 0-8-7-8-7s-1 10-7 9Z" fill="url(#f)"/><path d="m679 567-1 4-1 1-21 1h-17l-28 1h-5v-1a32 32 0 0 1-3-5c-1-3-1-6 1-7l5 2 1 1 4 4a79 79 0 0 1-5-10c-2-6-3-12 0-15l1-1c9-4 13 4 13 5 0-2-5-14 1-14 3-1 5 8 6 15v2-3c0-9 1-23 8-25h1c10 1 10 32 10 32s2-8 6-12l1-1c1-1 3-2 4-1 6 2 5 17 5 17s4-11 7-7 0 14 0 14 5-7 7-3v6Z" fill="url(#g)"/><g opacity=".3"><path opacity=".3" d="m623 547 1 1c-3-4-12-9-14-1s4 22 4 22-7-7-9-5c-2 1-1 5 0 8-2-3-5-9-1-11l5 2 1 1 4 4a79 79 0 0 1-5-10c-2-6-3-12 0-15l1-1c9-4 13 4 13 5Z" fill="url(#h)"/><path opacity=".3" d="M630 548v2s-4-16-7-15c-3 0 0 9 0 12 0-2-5-14 1-14 3-1 5 8 6 15Z" fill="url(#i)"/><path opacity=".3" d="M679 567c0 3-2 5-2 5 1-3 2-8 1-9-2-3-8 4-8 4 3-5 3-14 0-15s-5 7-5 7-1-14-6-15c-4-2-11 13-11 13 1-5-2-30-10-30-6-1-7 14-8 20 0-9 0-23 8-25h1c10 1 10 32 10 32s2-8 6-12l1-1c1-1 3-2 4-1 6 2 5 17 5 17s4-11 7-7 0 14 0 14 5-7 7-3v6Z" fill="url(#j)"/></g><path d="M1542 498a34 34 0 0 0 3 8h1l28-1h2l18-1h2l38-1h7v-1a40 40 0 0 0 3-7c1-4 1-8-2-9l-6 2-2 2-4 6a104 104 0 0 0 6-14c2-8 3-16-1-20a7 7 0 0 0-2-2c-12-4-17 7-18 8 1-2 6-19-1-19-5 0-7 12-7 21l-1 2v-3c0-12-2-31-12-33h-2c-13 1-10 43-10 43s-4-10-9-15l-2-1c-1-2-3-3-5-2-8 3-6 23-6 23s-6-14-10-9c-4 6 1 19 1 19s-7-9-9-4v8Z" fill="url(#k)"/><g opacity=".3"><path opacity=".3" d="M1615 468v1c3-5 15-12 19-2 3 10-5 30-5 30s10-10 13-8c2 2 1 8 0 12 2-4 5-13 0-15l-6 2-2 2-4 6a104 104 0 0 0 6-14c2-8 3-16-1-20a7 7 0 0 0-2-2c-12-4-17 7-18 8Z" fill="url(#l)"/><path opacity=".3" d="M1607 470v3s4-22 8-21c4 0 1 12 0 16 1-2 6-19-1-19-5 0-7 12-7 21Z" fill="url(#m)"/><path opacity=".3" d="m1542 498 3 8h1c-3-5-4-11-2-13 2-4 10 5 10 5-4-6-5-18-1-20s8 8 8 8 0-17 6-20c6-2 16 17 16 17-2-7 1-40 11-41 8-1 11 19 12 27 0-12-2-31-12-33h-2c-13 1-10 43-10 43s-4-10-9-15l-2-1c-1-2-3-3-5-2-8 3-6 23-6 23s-6-14-10-9c-4 6 1 19 1 19s-7-9-9-4v8Z" fill="url(#n)"/></g><path opacity=".3" d="m1544 504 1 2h1l28-1h2l18-1h2l38-1h7v-1a41 41 0 0 0 3-7c-4 2-13 7-18 1 0 0-16 12-26 4-8-6-7-14-7-16 0 3-4 18-13 16-6-3-8-8-9-12 1 5 1 13-7 13-10 0-10-9-10-9s-2 13-10 12Z" fill="url(#o)"/></g><path fill="url(#p)" d="M220 0h199v550H220z"/><path fill="url(#q)" d="M1516 0h199v550h-199z"/></g><defs><linearGradient id="b" x1="1440.9" y1="505.6" x2="1437.1" y2="418.8" gradientUnits="userSpaceOnUse"><stop offset="0" stop-color="#AA9D00"/><stop offset="1" stop-color="#989D00"/></linearGradient><linearGradient id="c" x1="1468.7" y1="502.6" x2="1466.3" y2="449.7" gradientUnits="userSpaceOnUse"><stop offset="0" stop-color="#AA9D00"/><stop offset="1" stop-color="#989D00"/></linearGradient><linearGradient id="d" x1="1455.1" y1="480.9" x2="1453.8" y2="451.3" gradientUnits="userSpaceOnUse"><stop offset="0" stop-color="#AA9D00"/><stop offset="1" stop-color="#989D00"/></linearGradient><linearGradient id="e" x1="1427" y1="505.4" x2="1423.2" y2="419.9" gradientUnits="userSpaceOnUse"><stop offset="0" stop-color="#AA9D00"/><stop offset="1" stop-color="#989D00"/></linearGradient><linearGradient id="f" x1="1441.4" y1="505" x2="1440.3" y2="478.7" gradientUnits="userSpaceOnUse"><stop offset="0" stop-color="#AA9D00"/><stop offset="1" stop-color="#989D00"/></linearGradient><linearGradient id="g" x1="641" y1="574.3" x2="640.5" y2="487.4" gradientUnits="userSpaceOnUse"><stop offset="0" stop-color="#AA9D00"/><stop offset="1" stop-color="#989D00"/></linearGradient><linearGradient id="h" x1="613.2" y1="572.7" x2="612.8" y2="519.7" gradientUnits="userSpaceOnUse"><stop offset="0" stop-color="#AA9D00"/><stop offset="1" stop-color="#989D00"/></linearGradient><linearGradient id="i" x1="625.7" y1="550.4" x2="625.5" y2="520.8" gradientUnits="userSpaceOnUse"><stop offset="0" stop-color="#AA9D00"/><stop offset="1" stop-color="#989D00"/></linearGradient><linearGradient id="j" x1="654.9" y1="573.4" x2="654.4" y2="487.9" gradientUnits="userSpaceOnUse"><stop offset="0" stop-color="#AA9D00"/><stop offset="1" stop-color="#989D00"/></linearGradient><linearGradient id="k" x1="1593.7" y1="506" x2="1588.5" y2="389.3" gradientUnits="userSpaceOnUse"><stop offset="0" stop-color="#AA9D00"/><stop offset="1" stop-color="#989D00"/></linearGradient><linearGradient id="l" x1="1631" y1="501.9" x2="1627.8" y2="430.8" gradientUnits="userSpaceOnUse"><stop offset="0" stop-color="#AA9D00"/><stop offset="1" stop-color="#989D00"/></linearGradient><linearGradient id="m" x1="1612.7" y1="472.8" x2="1610.9" y2="433" gradientUnits="userSpaceOnUse"><stop offset="0" stop-color="#AA9D00"/><stop offset="1" stop-color="#989D00"/></linearGradient><linearGradient id="n" x1="1574.9" y1="505.7" x2="1569.8" y2="390.8" gradientUnits="userSpaceOnUse"><stop offset="0" stop-color="#AA9D00"/><stop offset="1" stop-color="#989D00"/></linearGradient><linearGradient id="o" x1="1594.3" y1="505.1" x2="1592.7" y2="469.9" gradientUnits="userSpaceOnUse"><stop offset="0" stop-color="#AA9D00"/><stop offset="1" stop-color="#989D00"/></linearGradient><linearGradient id="p" x1="213.7" y1="290" x2="405.1" y2="290" gradientUnits="userSpaceOnUse"><stop stop-color="#2F54EB"/><stop offset="1" stop-color="#2F54EB" stop-opacity="0"/></linearGradient><linearGradient id="q" x1="1509.8" y1="290" x2="1701.2" y2="290" gradientUnits="userSpaceOnUse"><stop stop-color="#2F54EB" stop-opacity="0"/><stop offset="1" stop-color="#2F54EB"/></linearGradient><clipPath id="a"><path fill="#fff" d="M0 0h1920v550H0z"/></clipPath></defs></svg>