<svg width="152" height="25" viewBox="0 0 152 25" fill="none" xmlns="http://www.w3.org/2000/svg">
    <path d="M17.3362 14.3068C17.2478 14.393 17.2074 14.5172 17.2283 14.6389L18.2435 20.5525C18.296 20.8587 17.9746 21.0924 17.6995 20.9479L12.3876 18.1584C12.2784 18.101 12.1479 18.101 12.0387 18.1584L6.72695 20.9507C6.45182 21.0953 6.13028 20.8617 6.18287 20.5553L7.19794 14.642C7.21882 14.5204 7.17851 14.3963 7.09015 14.3101L2.79329 10.1201C2.57079 9.90316 2.69362 9.52524 3.00115 9.48054L8.94024 8.61724C9.06238 8.59948 9.16797 8.52276 9.22259 8.41208L11.8768 3.03327C12.0144 2.75453 12.4119 2.75453 12.5494 3.03327L15.2037 8.41208C15.2583 8.52276 15.3639 8.59948 15.486 8.61724L21.4248 9.48049C21.7324 9.52521 21.8552 9.90323 21.6326 10.1202L17.3362 14.3068Z" fill="#FA8C16"/>
    <path d="M49.3362 14.3068C49.2478 14.393 49.2074 14.5172 49.2283 14.6389L50.2435 20.5525C50.296 20.8587 49.9746 21.0924 49.6995 20.9479L44.3876 18.1584C44.2784 18.101 44.1479 18.101 44.0387 18.1584L38.7269 20.9507C38.4518 21.0953 38.1303 20.8617 38.1829 20.5553L39.1979 14.642C39.2188 14.5204 39.1785 14.3963 39.0901 14.3101L34.7933 10.1201C34.5708 9.90316 34.6936 9.52524 35.0012 9.48054L40.9402 8.61724C41.0624 8.59948 41.168 8.52276 41.2226 8.41208L43.8768 3.03327C44.0144 2.75453 44.4119 2.75453 44.5494 3.03327L47.2037 8.41208C47.2583 8.52276 47.3639 8.59948 47.486 8.61724L53.4248 9.48049C53.7324 9.52521 53.8552 9.90323 53.6326 10.1202L49.3362 14.3068Z" fill="#FA8C16"/>
    <path d="M81.3362 14.3068C81.2478 14.393 81.2074 14.5172 81.2283 14.6389L82.2435 20.5525C82.296 20.8587 81.9746 21.0924 81.6995 20.9479L76.3876 18.1584C76.2784 18.101 76.1479 18.101 76.0387 18.1584L70.7269 20.9507C70.4518 21.0953 70.1303 20.8617 70.1829 20.5553L71.1979 14.642C71.2188 14.5204 71.1785 14.3963 71.0901 14.3101L66.7933 10.1201C66.5708 9.90316 66.6936 9.52524 67.0012 9.48054L72.9402 8.61724C73.0624 8.59948 73.168 8.52276 73.2226 8.41208L75.8768 3.03327C76.0144 2.75453 76.4119 2.75453 76.5494 3.03327L79.2037 8.41208C79.2583 8.52276 79.3639 8.59948 79.486 8.61724L85.4248 9.48049C85.7324 9.52521 85.8552 9.90323 85.6326 10.1202L81.3362 14.3068Z" fill="#FA8C16"/>
    <path d="M113.336 14.3068C113.248 14.393 113.207 14.5172 113.228 14.6389L114.243 20.5525C114.296 20.8587 113.975 21.0924 113.7 20.9479L108.388 18.1584C108.278 18.101 108.148 18.101 108.039 18.1584L102.727 20.9507C102.452 21.0953 102.13 20.8617 102.183 20.5553L103.198 14.642C103.219 14.5204 103.179 14.3963 103.09 14.3101L98.7933 10.1201C98.5708 9.90316 98.6936 9.52524 99.0012 9.48054L104.94 8.61724C105.062 8.59948 105.168 8.52276 105.223 8.41208L107.877 3.03327C108.014 2.75453 108.412 2.75453 108.549 3.03327L111.204 8.41208C111.258 8.52276 111.364 8.59948 111.486 8.61724L117.425 9.48049C117.732 9.52521 117.855 9.90323 117.633 10.1202L113.336 14.3068Z" fill="#FA8C16"/>
    <path d="M145.336 14.3068C145.248 14.393 145.207 14.5172 145.228 14.6389L146.243 20.5525C146.296 20.8587 145.975 21.0924 145.7 20.9479L140.388 18.1584C140.278 18.101 140.148 18.101 140.039 18.1584L134.727 20.9507C134.452 21.0953 134.13 20.8617 134.183 20.5553L135.198 14.642C135.219 14.5204 135.179 14.3963 135.09 14.3101L130.793 10.1201C130.571 9.90316 130.694 9.52524 131.001 9.48054L136.94 8.61724C137.062 8.59948 137.168 8.52276 137.223 8.41208L139.877 3.03327C140.014 2.75453 140.412 2.75453 140.549 3.03327L143.204 8.41208C143.258 8.52276 143.364 8.59948 143.486 8.61724L149.425 9.48049C149.732 9.52521 149.855 9.90323 149.633 10.1202L145.336 14.3068Z" fill="#FA8C16"/>
</svg>
