<svg width="97" height="96" viewBox="0 0 97 96" fill="none" xmlns="http://www.w3.org/2000/svg"><path d="M75.9047 76.8496H20.8447" stroke="#2F54EB" stroke-width="2" stroke-miterlimit="10"></path><path d="M29.8447 55.8301H31.8447" stroke="#2F54EB" stroke-width="2" stroke-miterlimit="10"></path><path d="M53.3447 32.9512H55.3447" stroke="#2F54EB" stroke-width="2" stroke-miterlimit="10"></path><path d="M48.5049 50.791H34.5049V47.791C34.5049 47.241 34.9549 46.791 35.5049 46.791H47.5049C48.0549 46.791 48.5049 47.241 48.5049 47.791V50.791Z" stroke="#2F54EB" stroke-width="2" stroke-miterlimit="10"></path><path d="M41.5049 33.791V46.791" stroke="#2F54EB" stroke-width="2" stroke-miterlimit="10"></path><path d="M44.5049 42.791H46.5049C47.6049 42.791 48.5049 41.891 48.5049 40.791V29.791C48.5049 27.581 46.7149 25.791 44.5049 25.791H38.5049C36.2949 25.791 34.5049 27.581 34.5049 29.791V40.791C34.5049 41.891 35.4049 42.791 36.5049 42.791H38.5049" stroke="#2F54EB" stroke-width="2" stroke-miterlimit="10"></path><path d="M41.5049 59.101V54.421V50.791" stroke="#2F54EB" stroke-width="2" stroke-miterlimit="10"></path><path d="M52.7949 17.3203C52.7949 20.0803 50.5549 22.3203 47.7949 22.3203" stroke="#FA8C16" stroke-width="2" stroke-miterlimit="10"></path><path d="M57.7949 22.3203C55.0349 22.3203 52.7949 20.0803 52.7949 17.3203" stroke="#FA8C16" stroke-width="2" stroke-miterlimit="10"></path><path d="M52.7949 27.3203C52.7949 24.5603 50.5549 22.3203 47.7949 22.3203" stroke="#FA8C16" stroke-width="2" stroke-miterlimit="10"></path><path d="M57.7949 22.3203C55.0349 22.3203 52.7949 24.5603 52.7949 27.3203" stroke="#FA8C16" stroke-width="2" stroke-miterlimit="10"></path><path d="M25.8447 39.4297C25.8447 42.1897 23.6047 44.4297 20.8447 44.4297" stroke="#FA8C16" stroke-width="2" stroke-miterlimit="10"></path><path d="M30.8447 44.4297C28.0847 44.4297 25.8447 42.1897 25.8447 39.4297" stroke="#FA8C16" stroke-width="2" stroke-miterlimit="10"></path><path d="M25.8447 49.4297C25.8447 46.6697 23.6047 44.4297 20.8447 44.4297" stroke="#FA8C16" stroke-width="2" stroke-miterlimit="10"></path><path d="M30.8447 44.4297C28.0847 44.4297 25.8447 46.6697 25.8447 49.4297" stroke="#FA8C16" stroke-width="2" stroke-miterlimit="10"></path><path d="M41.5049 76.8507V65.7207H52.5049H52.5749V54.7207H63.5749V43.7207H75.9049" stroke="#2F54EB" stroke-width="2" stroke-miterlimit="10"></path><path d="M45.4951 76.8497V69.1997H56.4951H56.5651V58.1997H67.5651V47.6797H75.9051" stroke="#2F54EB" stroke-width="2" stroke-miterlimit="10"></path><path d="M34.2045 76.8511L34.1445 66.4311L64.3245 36.3711H75.9045" stroke="#2F54EB" stroke-width="2" stroke-miterlimit="10"></path></svg>