<svg width="31" height="31" viewBox="0 0 31 31" fill="none" xmlns="http://www.w3.org/2000/svg">
<g id="LinkedIn">
<rect width="31" height="31" rx="15.5" fill="black"/>
<path id="Vector" d="M22.766 6.9751H8.23323C7.89942 6.9751 7.57929 7.1077 7.34325 7.34374C7.10721 7.57978 6.97461 7.89991 6.97461 8.23372V22.7665C6.97461 23.1003 7.10721 23.4204 7.34325 23.6565C7.57929 23.8925 7.89942 24.0251 8.23323 24.0251H22.766C23.0998 24.0251 23.4199 23.8925 23.656 23.6565C23.892 23.4204 24.0246 23.1003 24.0246 22.7665V8.23372C24.0246 7.89991 23.892 7.57978 23.656 7.34374C23.4199 7.1077 23.0998 6.9751 22.766 6.9751ZM12.0565 21.4996H9.49304V13.357H12.0565V21.4996ZM10.773 12.2286C10.4822 12.227 10.1984 12.1393 9.95746 11.9765C9.7165 11.8137 9.52915 11.5832 9.41907 11.3141C9.30898 11.045 9.28108 10.7493 9.3389 10.4643C9.39671 10.1793 9.53765 9.91784 9.74392 9.71289C9.9502 9.50794 10.2126 9.36868 10.4979 9.3127C10.7832 9.25671 11.0788 9.2865 11.3472 9.39832C11.6156 9.51013 11.8449 9.69895 12.0061 9.94095C12.1673 10.183 12.2532 10.4673 12.253 10.7581C12.2557 10.9527 12.2193 11.146 12.1457 11.3263C12.0722 11.5065 11.9631 11.6702 11.825 11.8074C11.6869 11.9446 11.5226 12.0526 11.3418 12.125C11.1611 12.1974 10.9676 12.2326 10.773 12.2286ZM21.505 21.5067H18.9428V17.0583C18.9428 15.7464 18.3851 15.3414 17.6652 15.3414C16.9051 15.3414 16.1591 15.9145 16.1591 17.0914V21.5067H13.5957V13.3629H16.0608V14.4913H16.094C16.3415 13.9905 17.2082 13.1344 18.5307 13.1344C19.961 13.1344 21.5062 13.9834 21.5062 16.4698L21.505 21.5067Z" fill="white"/>
</g>
</svg>
