<svg width="136" height="115" viewBox="0 0 136 115" fill="none" xmlns="http://www.w3.org/2000/svg">
<path d="M0 3C0 4.65685 1.34315 6 3 6C4.65685 6 6 4.65685 6 3C6 1.34315 4.65685 0 3 0C1.34315 0 0 1.34315 0 3Z" fill="#363435" fill-opacity="0.7"/>
<path d="M0 24.6665C0 26.3234 1.34315 27.6665 3 27.6665C4.65685 27.6665 6 26.3234 6 24.6665C6 23.0096 4.65685 21.6665 3 21.6665C1.34315 21.6665 0 23.0096 0 24.6665Z" fill="#363435" fill-opacity="0.7"/>
<path d="M0 46.3335C0 47.9904 1.34315 49.3335 3 49.3335C4.65685 49.3335 6 47.9904 6 46.3335C6 44.6766 4.65685 43.3335 3 43.3335C1.34315 43.3335 0 44.6766 0 46.3335Z" fill="#363435" fill-opacity="0.7"/>
<path d="M0 68C0 69.6569 1.34315 71 3 71C4.65685 71 6 69.6569 6 68C6 66.3431 4.65685 65 3 65C1.34315 65 0 66.3431 0 68Z" fill="#363435" fill-opacity="0.7"/>
<path d="M0 89.6665C0 91.3234 1.34315 92.6665 3 92.6665C4.65685 92.6665 6 91.3234 6 89.6665C6 88.0096 4.65685 86.6665 3 86.6665C1.34315 86.6665 0 88.0096 0 89.6665Z" fill="#363435" fill-opacity="0.7"/>
<path d="M0 111.333C0 112.99 1.34315 114.333 3 114.333C4.65685 114.333 6 112.99 6 111.333C6 109.677 4.65685 108.333 3 108.333C1.34315 108.333 0 109.677 0 111.333Z" fill="#363435" fill-opacity="0.7"/>
<path d="M21.6667 3C21.6667 4.65685 23.0099 6 24.6667 6C26.3236 6 27.6667 4.65685 27.6667 3C27.6667 1.34315 26.3236 0 24.6667 0C23.0099 0 21.6667 1.34315 21.6667 3Z" fill="#363435" fill-opacity="0.7"/>
<path d="M21.6667 24.6665C21.6667 26.3234 23.0099 27.6665 24.6667 27.6665C26.3236 27.6665 27.6667 26.3234 27.6667 24.6665C27.6667 23.0096 26.3236 21.6665 24.6667 21.6665C23.0099 21.6665 21.6667 23.0096 21.6667 24.6665Z" fill="#363435" fill-opacity="0.7"/>
<path d="M21.6667 46.3335C21.6667 47.9904 23.0099 49.3335 24.6667 49.3335C26.3236 49.3335 27.6667 47.9904 27.6667 46.3335C27.6667 44.6766 26.3236 43.3335 24.6667 43.3335C23.0099 43.3335 21.6667 44.6766 21.6667 46.3335Z" fill="#363435" fill-opacity="0.7"/>
<path d="M21.6667 68C21.6667 69.6569 23.0099 71 24.6667 71C26.3236 71 27.6667 69.6569 27.6667 68C27.6667 66.3431 26.3236 65 24.6667 65C23.0099 65 21.6667 66.3431 21.6667 68Z" fill="#363435" fill-opacity="0.7"/>
<path d="M21.6667 89.6665C21.6667 91.3234 23.0099 92.6665 24.6667 92.6665C26.3236 92.6665 27.6667 91.3234 27.6667 89.6665C27.6667 88.0096 26.3236 86.6665 24.6667 86.6665C23.0099 86.6665 21.6667 88.0096 21.6667 89.6665Z" fill="#363435" fill-opacity="0.7"/>
<path d="M21.6667 111.333C21.6667 112.99 23.0099 114.333 24.6667 114.333C26.3236 114.333 27.6667 112.99 27.6667 111.333C27.6667 109.677 26.3236 108.333 24.6667 108.333C23.0099 108.333 21.6667 109.677 21.6667 111.333Z" fill="#363435" fill-opacity="0.7"/>
<path d="M43.3333 3C43.3333 4.65685 44.6764 6 46.3333 6C47.9901 6 49.3333 4.65685 49.3333 3C49.3333 1.34315 47.9901 0 46.3333 0C44.6764 0 43.3333 1.34315 43.3333 3Z" fill="#363435" fill-opacity="0.7"/>
<path d="M43.3333 24.6665C43.3333 26.3234 44.6764 27.6665 46.3333 27.6665C47.9901 27.6665 49.3333 26.3234 49.3333 24.6665C49.3333 23.0096 47.9901 21.6665 46.3333 21.6665C44.6764 21.6665 43.3333 23.0096 43.3333 24.6665Z" fill="#363435" fill-opacity="0.7"/>
<path d="M43.3333 46.3335C43.3333 47.9904 44.6764 49.3335 46.3333 49.3335C47.9901 49.3335 49.3333 47.9904 49.3333 46.3335C49.3333 44.6766 47.9901 43.3335 46.3333 43.3335C44.6764 43.3335 43.3333 44.6766 43.3333 46.3335Z" fill="#363435" fill-opacity="0.7"/>
<path d="M43.3333 68C43.3333 69.6569 44.6764 71 46.3333 71C47.9901 71 49.3333 69.6569 49.3333 68C49.3333 66.3431 47.9901 65 46.3333 65C44.6764 65 43.3333 66.3431 43.3333 68Z" fill="#363435" fill-opacity="0.7"/>
<path d="M43.3333 89.6665C43.3333 91.3234 44.6764 92.6665 46.3333 92.6665C47.9901 92.6665 49.3333 91.3234 49.3333 89.6665C49.3333 88.0096 47.9901 86.6665 46.3333 86.6665C44.6764 86.6665 43.3333 88.0096 43.3333 89.6665Z" fill="#363435" fill-opacity="0.7"/>
<path d="M43.3333 111.333C43.3333 112.99 44.6764 114.333 46.3333 114.333C47.9901 114.333 49.3333 112.99 49.3333 111.333C49.3333 109.677 47.9901 108.333 46.3333 108.333C44.6764 108.333 43.3333 109.677 43.3333 111.333Z" fill="#363435" fill-opacity="0.7"/>
<path d="M65 3C65 4.65685 66.3431 6 68 6C69.6569 6 71 4.65685 71 3C71 1.34315 69.6569 0 68 0C66.3431 0 65 1.34315 65 3Z" fill="#363435" fill-opacity="0.7"/>
<path d="M65 24.6665C65 26.3234 66.3431 27.6665 68 27.6665C69.6569 27.6665 71 26.3234 71 24.6665C71 23.0096 69.6569 21.6665 68 21.6665C66.3431 21.6665 65 23.0096 65 24.6665Z" fill="#363435" fill-opacity="0.7"/>
<path d="M65 46.3335C65 47.9904 66.3431 49.3335 68 49.3335C69.6569 49.3335 71 47.9904 71 46.3335C71 44.6766 69.6569 43.3335 68 43.3335C66.3431 43.3335 65 44.6766 65 46.3335Z" fill="#363435" fill-opacity="0.7"/>
<path d="M65 68C65 69.6569 66.3431 71 68 71C69.6569 71 71 69.6569 71 68C71 66.3431 69.6569 65 68 65C66.3431 65 65 66.3431 65 68Z" fill="#363435" fill-opacity="0.7"/>
<path d="M65 89.6665C65 91.3234 66.3431 92.6665 68 92.6665C69.6569 92.6665 71 91.3234 71 89.6665C71 88.0096 69.6569 86.6665 68 86.6665C66.3431 86.6665 65 88.0096 65 89.6665Z" fill="#363435" fill-opacity="0.7"/>
<path d="M65 111.333C65 112.99 66.3431 114.333 68 114.333C69.6569 114.333 71 112.99 71 111.333C71 109.677 69.6569 108.333 68 108.333C66.3431 108.333 65 109.677 65 111.333Z" fill="#363435" fill-opacity="0.7"/>
<path d="M86.6667 3C86.6667 4.65685 88.0099 6 89.6667 6C91.3236 6 92.6667 4.65685 92.6667 3C92.6667 1.34315 91.3236 0 89.6667 0C88.0099 0 86.6667 1.34315 86.6667 3Z" fill="#363435" fill-opacity="0.7"/>
<path d="M86.6667 24.6665C86.6667 26.3234 88.0099 27.6665 89.6667 27.6665C91.3236 27.6665 92.6667 26.3234 92.6667 24.6665C92.6667 23.0096 91.3236 21.6665 89.6667 21.6665C88.0099 21.6665 86.6667 23.0096 86.6667 24.6665Z" fill="#363435" fill-opacity="0.7"/>
<path d="M86.6667 46.3335C86.6667 47.9904 88.0099 49.3335 89.6667 49.3335C91.3236 49.3335 92.6667 47.9904 92.6667 46.3335C92.6667 44.6766 91.3236 43.3335 89.6667 43.3335C88.0099 43.3335 86.6667 44.6766 86.6667 46.3335Z" fill="#363435" fill-opacity="0.7"/>
<path d="M86.6667 68C86.6667 69.6569 88.0099 71 89.6667 71C91.3236 71 92.6667 69.6569 92.6667 68C92.6667 66.3431 91.3236 65 89.6667 65C88.0099 65 86.6667 66.3431 86.6667 68Z" fill="#363435" fill-opacity="0.7"/>
<path d="M86.6667 89.6665C86.6667 91.3234 88.0099 92.6665 89.6667 92.6665C91.3236 92.6665 92.6667 91.3234 92.6667 89.6665C92.6667 88.0096 91.3236 86.6665 89.6667 86.6665C88.0099 86.6665 86.6667 88.0096 86.6667 89.6665Z" fill="#363435" fill-opacity="0.7"/>
<path d="M86.6667 111.333C86.6667 112.99 88.0099 114.333 89.6667 114.333C91.3236 114.333 92.6667 112.99 92.6667 111.333C92.6667 109.677 91.3236 108.333 89.6667 108.333C88.0099 108.333 86.6667 109.677 86.6667 111.333Z" fill="#363435" fill-opacity="0.7"/>
<path d="M108.333 3C108.333 4.65685 109.676 6 111.333 6C112.99 6 114.333 4.65685 114.333 3C114.333 1.34315 112.99 0 111.333 0C109.676 0 108.333 1.34315 108.333 3Z" fill="#363435" fill-opacity="0.7"/>
<path d="M108.333 24.6665C108.333 26.3234 109.676 27.6665 111.333 27.6665C112.99 27.6665 114.333 26.3234 114.333 24.6665C114.333 23.0096 112.99 21.6665 111.333 21.6665C109.676 21.6665 108.333 23.0096 108.333 24.6665Z" fill="#363435" fill-opacity="0.7"/>
<path d="M108.333 46.3335C108.333 47.9904 109.676 49.3335 111.333 49.3335C112.99 49.3335 114.333 47.9904 114.333 46.3335C114.333 44.6766 112.99 43.3335 111.333 43.3335C109.676 43.3335 108.333 44.6766 108.333 46.3335Z" fill="#363435" fill-opacity="0.7"/>
<path d="M108.333 68C108.333 69.6569 109.676 71 111.333 71C112.99 71 114.333 69.6569 114.333 68C114.333 66.3431 112.99 65 111.333 65C109.676 65 108.333 66.3431 108.333 68Z" fill="#363435" fill-opacity="0.7"/>
<path d="M108.333 89.6665C108.333 91.3234 109.676 92.6665 111.333 92.6665C112.99 92.6665 114.333 91.3234 114.333 89.6665C114.333 88.0096 112.99 86.6665 111.333 86.6665C109.676 86.6665 108.333 88.0096 108.333 89.6665Z" fill="#363435" fill-opacity="0.7"/>
<path d="M108.333 111.333C108.333 112.99 109.676 114.333 111.333 114.333C112.99 114.333 114.333 112.99 114.333 111.333C114.333 109.677 112.99 108.333 111.333 108.333C109.676 108.333 108.333 109.677 108.333 111.333Z" fill="#363435" fill-opacity="0.7"/>
<path d="M130 3C130 4.65685 131.343 6 133 6C134.657 6 136 4.65685 136 3C136 1.34315 134.657 0 133 0C131.343 0 130 1.34315 130 3Z" fill="#363435" fill-opacity="0.7"/>
<path d="M130 24.6665C130 26.3234 131.343 27.6665 133 27.6665C134.657 27.6665 136 26.3234 136 24.6665C136 23.0096 134.657 21.6665 133 21.6665C131.343 21.6665 130 23.0096 130 24.6665Z" fill="#363435" fill-opacity="0.7"/>
<path d="M130 46.3335C130 47.9904 131.343 49.3335 133 49.3335C134.657 49.3335 136 47.9904 136 46.3335C136 44.6766 134.657 43.3335 133 43.3335C131.343 43.3335 130 44.6766 130 46.3335Z" fill="#363435" fill-opacity="0.7"/>
<path d="M130 68C130 69.6569 131.343 71 133 71C134.657 71 136 69.6569 136 68C136 66.3431 134.657 65 133 65C131.343 65 130 66.3431 130 68Z" fill="#363435" fill-opacity="0.7"/>
<path d="M130 89.6665C130 91.3234 131.343 92.6665 133 92.6665C134.657 92.6665 136 91.3234 136 89.6665C136 88.0096 134.657 86.6665 133 86.6665C131.343 86.6665 130 88.0096 130 89.6665Z" fill="#363435" fill-opacity="0.7"/>
<path d="M130 111.333C130 112.99 131.343 114.333 133 114.333C134.657 114.333 136 112.99 136 111.333C136 109.677 134.657 108.333 133 108.333C131.343 108.333 130 109.677 130 111.333Z" fill="#363435" fill-opacity="0.7"/>
</svg>
