<svg width="100" height="100" viewBox="0 0 100 100" fill="none" xmlns="http://www.w3.org/2000/svg">
<path fill-rule="evenodd" clip-rule="evenodd" d="M0.987903 0H73.1855L74.1936 1.00806L74.2137 45.0605L76.1693 46.0081C77.2379 46.5121 78.9314 47.5605 79.9395 48.3266C80.9274 49.0927 82.3387 50.4032 83.0444 51.2298C83.7702 52.0565 84.6573 53.2258 85.0605 53.8306C85.4436 54.4355 86.1492 55.7661 86.6129 56.754C87.0968 57.7419 87.6613 59.2944 87.8831 60.1815C88.125 61.0686 88.4073 62.5605 88.5282 63.5081C88.6694 64.4556 88.7097 66.129 88.6492 67.2379C88.5887 68.3468 88.3871 69.879 88.2258 70.6653C88.0645 71.4516 87.7016 72.7016 87.4395 73.4879C87.1774 74.2742 86.7137 75.4032 85.8468 77.1169L92.4194 83.6694C98.0645 89.3145 99.0323 90.3831 99.4758 91.3911C99.8589 92.2379 100 92.8831 100 93.8508C100 94.8186 99.879 95.4234 99.496 96.2298C99.2339 96.7943 98.6089 97.6613 98.1452 98.1452C97.6613 98.6089 96.7944 99.2339 96.2097 99.496C95.4436 99.879 94.8186 100 93.8508 100C92.8831 100 92.2379 99.8589 91.371 99.4758C90.3831 99.0323 89.3145 98.0645 77.1169 85.8871L74.1936 87.1976V98.9919L73.2057 100H1.00806L0 98.9919L0.0201613 0.987903L0.987903 0ZM3.22581 96.7742H70.9677V88.1048C69.7984 88.4274 68.3669 88.5686 67.0363 88.629C65.3024 88.7298 64.0726 88.6694 62.7016 88.4476C61.6532 88.2661 60.0806 87.8831 59.2137 87.6008C58.3669 87.3387 56.996 86.7742 56.1895 86.371C55.3831 85.9677 54.0927 85.2218 53.3266 84.6976C52.5605 84.1936 51.2298 83.0847 50.3831 82.2581C49.5363 81.4314 48.3266 80 47.7016 79.0927L46.5726 77.4194H9.67742V74.1936C37.0161 74.1936 44.9597 74.1532 44.9597 74.0927C44.9597 74.0323 44.7177 73.2056 44.4355 72.2379C44.1734 71.25 43.871 69.879 43.7903 69.1532L43.6492 67.8427L10.4435 67.6411C9.65726 66.6532 9.65726 66.2097 9.65726 49.9597L9.67742 33.2661L10.6653 32.2581H63.5081L64.5161 33.2661V43.4476C68.3468 43.6895 69.7984 43.8306 70.2016 43.9516L70.9677 44.1532V3.22581H3.22581V96.7742ZM12.9032 64.5161L43.6492 64.4153C43.871 62.379 43.9919 61.6734 44.0524 61.5524C44.1331 61.3508 41.5927 61.2903 31.754 61.2903H19.3548V58.0645H45.0605L46.5726 54.8387H19.3548V51.6129H48.7903L52.0161 48.3871H19.3548V45.1613H54.8387V46.5726C57.4194 45.3427 58.871 44.7782 59.7177 44.5161L61.2903 44.0524V35.4839H12.9032V64.5161ZM60.5847 47.6008C59.7984 47.8427 58.4476 48.3871 57.5605 48.8306C56.6734 49.2742 55.3226 50.1008 54.5565 50.6855C53.7903 51.25 52.5605 52.3589 51.8347 53.1452C51.0887 53.9315 50.0806 55.3024 49.5766 56.1694C49.0726 57.0565 48.4677 58.2258 48.2258 58.7702C48.004 59.3347 47.6008 60.5444 47.3387 61.4919C46.9556 62.9234 46.875 63.6895 46.8952 66.129C46.8952 68.2056 46.996 69.4758 47.2581 70.4637C47.4395 71.25 47.8629 72.5605 48.2056 73.3871C48.5484 74.2137 49.2339 75.5847 49.7581 76.4113C50.2621 77.2379 51.4718 78.7097 52.3992 79.6573C53.3468 80.625 54.7581 81.8145 55.5444 82.3186C56.3105 82.8226 57.6411 83.5282 58.4677 83.871C59.2944 84.2339 60.7056 84.7177 61.5927 84.9395C62.8427 85.2621 63.8508 85.3629 66.129 85.3629C68.5686 85.3831 69.3347 85.3024 70.7661 84.9194C71.7137 84.6573 73.0242 84.2137 73.6895 83.9113C74.3548 83.629 75.5242 83.0242 76.3105 82.5807C77.1774 82.0564 78.4677 81.0081 79.7379 79.7379C81.129 78.3266 82.0363 77.2177 82.6814 76.1089C83.1855 75.2218 83.7903 74.0524 84.0121 73.4879C84.254 72.9436 84.6573 71.7137 84.8992 70.7661C85.2823 69.3548 85.3629 68.5484 85.3629 66.129C85.3629 64.0121 85.2621 62.8226 85 61.7944C84.8186 61.0282 84.4153 59.7984 84.1331 59.0726C83.8508 58.3468 83.1855 57.0363 82.6814 56.1694C82.0968 55.1613 81.0686 53.871 79.9395 52.7016C78.9314 51.6935 77.4798 50.4435 76.7137 49.9395C75.9274 49.4355 74.6169 48.7298 73.7903 48.3871C72.9637 48.0242 71.5927 47.5605 70.7661 47.3387C69.8186 47.0968 68.3468 46.9153 66.8347 46.875C65.504 46.8347 63.871 46.875 63.2056 46.996C62.5403 47.0968 61.3508 47.379 60.5847 47.6008ZM83.0847 80.9274C82.6008 81.4919 81.6734 82.4194 81.0282 82.9637L79.879 83.9718C91.8145 95.9073 92.5202 96.5524 93.246 96.6936C93.6895 96.7742 94.375 96.7339 94.7984 96.5927C95.2419 96.4718 95.7661 96.0887 96.0686 95.7258C96.3306 95.3629 96.6129 94.7379 96.6936 94.3548C96.754 93.9718 96.7137 93.3266 96.5927 92.9436C96.4314 92.4194 94.7177 90.6048 90.1613 86.0686L83.9718 79.879L83.0847 80.9274ZM25.8065 9.69758H29.0323L29.0121 17.2984C29.0121 22.7621 28.9516 25.1411 28.7702 25.7056C28.629 26.1492 28.1452 26.9153 27.7016 27.4194C27.1505 28.0376 26.5457 28.461 25.8871 28.6895C25.1411 28.9516 24.2944 29.0524 22.5806 29.0524C21.2903 29.0524 19.8992 28.9315 19.4556 28.7903C18.9516 28.6492 18.246 28.1653 17.621 27.5403C16.996 26.9153 16.5121 26.2097 16.371 25.7258C16.2298 25.2823 16.129 24.0323 16.129 20.9879H19.3548V22.9032C19.3548 24.6774 19.375 24.8589 19.8589 25.3226C20.3226 25.7863 20.4637 25.8266 22.5806 25.8266C24.6976 25.8266 24.8387 25.7863 25.8065 24.8185V9.69758ZM36.996 9.71774C38.8306 9.69758 39.6371 9.77823 40.4032 10.0403C41.0618 10.2823 41.6667 10.7056 42.2177 11.3105C42.6613 11.8145 43.1452 12.6008 43.2863 13.0242C43.4476 13.5887 43.5282 15.5444 43.5282 19.375C43.5282 23.2056 43.4476 25.1613 43.2863 25.7056C43.1452 26.1492 42.6613 26.9153 42.2177 27.4194C41.6667 28.0376 41.0618 28.461 40.4032 28.6895C39.6573 28.9516 38.8105 29.0524 37.0968 29.0524C35.8065 29.0524 34.4153 28.9315 33.9718 28.7903C33.4677 28.6492 32.7621 28.1653 32.1371 27.5403C31.5121 26.9153 31.0282 26.2097 30.8871 25.7258C30.7258 25.1815 30.6452 23.1048 30.6452 19.375C30.6452 15.6452 30.7258 13.5685 30.8871 13.0242C31.0282 12.5202 31.5121 11.8145 32.1371 11.1895C32.7016 10.6452 33.4677 10.0806 33.871 9.95968C34.254 9.83871 35.6653 9.71774 36.996 9.71774ZM33.871 13.9113V24.8185C34.8387 25.7863 34.9798 25.8266 37.0968 25.8266C39.2137 25.8266 39.3548 25.7863 39.8186 25.3226L40.3226 24.8185V13.9315C39.3347 12.9435 39.1935 12.9234 37.0766 12.9234C34.9798 12.9234 34.8186 12.9435 34.375 13.4073L33.871 13.9113ZM46.1492 9.67742L50.0202 9.7379C53.7702 9.79839 53.9314 9.81855 54.9194 10.3427C55.4637 10.625 56.1492 11.129 56.4516 11.4516C56.754 11.754 57.1976 12.4194 57.4597 12.9234C57.8226 13.6492 57.9234 14.1532 57.9234 15.3427C57.9234 16.5323 57.8226 17.0565 57.4597 17.7621C57.1976 18.2661 56.8548 18.8306 56.6936 19.0323C56.4516 19.3347 56.4919 19.4556 56.9153 20.0403C57.1774 20.4032 57.5605 21.1895 57.7419 21.7944C57.9839 22.5403 58.0645 23.246 57.9839 23.9113C57.9234 24.4758 57.6814 25.3226 57.4395 25.8266C57.1774 26.3306 56.754 26.996 56.4516 27.3185C56.1492 27.621 55.4637 28.125 54.9194 28.4274C53.9314 28.9315 53.7903 28.9516 46.1492 29.0524L45.1411 28.0444L45.1613 10.6855L46.1492 9.67742ZM48.3468 17.7823L53.3871 17.6815C54.5968 16.4516 54.6976 16.2298 54.6976 15.3629C54.6976 14.496 54.5968 14.2742 54.0323 13.7097L53.3871 13.0444L48.3871 12.9032L48.3468 17.7823ZM48.3468 25.8468L53.3669 25.746C54.5968 24.5161 54.6976 24.2944 54.6976 23.4274C54.6976 22.5806 54.5968 22.3387 54.0323 21.7742L53.3669 21.1089L48.3669 20.9879L48.3468 25.8468ZM22.5403 38.75H54.7984V41.9758H22.5403V38.75ZM65.746 50.0403C66.4919 50.0403 67.7621 50.1411 68.5686 50.2621C69.375 50.3831 70.7863 50.7661 71.7339 51.1089C72.6814 51.4516 74.1129 52.1573 74.9194 52.7016C75.7258 53.2258 76.875 54.1532 77.4798 54.7782C78.0847 55.3831 79.0524 56.5726 79.6169 57.4395C80.1613 58.3064 80.8064 59.496 81.0282 60.121C81.2702 60.7258 81.5927 61.7742 81.7742 62.4395C81.996 63.246 82.1169 64.4355 82.1169 66.1694C82.1169 67.8831 81.996 69.0726 81.7742 69.8992C81.5927 70.5645 81.2702 71.5927 81.0282 72.2177C80.8064 72.8226 80.1814 73.9919 79.6371 74.8387C79.0927 75.6653 78.125 76.875 77.4597 77.5403C76.8145 78.1855 75.5847 79.1734 74.7581 79.7177C73.9314 80.2621 72.7419 80.8871 72.1371 81.1089C71.5323 81.3306 70.5242 81.6532 69.9193 81.8145C69.3145 81.9758 68.004 82.1573 66.996 82.2177C65.9476 82.2984 64.5968 82.2379 63.7702 82.1169C63.004 81.9758 61.6734 81.6532 60.8468 81.371C60.0202 81.1089 58.6089 80.4436 57.7218 79.8992C56.8347 79.3548 55.5444 78.3669 54.8589 77.6814C54.1532 76.996 53.1653 75.7863 52.621 74.9798C52.0968 74.1734 51.371 72.7419 51.0282 71.8145C50.6855 70.8669 50.3024 69.4355 50.1814 68.629C50.0605 67.8226 49.9597 66.6331 49.9597 65.9677C49.9597 65.3024 50.1008 64.0927 50.2419 63.2863C50.4032 62.4798 50.746 61.2298 51.0081 60.5242C51.2702 59.7984 51.7944 58.6694 52.1774 58.0242C52.5605 57.379 53.246 56.4113 53.6895 55.8669C54.1331 55.3427 55.0202 54.4556 55.6452 53.9315C56.2702 53.3871 57.3186 52.6411 57.9637 52.2581C58.6089 51.8548 59.7177 51.3306 60.4435 51.0686C61.1694 50.8065 62.3387 50.4839 63.0645 50.3427C63.7903 50.1814 65 50.0605 65.746 50.0403ZM64.4557 60.1411L64.4758 66.7742L63.4879 67.7823H53.3871C53.5685 69.254 53.9113 70.3629 54.254 71.2097C54.6169 72.0363 55.2621 73.2057 55.7258 73.8307C56.1694 74.4355 57.0363 75.3629 57.6411 75.8871C58.246 76.4113 59.4556 77.2177 60.3427 77.6613C61.2298 78.1048 62.6411 78.6089 63.4677 78.7903C64.496 79.0121 65.5645 79.0726 66.7943 78.9919C67.8024 78.9516 69.1129 78.7298 69.7177 78.5282L70.8266 78.1653C70.9274 54.4355 70.9274 54.254 70.5242 54.0726C70.3024 53.9516 69.496 53.7298 68.7097 53.5686C67.9436 53.3871 66.7339 53.2661 66.0282 53.2661C65.3226 53.2661 64.6774 53.3266 64.5766 53.3871C64.496 53.4677 64.4355 56.5121 64.4557 60.1411ZM57.0161 57.0968C56.3105 57.8226 55.4234 58.9113 55.0605 59.5161C54.6976 60.121 54.2339 61.129 53.9919 61.7742C53.7702 62.4194 53.5282 63.3065 53.4476 63.75L53.2863 64.5565H61.25C61.25 56.5726 61.1895 54.2742 61.1089 54.2742C61.0282 54.254 60.3629 54.5968 59.6371 55.0202C58.9314 55.4435 57.7419 56.371 57.0161 57.0968ZM74.3548 76.0484C74.4758 76.0484 75.0605 75.4637 75.6653 74.7782C76.2903 74.0927 77.1371 72.8024 77.5806 71.9153C78.0242 71.0282 78.5282 69.6573 78.6895 68.8911C78.8508 68.1048 78.9919 66.875 78.9919 66.1694C78.9919 65.4436 78.8508 64.2137 78.6895 63.4476C78.5282 62.6613 78.0242 61.3105 77.5806 60.4234C77.1371 59.5363 76.2903 58.2258 75.6653 57.5403C75.0605 56.8548 74.4758 56.2903 74.3548 56.2903C74.2339 56.2903 74.1532 59.7177 74.1532 66.1694C74.1532 72.621 74.2339 76.0484 74.3548 76.0484ZM9.6371 80.6855H32.2177V83.9113H9.6371V80.6855ZM35.4436 80.6855H45.121V83.9113H35.4436V80.6855Z" fill="#363435"/>
</svg>
