<svg width="18" height="18" viewBox="0 0 18 18" fill="none" xmlns="http://www.w3.org/2000/svg">
<g id="fi_10322481" clip-path="url(#clip0_130_1767)">
<path id="Vector" fill-rule="evenodd" clip-rule="evenodd" d="M0.750009 2.41439C0.750009 1.49517 1.49518 0.75 2.41439 0.75C2.66667 0.75 2.91565 0.807353 3.1425 0.917715L16.1537 7.24747C16.8243 7.57372 17.25 8.2542 17.25 9C17.25 9.7458 16.8243 10.4263 16.1537 10.7525L3.1425 17.0823C2.91565 17.1926 2.66666 17.25 2.41439 17.25C1.49518 17.25 0.750009 16.5048 0.750009 15.5856C0.750009 15.441 0.740092 15.2944 0.783173 15.1544L2.28317 10.2794C2.36041 10.0284 2.56332 9.8361 2.81811 9.77242L5.90768 9L2.81811 8.22758C2.56332 8.1639 2.36041 7.9716 2.28317 7.72057L0.783173 2.84557C0.740092 2.70555 0.750009 2.55897 0.750009 2.41439ZM2.41439 2.25C2.32361 2.25 2.25001 2.3236 2.25001 2.41439V2.51222L3.5924 6.87502L9.18191 8.27242C9.51581 8.35582 9.75003 8.65583 9.75003 9C9.75003 9.34418 9.51581 9.64418 9.18191 9.72758L3.5924 11.125L2.25001 15.4878V15.5856C2.25001 15.6764 2.32361 15.75 2.41439 15.75C2.43931 15.75 2.4639 15.7443 2.4863 15.7334L15.4975 9.40365C15.6519 9.3285 15.75 9.17183 15.75 9C15.75 8.82817 15.6519 8.6715 15.4975 8.59635L2.4863 2.26657C2.4639 2.25566 2.43931 2.25 2.41439 2.25Z" fill="black"/>
</g>
<defs>
<clipPath id="clip0_130_1767">
<rect width="18" height="18" fill="white"/>
</clipPath>
</defs>
</svg>
