<svg width="28" height="28" viewBox="0 0 28 28" fill="none" xmlns="http://www.w3.org/2000/svg">
<g id="fi_5783027">
<g id="Group">
<path id="Vector" d="M10.2198 24.9868H4.30725C3.47715 24.9868 2.80176 25.6622 2.80176 26.4929C2.80176 27.323 3.47715 27.9983 4.30725 27.9983H12.8775C11.7778 27.213 10.8651 26.1822 10.2198 24.9868Z" fill="#04143A"/>
<path id="Vector_2" d="M4.30725 23.3462H9.53844C9.29508 22.5402 9.16492 21.6865 9.16492 20.8028C9.16492 20.6458 9.1693 20.49 9.17695 20.3352H4.30725C3.47715 20.3352 2.80176 21.0106 2.80176 21.8407C2.80176 22.6709 3.47715 23.3462 4.30725 23.3462Z" fill="#04143A"/>
<path id="Vector_3" d="M4.30725 18.6948H9.41922C9.68883 17.5968 10.1646 16.578 10.8028 15.6833H4.30725C3.47715 15.6833 2.80176 16.3587 2.80176 17.1888C2.80176 18.0194 3.47715 18.6948 4.30725 18.6948Z" fill="#04143A"/>
<path id="Vector_4" d="M4.30725 14.0427H12.3164C13.6349 12.932 15.2814 12.1998 17.0871 12.0133C16.8738 11.4408 16.3215 11.0317 15.6757 11.0317H4.30725C3.47715 11.0317 2.80176 11.7071 2.80176 12.5372C2.80176 13.3673 3.47715 14.0427 4.30725 14.0427Z" fill="#04143A"/>
<path id="Vector_5" d="M12.9502 15.6834C12.1119 16.5108 11.4753 17.5416 11.1209 18.6949C9.64552 23.495 13.4547 28.3017 18.4454 27.9853C22.2078 27.7556 25.1979 24.6222 25.1979 20.803C25.198 14.5154 17.5489 11.1423 12.9502 15.6834ZM20.5989 22.7454C20.4507 23.6275 19.8077 24.5215 18.8015 24.853V25.0717C18.8015 25.5549 18.3839 25.9294 17.9227 25.8898C17.4972 25.8597 17.1609 25.5053 17.1609 25.0717V24.9487C16.6215 24.8773 16.2034 24.6799 15.7408 24.3767C15.6527 24.3193 15.5794 24.2476 15.522 24.1667C15.0156 23.4579 15.8215 22.5574 16.5802 22.9685H16.5807C17.015 23.1983 17.0067 23.3541 17.9544 23.3464C18.1786 23.3448 18.3689 23.2819 18.522 23.1818V23.1813C19.0538 22.8342 19.2855 21.8803 18.4219 21.5746C17.7258 21.3293 16.523 20.8787 16.0453 20.3136H16.0448C15.0784 19.202 15.6394 17.2005 17.1609 16.7563C17.1609 16.5457 17.1123 16.0972 17.5628 15.8289C18.0254 15.5543 18.8015 15.7356 18.8015 16.7169C18.9905 16.7668 19.2461 16.8689 19.5017 16.9869C20.0089 17.2211 20.1415 17.8811 19.7627 18.2917C19.5194 18.5555 19.1328 18.6308 18.8081 18.4781C18.5583 18.3606 18.2104 18.1511 17.6437 18.3236C17.183 18.463 17.1186 19.1136 17.303 19.2571C17.7024 19.5719 18.4855 19.8568 18.9688 20.0275C20.1467 20.4443 20.8024 21.5364 20.5989 22.7454Z" fill="#04143A"/>
<path id="Vector_6" d="M6.65819 5.58187H7.67587C8.04501 5.58187 8.34415 5.88101 8.34415 6.2501V8.72296C8.34415 9.0921 8.64329 9.39118 9.01183 9.39118H10.9712C11.3398 9.39118 11.6389 9.09204 11.6389 8.72296V6.2501C11.6389 5.88096 11.938 5.58187 12.3071 5.58187H13.3248C13.8586 5.58187 14.1768 4.98632 13.8799 4.54232L10.5469 0.296543C10.2822 -0.0988476 9.70089 -0.0988476 9.4362 0.296543L6.10316 4.54232C5.80621 4.98632 6.12449 5.58187 6.65819 5.58187Z" fill="#04143A"/>
</g>
</g>
</svg>
