<svg width="28" height="28" viewBox="0 0 28 28" fill="none" xmlns="http://www.w3.org/2000/svg">
<g id="fi_7483482" clip-path="url(#clip0_2_1602)">
<g id="Group 2">
<path id="Vector" d="M4.67006 12.1299C5.02009 11.0499 5.96008 10.2599 7.09007 10.0899L9.92999 9.67991L8.84004 9.51994L7.38004 6.55998C7.21006 6.22003 6.86003 6 6.48003 6C6.10003 6 5.75006 6.22003 5.58008 6.55998L4.12009 9.51994L0.86013 9.99991C0.480131 10.0499 0.170139 10.3199 0.0501454 10.6799C-0.0698477 11.0399 0.0301873 11.4399 0.300141 11.6999L2.6701 14.0098L2.11011 17.2597C2.0401 17.6297 2.20013 18.0097 2.50012 18.2397C2.82507 18.4577 3.21681 18.4957 3.5601 18.3097L6.48003 16.7798L7.53006 17.3298L7.54001 17.2698L5.43006 15.2098C4.61007 14.4098 4.32009 13.2199 4.67006 12.1299Z" fill="#04143A"/>
<path id="Vector_2" d="M27.9502 10.6802C27.8302 10.3202 27.5202 10.0502 27.1402 10.0002L23.8802 9.52023L22.4202 6.56028C22.0803 5.8803 20.9603 5.8803 20.6203 6.56028L19.1603 9.52023L18.0703 9.6802L20.9102 10.0902C22.0402 10.2602 22.9802 11.0502 23.3302 12.1302C23.6802 13.2202 23.3902 14.4101 22.5702 15.2101L20.4603 17.27L20.4702 17.33L21.5203 16.7801L24.4402 18.31C24.7835 18.496 25.1752 18.458 25.5002 18.24C25.8002 18.01 25.9602 17.63 25.8902 17.26L25.3302 14.0101L27.7002 11.7002C27.9701 11.4402 28.0701 11.0402 27.9502 10.6802Z" fill="#04143A"/>
<path id="Vector_3" d="M18.3123 16.5677L21.1745 13.7777C21.447 13.5121 21.5446 13.1146 21.4274 12.7528C21.3093 12.391 20.9968 12.1268 20.6198 12.0722L16.6648 11.498L14.8963 7.91454C14.5604 7.23194 13.4393 7.23194 13.1034 7.91454L11.3348 11.498L7.37983 12.0722C7.00288 12.1268 6.69038 12.391 6.57222 12.7528C6.45504 13.1146 6.55269 13.5121 6.82515 13.7777L9.6874 16.5677L9.01163 20.5065C8.94718 20.8815 9.10148 21.2609 9.40909 21.4845C9.71865 21.7087 10.1259 21.7379 10.4628 21.5607L13.9998 19.7009L17.5369 21.5607C17.873 21.7369 18.282 21.7089 18.5906 21.4845C18.8982 21.2609 19.0525 20.8815 18.988 20.5065L18.3123 16.5677Z" fill="#04143A"/>
</g>
</g>
<defs>
<clipPath id="clip0_2_1602">
<rect width="28" height="28" fill="white"/>
</clipPath>
</defs>
</svg>
