<svg width="92" height="16" viewBox="0 0 92 16" fill="none" xmlns="http://www.w3.org/2000/svg">
<g id="Group 4227">
<path id="Vector" d="M5.91821 5.08913L1.4211 5.73666L1.34126 5.75276C1.22011 5.78455 1.1083 5.84755 1.01724 5.93533C0.92619 6.02311 0.85916 6.13252 0.822997 6.2524C0.786835 6.37227 0.782836 6.49831 0.811408 6.61764C0.839981 6.73697 0.900102 6.84532 0.985631 6.93162L4.09844 10.0811L3.15615 14.5298L3.14395 14.6068C3.13164 14.7306 3.15243 14.8542 3.20419 14.9649C3.25595 15.0755 3.33681 15.1692 3.4385 15.2365C3.54019 15.3037 3.65905 15.342 3.78292 15.3475C3.90678 15.353 4.0312 15.3254 4.14343 15.2676L8.22644 13.1675L12.1319 15.2676L12.2007 15.2998C12.3145 15.3453 12.4397 15.3593 12.5633 15.3402C12.6869 15.3212 12.8046 15.2699 12.9042 15.1915C13.0037 15.1131 13.0817 15.0105 13.13 14.8942C13.1783 14.778 13.1952 14.6522 13.1791 14.5298L12.5929 10.0811L15.9598 6.93092L16.0168 6.87142C16.0987 6.77535 16.1546 6.66032 16.1786 6.53806C16.2025 6.41579 16.1939 6.29065 16.1534 6.1754C16.1129 6.06014 16.0421 5.95888 15.9482 5.88193C15.8543 5.80498 15.7406 5.7551 15.6187 5.73736L11.1735 5.08913L9.33712 1.04294C9.28399 0.925709 9.19841 0.826991 9.09008 0.75796C8.98176 0.68893 8.855 0.652344 8.72416 0.652344C8.59333 0.652344 8.46363 0.68893 8.34977 0.75796C8.2359 0.826991 8.14241 0.925709 8.07988 1.04294L5.91821 5.08913Z" fill="#BE2A24"/>
<path id="Vector_2" d="M24.6586 5.08864L20.1615 5.73618L20.0817 5.75228C19.9605 5.78407 19.8487 5.84707 19.7577 5.93485C19.6666 6.02262 19.5996 6.13204 19.5634 6.25191C19.5273 6.37178 19.5233 6.49782 19.5518 6.61715C19.5804 6.73648 19.6405 6.84483 19.7261 6.93113L22.8389 10.0806L21.8966 14.5293L21.8844 14.6063C21.8721 14.7301 21.8929 14.8537 21.9446 14.9644C21.9964 15.075 22.0772 15.1688 22.1789 15.236C22.2806 15.3032 22.3995 15.3415 22.5233 15.347C22.6472 15.3525 22.7716 15.3249 22.8839 15.2671L26.9669 13.167L30.8723 15.2671L30.9411 15.2993C31.055 15.3448 31.1801 15.3588 31.3037 15.3398C31.4274 15.3207 31.545 15.2694 31.6446 15.191C31.7442 15.1126 31.8221 15.01 31.8704 14.8938C31.9187 14.7775 31.9357 14.6517 31.9195 14.5293L31.3333 10.0806L34.7002 6.93043L34.7572 6.87093C34.8392 6.77486 34.895 6.65984 34.919 6.53757C34.943 6.4153 34.9343 6.29017 34.8938 6.17491C34.8534 6.05965 34.7826 5.95839 34.6886 5.88144C34.5947 5.80449 34.481 5.75461 34.3591 5.73688L29.914 5.08864L28.0776 1.04245C28.0244 0.925221 27.9388 0.826503 27.8305 0.757472C27.7222 0.688442 27.5954 0.651855 27.4646 0.651855C27.3338 0.651855 27.2041 0.688442 27.0902 0.757472C26.9763 0.826503 26.8828 0.925221 26.8203 1.04245L24.6586 5.08864Z" fill="#BE2A24"/>
<path id="Vector_3" d="M43.3996 5.08864L38.9025 5.73618L38.8227 5.75228C38.7015 5.78407 38.5897 5.84707 38.4986 5.93485C38.4076 6.02262 38.3406 6.13204 38.3044 6.25191C38.2682 6.37178 38.2642 6.49782 38.2928 6.61715C38.3214 6.73648 38.3815 6.84483 38.467 6.93113L41.5798 10.0806L40.6375 14.5293L40.6253 14.6063C40.613 14.7301 40.6338 14.8537 40.6856 14.9644C40.7373 15.075 40.8182 15.1688 40.9199 15.236C41.0216 15.3032 41.1404 15.3415 41.2643 15.347C41.3882 15.3525 41.5126 15.3249 41.6248 15.2671L45.7078 13.167L49.6133 15.2671L49.6821 15.2993C49.7959 15.3448 49.9211 15.3588 50.0447 15.3398C50.1683 15.3207 50.286 15.2694 50.3856 15.191C50.4851 15.1126 50.5631 15.01 50.6114 14.8938C50.6597 14.7775 50.6766 14.6517 50.6605 14.5293L50.0743 10.0806L53.4412 6.93043L53.4982 6.87093C53.5801 6.77486 53.636 6.65984 53.66 6.53757C53.6839 6.4153 53.6753 6.29017 53.6348 6.17491C53.5943 6.05965 53.5235 5.95839 53.4296 5.88144C53.3357 5.80449 53.222 5.75461 53.1001 5.73688L48.6549 5.08864L46.8185 1.04245C46.7654 0.925221 46.6798 0.826503 46.5715 0.757472C46.4632 0.688442 46.3364 0.651855 46.2056 0.651855C46.0747 0.651855 45.945 0.688442 45.8312 0.757472C45.7173 0.826503 45.6238 0.925221 45.5613 1.04245L43.3996 5.08864Z" fill="#BE2A24"/>
<path id="Vector_4" d="M62.1409 5.08913L57.6438 5.73666L57.5639 5.75276C57.4428 5.78455 57.331 5.84755 57.2399 5.93533C57.1489 6.02311 57.0818 6.13252 57.0457 6.2524C57.0095 6.37227 57.0055 6.49831 57.0341 6.61764C57.0627 6.73697 57.1228 6.84532 57.2083 6.93162L60.3211 10.0811L59.3788 14.5298L59.3666 14.6068C59.3543 14.7306 59.3751 14.8542 59.4269 14.9649C59.4786 15.0755 59.5595 15.1692 59.6612 15.2365C59.7629 15.3037 59.8817 15.342 60.0056 15.3475C60.1295 15.353 60.2539 15.3254 60.3661 15.2676L64.4491 13.1675L68.3546 15.2676L68.4234 15.2998C68.5372 15.3453 68.6624 15.3593 68.786 15.3402C68.9096 15.3212 69.0272 15.2699 69.1268 15.1915C69.2264 15.1131 69.3044 15.0105 69.3527 14.8942C69.401 14.778 69.4179 14.6522 69.4017 14.5298L68.8156 10.0811L72.1824 6.93092L72.2395 6.87142C72.3214 6.77535 72.3772 6.66032 72.4012 6.53806C72.4252 6.41579 72.4165 6.29065 72.3761 6.1754C72.3356 6.06014 72.2648 5.95888 72.1709 5.88193C72.0769 5.80498 71.9632 5.7551 71.8414 5.73736L67.3962 5.08913L65.5598 1.04294C65.5067 0.925709 65.4211 0.826991 65.3128 0.75796C65.2044 0.68893 65.0777 0.652344 64.9468 0.652344C64.816 0.652344 64.6863 0.68893 64.5724 0.75796C64.4586 0.826991 64.3651 0.925709 64.3025 1.04294L62.1409 5.08913Z" fill="#BE2A24"/>
<path id="Vector_5" d="M80.8815 5.08889L76.3844 5.73642L76.3045 5.75252C76.1834 5.78431 76.0716 5.84731 75.9805 5.93509C75.8895 6.02287 75.8224 6.13228 75.7863 6.25215C75.7501 6.37202 75.7461 6.49806 75.7747 6.61739C75.8033 6.73672 75.8634 6.84507 75.9489 6.93138L79.0617 10.0808L78.1194 14.5295L78.1072 14.6065C78.0949 14.7304 78.1157 14.854 78.1675 14.9646C78.2192 15.0753 78.3001 15.169 78.4018 15.2362C78.5035 15.3035 78.6223 15.3418 78.7462 15.3473C78.8701 15.3527 78.9945 15.3252 79.1067 15.2674L83.1897 13.1673L87.0952 15.2674L87.164 15.2996C87.2778 15.3451 87.403 15.359 87.5266 15.34C87.6502 15.321 87.7678 15.2696 87.8674 15.1913C87.967 15.1129 88.045 15.0103 88.0933 14.894C88.1416 14.7777 88.1585 14.6519 88.1423 14.5295L87.5562 10.0808L90.923 6.93068L90.9801 6.87117C91.062 6.77511 91.1178 6.66008 91.1418 6.53781C91.1658 6.41555 91.1572 6.29041 91.1167 6.17515C91.0762 6.05989 91.0054 5.95863 90.9115 5.88169C90.8176 5.80474 90.7038 5.75486 90.582 5.73712L86.1368 5.08889L84.3004 1.0427C84.2473 0.925465 84.1617 0.826747 84.0534 0.757716C83.945 0.688686 83.8183 0.6521 83.6874 0.6521C83.5566 0.6521 83.4269 0.688686 83.313 0.757716C83.1992 0.826747 83.1057 0.925465 83.0432 1.0427L80.8815 5.08889Z" fill="#BE2A24"/>
</g>
</svg>
