<svg width="14" height="14" viewBox="0 0 14 14" fill="none" xmlns="http://www.w3.org/2000/svg">
<g id="fi_3759325">
<path id="Vector" d="M6.99983 10.5C6.8454 10.4986 6.69753 10.4373 6.58741 10.329L0.754081 4.49572C0.647822 4.3857 0.589025 4.23835 0.590354 4.0854C0.591683 3.93245 0.653032 3.78614 0.761186 3.67799C0.869341 3.56983 1.01565 3.50849 1.1686 3.50716C1.32154 3.50583 1.4689 3.56462 1.57891 3.67088L6.99983 9.0918L12.4207 3.67088C12.4746 3.61517 12.5389 3.57073 12.6101 3.54016C12.6813 3.50958 12.7578 3.49349 12.8353 3.49282C12.9127 3.49215 12.9895 3.50691 13.0612 3.53624C13.1329 3.56557 13.198 3.60888 13.2528 3.66365C13.3076 3.71842 13.3509 3.78355 13.3802 3.85524C13.4096 3.92693 13.4243 4.00375 13.4236 4.0812C13.423 4.15865 13.4069 4.2352 13.3763 4.30637C13.3457 4.37754 13.3013 4.44191 13.2456 4.49572L7.41225 10.329C7.30213 10.4373 7.15426 10.4986 6.99983 10.5Z" fill="#291622"/>
</g>
</svg>
