<svg width="17" height="18" viewBox="0 0 17 18" fill="none" xmlns="http://www.w3.org/2000/svg">
<g id="fi_9333946" clip-path="url(#clip0_47_435)">
<g id="Group">
<g id="Icon_00000141423253392710720750000005754811843436243077_">
<path id="Vector" fill-rule="evenodd" clip-rule="evenodd" d="M1.55896 2.79707C1.85888 2.61121 2.19823 2.5116 2.54651 2.5116H14.4535C14.8018 2.5116 15.1411 2.61124 15.441 2.7971L9.12287 9.19837C8.76864 9.55752 8.23133 9.55752 7.8771 9.19837L1.55896 2.79707ZM16.2358 3.68202C16.4078 4.02442 16.5 4.41374 16.5 4.81392V13.186C16.5 13.5971 16.4025 13.9964 16.2217 14.3456L11.45 8.53028L16.2358 3.68202ZM15.4172 15.2171C15.1232 15.3938 14.7928 15.4883 14.4535 15.4883H2.54651C2.20716 15.4883 1.87674 15.3937 1.58281 15.2171L6.37907 9.37087L7.1307 10.1319C7.90912 10.9206 9.09088 10.9206 9.8693 10.1319L10.6209 9.37087L15.4172 15.2171ZM0.778326 14.3456C0.597503 13.9964 0.5 13.5971 0.5 13.186V4.81392C0.5 4.41374 0.592279 4.02442 0.764201 3.68202L5.55008 8.53028L0.778326 14.3456Z" fill="#291622"/>
</g>
</g>
</g>
<defs>
<clipPath id="clip0_47_435">
<rect width="16" height="18" fill="white" transform="translate(0.5)"/>
</clipPath>
</defs>
</svg>
