<svg width="18" height="18" viewBox="0 0 18 18" fill="none" xmlns="http://www.w3.org/2000/svg">
<g id="fi_3418754">
<g id="Group">
<path id="Vector" d="M16.8704 11.9482V6.34961L15.8157 6.70117V11.9482C15.1599 12.1691 14.686 12.7894 14.686 13.5187V16.3429C14.686 16.6341 14.9221 16.8703 15.2134 16.8703H17.4727C17.764 16.8703 18.0001 16.6341 18.0001 16.3429V13.5187C18.0001 12.7894 17.5262 12.1691 16.8704 11.9482Z" fill="#333333"/>
<path id="Vector_2" d="M8.5 8.80639L3.38916 7.10278V10.6946C3.38916 10.8344 3.44474 10.9686 3.54364 11.0675C5.00129 12.5249 6.9392 13.3276 9.00034 13.3276C11.0615 13.3276 12.9993 12.5249 14.4566 11.0674C14.5555 10.9685 14.611 10.8344 14.611 10.6946V7.10278L9.50037 8.80635C9.15102 8.92268 8.79936 8.90612 8.5 8.80639Z" fill="#333333"/>
<path id="Vector_3" d="M9 7.83282C9.05632 7.83282 9.11264 7.82378 9.16675 7.80575L17.6394 4.98154C17.8547 4.90975 18 4.70824 18 4.48127C18 4.2543 17.8548 4.05278 17.6394 3.98099L9.16675 1.15679C9.05854 1.12075 8.94147 1.12075 8.83325 1.15679L0.360598 3.98099C0.14523 4.05275 0 4.25426 0 4.48127C0 4.70827 0.14523 4.90975 0.360598 4.98154L8.83325 7.80575C8.88736 7.82378 8.94368 7.83282 9 7.83282Z" fill="#333333"/>
</g>
</g>
</svg>
