<svg width="19" height="18" viewBox="0 0 19 18" fill="none" xmlns="http://www.w3.org/2000/svg">
<g id="fi_2115330">
<g id="Group 7">
<path id="Vector" d="M9.02441 8.4973V5.61292H6.02741C5.86544 6.4639 5.76525 7.42621 5.74341 8.4973H9.02441Z" fill="#96423F"/>
<path id="Vector_2" d="M9.0244 4.66189V0.900024C7.91156 1.17762 6.84796 2.44932 6.24585 4.66189H9.0244Z" fill="#96423F"/>
<path id="Vector_3" d="M4.79339 9.44812H1.3999C1.45769 10.4445 1.69652 11.408 2.10097 12.3008H5.06212C4.90633 11.4225 4.81574 10.4671 4.79339 9.44812Z" fill="#96423F"/>
<path id="Vector_4" d="M1.3999 8.4973H4.79241C4.81251 7.46621 4.90252 6.49994 5.05987 5.61292H2.11555C1.70235 6.51462 1.45835 7.48909 1.3999 8.4973Z" fill="#96423F"/>
<path id="Vector_5" d="M9.97534 0.904175V4.66208H12.7456C12.5178 3.8336 12.2449 3.21025 11.9931 2.75509C11.4301 1.73754 10.7269 1.09746 9.97534 0.904175Z" fill="#96423F"/>
<path id="Vector_6" d="M9.02458 9.44812H5.74463C5.76957 10.5572 5.87569 11.5015 6.02758 12.3008H9.02462L9.02458 9.44812Z" fill="#96423F"/>
<path id="Vector_7" d="M12.8251 2.29457C13.2005 2.9731 13.5025 3.76837 13.7278 4.66192H16.3689C16.0475 4.15405 15.6672 3.67768 15.231 3.24154C14.3473 2.35774 13.2984 1.70286 12.1562 1.30542C12.397 1.59481 12.6205 1.9249 12.8251 2.29457Z" fill="#96423F"/>
<path id="Vector_8" d="M13.2554 8.4973C13.2301 7.37347 13.1214 6.41896 12.9663 5.61292H9.97534V8.4973H13.2554Z" fill="#96423F"/>
<path id="Vector_9" d="M13.7456 13.2517C13.5199 14.1644 13.2142 14.9754 12.832 15.665C12.6321 16.0256 12.4138 16.3482 12.1792 16.632C13.3125 16.2337 14.3532 15.5817 15.231 14.7038C15.6762 14.2586 16.063 13.7714 16.3885 13.2517H13.7456Z" fill="#96423F"/>
<path id="Vector_10" d="M5.26218 4.662C5.48716 3.76226 5.79008 2.96208 6.16787 2.28048C6.36778 1.91984 6.58601 1.5972 6.82073 1.31335C5.68739 1.71156 4.64663 2.36368 3.76873 3.24158C3.33259 3.67772 2.95223 4.15409 2.63086 4.66196L5.26218 4.662Z" fill="#96423F"/>
<path id="Vector_11" d="M13.9319 5.61292C14.0912 6.49997 14.1839 7.46592 14.2065 8.4973H17.5999C17.5415 7.48909 17.2975 6.51462 16.8843 5.61292H13.9319Z" fill="#96423F"/>
<path id="Vector_12" d="M6.17474 15.6509C5.79486 14.9643 5.49029 14.1582 5.26417 13.2517H2.61133C2.93685 13.7714 3.32364 14.2586 3.76879 14.7038C4.65255 15.5876 5.70136 16.2424 6.84354 16.6399C6.60284 16.3505 6.37925 16.0205 6.17474 15.6509Z" fill="#96423F"/>
<path id="Vector_13" d="M9.97534 9.44812V12.3008H12.9784C13.1369 11.4576 13.2349 10.506 13.2564 9.44812H9.97534Z" fill="#96423F"/>
<path id="Vector_14" d="M17.5998 9.44812H14.2074C14.1876 10.467 14.0994 11.4225 13.9456 12.3008H16.8988C17.3032 11.408 17.5421 10.4445 17.5998 9.44812Z" fill="#96423F"/>
<path id="Vector_15" d="M9.97534 13.2517V17.0453C11.0936 16.7664 12.1622 15.4841 12.7628 13.2517H9.97534Z" fill="#96423F"/>
<path id="Vector_16" d="M9.02453 17.0413V13.2517H6.24561C6.47521 14.0961 6.75183 14.7296 7.00686 15.1905C7.56985 16.208 8.27304 16.848 9.02453 17.0413Z" fill="#96423F"/>
</g>
</g>
</svg>
