<svg width="16" height="13" viewBox="0 0 16 13" fill="none" xmlns="http://www.w3.org/2000/svg">
<path d="M16 5.552C15.9917 5.47851 15.9756 5.4061 15.952 5.336V5.264C15.9135 5.18174 15.8622 5.10613 15.8 5.04L11 0.24C10.9339 0.177773 10.8583 0.126465 10.776 0.0880001H10.696C10.6182 0.0464026 10.5346 0.0167376 10.448 0H2.4C1.76348 0 1.15303 0.252856 0.702944 0.702944C0.252856 1.15303 0 1.76348 0 2.4V10.4C0 11.0365 0.252856 11.647 0.702944 12.0971C1.15303 12.5471 1.76348 12.8 2.4 12.8H13.6C14.2365 12.8 14.847 12.5471 15.2971 12.0971C15.7471 11.647 16 11.0365 16 10.4V5.6C16 5.6 16 5.6 16 5.552ZM11.2 2.728L13.272 4.8H12C11.7878 4.8 11.5843 4.71571 11.4343 4.56569C11.2843 4.41566 11.2 4.21217 11.2 4V2.728ZM14.4 10.4C14.4 10.6122 14.3157 10.8157 14.1657 10.9657C14.0157 11.1157 13.8122 11.2 13.6 11.2H2.4C2.18783 11.2 1.98434 11.1157 1.83431 10.9657C1.68429 10.8157 1.6 10.6122 1.6 10.4V2.4C1.6 2.18783 1.68429 1.98434 1.83431 1.83431C1.98434 1.68429 2.18783 1.6 2.4 1.6H9.6V4C9.6 4.63652 9.85286 5.24697 10.3029 5.69706C10.753 6.14714 11.3635 6.4 12 6.4H14.4V10.4ZM4 6.4H7.2C7.41217 6.4 7.61566 6.31571 7.76569 6.16569C7.91571 6.01566 8 5.81217 8 5.6C8 5.38783 7.91571 5.18434 7.76569 5.03431C7.61566 4.88429 7.41217 4.8 7.2 4.8H4C3.78783 4.8 3.58434 4.88429 3.43431 5.03431C3.28429 5.18434 3.2 5.38783 3.2 5.6C3.2 5.81217 3.28429 6.01566 3.43431 6.16569C3.58434 6.31571 3.78783 6.4 4 6.4ZM4 8C3.78783 8 3.58434 8.08429 3.43431 8.23431C3.28429 8.38434 3.2 8.58783 3.2 8.8C3.2 9.01217 3.28429 9.21566 3.43431 9.36569C3.58434 9.51571 3.78783 9.6 4 9.6H12C12.2122 9.6 12.4157 9.51571 12.5657 9.36569C12.7157 9.21566 12.8 9.01217 12.8 8.8C12.8 8.58783 12.7157 8.38434 12.5657 8.23431C12.4157 8.08429 12.2122 8 12 8H4Z" fill="#464A50"/>
</svg>
