<svg width="18" height="18" viewBox="0 0 18 18" fill="none" xmlns="http://www.w3.org/2000/svg">
<g id="fi_2920658">
<g id="Layer 22">
<path id="Vector" d="M15.5101 3.48929C14.3213 2.30063 12.8068 1.49117 11.1579 1.16327C9.50913 0.835361 7.80011 1.00374 6.24699 1.64711C4.69387 2.29048 3.3664 3.37995 2.43245 4.77775C1.49849 6.17554 1 7.8189 1 9.5C1 11.1811 1.49849 12.8245 2.43245 14.2223C3.3664 15.6201 4.69387 16.7095 6.24699 17.3529C7.80011 17.9963 9.50913 18.1646 11.1579 17.8367C12.8068 17.5088 14.3213 16.6994 15.5101 15.5107C16.2995 14.7214 16.9257 13.7843 17.3529 12.753C17.7801 11.7217 18 10.6163 18 9.5C18 8.38369 17.7801 7.27832 17.3529 6.24699C16.9257 5.21567 16.2995 4.2786 15.5101 3.48929ZM12.5351 11.6493C12.5958 11.7061 12.6441 11.7747 12.6772 11.851C12.7102 11.9272 12.7273 12.0094 12.7273 12.0925C12.7273 12.1756 12.7102 12.2578 12.6772 12.334C12.6441 12.4103 12.5958 12.4789 12.5351 12.5357C12.4784 12.592 12.4111 12.6365 12.3371 12.6667C12.2631 12.6969 12.1839 12.7122 12.104 12.7118C11.9447 12.7111 11.7921 12.6479 11.679 12.5357L9.49938 10.3561L7.3501 12.5357C7.23701 12.6479 7.08438 12.7111 6.9251 12.7118C6.84519 12.7122 6.76599 12.6969 6.69201 12.6667C6.61804 12.6365 6.55076 12.592 6.49403 12.5357C6.38095 12.422 6.31747 12.2681 6.31747 12.1077C6.31747 11.9473 6.38095 11.7934 6.49403 11.6796L8.64331 9.5L6.49403 7.35072C6.39456 7.23457 6.34259 7.08517 6.34849 6.93236C6.35439 6.77956 6.41774 6.63461 6.52586 6.52648C6.63399 6.41835 6.77894 6.35501 6.93174 6.34911C7.08455 6.3432 7.23395 6.39518 7.3501 6.49464L9.49938 8.64393L11.6487 6.49464C11.7049 6.43644 11.772 6.38988 11.8462 6.35762C11.9204 6.32535 12.0002 6.30802 12.0811 6.30661C12.1621 6.3052 12.2424 6.31974 12.3177 6.3494C12.393 6.37906 12.4617 6.42325 12.5199 6.47947C12.5781 6.53568 12.6247 6.6028 12.6569 6.67701C12.6892 6.75121 12.7065 6.83104 12.7079 6.91195C12.7094 6.99285 12.6948 7.07324 12.6652 7.14852C12.6355 7.22381 12.5913 7.29251 12.5351 7.35072L10.3555 9.5L12.5351 11.6493Z" fill="#DD2D2F"/>
</g>
</g>
</svg>
