<svg width="24" height="25" viewBox="0 0 24 25" fill="none" xmlns="http://www.w3.org/2000/svg">
<path d="M12.052 15.3288L13.466 16.7428L17.71 12.4998L13.467 8.25684L12.053 9.67184L13.88 11.4998H6.34296V13.4998H13.88L12.052 15.3288Z" fill="white"/>
<path fill-rule="evenodd" clip-rule="evenodd" d="M19.778 20.278C24.074 15.982 24.074 9.018 19.778 4.722C15.482 0.426 8.518 0.426 4.222 4.722C-0.0739994 9.018 -0.0739994 15.982 4.222 20.278C8.518 24.574 15.482 24.574 19.778 20.278ZM18.364 18.864C20.0518 17.1762 21.0001 14.887 21.0001 12.5C21.0001 10.113 20.0518 7.82384 18.364 6.136C16.6762 4.44816 14.387 3.49994 12 3.49994C9.61304 3.49994 7.32384 4.44816 5.636 6.136C3.94816 7.82384 2.99994 10.113 2.99994 12.5C2.99994 14.887 3.94816 17.1762 5.636 18.864C7.32384 20.5518 9.61304 21.5001 12 21.5001C14.387 21.5001 16.6762 20.5518 18.364 18.864Z" fill="white"/>
</svg>
