<svg width="667" height="324" fill="none" xmlns="http://www.w3.org/2000/svg"><g clip-path="url(#a)"><path d="M0 0h667v324H0V0Z" fill="#2F54EB"/><path d="M0 0h667v324H0V0Z" fill="url(#b)" fill-opacity=".3" style="mix-blend-mode:overlay"/><g style="mix-blend-mode:overlay" opacity=".2"><path d="M475 118c3-3 18-25 25-22 5 2 5 13 4 20-2 8-7 14-12 21l-19 15c7-4 18-9 31-10 8 0 18-1 21 5 4 6-4 18-10 24-16 18-44 17-54 16-2 0-29 2-43-17-12-16-9-42-2-45 4-1 9 1 19 13-1-23 12-38 22-37 7 0 14 8 18 17Z" fill="#7F8E53"/><path d="M572 215c4-1 9 1 19 12-1-22 12-37 22-37 7 1 14 8 18 18 3-3 18-25 25-22 5 2 5 13 4 19-2 9-7 15-12 21-4 4-10 10-19 16 7-5 18-9 31-10h10v30c-17 17-44 15-53 14-2 1-29 3-43-16-12-17-9-42-2-45Z" fill="#6E801F"/><path d="M324 155c0-4 3-30 11-31 5 0 11 9 13 15 2 9 1 17-1 25-2 5-4 13-10 22 5-7 12-16 23-23 7-4 15-9 21-6 7 4 5 19 3 26-6 24-32 36-41 39-1 1-24 16-45 6-19-9-29-33-23-39 2-3 8-3 22 2-11-19-7-38 2-43 7-3 17 1 25 7Z" fill="#A6B75F"/><path d="m321 275 60 1 230 5 3-59a335 335 0 0 0 1-15h2l12 1v-8l-2-1-88-42-149-6h-1l-50 37-18 87Z" fill="#CFCB87"/><path opacity=".4" d="m456 203-1 69-123-2 24-90 34-24 56 48 10-1Z" fill="#601C50"/><path opacity=".3" d="M419 215v39h-43l4-37 39-2Z" fill="#361A30"/><path opacity=".3" d="M414 216v36h-40l5-34 35-2Z" fill="#361A30"/><path d="m240 271 147 10v-86l1-9-141 3-1 9-6 72v1Z" fill="#EACCBC"/><path opacity=".2" d="m237 270 30 2 6-62 114-3 1-12-142 3h-1l-8 72Z" fill="#520649"/><path d="M252 192v6l63-1 105-1-1-7-104 2-63 1Z" fill="#EAECED"/><path d="m228 192 191-2a12051671 12051671 0 0 0-180-43l-5 19-6 26Z" fill="#9F2446"/><path opacity=".2" d="m234 166 10 26 71-1-50-38-26-6-5 19ZM252 192v6l63-1v-6l-63 1Z" fill="#520649"/><path d="m278 211 1 60v8l24 1 68 1 1-7 1-64-95 1Z" fill="#610E39"/><path opacity=".4" d="M274 273a1194 1194 0 0 0 29 7l68 1 1-7-29-8a93 93 0 0 0-69 7Z" fill="#CFCCAD"/><path d="m367 209-3 72 8-2 1-70h-6Z" fill="#BF7268"/><path d="M670 275v58l-713 5v-78c192 0 518 14 713 15Z" fill="#B4B013"/><path d="m241 87-1 13h-6c-23 1-73 0-75-12-1-3 2-6 7-11 14-14 32-17 40-19l35 29Z" fill="#B29587"/><path d="M142 84 41 63l-54 61 147-30 8-10Z" fill="#9F2446"/><path opacity=".6" d="M293 276a410 410 0 0 0-125-10l2 10c9 4 15 9 23 12l100-12Z" fill="#B47A8C"/><path d="M138 90c-14-4-67-15-96-24l-54 59c48-10 150-25 150-35Z" fill="#B29587"/><path d="m45 78 1 63 88 4 4-55-7 3-86-15Z" fill="#EACCBC"/><path d="M-14 183v8h10v16l-1 7v13a1088 1088 0 0 1 0 7v7l-1 2v11l49 10 1-30 1-45a21788 21788 0 0 0 1-47l1-64h-3l-48 45-1 52v1l-9 7Z" fill="#BF7268"/><path d="m182 266 70-2v-34l2-50-70-6-1 34-1 58Z" fill="#D9BBAC"/><path d="m252 264 23 3-86 3-23-4 86-2ZM161 173l-1 99-24-8H43l1-80c40 4 117-11 117-11Z" fill="#BF7268"/><path d="m239 111 20-12v-7l-52-44-94 53 4 2c35-23 88-44 88-44s42 27 37 36c-4 8-3 16-3 16Z" fill="#9F2446"/><path d="m136 177-1 87H42l2-83c31 4 62-8 92-4Z" fill="#F3BBB7"/><path d="M160 283h22l3-82 1-28-25 2a23625 23625 0 0 0-1 108Z" fill="#EACCBC"/><path d="M193 279v9h10l90-2v-10h-2l-98 3Z" fill="#E8DDBC"/><path opacity=".2" d="m160 200 25 1 1-28-25 2-1 25Z" fill="#520649"/><path d="M275 267v5l-87 4v-7l87-2Z" fill="#E8DDBC"/><path d="m162 89-23 14h-22l27-17 18 3Z" fill="#B29587"/><path d="M-25 187h62c71 1 256-3 261-3l-60-35-192-8v1h-1l-22 14-13 9a3320 3320 0 0 1-35 22Z" fill="#9F2446"/><path d="m134 145 28 23h1l75 1 1-71-42-30-35 20-25 15-3 42Z" fill="#EACCBC"/><path d="m134 145 28 23V88l-25 15-3 42Z" fill="#BF7268"/><path d="m-27 256 19 11 33 27 149-6v-11c-13-6-26-8-39-13l-108 1 16-1-49-11h-21v3Z" fill="#E8DDBC"/><path opacity=".4" d="m-27 256 19 11 33 27 1-13-41-28h-12v3Z" fill="#520649"/><path d="m174 277-148 8-53-32h21l48 11h94l38 13Z" fill="#CC9B9B"/><path d="m111 244 2-44-51-1 3 45h46Z" fill="#CE5353"/><path d="M65 201v12l2 29h42l1-39-45-2Z" fill="#00CE9D"/><path d="M101 203v39h8l1-39h-9Z" fill="#437D6F"/><path d="M111 211H64v1l46 1 1-2ZM117 244v2H60v-3l57 1ZM120 199l-1 2-65-2-1-3 67 3Z" fill="#CE5353"/><path opacity=".4" d="m65 213 2 29h38c0-3-1-7-4-10-7-11-25-16-36-19Z" fill="#B5EEDD"/><path opacity=".2" d="m-4 207 1 2c12 16 32 22 46 25h1a275 275 0 0 0 92-17l24-26-115-2H-4v18Z" fill="#520649"/><path d="m270 189-3 77h-9l-1-77h13Z" fill="#EACCBC"/><path d="M256 266h2l-1-77h-3l2 77Z" fill="#BF7268"/><path d="m297 184-1 6-260 3v-7l261-2Z" fill="#EAECED"/><path d="M223 199h-31l-1 66 32-1v-65Z" fill="#A33549"/><path d="M222 200v64l-30 1 1-65h29Z" fill="#7E2438"/><path d="m219 202-24 1v18h24v-19ZM219 224v38l-24 1 1-40 23 1Z" fill="#A33651"/><path d="M216 225a2 2 0 1 1 4 0 2 2 0 0 1-4 0Z" fill="#5A1C2D"/><path opacity=".4" d="M216 226a2 2 0 1 1 3 0 2 2 0 0 1-3 0Z" fill="#520649"/><path d="m-40 191 75-4h2l8-45-50 29-35 20Z" fill="#6D1430"/><path d="M37 186v7l-77 1v-3l77-5Z" fill="#B29587"/><path opacity=".3" d="m180 140 6 5h38v-3l-6-3v2l-38-1Z" fill="#5C0048"/><path d="m214 139 3-43-34-3 1 46h30Z" fill="#CE5353"/><path opacity=".3" d="m222 94 4 5v4l-45-4-2-6 42 3 1-2Z" fill="#5C0048"/><path d="M185 96v40h28l1-38-29-2Z" fill="#00CE9D"/><path d="m209 98-1 38h5l1-38h-5Z" fill="#437D6F"/><path d="m215 106-31-1v2h31v-1ZM218 139v2l-38-1v-2l38 1ZM222 94l-1 2-43-3-1-3 45 4Z" fill="#CE5353"/><path opacity=".4" d="M185 108v28h26l-3-9c-5-12-16-17-23-19Z" fill="#B5EEDD"/><path opacity=".3" d="m68 138 6 4h38v-3l-6-3v2H68Z" fill="#5C0048"/><path d="m102 136 3-42-34-3v45h31Z" fill="#CE5353"/><path opacity=".3" d="m109 92 5 4v5l-46-5-2-5 43 3v-2Z" fill="#5C0048"/><path d="M73 94v40h28V95l-28-1Z" fill="#00CE9D"/><path d="m97 95-2 39h6V95h-4Z" fill="#437D6F"/><path d="m103 104-31-1v1l30 1 1-1ZM106 136v2H68v-2h38ZM109 92v2l-44-3v-3l44 4Z" fill="#CE5353"/><path opacity=".4" d="M73 106v28h25c0-3 0-6-2-10-5-11-16-16-23-18Z" fill="#B5EEDD"/><path opacity=".6" d="m193 279-5-3v-7l-5-1v15l10 5v-9Z" fill="#B47A8C"/><path opacity=".2" d="M185 207a100 100 0 0 1 67 23l2-40-69 1v16Z" fill="#520649"/><path d="m259 99-20 11V99l1-1 19 1Z" fill="#B29587"/><path d="m142 88 20 1 1-8 41-21 1 1 35 29-1 8 20 1-53-46-62 34-2 1Z" fill="#EAECED"/><path opacity=".2" d="M162 167a325 325 0 0 0-117-26l89 4 28 22Z" fill="#520649"/><path opacity=".2" d="m260 167 28 15-242 1 3-17a654 654 0 0 0 211 1Z" fill="#FFE1FF"/><path d="m293 285 152 46 2 9-204-1v-7l-48-44c31-1 67-1 98-3Z" fill="#CEB2AD"/><path d="m447 340-155-55 1-4 152 50 2 9Z" fill="#E5D1B3"/><path opacity=".1" d="m383 186-66 2-38-26 104 24Z" fill="#FFE1FF"/><path d="m375 209-1 28h-98v-27l99-1Z" fill="#AAB5BD"/><path opacity=".2" d="m374 211-1 3-95 2v-4l96-1ZM374 216l-1 3-95 2v-4l96-1ZM374 223l-1 3-95 2v-5h96ZM374 228l-1 2-95 1v-2l96-1ZM374 232l-1 2-95 1v-2l96-1Z" fill="#520649"/><path opacity=".5" d="m204 286 107 65h131l-192-66-46 1Z" fill="#E5D1B3"/><path d="M550 330c-17-3-25-6-53-14a2059 2059 0 0 0-216-48h31a1560 1560 0 0 1 310 62c-17 2-42 4-72 0Z" fill="#CEB2AD"/><path d="M370 270c13 2 79 4 105 8a1639 1639 0 0 1 195 39v17l-19-2c-17-3-25-6-53-14-40-12-63-17-98-26-34-8-67-14-89-15l-71-7h30Z" fill="#CEB2AD"/><path opacity=".5" d="M641 315a950 950 0 0 0-212-39 923 923 0 0 1 218 54c11 2 17 2 18 0s-7-7-24-15Z" fill="#E5D1B3"/><path d="m18 207-2-5c-2-4-2-9-2-13 1-6 3-12 8-17h-1l-3-1 2-1-1-2 2 1 2 2 4-4c10-6 22-3 29 6l4 9c1 5 0 10-2 14a8 8 0 0 1 4 0h1l-1 1-2 1h-3 1l2 3-3-1h-1c-2 4-5 7-9 10a56 56 0 0 1-2 10l-3 6-2 6-1 6-1 13v53l-1-1-1-52 1-12-4-8-2-2-1-2-1-5-1-8a16 16 0 0 1-6-3 5 5 0 0 1-1 3l-1-1v-4 1l-2 1v-2l1-1-1 1h-2l-1-1h1l2-1Zm27 6a46 46 0 0 0 0-2h-1l-1 1a6 6 0 0 1 1 3l1-2Zm-1 3-1-1h-1l-1-2v-1l-3 2v3l2 2 2 3 2-6Zm-13 6 1 5 2 4 3 6 1-6 3-6 1-1-3-4-2-3-1-3a22 22 0 0 1-6 0l1 8Z" fill="#705021"/><path d="M16 208h-1l1 1h2l1-1-1 1v2l2-1v-1 1a6 6 0 0 0 1 4v-1l1-2a14 14 0 0 0 6 3h3a8 8 0 0 0 5 0h2l3-2v1l1 2h1l1 1v-3l-1-1 1-1h1l2-1c4-3 7-6 9-10h1l3 1-2-3h-1 3l2-1 1-1h-5c2-4 3-9 2-14l-4-9c-7-9-19-12-29-6a23 23 0 0 0-4 4l-2-2-2-1 1 2-2 1 3 1h1a31 31 0 0 0-6 30l2 5-2 1Z" fill="#B4B013"/><path opacity=".3" d="M16 208h-1l1 1h2l1-1-1 1v2l2-1v-1 1a6 6 0 0 0 0 3l1 1v-1l1-2a15 15 0 0 0 6 3h2a9 9 0 0 0 3 1l3-1h2l3-2v1l1 2h1l1 1v-1a228 228 0 0 0 0-2l-1-1 1-1h1l2-1c4-3 7-6 9-10-8 3-15 3-19 3l-11-3c-5-4-8-10-8-16 0-4 2-7 4-11l2-4-1 2-2-2-2-1 1 2-2 1 3 1h1a31 31 0 0 0-6 30l2 5-2 1Z" fill="#3A0C30"/><path d="M67 279a25 25 0 0 0-4 4v1l-1 1v1l-1 1v2l-1 1v2l-1 1v9l1 2v4l1 1v-1l1-4 1-3 1-4v-4l1-1v-4l1-2v-2l1-2v-3Zm0 0v1l-1 2v2l-1 2v2l-1 2v1l-1 2v4l-1 4-1 3-1 4h1l-1-2v-4l-1-1v-3l1-1v-5h1v-3l1-1v-1l1-2v-1h1v-1l1-1a36 36 0 0 1 2-3Z" fill="#644633"/><path d="M76 257c-3-5-15-2-16-2-8 2-13 7-16 10-1-1-4-2-8 0-5 1-9 7-7 13 1 5 6 8 12 7h9l2 5c4 5 15 5 18-1l1-4 8 2c8 2 16 4 20-1 5-4 4-15-3-21-5-5-13-6-20-3v-5Z" fill="#EAE341"/><path d="m98 288-1 1c-4 3-12 1-19 0l-8-3-1 5c-3 5-14 6-18 1l-2-5h-9c-6 1-11-3-12-8l-1-3c1-4 4-8 8-10h8c3-3 8-8 16-10 2 0 13-2 16 3v5c7-3 15-2 20 2 7 6 8 17 3 22Z" fill="#C8C221"/><path d="m58 270-3 2c0 2 2 3 3 3 3 2 8 1 11-2 1-1 4-3 4-7l-3-4v2c0 2-2 5-4 6-3 1-5-2-8 0Z" fill="#A0A000"/><path d="m90 281 2 1v1a3 3 0 0 0 1 0h1v-1h1v-1h1a9 9 0 0 0 1-4v-4h-1l-1-2-2-1v-1h-3v-1h-4v1h-3a11 11 0 0 0-4 4v2h-1v4h-1v3-5a13 13 0 0 1 2-5l1-1a10 10 0 0 1 5-3h1l1-1h1l1 1h2l4 3h1v1h1v2h1v5a9 9 0 0 1-2 3l-1 1h-2a3 3 0 0 1-2 0 5 5 0 0 1-1-2Z" fill="#EAE341"/><path d="M58 269c-1 0 2-4 0-4l-2 1 1 2-2 2c0 1 3 3 6 2 3 0 5-5 3-6-3-4-5 0-5 1h1l-2 2ZM74 276h3l-1-1h-1l-1-1-2 3c0 2 3 3 4 2 2-2 0-2-1-3v1l-1-1Z" fill="#A2207C"/><path d="m86 261 2-1-1-1-1 1h-2l1 3h4c1-3-2-2-2-2-1 0 0 0 0 0h-1Z" fill="#E25ED6"/><path d="m49 277-1-1-2 1h2l-1 1v2c2 1 4 0 4-1 2-3 0-1 0-2-1-1 0-2-2-2v1l1 1h-1Z" fill="#A2207C"/><path d="m53 259-1-1-1 1h1l-1 1v1h4c1-3-1-1-1-2s1-2-1-2v1l1 1h-1Z" fill="#D03EC3"/><path d="M56 279c-1 0-3 0-5 2-2 3-1 5-1 6 0-2 0-3 2-5 4-3 10 0 11-1 0-1-3-2-7-2Z" fill="#A0A000"/><path d="M46 271c0-1-2-3-5-4-4-1-8 1-8 1h3c6 0 10 3 10 3ZM97 289c-4 3-12 1-19 0l-8-3-1 5c-3 5-14 6-18 1l-2-5h-9c-6 1-11-3-12-8l-1-3 3 4c2 3 5 4 8 4 5 1 10 0 12-1v4c1 5 4 7 5 7 3 1 7 2 10 0l4-4v-4l7 2 15 2 6-1Z" fill="#7E7B0A"/><path d="m43 284 2 1h1v1l2 1 1 1 1 1 1 1 1 1 1 2h1v1l1 2 1 2h1v2h1v2l1 1v3l1 1v2l-1-2-1-2-2-3-2-3-1-2-1-1-1-2-1-1-1-2-1-1-1-2-1-2-2-1-1-1Zm0-1 1 2 1 2 1 1 1 2 1 1 1 2 1 2 1 1 1 2 1 1 3 4 2 3 1 1 1 2v1-4l-1-1v-3l-1-1v-2l-1-2-1-1-1-2-1-1v-1l-1-1-1-1-1-1-1-1-1-1h-1v-1l-1-1a29 29 0 0 0-4-2ZM53 272l1 2v1l1 1v2l1 2v1h1v2a19 19 0 0 1 1 2v4l1-1-1-2v-2l-1-2a86 86 0 0 0-2-4v-2l-1-1v-1l-1-2Zm0 0a56 56 0 0 0 1 3v2l1 1a122 122 0 0 0 1 4l1 3v1l1 1v2l1 2v-4l-1-1v-3l-1-1v-1a28 28 0 0 0 0-2l-1-1a31 31 0 0 0-1-2v-1l-1-1-1-1v-1ZM80 281a25 25 0 0 0-3 3h-1l-1 1v1h-1l-1 1v1l-1 1h-1v1l-1 1-1 2v2l-1 1v1l-1 1v5h-1v6l1-1 1-3 2-3 2-4 1-1 1-2v-2l1-1 1-2 1-2 1-1 1-2v-2l1-2Zm0 1-1 1-1 2-1 1-1 2-1 2v1l-1 2-1 2-1 1-1 2-2 3-1 4-2 3h1v-9h1v-3h1v-2h1v-2l1-1 1-1v-1l1-1 1-1a37 37 0 0 1 6-5ZM72 269a57 57 0 0 0-1 4v7l-1 2v1a30 30 0 0 1-1 4v2a25 25 0 0 1-2 2h1l1-2v-3l1-3a152 152 0 0 0 1-5v-3l1-2a131 131 0 0 0 0-4Zm0 0-1 3v3l-1 1v1a183 183 0 0 0-1 6l-1 3v3l-1 2v2l1-1v-2h1v-3l1-1v-1l1-2v-4l1-1v-9Z" fill="#644633"/><path opacity=".3" d="M57 313c-16 0-29-2-29-4 0-1 13-3 29-3s29 2 29 3c0 2-13 4-29 4Z" fill="#3A0C30"/><path d="m169 289 1-5-2 2-1 2-2-2-1 2c-1-1-2-2-4-1l-2 2-11-1h-11l-7 2c6 3 20 8 34 2l6-3Z" fill="#B4B013"/><path d="M91 291a44 44 0 0 1 2 3h1v1l1 1v1l1 2v1h1v3h1v4l1 1v7l-1 1v2l-1 2h1l-1-4-1-3v-4l-1-2v-2l-1-2v-2l-1-1v-4l-1-2v-2l-1-1Zm0 0v1l1 2v4l1 2v4l1 1v2l1 2 1 4v3l1 4 1 1v-4l1-1v-12h-1v-3l-1-1v-1l-1-1v-1l-1-1v-1a25 25 0 0 0-4-4v-1 1Z" fill="#603112"/><path d="M82 269c4-5 15-3 16-2 8 1 13 6 16 10 2-1 5-2 8-1 5 2 9 8 8 14-2 5-7 8-13 7h-9c0 2 0 4-2 5-4 5-15 4-18-1v-4l-9 2c-7 2-16 3-20-1-5-4-4-16 3-22 5-4 13-5 20-2v-5Z" fill="#EAE341"/><path d="m60 300 1 1c4 3 12 1 19 0l9-3v5c3 5 14 6 18 1 2-2 2-4 2-5h9c6 1 11-3 12-8l1-3c0-4-4-8-8-10h-8c-3-3-8-8-16-10-1 0-13-2-16 3v5c-7-3-15-2-20 2-7 6-8 17-3 22Z" fill="#EBD300"/><path d="m100 282 3 2c0 2-2 3-3 3-3 1-8 1-11-2-1-1-4-4-4-7 1-3 3-4 4-5l-1 3c0 2 2 5 5 6 2 1 4-2 7 0Z" fill="#A0A000"/><path d="M100 281v-4l2 1-1 2 2 1c0 2-3 4-5 3-3 0-6-5-4-6 4-4 5 0 5 1h-1l2 2Z" fill="#7E21D7"/><path d="M84 288h-2v-1h1l1-1 2 3c0 2-3 3-4 2-2-2 0-3 1-3v1l1-1Z" fill="#65208C"/><path d="m73 273-2-1 1-1v1l2-1v4h-5c0-3 2-3 2-3v1h2Z" fill="#7E21D7"/><path d="m109 289 2-1 1 1h-2l1 1v2c-1 1-3 0-4-1-2-3 1-1 1-2s-1-2 1-2l1 1-2 1h1Z" fill="#65208C"/><path d="m105 271 1-1 2 1h-2l1 1v1h-3c-2-3 0-1 0-2s-1-2 1-2l1 1-1 1Z" fill="#7E21D7"/><path d="M102 291c1 0 4 0 5 2 2 3 2 5 1 6 0-2 0-3-2-5-3-3-10 0-10-1-1-1 2-3 6-2Z" fill="#7E7B0A"/><path d="M112 283c0-1 2-4 5-4 4-1 8 1 8 1h-3c-6 0-10 3-10 3Z" fill="#EAE341"/><path d="M61 301c4 3 12 1 19 0l9-3v5c3 5 14 6 18 1 2-2 2-4 2-5h9c6 1 11-3 12-8l1-3-3 4c-2 3-5 3-8 4-5 1-10 0-12-1v4c0 4-4 6-5 7-3 1-7 2-10 0l-3-4-1-4-7 2c-5 1-10 2-15 1h-6Z" fill="#7E7B0A"/><path d="M115 295a30 30 0 0 0-4 2v1h-1l-1 1-1 1-1 1-1 1v1l-2 1v1l-1 1-1 2-1 1v2l-1 1v2l-1 1v3l-1 1v3-1l1-2 2-1 2-4 2-3 1-1 1-2 1-1 1-2 1-2 1-1 1-2 1-1 1-2 1-2Zm0 0-1 2-1 1-1 2-2 1-1 2-1 2-1 1-1 2-1 1-1 2-2 3-2 3-1 2-1 1v1l1-2v-3l1-1v-2l1-1v-2l1-1 1-1 1-2v-1h1l1-2 1-1h1v-1l1-1h1v-1l2-1v-1h1v-1l2-1ZM105 284v1l-1 1v1l-1 1a38 38 0 0 0-1 2v1a12 12 0 0 0-1 1 27 27 0 0 0 0 3l-1 1v3l-1 1v3l1-3 1-2v-2l1-2a83 83 0 0 0 2-4v-2l1-1a75 75 0 0 0 0-3h1-1Zm0 0a65 65 0 0 0-1 3v1l-1 1v1a108 108 0 0 0-2 4v2l-1 1v1l-1 2h1v-2a23 23 0 0 1 1-3v-1l1-1v-1l1-2v-1l1-1v-1l1-1v-2ZM78 293a46 46 0 0 1 6 6h1v1l1 1v1h1v1l1 1v1h1v2l1 1v1l1 1v5h1v5l-2-3-1-4-2-3-1-2-1-1v-2l-1-2-1-2-1-1-1-2-1-1-1-2-1-2Zm0 0 1 2 1 2v1l1 2 1 2 1 2 1 1 1 2v2l1 1 2 4 2 3 2 3v1-7l-1-2v-3l-1-1v-1l-1-1v-1l-1-2-1-1v-1h-1v-1l-1-1-1-1v-1h-1l-1-1-1-1a24 24 0 0 0-3-2ZM86 281v7l1 2v4l1 1v3l1 1v2h1v2l1 2v-2l-1-3v-2l-1-3a138 138 0 0 0-1-6v-2l-1-2v-1l-1-3Zm0 0a99 99 0 0 0 1 4v4a182 182 0 0 0 1 6l1 3v1l1 2v2h1a34 34 0 0 1-3-6v-6l-1-2v-5l-1-2v-1Z" fill="#603112"/><path opacity=".3" d="M83 323c-20 0-36-2-36-5s16-5 36-5c19 0 35 2 35 5s-16 5-35 5Z" fill="#3A0C30"/><path d="M216 308c-2 0-3-2-2-4l2-1v4l3-2 4-1-5 4h-2ZM205 297l1-2v-2l-1 2v2l-1-1v1h1Z" fill="#B4B013"/><path d="m391 149 58 50 181 3v-3l-1-1-10-5-79-37-113-5-36-2Z" fill="#9B9450"/><path opacity=".2" d="M591 257v2l-27-1 1-3h1l2-31h15l8 33Z" fill="#601C50"/><path d="M597 220v5l-4-1-2 29h3v3h-28v-3h2l1-29h-3v-4h31Z" fill="#865E3F"/><path opacity=".2" d="m591 225-20-1-1 29h6a37 37 0 0 0 15-20v-8Z" fill="#ACACFF"/><path opacity=".2" d="m503 257-1 2-26-1v-3h2l1-31h15l9 33Z" fill="#601C50"/><path d="M509 220v5l-4-1-2 29h3v3h-28v-3h2l1-29h-3v-4h31Z" fill="#865E3F"/><path opacity=".2" d="m503 225-20-1-1 29h6a37 37 0 0 0 14-20l1-8Z" fill="#ACACFF"/><path opacity=".3" d="M455 243a452 452 0 0 1 161-23 339 339 0 0 0 0-14h3v-3l-163 1-1 39Z" fill="#601C50"/><path d="M445 196v8l171 2 14 1v-8l-1-1-184-2Z" fill="#EAE3A3"/><path opacity=".6" d="m427 151 25 13a376 376 0 0 0 167 29l-79-37-113-5Z" fill="#E6D76E"/><path d="M532 273a13 13 0 0 0 1 3h19l14-1h3a19 19 0 0 0 1-3l-1-3-2 1h-1l-1 2a39 39 0 0 0 2-5v-7h-1v-1c-5-1-6 3-7 3 1-1 3-7 0-7-2 0-3 5-3 8 0-5-1-12-4-12v-1h-1c-5 1-4 16-4 16l-3-5-1-1h-2c-3 1-2 8-2 8s-2-5-4-3c-1 2 1 7 1 7s-3-4-4-1v2Z" fill="url(#c)"/><g opacity=".3"><path opacity=".3" d="M559 262v1c1-2 6-5 7-1s-2 11-2 11 4-4 5-3v4c1-1 2-4 0-5l-2 1h-1l-1 2a39 39 0 0 0 2-5v-7h-1c-5-2-6 2-7 2Z" fill="url(#d)"/><path opacity=".3" d="M556 263v1l3-8c2 0 1 5 0 6 1-1 3-7 0-7-2 0-3 5-3 8Z" fill="url(#e)"/><path opacity=".3" d="m532 273 1 3h1c-1-2-2-4-1-5s4 2 4 2c-2-2-2-6-1-7 2-1 3 3 3 3s0-6 3-7c2-1 5 6 5 6 0-3 1-15 4-15 3-1 5 7 5 10 0-5-1-12-4-12l-1-1c-5 1-4 16-4 16l-3-5-1-1h-2c-3 1-2 8-2 8s-2-5-4-3c-1 2 1 7 1 7s-3-4-4-1v2Z" fill="url(#f)"/></g><path opacity=".3" d="M533 276h19l14-1h3a21 21 0 0 0 1-3c-1 1-5 3-7 1 0 0-6 4-9 1-3-2-3-5-3-6 0 1-2 7-5 6l-3-4c0 1 0 4-3 5-3 0-3-4-3-4s-1 5-4 5Z" fill="url(#g)"/><path d="m174 306-1 3-11 1h-24a15 15 0 0 1-2-3l1-3 2 1h1l2 2a39 39 0 0 1-3-5v-7l1-1c4-2 6 2 6 3 0-1-2-7 1-7l3 7v1-1c0-5 0-12 4-12 5 0 5 15 5 15l3-6h1l2-1c2 1 2 9 2 9s2-6 4-4c1 2-1 7-1 7s3-3 4-1v2Z" fill="url(#h)"/><g opacity=".3"><path opacity=".3" d="M146 297h1c-2-2-6-4-7 0s2 11 2 11-4-4-5-3v4c-1-1-2-4 0-5l2 1h1l2 2a39 39 0 0 1-3-5v-7l1-1c4-2 6 2 6 3Z" fill="url(#i)"/><path opacity=".3" d="M150 297v1s-2-8-4-7v6c0-1-2-7 1-7l3 7Z" fill="url(#j)"/><path opacity=".3" d="m174 306-1 3v-4c-1-2-3 2-3 2v-8c-2 0-3 3-3 3s-1-6-3-7-5 7-5 7c0-3-1-15-5-15-3-1-4 7-4 10 0-5 0-12 4-12 5 0 5 15 5 15l3-6h1l2-1c2 1 2 9 2 9s2-6 4-4c1 2-1 7-1 7s3-3 4-1v2Z" fill="url(#k)"/></g><path opacity=".3" d="m173 309-11 1h-24a16 16 0 0 1-2-3c2 1 5 2 7 0 0 0 6 4 10 1 2-2 2-5 2-6 0 1 2 7 5 6 2-1 3-3 3-5 0 2 0 5 3 5 4 0 4-3 4-3s1 4 3 4Z" fill="url(#l)"/><path d="M601 273a17 17 0 0 0 2 3h25l19-1h4a20 20 0 0 0 1-4c1-2 1-4-1-4-1-1-2 0-3 1h-1l-2 3a52 52 0 0 0 3-7c1-3 2-7 0-9a3 3 0 0 0-2-1c-6-2-8 3-8 4 0-1 3-10-1-10-2 0-3 6-4 11a74 74 0 0 0 0-1c0-6-1-15-6-16h-1c-6 1-5 21-5 21l-4-7-1-1-3-1c-4 2-3 12-3 12s-3-7-5-5c-1 3 1 10 1 10s-3-5-5-2v4Z" fill="url(#m)"/><g opacity=".3"><path opacity=".3" d="M638 258c1-2 7-6 9-1 1 5-2 15-2 15s4-5 6-4v6c1-2 3-7 0-7-1-1-2 0-3 1h-1l-2 3a52 52 0 0 0 3-7c1-3 2-7 0-9a3 3 0 0 0-2-1c-6-2-8 3-8 4Z" fill="url(#n)"/><path opacity=".3" d="M633 259v1s2-11 5-10v8c0-1 3-10-1-10-2 0-3 6-4 11Z" fill="url(#o)"/><path opacity=".3" d="m601 273 2 3c-1-2-2-5-1-6 2-2 5 2 5 2-2-2-2-8 0-9s4 4 4 4 0-9 3-10 7 8 7 8c0-3 1-20 6-20 4-1 6 9 6 13 0-6-1-15-6-16h-1c-6 1-5 21-5 21l-4-7-1-1-3-1c-4 2-3 12-3 12s-3-7-5-5c-1 3 1 10 1 10s-3-5-5-2v4Z" fill="url(#p)"/></g><path opacity=".3" d="M602 276h26l19-1h4a20 20 0 0 0 1-4c-2 1-7 3-9 1 0 0-8 6-13 2-4-4-3-7-3-8-1 1-3 9-7 7-3-1-4-4-4-6 0 3 0 7-4 7-5 0-5-4-5-4s-1 6-5 6Z" fill="url(#q)"/></g></g><defs><linearGradient id="b" x1="333.3" y1="0" x2="333.3" y2="323.8" gradientUnits="userSpaceOnUse"><stop offset=".6" stop-color="#2F54EB" stop-opacity="0"/><stop offset="1" stop-color="#2F54EB"/></linearGradient><linearGradient id="c" x1="551.3" y1="276.3" x2="549.4" y2="233.3" gradientUnits="userSpaceOnUse"><stop offset="0" stop-color="#AA9D00"/><stop offset="1" stop-color="#989D00"/></linearGradient><linearGradient id="d" x1="565.1" y1="274.8" x2="563.9" y2="248.6" gradientUnits="userSpaceOnUse"><stop offset="0" stop-color="#AA9D00"/><stop offset="1" stop-color="#989D00"/></linearGradient><linearGradient id="e" x1="558.3" y1="264.1" x2="557.7" y2="249.4" gradientUnits="userSpaceOnUse"><stop offset="0" stop-color="#AA9D00"/><stop offset="1" stop-color="#989D00"/></linearGradient><linearGradient id="f" x1="544.4" y1="276.2" x2="542.5" y2="233.9" gradientUnits="userSpaceOnUse"><stop offset="0" stop-color="#AA9D00"/><stop offset="1" stop-color="#989D00"/></linearGradient><linearGradient id="g" x1="551.6" y1="276" x2="551" y2="263" gradientUnits="userSpaceOnUse"><stop offset="0" stop-color="#AA9D00"/><stop offset="1" stop-color="#989D00"/></linearGradient><linearGradient id="h" x1="155.1" y1="310.3" x2="154.9" y2="267.3" gradientUnits="userSpaceOnUse"><stop offset="0" stop-color="#AA9D00"/><stop offset="1" stop-color="#989D00"/></linearGradient><linearGradient id="i" x1="141.3" y1="309.5" x2="141.2" y2="283.3" gradientUnits="userSpaceOnUse"><stop offset="0" stop-color="#AA9D00"/><stop offset="1" stop-color="#989D00"/></linearGradient><linearGradient id="j" x1="147.5" y1="298.5" x2="147.4" y2="283.8" gradientUnits="userSpaceOnUse"><stop offset="0" stop-color="#AA9D00"/><stop offset="1" stop-color="#989D00"/></linearGradient><linearGradient id="k" x1="162" y1="309.9" x2="161.8" y2="267.5" gradientUnits="userSpaceOnUse"><stop offset="0" stop-color="#AA9D00"/><stop offset="1" stop-color="#989D00"/></linearGradient><linearGradient id="l" x1="154.9" y1="310" x2="154.8" y2="297" gradientUnits="userSpaceOnUse"><stop offset="0" stop-color="#AA9D00"/><stop offset="1" stop-color="#989D00"/></linearGradient><linearGradient id="m" x1="627" y1="276.5" x2="624.4" y2="218.7" gradientUnits="userSpaceOnUse"><stop offset="0" stop-color="#AA9D00"/><stop offset="1" stop-color="#989D00"/></linearGradient><linearGradient id="n" x1="645.5" y1="274.5" x2="643.9" y2="239.2" gradientUnits="userSpaceOnUse"><stop offset="0" stop-color="#AA9D00"/><stop offset="1" stop-color="#989D00"/></linearGradient><linearGradient id="o" x1="636.4" y1="260.1" x2="635.5" y2="240.3" gradientUnits="userSpaceOnUse"><stop offset="0" stop-color="#AA9D00"/><stop offset="1" stop-color="#989D00"/></linearGradient><linearGradient id="p" x1="617.7" y1="276.4" x2="615.2" y2="219.4" gradientUnits="userSpaceOnUse"><stop offset="0" stop-color="#AA9D00"/><stop offset="1" stop-color="#989D00"/></linearGradient><linearGradient id="q" x1="627.3" y1="276.1" x2="626.5" y2="258.6" gradientUnits="userSpaceOnUse"><stop offset="0" stop-color="#AA9D00"/><stop offset="1" stop-color="#989D00"/></linearGradient><clipPath id="a"><path fill="#fff" d="M0 0h667v324H0z"/></clipPath></defs></svg>