<svg xmlns="http://www.w3.org/2000/svg" width="97" height="96" fill="none"><path fill="#2F54EB" d="M70.5 18h-44v39h2V20h40v3h2v-5ZM26.5 76v-4h2v4h40V38h2v38h4v2h-52v-2h4Z"/><path fill="#2F54EB" fill-rule="evenodd" d="M62.5 52V39c0-7.732-6.268-14-14-14s-14 6.268-14 14v13h28Zm-2-13v11h-11V38h10.96c.026.33.04.663.04 1Zm-13 11V38H36.541c-.027.33-.04.663-.04 1v11h11Zm12.622-14H49.5v-8.959c5.145.425 9.37 4.095 10.622 8.959Zm-23.244 0H47.5v-8.959c-5.145.425-9.37 4.095-10.622 8.959ZM34.5 58v15h28V58h-28Zm2 13V60h24v11h-24Z" clip-rule="evenodd"/><path fill="#2F54EB" d="M80.5 78h-4v-2h4v2ZM20.5 78h-4v-2h4v2ZM64.5 57v-4h2v4h-2Z"/><path fill="#FA8C16" fill-rule="evenodd" d="M64 31.5v-2h.018a4.509 4.509 0 0 0 4.495-4.5h1.974c0 2.466 2 4.49 4.496 4.5H75v2h-.017a4.509 4.509 0 0 0-4.496 4.501h-1.973c0-2.466-2-4.49-4.496-4.5H64Zm3.457-1a6.531 6.531 0 0 0 2.043-2.053 6.533 6.533 0 0 0 2.044 2.053 6.533 6.533 0 0 0-2.044 2.054 6.531 6.531 0 0 0-2.043-2.054ZM22 65.5v-2h.018a4.509 4.509 0 0 0 4.495-4.5h1.974c0 2.466 2 4.49 4.496 4.5H33v2h-.017a4.509 4.509 0 0 0-4.496 4.501h-1.973c0-2.466-2-4.49-4.496-4.5H22Zm3.457-1a6.531 6.531 0 0 0 2.043-2.053 6.533 6.533 0 0 0 2.044 2.053 6.533 6.533 0 0 0-2.044 2.054 6.531 6.531 0 0 0-2.043-2.053Z" clip-rule="evenodd"/></svg>