<svg width="97" height="96" viewBox="0 0 97 96" fill="none" xmlns="http://www.w3.org/2000/svg">
<path d="M75.692 36.6871C77.7988 34.5802 78.9824 31.7227 78.9824 28.7432H75.4892C75.4892 30.7963 74.6736 32.7652 73.2219 34.2169C71.7702 35.6686 69.8012 36.4842 67.7482 36.4842C65.6951 36.4842 63.7262 35.6686 62.2745 34.2169C60.8228 32.7652 60.0072 30.7963 60.0072 28.7432V23.7502H56.5139V28.7432C56.5139 31.7228 57.6975 34.5802 59.8044 36.6871C61.9112 38.7939 64.7687 39.9775 67.7482 39.9775C70.7277 39.9775 73.5852 38.7939 75.692 36.6871Z" stroke="#2F54EB" stroke-width="2"/>
<path d="M18.472 23.7502V28.7432C18.472 31.7228 19.6557 34.5802 21.7625 36.6871C23.8693 38.7939 26.7268 39.9775 29.7063 39.9775H67.6879" stroke="#2F54EB" stroke-width="2"/>
<line x1="76.1584" y1="28.7452" x2="60.8228" y2="28.7452" stroke="#2F54EB" stroke-width="2"/>
<path d="M20.9377 23.7501L17.469 23.75" stroke="#2F54EB" stroke-width="2"/>
<path d="M55.6877 23.75L34.094 23.7501" stroke="#2F54EB" stroke-width="2"/>
<line x1="21.4436" y1="36.0055" x2="54.6114" y2="36.0055" stroke="#2F54EB" stroke-width="2"/>
<line x1="48.2405" y1="47.031" x2="48.2405" y2="72.5933" stroke="#2F54EB" stroke-width="2"/>
<path d="M33.094 40.0074H56.5136V40.0074C56.5136 42.2069 54.7305 43.99 52.5311 43.99H37.0765C34.877 43.99 33.094 42.2069 33.094 40.0074V40.0074Z" stroke="#2F54EB" stroke-width="2"/>
<rect x="37.2551" y="43.9897" width="15.0979" height="33.0106" stroke="#2F54EB" stroke-width="2"/>
<path d="M21.9447 23.7501C25.0216 23.7501 27.5188 26.2143 27.5188 29.2506" stroke="#FA8C16" stroke-width="2" stroke-miterlimit="10"/>
<path d="M27.5189 29.2506C27.5189 26.2143 30.0161 23.7501 33.093 23.7501" stroke="#FA8C16" stroke-width="2" stroke-miterlimit="10"/>
<path d="M21.9447 23.7501C25.0216 23.7501 27.5188 21.2859 27.5188 18.2496" stroke="#FA8C16" stroke-width="2" stroke-miterlimit="10"/>
<path d="M27.5189 18.2496C27.5189 21.2859 30.0161 23.7501 33.093 23.7501" stroke="#FA8C16" stroke-width="2" stroke-miterlimit="10"/>
<path d="M56.9447 50.7501C60.0216 50.7501 62.5188 53.2143 62.5188 56.2506" stroke="#FA8C16" stroke-width="2" stroke-miterlimit="10"/>
<path d="M62.5189 56.2506C62.5189 53.2143 65.0161 50.7501 68.093 50.7501" stroke="#FA8C16" stroke-width="2" stroke-miterlimit="10"/>
<path d="M56.9447 50.7501C60.0216 50.7501 62.5188 48.2859 62.5188 45.2496" stroke="#FA8C16" stroke-width="2" stroke-miterlimit="10"/>
<path d="M62.5189 45.2496C62.5189 48.2859 65.0161 50.7501 68.093 50.7501" stroke="#FA8C16" stroke-width="2" stroke-miterlimit="10"/>
</svg>
