<svg width="97" height="96" viewBox="0 0 97 96" fill="none" xmlns="http://www.w3.org/2000/svg">
<path d="M44.6875 67.7529V47.6279H36.8125V67.7529" stroke="#2548D6" stroke-width="2"/>
<path d="M52.5625 67.7529V47.6279H44.6875V67.7529" stroke="#2548D6" stroke-width="2"/>
<path d="M60.4375 67.7529V47.6279H52.5625V67.7529" stroke="#2548D6" stroke-width="2"/>
<rect x="85.3125" y="70.147" width="2.98123" height="73.3752" transform="rotate(90 85.3125 70.147)" stroke="#2548D6" stroke-width="2"/>
<path d="M61.4375 76.8232H35.8438" stroke="#2548D6" stroke-width="2"/>
<path d="M24.375 54.5656V52.5695M24.375 50.5812V38.8969L31.125 33.9153V24.5219H36.6875V29.8101L48.625 21L72.875 38.8969V42.5234" stroke="#2548D6" stroke-width="2"/>
<path d="M77.1792 42.0734L48.625 21L40.9309 26.6783L27.8141 36.3588L20.0708 42.0734" stroke="#2548D6" stroke-width="2"/>
<path d="M48.6251 30.3798C48.6251 33.4161 51.1223 35.8804 54.1992 35.8804" stroke="#FA8C16" stroke-width="2" stroke-miterlimit="10"/>
<path d="M43.0509 35.8804C46.1278 35.8804 48.625 33.4161 48.625 30.3798" stroke="#FA8C16" stroke-width="2" stroke-miterlimit="10"/>
<path d="M48.6251 41.3809C48.6251 38.3446 51.1223 35.8803 54.1992 35.8803" stroke="#FA8C16" stroke-width="2" stroke-miterlimit="10"/>
<path d="M43.0509 35.8803C46.1278 35.8803 48.625 38.3446 48.625 41.3809" stroke="#FA8C16" stroke-width="2" stroke-miterlimit="10"/>
<path d="M72.8756 44.0385C72.8756 47.0748 75.3728 49.5391 78.4497 49.5391L72.8756 44.0385Z" fill="white"/>
<path d="M72.8756 44.0385C72.8756 47.0748 75.3728 49.5391 78.4497 49.5391" stroke="#FA8C16" stroke-width="2" stroke-miterlimit="10"/>
<path d="M67.3014 49.5391C70.3783 49.5391 72.8755 47.0748 72.8755 44.0385L67.3014 49.5391Z" fill="white"/>
<path d="M67.3014 49.5391C70.3783 49.5391 72.8755 47.0748 72.8755 44.0385" stroke="#FA8C16" stroke-width="2" stroke-miterlimit="10"/>
<path d="M72.8756 55.0396C72.8756 52.0032 75.3728 49.539 78.4497 49.539L72.8756 55.0396Z" fill="white"/>
<path d="M72.8756 55.0396C72.8756 52.0032 75.3728 49.539 78.4497 49.539" stroke="#FA8C16" stroke-width="2" stroke-miterlimit="10"/>
<path d="M67.3014 49.539C70.3783 49.539 72.8755 52.0032 72.8755 55.0396L67.3014 49.539Z" fill="white"/>
<path d="M67.3014 49.539C70.3783 49.539 72.8755 52.0032 72.8755 55.0396" stroke="#FA8C16" stroke-width="2" stroke-miterlimit="10"/>
<rect x="24.375" y="57.5654" width="6.22" height="12.5813" stroke="#2548D6" stroke-width="2"/>
<path d="M24.375 73.1279V77.8779" stroke="#2548D6" stroke-width="2"/>
<path d="M72.875 73.1279V77.8779" stroke="#2548D6" stroke-width="2"/>
<rect x="72.875" y="57.5654" width="6.22" height="12.5813" stroke="#2548D6" stroke-width="2"/>
<rect x="11.9375" y="57.5654" width="6.22" height="12.5813" stroke="#2548D6" stroke-width="2"/>
<rect x="79.0928" y="57.5654" width="6.22" height="12.5813" stroke="#2548D6" stroke-width="2"/>
<rect x="18.1553" y="57.5654" width="6.22" height="12.5813" stroke="#2548D6" stroke-width="2"/>
<rect x="66.6553" y="57.5654" width="6.22" height="12.5813" stroke="#2548D6" stroke-width="2"/>
</svg>
