<svg width="96" height="97" viewBox="0 0 96 97" fill="none" xmlns="http://www.w3.org/2000/svg">
    <g clip-path="url(#clip0_1851_54927)">
        <path d="M45.168 68.3535C45.168 68.3535 46.4289 68.7251 47.5711 68.7251C48.7132 68.7251 50.1468 68.3535 50.1468 68.3535C50.1468 68.3535 49.7349 71.2684 52.3503 72.7654C52.3503 72.7654 46.4828 71.123 45.168 68.3535Z" fill="#E1E0E6"/>
        <path d="M67.3445 84.3676C67.3427 84.3569 67.1412 83.2117 66.6214 79.4353C66.3768 77.6566 65.1734 76.0214 63.0455 74.5711C61.0004 73.1765 58.0397 71.9183 54.2498 70.8288C53.5555 70.6296 53.122 70.3172 52.8846 69.847C52.399 68.8831 52.8073 67.5082 52.9008 67.2264C54.2193 66.1567 55.2967 64.6257 56.1007 62.6584C57.5487 59.1135 57.7645 55.0679 57.7645 52.9714C57.7645 47.4396 53.1922 42.938 47.573 42.938C41.9538 42.938 37.3815 47.4396 37.3815 52.9714C37.3815 55.0679 37.5973 59.1135 39.0453 62.6584C39.8727 64.6867 40.9933 66.2482 42.3675 67.3234C42.3801 67.3593 42.3891 67.397 42.4053 67.4329C42.4071 67.4382 42.9161 68.727 42.4629 69.6926C42.2182 70.2131 41.7002 70.5883 40.8782 70.8342C38.7737 71.4678 35.6853 72.4783 33.1725 73.916C30.3719 75.5206 28.8088 77.3783 28.5246 79.4335C28.0048 83.201 27.8033 84.3551 27.8015 84.3659C27.7296 84.7661 27.8195 85.17 28.0533 85.502C28.2872 85.8341 28.6361 86.0584 29.0372 86.1284C29.1254 86.1446 29.2153 86.1518 29.3053 86.1518C30.0445 86.1518 30.6759 85.6241 30.8054 84.8953C30.8126 84.8505 31.0104 83.7358 31.5465 79.8463C31.8271 77.8109 35.4533 75.6427 41.7596 73.7437C43.4342 73.2393 44.5997 72.3096 45.2257 70.9796C45.5063 70.3819 45.6628 69.7231 45.6933 69.0124C46.411 69.1775 47.0424 69.2601 47.5766 69.2601C48.2205 69.2601 48.9256 69.1757 49.6181 69.0177C49.6541 69.8201 49.834 70.5506 50.156 71.1967C50.7819 72.4514 51.8773 73.3093 53.408 73.7491C59.5057 75.5009 63.3172 77.7804 63.6013 79.8463C64.1374 83.7358 64.3352 84.8505 64.3424 84.8953C64.4719 85.6223 65.1033 86.15 65.8443 86.15C65.9325 86.15 66.0224 86.1428 66.1106 86.1266C66.9362 85.9848 67.4902 85.1933 67.3445 84.3676ZM40.0058 52.9696C40.0058 48.8827 43.4 45.5567 47.5712 45.5567C51.7424 45.5567 55.1366 48.8827 55.1366 52.9696C55.1366 52.9696 54.9927 58.4207 53.667 61.6677C52.3576 64.8733 50.3646 66.4313 47.5694 66.4313C44.776 66.4313 42.7812 64.8733 41.4718 61.6677C40.1479 58.4207 40.0058 54.5025 40.0058 52.9696Z" fill="#2F54EB"/>
        <path d="M28.4165 63.1269L25.5673 61.9387V58.0671C25.5673 55.8378 23.7128 54.1147 21.477 54.1147H9.6037C7.3697 54.1147 5.60156 55.8378 5.60156 58.0671V69.3516C5.60156 71.5826 7.3697 73.3201 9.6037 73.3201H21.477C23.7128 73.3201 25.5673 71.5826 25.5673 69.3516V65.5895L28.3643 64.6831C29.1018 64.4479 29.1324 63.4212 28.4165 63.1269Z" fill="#E1E0E6"/>
        <path d="M57.1435 11.7554H37.5735C34.8268 11.7554 32.582 14.0151 32.582 16.7541V26.206C32.582 28.945 34.8268 31.1402 37.5717 31.1402H44.8744L46.6498 35.0261C46.8872 35.762 47.9161 35.7961 48.2111 35.0818L49.8461 31.1384H57.1417C59.8883 31.1402 62.081 28.9468 62.081 26.206V16.7541C62.081 14.0151 59.8883 11.7554 57.1435 11.7554Z" fill="#FA8C16"/>
        <path d="M85.5399 54.1147H73.6665C71.4307 54.1147 69.6356 55.8378 69.6356 58.0671V61.7771L66.6605 62.7338C65.9231 62.9707 65.8871 63.9974 66.6012 64.2918L69.6356 65.5446V69.3498C69.6356 71.5808 71.4325 73.3183 73.6665 73.3183H85.5399C87.7757 73.3183 89.6014 71.5808 89.6014 69.3498V58.0653C89.6014 55.8378 87.7757 54.1147 85.5399 54.1147Z" fill="#B8C0CC"/>
        <path d="M75.3132 30.6338C70.0213 30.6338 65.7296 34.9146 65.7296 40.197C65.7296 41.8267 66.1397 43.3596 66.8592 44.7021L65.3483 47.6493C64.9957 48.3368 65.6936 49.0906 66.4077 48.7963L69.2659 47.6152C70.9153 48.956 73.018 49.7601 75.3114 49.7601C80.6032 49.7601 84.8949 45.4793 84.8949 40.197C84.8967 34.9146 80.6068 30.6338 75.3132 30.6338Z" fill="#E1E0E6"/>
        <path d="M31.337 47.6493L29.6534 44.3647C30.265 43.1047 30.6085 41.6921 30.6085 40.197C30.6085 34.9164 26.3186 30.6338 21.025 30.6338C15.7313 30.6338 11.4414 34.9146 11.4414 40.197C11.4414 45.4775 15.7313 49.7601 21.025 49.7601C23.3723 49.7601 25.5199 48.9165 27.1856 47.5201L30.2758 48.7963C30.9934 49.0906 31.6895 48.3368 31.337 47.6493Z" fill="#B8C0CC"/>
        <path d="M69.4312 15.0525L66.6612 19.5039C65.8967 20.7334 66.2331 22.3093 67.4634 23.0721L69.5121 24.3411L69.0229 26.3047C68.9024 26.7911 69.4546 27.1627 69.8629 26.8701L71.5932 25.6316L73.6941 26.9347C74.9263 27.6975 76.5001 27.3045 77.2646 26.0768L80.0346 21.6254C80.7991 20.3959 80.4645 18.7985 79.2342 18.0357L73.0052 14.1748C71.7713 13.4102 70.1956 13.823 69.4312 15.0525Z" fill="#E1E0E6"/>
        <path d="M26.1792 15.0525L28.9492 19.5039C29.7137 20.7334 29.3773 22.3093 28.147 23.0721L26.0982 24.3411L26.5875 26.3047C26.708 26.7911 26.1558 27.1627 25.7475 26.8701L24.0171 25.6316L21.9162 26.9347C20.6841 27.6975 19.1102 27.3045 18.3458 26.0768L15.5758 21.6254C14.8113 20.3959 15.1459 18.7985 16.3762 18.0357L22.6051 14.1748C23.8391 13.4102 25.4147 13.823 26.1792 15.0525Z" fill="#E1E0E6"/>
    </g>
    <defs>
        <clipPath id="clip0_1851_54927">
            <rect width="84" height="74.4" fill="white" transform="translate(5.60156 11.7554)"/>
        </clipPath>
    </defs>
</svg>
