<svg width="96" height="97" viewBox="0 0 96 97" fill="none" xmlns="http://www.w3.org/2000/svg">
    <g clip-path="url(#clip0_1851_54894)">
        <path d="M24.5418 57.2096C19.8313 57.2096 16 53.3783 16 48.6678C16 43.9572 19.8313 40.126 24.5418 40.126C29.2523 40.126 33.0836 43.9572 33.0836 48.6678C33.0836 53.3783 29.2523 57.2096 24.5418 57.2096ZM24.5418 42.4358C21.1048 42.4358 18.3098 45.2307 18.3098 48.6678C18.3098 52.1048 21.1048 54.8997 24.5418 54.8997C27.9789 54.8997 30.7738 52.1033 30.7738 48.6678C30.7738 45.2307 27.9773 42.4358 24.5418 42.4358Z" fill="#2F54EB"/>
        <path d="M25.0885 52.3312C24.6804 52.3312 24.2877 52.1696 23.9998 51.8801L20.4426 48.3229C19.842 47.7208 19.842 46.746 20.4426 46.1455C21.0447 45.5449 22.0195 45.5449 22.62 46.1455L25.0885 48.6139L34.0722 39.6286C34.6743 39.0281 35.6491 39.0281 36.2496 39.6286C36.8517 40.2307 36.8517 41.2055 36.2496 41.8061L26.1756 51.8801C25.8892 52.1696 25.4965 52.3312 25.0885 52.3312Z" fill="#FA8C16"/>
        <path d="M31.7366 24.36C32.6549 20.3852 30.1771 16.4185 26.2023 15.5002C22.2275 14.5818 18.2608 17.0596 17.3425 21.0344C16.4241 25.0092 18.9019 28.9759 22.8767 29.8942C26.8515 30.8126 30.8182 28.3348 31.7366 24.36Z" fill="#E1E0E6"/>
        <path d="M24.5418 31.2389C19.8313 31.2389 16 27.4076 16 22.6971C16 17.9865 19.8313 14.1553 24.5418 14.1553C29.2523 14.1553 33.0836 17.9865 33.0836 22.6971C33.0836 27.4076 29.2523 31.2389 24.5418 31.2389ZM24.5418 16.4651C21.1048 16.4651 18.3098 19.26 18.3098 22.6971C18.3098 26.1341 21.1048 28.929 24.5418 28.929C27.9789 28.929 30.7738 26.1341 30.7738 22.6971C30.7738 19.26 27.9773 16.4651 24.5418 16.4651Z" fill="#2F54EB"/>
        <path d="M78.8785 20.341H45.0008C44.1508 20.341 43.4609 19.6511 43.4609 18.8011C43.4609 17.9511 44.1508 17.2612 45.0008 17.2612H78.8785C79.7286 17.2612 80.4184 17.9511 80.4184 18.8011C80.4184 19.6511 79.7286 20.341 78.8785 20.341Z" fill="#2F54EB"/>
        <path d="M78.8785 28.1945H45.0008C44.1508 28.1945 43.4609 27.5047 43.4609 26.6546C43.4609 25.8046 44.1508 25.1147 45.0008 25.1147H78.8785C79.7286 25.1147 80.4184 25.8046 80.4184 26.6546C80.4184 27.5047 79.7286 28.1945 78.8785 28.1945Z" fill="#2F54EB"/>
        <path d="M78.8785 45.7497H45.0008C44.1508 45.7497 43.4609 45.0598 43.4609 44.2098C43.4609 43.3598 44.1508 42.6699 45.0008 42.6699H78.8785C79.7286 42.6699 80.4184 43.3598 80.4184 44.2098C80.4184 45.0598 79.7286 45.7497 78.8785 45.7497Z" fill="#2F54EB"/>
        <path d="M78.8785 53.6032H45.0008C44.1508 53.6032 43.4609 52.9134 43.4609 52.0633C43.4609 51.2133 44.1508 50.5234 45.0008 50.5234H78.8785C79.7286 50.5234 80.4184 51.2133 80.4184 52.0633C80.4184 52.9134 79.7286 53.6032 78.8785 53.6032Z" fill="#2F54EB"/>
        <path d="M29.7635 79.8683C32.6483 76.9836 32.6483 72.3065 29.7635 69.4218C26.8788 66.537 22.2017 66.537 19.317 69.4218C16.4323 72.3065 16.4323 76.9836 19.317 79.8683C22.2017 82.753 26.8788 82.753 29.7635 79.8683Z" fill="#E1E0E6"/>
        <path d="M24.5418 83.1876C19.8313 83.1876 16 79.3564 16 74.6458C16 69.9353 19.8313 66.104 24.5418 66.104C29.2523 66.104 33.0836 69.9353 33.0836 74.6458C33.0836 79.3564 29.2523 83.1876 24.5418 83.1876ZM24.5418 68.4138C21.1048 68.4138 18.3098 71.2088 18.3098 74.6458C18.3098 78.0829 21.1048 80.8778 24.5418 80.8778C27.9789 80.8778 30.7738 78.0813 30.7738 74.6458C30.7738 71.2088 27.9773 68.4138 24.5418 68.4138Z" fill="#2F54EB"/>
        <path d="M78.8785 72.2356H45.0008C44.1508 72.2356 43.4609 71.5457 43.4609 70.6957C43.4609 69.8456 44.1508 69.1558 45.0008 69.1558H78.8785C79.7286 69.1558 80.4184 69.8456 80.4184 70.6957C80.4184 71.5457 79.7286 72.2356 78.8785 72.2356Z" fill="#2F54EB"/>
        <path d="M78.8785 80.0891H45.0008C44.1508 80.0891 43.4609 79.3992 43.4609 78.5492C43.4609 77.6992 44.1508 77.0093 45.0008 77.0093H78.8785C79.7286 77.0093 80.4184 77.6992 80.4184 78.5492C80.4184 79.3992 79.7286 80.0891 78.8785 80.0891Z" fill="#2F54EB"/>
    </g>
    <defs>
        <clipPath id="clip0_1851_54894">
            <rect width="64.42" height="69.032" fill="white" transform="translate(16 14.1553)"/>
        </clipPath>
    </defs>
</svg>
