<svg width="97" height="96" viewBox="0 0 97 96" fill="none" xmlns="http://www.w3.org/2000/svg"><path d="M80.375 76.8496H16.375" stroke="#2F54EB" stroke-width="2" stroke-miterlimit="10"></path><path d="M37.375 56.4805H40.375V48.4805H37.375" stroke="#2F54EB" stroke-width="2" stroke-miterlimit="10"></path><path d="M34.375 27.8496C34.375 30.6096 32.135 32.8496 29.375 32.8496" stroke="#FA8C16" stroke-width="2" stroke-miterlimit="10"></path><path d="M39.375 32.8496C36.615 32.8496 34.375 30.6096 34.375 27.8496" stroke="#FA8C16" stroke-width="2" stroke-miterlimit="10"></path><path d="M34.375 37.8496C34.375 35.0896 32.135 32.8496 29.375 32.8496" stroke="#FA8C16" stroke-width="2" stroke-miterlimit="10"></path><path d="M39.375 32.8496C36.615 32.8496 34.375 35.0896 34.375 37.8496" stroke="#FA8C16" stroke-width="2" stroke-miterlimit="10"></path><path d="M62.375 59.8496C62.375 62.6096 60.135 64.8496 57.375 64.8496" stroke="#FA8C16" stroke-width="2" stroke-miterlimit="10"></path><path d="M67.375 64.8496C64.615 64.8496 62.375 62.6096 62.375 59.8496" stroke="#FA8C16" stroke-width="2" stroke-miterlimit="10"></path><path d="M62.375 69.8496C62.375 67.0896 60.135 64.8496 57.375 64.8496" stroke="#FA8C16" stroke-width="2" stroke-miterlimit="10"></path><path d="M67.375 64.8496C64.615 64.8496 62.375 67.0896 62.375 69.8496" stroke="#FA8C16" stroke-width="2" stroke-miterlimit="10"></path><path d="M62.375 52.8496V18.8496H34.375V25.8496" stroke="#2F54EB" stroke-width="2" stroke-miterlimit="10"></path><path d="M34.375 39.8496V52.8496" stroke="#2F54EB" stroke-width="2" stroke-miterlimit="10"></path><path d="M34.375 52.8496V76.8496H62.375V71.8496" stroke="#2F54EB" stroke-width="2" stroke-miterlimit="10"></path><path d="M62.375 57.8496V52.8496" stroke="#2F54EB" stroke-width="2" stroke-miterlimit="10"></path><path d="M48.6748 47.3394V28.3594C48.6748 26.6994 50.0148 25.3594 51.6748 25.3594C53.3348 25.3594 54.6748 26.6994 54.6748 28.3594V29.3594" stroke="#2F54EB" stroke-width="2" stroke-miterlimit="10"></path><path d="M52.6748 44.3398V47.3398" stroke="#2F54EB" stroke-width="2" stroke-miterlimit="10"></path><path d="M44.6748 44.3398V47.3398" stroke="#2F54EB" stroke-width="2" stroke-miterlimit="10"></path><path d="M57.5652 33.5002C53.8252 33.5002 54.7352 33.5002 51.7852 33.5002C51.7852 31.9002 53.0752 29.9102 54.6752 29.9102C56.2752 29.9102 57.5652 31.9002 57.5652 33.5002Z" stroke="#2F54EB" stroke-width="2" stroke-miterlimit="10"></path></svg>