<svg id="Grupo_110" data-name="Grupo 110" xmlns="http://www.w3.org/2000/svg" xmlns:xlink="http://www.w3.org/1999/xlink" width="700.821" height="688.024" viewBox="0 0 700.821 688.024">
  <defs>
    <clipPath id="clip-path">
      <rect id="Rectángulo_40" data-name="Rectángulo 40" width="700.821" height="688.024" fill="#fff"/>
    </clipPath>
  </defs>
  <path id="Trazado_42" data-name="Trazado 42" d="M151.849,71.8l-7.52,4.389-2.1,1.226L86.559,109.718,86.4,141.023l-.065,11.167-.194,33.371L86.107,196.7l-.194,35.953-.065,11.135-.194,35.469v2.324l-.065,8.779-9.682-5.583.065-8.875v-2.259l.1-24.367.065-11.1.194-35.985.065-11.1.161-33.371.065-11.167.194-36.824v-1.194l.032-4.325,4.841-2.808,1.226-.71L132.646,71.8l2.1-1.226,7.488-4.357Z" transform="translate(169.078 147.481)" fill="#fff"/>
  <path id="Trazado_43" data-name="Trazado 43" d="M181.465,226.007l-27.036,15.93-9.669,5.716-37.028,21.84-9.669,5.712L75.555,288.492l.032-5.712.065-11.3.032-9.143v-.032l.068-11.228.226-43.063.065-11.228.161-32.91,9.669,5.712L85.68,202.37,85.615,213.6l-.229,43.028-.029,11.264-.035,3.492,3.008-1.762,9.7-5.712,37.028-21.872,9.637-5.68,27.165-16.03Z" transform="translate(168.291 365.024)" fill="#fff"/>
  <path id="Trazado_44" data-name="Trazado 44" d="M311.492,18.41,302.3,24.119,132.734,129.3l-9.13,5.641,9.13,5.677,9.13-5.677L306.819,32.633,305.344,332.97l-.061,11.254-.184,33.7-.032,11.225-.123,21.727-11.928,7.4h-.029l-1.139.72-8.052,4.99-80.326,49.818-9.192,5.709.061,9.753v1.536l9.192-5.709,91.761-56.931,18.845-11.68.061-10.992.061-10.8.032-11.189.184-33.7.061-11.257,1.6-323.01Z" transform="translate(275.313 34.607)" fill="#fff"/>
  <path id="Trazado_45" data-name="Trazado 45" d="M114.077,296.937l-4.777,8.582-2.391-1.42L60.88,276.54l.094-20.3v-.032l.065-11.354.223-43.534.065-11.354.158-33.93,9.556,5.777-.19,33.8-.065,11.354-.223,43.5v.032L70.5,261.852l-.032,9.011,36.508,21.817Z" transform="translate(135.603 347.553)" fill="#fff"/>
  <path id="Trazado_46" data-name="Trazado 46" d="M136.332,62.961l-9.492,5.612L76.477,98.384l-4.747,2.808-.032,5.58L71.284,186.3l-.065,11.2-.19,33.523L71,242.177l-.161,28.972-.029,7.162-.032,4.034-3.44-2.033L61.218,276.7l.061-11.193.1-17.776.065-11.164.158-33.52.065-11.2.51-96.205,55.2-32.684,9.495-5.612Z" transform="translate(136.355 127.736)" fill="#fff"/>
  <path id="Trazado_47" data-name="Trazado 47" d="M346.172,35.452l-4.644,8.62L334.589,39.8,299.13,17.879,128.514,124.644l-9.2,5.735-9.2-5.771,9.2-5.735L299.1,6.373l44.751,27.62Z" transform="translate(245.275 14.195)" fill="#fff"/>
  <path id="Trazado_48" data-name="Trazado 48" d="M164.848,78.313,155.327,83.9l-.194.129-.065.032L98.88,116.912l-.194,32.274-.065,11.328-.194,36.76L98.364,208.6l-.42,81.685-.065,11.36-9.811-5.712.065-11.393.355-70.293.065-11.36.194-36.728.1-11.328L89,120.721l.065-9.489,56.318-32.919,9.747-5.68,9.1,5.325Z" transform="translate(196.163 161.781)" fill="#fff"/>
  <path id="Trazado_49" data-name="Trazado 49" d="M116.566,187.473l-27.914,16.3-.787.462v-.92l.165-32.506,9.808,5.706-.068,10.531,9.021-5.28Z" transform="translate(195.708 380.461)" fill="#fff"/>
  <path id="Trazado_50" data-name="Trazado 50" d="M135.2,104.225h0l6.416,7.168,3.411-1.494,56.021-32.442L211,71.686l32.164-18.632-1.123,210.787-.068,11.286-.2,33.884-.036,11.283-.1,15.943-.035,5.641-4.928,2.853-8.175,4.725-9.892,5.738-46.855,27.162-9.9,5.706.068,11.383,9.86-5.706,56.783-32.9,9.892-5.738,13.039-7.546.132-21.649.032-11.283.2-33.888.065-11.315L253.2,35.866Z" transform="translate(301.136 79.887)" fill="#fff"/>
  <path id="Trazado_51" data-name="Trazado 51" d="M151.077,155.341v.032l-9.811,5.713-15.943,9.327h-.032l-9.714,5.713-9.747-5.713,9.747-5.68L141.2,149.725l9.811-5.712Z" transform="translate(235.722 320.772)" fill="#fff"/>
  <path id="Trazado_52" data-name="Trazado 52" d="M192.6,46.247v2.459l-.917,174.082-.068,11.286-.2,33.884-.032,11.283-.1,15.714-.035,5.642-4.886,2.853-8.3,4.857-9.808,5.738L153.5,322.672l-9.808,5.709-.064-11.351,9.808-5.742,4.951-2.885,9.808-5.742,13.252-7.739.1-21.256.065-11.286.2-33.884.064-11.318.855-162.7.032-8.3Z" transform="translate(319.91 102.865)" fill="#fff"/>
  <path id="Trazado_53" data-name="Trazado 53" d="M161.018,122.817l2.492,1.443-.032,5.641-4.886,2.856-2.495-1.443Z" transform="translate(347.686 273.56)" fill="#fff"/>
  <path id="Trazado_54" data-name="Trazado 54" d="M178.954,133.167l-4.922,8.494-7.346-4.231,4.886-2.853.032-5.641Z" transform="translate(371.277 287.189)" fill="#fff"/>
  <path id="Trazado_55" data-name="Trazado 55" d="M114.582,96.012l-4.922,8.53-2.492-1.446L69.64,81.415l-7.346-4.231,4.919-8.53,7.349,4.231L112.122,94.6Z" transform="translate(138.755 152.918)" fill="#fff"/>
  <path id="Trazado_56" data-name="Trazado 56" d="M373.992,610.678v1.84l-1.259-.742-.355-.194-.581-.355-36.954-21.494-9.811-5.712L298.278,568.5l-9.747-5.68-29.24-17.008-9.779-5.68-8.94-5.228-9.811-5.68-39.245-22.85L153.949,484.52l-9.844-5.713-11.07-6.455-104.89-61.03-2.227-1.291L25.757,380.6v-1.743l-.065-9.521v-1.71L23.789,8.8l.613.355,4.357,2.517h.032L34.31,14.9l4.26,2.485L251.223,141.061l9.747,5.68,37.309,21.688,9.747,5.68L337.3,191.15l9.747,5.68,19.978,11.586.807.484,4.034,2.356.032,5.68v.968l.194,37.631V256.7l.064,10.166-9.876-5.583-.065-10.166v-1.162l-.161-33.048L337.3,202.511l-9.747-5.68L298.278,179.79l-9.747-5.68-37.309-21.688-9.779-5.68L33.729,25.908,35.5,362.04l.065,11.231.161,31.144,2.259,1.323,9.811,5.712L79.526,429.88l9.811,5.745,47.217,27.433,7.617,4.454,9.844,5.713,37.567,21.849,9.811,5.712,29.434,17.105,9.811,5.68,18.654,10.876,9.747,5.68,29.272,17.008,7.165,4.163,2.582,1.517L334.909,578.4l9.811,5.712,19.364,11.264-.129-22.2-.032-11.231-.194-31.532v-2.195l-.032-9.133-.032-2.13-.161-31.79-.065-11.328-.194-36.534-.065-11.3-.355-70v-1.581l9.811,5.583v1.646l.355,58.642.065,11.3v.032l.194,36.534.032,11.328.194,31.951V513.4l.032,9.295.032,2,.161,31.725.065,11.231.129,27.852.032,4.1.032,7.165Z" transform="translate(52.986 19.607)" fill="#fff"/>
  <path id="Trazado_57" data-name="Trazado 57" d="M74.235,0,26.385,27.5H26.35l-2.482,1.452,4.97,8.585,7.42-4.26L74.2,11.457,288.791,136.4l9.844,5.745L336.344,164.1l9.84,5.748,29.56,17.2,9.84,5.748,20.378,11.851,4.938,2.872.035,5.712.429,82.611,9.976,5.677-.532-99.681-25.38-14.791-9.844-5.712L356.028,164.1l-9.844-5.709-37.706-21.956-9.844-5.745Z" transform="translate(53.163)" fill="#fff"/>
  <path id="Trazado_58" data-name="Trazado 58" d="M183.16,325.541l-45.748,27.646-2.375,1.426-4.751-8.585,7.065-4.276,36.3-21.914L173.5,291.8l-.065-11.438-.158-32.684v-1.559l-.061-9.911v-1.491l-.158-32.984-.065-11.5-.19-37.092-.064-11.47-.094-17.27,9.537,5.667.032,5.8.061,11.5.19,37.1.032,11.5.19,33.116V230.4l.061,10.076v1.394l.158,32.848.065,11.406Z" transform="translate(290.198 277.073)" fill="#fff"/>
  <path id="Trazado_59" data-name="Trazado 59" d="M306.844,499.084l-6.713-3.937-2.291-1.323-26.981-15.75-9.747-5.712-31.5-18.428-9.747-5.68-6.487-3.808-9.779-5.713L174.134,421.5l-9.811-5.68-37.567-21.979-9.779-5.745L91.545,373.216,81.734,367.5,50.009,348.979,40.2,343.234l-2.453-1.42-.161-31.047-.065-11.328L36.1,30.113l148.686,86.881,9.747,5.712,37.341,21.817,9.747,5.713,28.433,16.589.71.42-9.747,5.712-.839-.484L233,156.594l-1.13-.645-8.456-4.97-1.291-.742-37.373-21.817-.29-.194-9.424-5.519-.1-.065L87.8,71.746l-9.876-5.777L46.039,47.347l1.323,246.508.065,11.3.129,25.335.032,5.68,2.485,1.452,2.388,1.388h.032l7.391,4.325L91.61,361.888l9.811,5.745,15.588,9.1,9.811,5.745,37.567,21.946,39.245,22.947,9.811,5.713,16.169,9.456,9.747,5.712,31.5,18.4,9.747,5.712,16.331,9.553-.1-19.042-.065-11.393-.032-6.552V444.9l-.065-11.393v-.032l-.1-18.687-.065-11.36-.613-117.38,9.876,5.648.549,106.02.065,11.328v.032l.161,36.728.065,11.361.161,31.532.032,2.55Z" transform="translate(80.406 67.073)" fill="#fff"/>
  <path id="Trazado_60" data-name="Trazado 60" d="M274.976,414.4l-4.938,8.488-2.13-1.259h-.032V421.6l-25.851-15.072-9.747-5.713L184.77,373.058l-9.811-5.712-29.434-17.234-9.779-5.68L104.441,326.1l-6.261-3.615-3.55-2.066-6.293-3.679L62.9,301.862l-7.617-4.454-2.195-1.291-2.679-1.549-.032-5.68-.129-25.109-.065-11.3L49.059,42.671V40.6l9.844-.032.032,7.875L60,246.867v.032l.065,11.3.161,30.692,2.743,1.614,9.844,5.745,15.556,9.069.032.032,9.521,5.551.323.194,6.261,3.679,9.811,5.745,21.462,12.49.032.032,9.65,5.648.129.1,29.434,17.17,9.811,5.745,57.189,33.436,9.714,5.68h.032l16.04,9.359v.032h.032Z" transform="translate(109.273 90.371)" fill="#fff"/>
  <path id="Trazado_61" data-name="Trazado 61" d="M49.64,131.712l-7.349,4.231-1.214-2.1-3.705-6.429,7.346-4.234.036,5.677,2.492,1.443Z" transform="translate(83.244 274.375)" fill="#fff"/>
  <path id="Trazado_62" data-name="Trazado 62" d="M56.881,125.593l-2.492,1.443-2.2-1.278L49.5,124.183l-.032-5.674,2.492-1.446,3.841,6.661Z" transform="translate(110.184 260.746)" fill="#fff"/>
  <path id="Trazado_63" data-name="Trazado 63" d="M181.652,71.441l-7.346,4.231-37.56,21.717-2.459,1.41-4.922-8.53,2.492-1.443,37.528-21.682,7.346-4.234Z" transform="translate(288.147 140.127)" fill="#fff"/>
  <path id="Trazado_64" data-name="Trazado 64" d="M81.244,99.409l-.1,11.415-28.637,16.3-.068-11.283Z" transform="translate(116.811 221.423)" fill="#fff"/>
  <path id="Trazado_65" data-name="Trazado 65" d="M78.42,120.554.12,165.2l4.986,2.856,9.84,5.609,181.66,103.589.068-11.283L19.965,165.2,78.487,131.84l.065-.032V120.489Z" transform="translate(0.267 268.376)" fill="#fff"/>
  <path id="Trazado_66" data-name="Trazado 66" d="M171.078,193.616l-32.309,18.4-4.922,2.821-4.922-2.821L97.307,194.01l9.808-5.742,26.732,15.256,27.423-15.65Z" transform="translate(216.74 418.47)" fill="#fff"/>
  <path id="Trazado_67" data-name="Trazado 67" d="M123.263,188.04l.1-.068-.2-.1Z" transform="translate(274.331 418.471)" fill="#fff"/>
  <g id="Grupo_61" data-name="Grupo 61">
    <g id="Grupo_60" data-name="Grupo 60" clip-path="url(#clip-path)">
      <path id="Trazado_68" data-name="Trazado 68" d="M259.832,156.3l-.1,11.328-28.885-16.46-9.876-5.648-37.793-21.559-9.876-5.616-29.563-16.879L109.274,82.1l-.646-.355a13.56,13.56,0,0,0,4.067-4.422,14.913,14.913,0,0,0,1.356-3.808L118.44,76l.613.355,54.188,30.628,9.876,5.583,37.793,21.559,9.876,5.648Z" transform="translate(241.959 163.742)" fill="#fff"/>
      <path id="Trazado_69" data-name="Trazado 69" d="M373.717,177.039l-5.018,2.853-9.84,5.609L147.019,306.315l-.165.1V295.094l.1-.065L353.84,177.039l-88.666-50.547.065-11.318Z" transform="translate(327.102 256.536)" fill="#fff"/>
      <path id="Trazado_70" data-name="Trazado 70" d="M196.787,289.559l-.068,11.283L0,191.808v-57.57H10.125V186.1Z" transform="translate(0.001 299)" fill="#fff"/>
      <path id="Trazado_71" data-name="Trazado 71" d="M515.34,134.342v57.57L167.7,388.793,83.2,340.934l9.876-5.741,69.67,39.429,4.954,2.821,4.954-2.821,70.36-39.823,1.62-.92L505.429,186.2V134.342Z" transform="translate(185.317 299.233)" fill="#fff"/>
      <path id="Trazado_72" data-name="Trazado 72" d="M78.823,113.517l-.1,11.383-15.517,8.856-9.84-5.738Z" transform="translate(118.872 252.846)" fill="#fff"/>
      <path id="Trazado_73" data-name="Trazado 73" d="M212.759,145.82l-29.324,16.731V151.232l9.479-5.412-9.447-5.412.065-11.218Z" transform="translate(408.581 287.755)" fill="#fff"/>
      <path id="Trazado_74" data-name="Trazado 74" d="M298.094,172.576l-.065,11.283h-.035l-28.4-16.2-9.844-5.609h-.032l-37.786-21.582-9.84-5.609-29.621-16.9-9.876-5.609L152.057,100.64l-4.922-2.821-4.919,2.821-50.877,29,.065-11.351L147.136,86.5l25.39,14.5,9.873,5.609L212.019,123.5l9.873,5.609,37.79,21.553,9.84,5.641,28.54,16.269Z" transform="translate(203.451 192.672)" fill="#fff"/>
      <path id="Trazado_75" data-name="Trazado 75" d="M284.837,179.778l-9.811,5.745-5-2.872-.9-.516-8.972-5.067-.581-.323-37.212-21.236-9.811-5.648-29.627-16.847-9.876-5.648-25.722-14.685-56.06,31.951.065-11.328,51.089-29.143,4.906-2.808,4.906,2.808.032.032,20.72,11.78,9.876,5.648L212.479,138.5l9.811,5.616,37.793,21.559h.032l9.844,5.648Z" transform="translate(203.268 225.752)" fill="#fff"/>
      <rect id="Rectángulo_38" data-name="Rectángulo 38" width="9.84" height="47.923" transform="translate(345.676 284.849)" fill="#fff"/>
      <rect id="Rectángulo_39" data-name="Rectángulo 39" width="9.84" height="54.695" transform="translate(345.679 627.65)" fill="#fff"/>
    </g>
  </g>
</svg>
