<svg width="20" height="21" viewBox="0 0 20 21" fill="none" xmlns="http://www.w3.org/2000/svg">
<g id="fi_3288685" clip-path="url(#clip0_496_47456)">
<g id="Group">
<path id="Vector" d="M5.75952 9.82085C5.96116 9.89769 6.18678 9.79644 6.26358 9.59483L6.49655 8.98319H8.07835L8.30877 9.59374C8.3678 9.75019 8.51643 9.84655 8.67428 9.84655C8.7201 9.84655 8.76674 9.83843 8.81213 9.82128C9.01397 9.74511 9.11585 9.51972 9.03967 9.31788L7.73155 5.85163C7.73018 5.84808 7.72881 5.84448 7.72737 5.84097C7.65452 5.6639 7.48385 5.54956 7.29241 5.54956C7.29225 5.54956 7.2921 5.54956 7.29194 5.54956C7.1003 5.54976 6.92963 5.66448 6.8571 5.84187C6.85588 5.84479 6.85471 5.84772 6.85362 5.85069L5.5335 9.31679C5.4567 9.51839 5.55792 9.74405 5.75952 9.82085ZM7.29104 6.8971L7.78346 8.20194H6.79405L7.29104 6.8971Z" fill="#0E2236"/>
<path id="Vector_2" d="M14.1012 9.05713H12.4766L14.3738 6.14537C14.4521 6.02529 14.4583 5.87201 14.39 5.746C14.3217 5.61998 14.1899 5.5415 14.0466 5.5415H11.828C11.6122 5.5415 11.4373 5.71639 11.4373 5.93213C11.4373 6.14787 11.6122 6.32275 11.828 6.32275H13.3258L11.4286 9.23451C11.3503 9.35459 11.3441 9.50787 11.4124 9.63389C11.4807 9.7599 11.6125 9.83838 11.7559 9.83838H14.1012C14.3169 9.83838 14.4918 9.6635 14.4918 9.44775C14.4918 9.23201 14.3169 9.05713 14.1012 9.05713Z" fill="#0E2236"/>
<path id="Vector_3" d="M10 8.27979H10.7812C11.1048 8.27979 11.3672 8.01744 11.3672 7.69385C11.3672 7.37025 11.1048 7.10791 10.7812 7.10791H10C9.67641 7.10791 9.41406 7.37025 9.41406 7.69385C9.41406 8.01744 9.67641 8.27979 10 8.27979Z" fill="#0E2236"/>
<path id="Vector_4" d="M13.9062 11.4009H6.09375C5.77016 11.4009 5.50781 11.6632 5.50781 11.9868V14.3306C5.50781 14.6542 5.77016 14.9165 6.09375 14.9165H13.9062C14.2298 14.9165 14.4922 14.6542 14.4922 14.3306V11.9868C14.4922 11.6632 14.2298 11.4009 13.9062 11.4009ZM13.3203 13.7446H6.67969V12.5728H13.3203V13.7446Z" fill="#0E2236"/>
<path id="Vector_5" d="M13.9062 16.0884H6.09375C5.77016 16.0884 5.50781 16.3507 5.50781 16.6743C5.50781 16.9979 5.77016 17.2603 6.09375 17.2603H13.9062C14.2298 17.2603 14.4922 16.9979 14.4922 16.6743C14.4922 16.3507 14.2298 16.0884 13.9062 16.0884Z" fill="#0E2236"/>
<path id="Vector_6" d="M19.1797 6.51807C19.1797 5.7642 18.5664 5.15088 17.8125 5.15088H16.8359V3.74463C16.8358 3.74459 16.8361 3.74467 16.8359 3.74463C16.8359 3.62018 16.7963 3.49643 16.7188 3.39307C16.2264 2.73666 16.2264 1.6276 16.7188 0.971191C16.8519 0.793652 16.8733 0.556113 16.7741 0.357598C16.6748 0.159082 16.472 0.0336914 16.25 0.0336914H2.96875C1.7841 0.0336914 0.820312 0.997481 0.820312 2.18213V17.8853C0.820312 19.0699 1.7841 20.0337 2.96875 20.0337H16.25C16.5736 20.0337 16.8359 19.7713 16.8359 19.4478V18.0415H17.8125C18.5664 18.0415 19.1797 17.4282 19.1797 16.6743V15.8931C19.1797 15.6028 19.0884 15.3335 18.9335 15.1118C19.0884 14.8902 19.1797 14.6209 19.1797 14.3306V13.5493C19.1797 13.259 19.0884 12.9897 18.9335 12.7681C19.0884 12.5464 19.1797 12.2771 19.1797 11.9868V11.2056C19.1797 10.9153 19.0884 10.646 18.9335 10.4243C19.0884 10.2027 19.1797 9.93338 19.1797 9.64307V8.86182C19.1797 8.5715 19.0884 8.30221 18.9335 8.08057C19.0884 7.85893 19.1797 7.58963 19.1797 7.29932V6.51807ZM17.8125 6.32275C17.9202 6.32275 18.0078 6.41037 18.0078 6.51807V7.29932C18.0078 7.40701 17.9202 7.49463 17.8125 7.49463H16.8359V6.32275H17.8125ZM18.0078 8.86182V9.64307C18.0078 9.75076 17.9202 9.83838 17.8125 9.83838H16.8359V8.6665H17.8125C17.9202 8.6665 18.0078 8.75412 18.0078 8.86182ZM18.0078 11.2056V11.9868C18.0078 12.0945 17.9202 12.1821 17.8125 12.1821H16.8359V11.0103H17.8125C17.9202 11.0103 18.0078 11.0979 18.0078 11.2056ZM18.0078 13.5493V14.3306C18.0078 14.4383 17.9202 14.5259 17.8125 14.5259H16.8359V13.354H17.8125C17.9202 13.354 18.0078 13.4416 18.0078 13.5493ZM2.96875 1.20557H15.3171C15.131 1.83404 15.131 2.53021 15.3171 3.15869H2.96875C2.43027 3.15869 1.99219 2.72061 1.99219 2.18213C1.99219 1.64365 2.43027 1.20557 2.96875 1.20557ZM1.99219 17.8853V4.09482C2.28543 4.24514 2.61719 4.33057 2.96875 4.33057H3.16406V18.8618H2.96875C2.43027 18.8618 1.99219 18.4237 1.99219 17.8853ZM15.6641 18.8618H4.33594V4.33057H15.6641V18.8618ZM18.0078 16.6743C18.0078 16.782 17.9202 16.8696 17.8125 16.8696H16.8359V15.6978H17.8125C17.9202 15.6978 18.0078 15.7854 18.0078 15.8931V16.6743Z" fill="#0E2236"/>
</g>
</g>
<defs>
<clipPath id="clip0_496_47456">
<rect width="20" height="20" fill="white" transform="translate(0 0.0336914)"/>
</clipPath>
</defs>
</svg>
