<svg width="32" height="33" viewBox="0 0 32 33" fill="none" xmlns="http://www.w3.org/2000/svg">
<g id="fi_1435753" clip-path="url(#clip0_496_47361)">
<path id="Vector" d="M23.0583 30.1587H21.9875V27.0796C21.9875 26.5618 21.5679 26.1421 21.05 26.1421H19.9792V23.0627C19.9792 22.5452 19.5593 22.1252 19.0417 22.1252H18.6489C19.3979 20.8147 20.5029 18.8813 21.2029 17.6562C21.7161 16.7573 21.9875 15.7354 21.9875 14.7002V5.99194C21.9875 2.70654 19.3145 0.0336914 16.0293 0.0336914C12.7439 0.0336914 10.0708 2.70654 10.0708 5.99194V14.7002C10.0708 15.7349 10.3423 16.7571 10.856 17.6565L13.4097 22.1255H13.0166C12.499 22.1255 12.0791 22.5452 12.0791 23.063V26.1421H11.0083C10.4907 26.1421 10.0708 26.5618 10.0708 27.0796V30.1587H9C8.48218 30.1587 8.0625 30.5784 8.0625 31.0962C8.0625 31.614 8.48218 32.0337 9 32.0337H23.0583C23.5762 32.0337 23.9958 31.614 23.9958 31.0962C23.9958 30.5784 23.5762 30.1587 23.0583 30.1587ZM19.5747 16.7263C18.8577 17.9812 17.7158 19.9795 16.9668 21.29V11.8765C18.1736 11.6848 19.2607 11.1296 20.1125 10.3269V14.7002C20.1125 15.4097 19.9265 16.1103 19.5747 16.7263ZM16.0293 1.90869C18.2808 1.90869 20.1125 3.74048 20.1125 5.99194C20.1125 8.24365 18.2808 10.0754 16.0293 10.0754C13.7776 10.0754 11.9458 8.24365 11.9458 5.99194C11.9458 3.74048 13.7776 1.90869 16.0293 1.90869ZM11.9458 14.7002V10.3269C12.7976 11.1296 13.8848 11.6848 15.0918 11.8765V21.2898L12.4841 16.7266C12.1321 16.1099 11.9458 15.4094 11.9458 14.7002ZM13.9541 24.0005H18.1042V26.1421H13.9541V24.0005ZM11.9458 30.1587V28.0171H20.1125V30.1587H11.9458Z" fill="white"/>
</g>
<defs>
<clipPath id="clip0_496_47361">
<rect width="32" height="32" fill="white" transform="translate(0 0.0336914)"/>
</clipPath>
</defs>
</svg>
