<svg width="32" height="33" viewBox="0 0 32 33" fill="none" xmlns="http://www.w3.org/2000/svg">
<g id="Group">
<path id="Vector" d="M31.383 10.1033C30.2495 9.69075 29.663 8.43294 30.0755 7.2995C30.2525 6.813 30.0017 6.275 29.5152 6.09794L26.3125 4.93219V4.09619C26.3125 3.57844 25.8928 3.15869 25.375 3.15869C24.1688 3.15869 23.1875 2.17738 23.1875 0.971191C23.1875 0.453441 22.7678 0.0336914 22.25 0.0336914H9.75004C9.23229 0.0336914 8.81254 0.453441 8.81254 0.971191C8.81254 2.17738 7.83122 3.15869 6.62504 3.15869C6.10729 3.15869 5.68754 3.57844 5.68754 4.09619V4.93219L2.48485 6.09794C1.99835 6.275 1.74747 6.813 1.92454 7.2995C2.3371 8.43294 1.75054 9.69075 0.6171 10.1033H0.617037C0.130537 10.2803 -0.120275 10.8183 0.0567872 11.3048L5.68754 26.7751V27.9712C5.68754 28.4889 6.10729 28.9087 6.62504 28.9087C7.83122 28.9087 8.81254 29.89 8.81254 31.0962C8.81254 31.6139 9.23229 32.0337 9.75004 32.0337H22.25C22.7678 32.0337 23.1875 31.6139 23.1875 31.0962C23.1875 29.89 24.1688 28.9087 25.375 28.9087C25.8928 28.9087 26.3125 28.4889 26.3125 27.9712V26.7751L31.9432 11.3049C32.1203 10.8183 31.8695 10.2804 31.383 10.1033ZM5.68754 21.293L2.1021 11.4419C3.38022 10.6011 4.08204 9.09607 3.90454 7.5765L5.68754 6.92757V21.293ZM24.4375 27.1429C22.9489 27.4958 21.7747 28.6701 21.4217 30.1587H10.5784C10.2254 28.6701 9.05116 27.4958 7.56254 27.1429V4.9245C9.05116 4.57163 10.2254 3.39732 10.5784 1.90869H21.4217C21.7746 3.39732 22.9489 4.57157 24.4375 4.9245V27.1429H24.4375ZM26.3125 21.293V6.92757L28.0955 7.5765C27.918 9.096 28.6199 10.6011 29.898 11.4419L26.3125 21.293Z" fill="white"/>
<path id="Vector_2" d="M21.625 13.2837H10.375C9.85725 13.2837 9.4375 13.7034 9.4375 14.2212V25.4712C9.4375 25.9889 9.85725 26.4087 10.375 26.4087H21.625C22.1427 26.4087 22.5625 25.9889 22.5625 25.4712V14.2212C22.5625 13.7034 22.1427 13.2837 21.625 13.2837ZM13.1875 24.5337H11.3125V22.6587H13.1875V24.5337ZM13.1875 20.7837H11.3125V18.9087H13.1875V20.7837ZM13.1875 17.0337H11.3125V15.1587H13.1875V17.0337ZM16.9375 24.5337H15.0625V22.6587H16.9375V24.5337ZM16.9375 20.7837H15.0625V18.9087H16.9375V20.7837ZM16.9375 17.0337H15.0625V15.1587H16.9375V17.0337ZM20.6875 24.5337H18.8125V22.6587H20.6875V24.5337ZM20.6875 20.7837H18.8125V18.9087H20.6875V20.7837ZM20.6875 17.0337H18.8125V15.1587H20.6875V17.0337Z" fill="white"/>
<path id="Vector_3" d="M21.625 9.53369H10.375C9.85725 9.53369 9.4375 9.95344 9.4375 10.4712C9.4375 10.9889 9.85725 11.4087 10.375 11.4087H21.625C22.1427 11.4087 22.5625 10.9889 22.5625 10.4712C22.5625 9.95344 22.1427 9.53369 21.625 9.53369Z" fill="white"/>
<path id="Vector_4" d="M21.625 5.78369H10.375C9.85725 5.78369 9.4375 6.20344 9.4375 6.72119C9.4375 7.23894 9.85725 7.65869 10.375 7.65869H21.625C22.1427 7.65869 22.5625 7.23894 22.5625 6.72119C22.5625 6.20344 22.1427 5.78369 21.625 5.78369Z" fill="white"/>
</g>
</svg>
