<svg width="28" height="29" viewBox="0 0 28 29" fill="none" xmlns="http://www.w3.org/2000/svg">
<g id="left-quote-svgrepo-com 1" clip-path="url(#clip0_1858_103869)">
<g id="Group">
<path id="Vector" d="M11.2487 7.2403C11.9489 6.94665 12.2426 6.11091 11.9263 5.43328L10.8195 3.10674C10.5033 2.45192 9.73532 2.15805 9.05769 2.45192C7.13773 3.26508 5.48882 4.3267 4.17873 5.6142C2.575 7.12736 1.49079 8.86661 0.90351 10.7866C0.316229 12.7293 0 15.3719 0 18.7375V25.6719C0 26.4173 0.609869 27.0272 1.35526 27.0272H10.2323C10.9776 27.0272 11.5875 26.4173 11.5875 25.6719V16.7949C11.5875 16.0493 10.9776 15.4396 10.2323 15.4396H5.98575C6.03093 13.1581 6.57304 11.3287 7.5669 9.9506C8.38006 8.84425 9.59979 7.94074 11.2487 7.2403Z" fill="#1B9C43"/>
<path id="Vector_2" d="M27.1958 7.24104C27.8961 6.9474 28.1895 6.11166 27.8735 5.43402L26.7667 3.1303C26.4504 2.47525 25.6825 2.18161 25.0048 2.47525C23.1075 3.28841 21.4809 4.35004 20.1485 5.61495C18.5445 7.15092 17.4379 8.89018 16.8504 10.8101C16.2631 12.7073 15.9697 15.3503 15.9697 18.7384V25.6729C15.9697 26.4183 16.5796 27.0281 17.325 27.0281H26.202C26.9474 27.0281 27.5572 26.4183 27.5572 25.6729V16.7959C27.5572 16.0503 26.9474 15.4406 26.202 15.4406H21.9329C21.9781 13.159 22.5204 11.3297 23.514 9.95157C24.3272 8.845 25.5469 7.94149 27.1958 7.24104Z" fill="#1B9C43"/>
</g>
</g>
<defs>
<clipPath id="clip0_1858_103869">
<rect width="28" height="28" fill="white" transform="translate(0 0.683594)"/>
</clipPath>
</defs>
</svg>
