<svg width="20" height="20" viewBox="0 0 20 20" fill="none" xmlns="http://www.w3.org/2000/svg">
<g id="fi_10576632" clip-path="url(#clip0_1858_104426)">
<g id="layer1">
<g id="g3721">
<g id="Clip path group">
<mask id="mask0_1858_104426" style="mask-type:luminance" maskUnits="userSpaceOnUse" x="0" y="0" width="20" height="20">
<g id="clipPath3513">
<path id="path3515" d="M19.3632 10.0219C19.3632 12.509 18.3752 14.8942 16.6166 16.6528C14.858 18.4114 12.4729 19.3994 9.98581 19.3994C7.49877 19.3994 5.11359 18.4114 3.35498 16.6528C1.59637 14.8942 0.608398 12.509 0.608398 10.0219C0.608398 7.5349 1.59637 5.14972 3.35498 3.39111C5.11359 1.63251 7.49877 0.644531 9.98581 0.644531C12.4729 0.644531 14.858 1.63251 16.6166 3.39111C18.3752 5.14972 19.3632 7.5349 19.3632 10.0219Z" fill="white"/>
</g>
</mask>
<g mask="url(#mask0_1858_104426)">
<g id="g3239">
<path id="path18829" d="M-4.05664 15.0719H24.0666V13.6289H-4.05664V15.0719Z" fill="white"/>
<path id="path18831" d="M-4.05664 13.6299H24.0666V12.1875H-4.05664V13.6299Z" fill="#CA4638"/>
<path id="path18833" d="M-4.05664 17.9561H24.0666V16.5137H-4.05664V17.9561Z" fill="white"/>
<path id="path18835" d="M-4.05664 19.4H24.0666V17.957H-4.05664V19.4Z" fill="#CA4638"/>
<path id="path18837" d="M-4.05664 16.5136H24.0666V15.0723H-4.05664V16.5136Z" fill="#CA4638"/>
<path id="path18839" d="M-4.05664 12.1191H24.0666V10.6777H-4.05664V12.1191Z" fill="white"/>
<path id="path18841" d="M-4.05664 7.85929H24.0666V6.41797H-4.05664V7.85929Z" fill="#CA4638"/>
<path id="path18843" d="M-4.05664 3.53476H24.0666V2.0918H-4.05664V3.53476Z" fill="white"/>
<g id="Group">
<path id="path18845" d="M-4.05664 4.97758H24.0666V3.53516H-4.05664V4.97758Z" fill="#CA4638"/>
<path id="path18847" d="M-4.05664 10.7468H24.0666V9.30273H-4.05664V10.7468Z" fill="#CA4638"/>
<path id="path18849" d="M-4.05664 2.09202H24.0666V0.652344H-4.05664V2.09202Z" fill="#CA4638"/>
</g>
<path id="path18851" d="M-4.05664 6.41758H24.0666V4.97461H-4.05664V6.41758Z" fill="white"/>
<path id="path18853" d="M-4.05664 9.30265H24.0666V7.86133H-4.05664V9.30265Z" fill="white"/>
</g>
</g>
</g>
<g id="Clip path group_2">
<mask id="mask1_1858_104426" style="mask-type:luminance" maskUnits="userSpaceOnUse" x="0" y="0" width="20" height="20">
<g id="clipPath3603">
<path id="path3605" d="M19.3678 9.97396C19.3678 12.4607 18.38 14.8456 16.6216 16.604C14.8632 18.3624 12.4783 19.3503 9.99154 19.3503C7.50479 19.3503 5.11989 18.3624 3.36149 16.604C1.60309 14.8456 0.615234 12.4607 0.615234 9.97396C0.615234 7.48721 1.60309 5.10231 3.36149 3.34391C5.11989 1.58551 7.50479 0.597656 9.99154 0.597656C12.4783 0.597656 14.8632 1.58551 16.6216 3.34391C18.38 5.10231 19.3678 7.48721 19.3678 9.97396Z" fill="white"/>
</g>
</mask>
<g mask="url(#mask1_1858_104426)">
<path id="path3517" d="M0.625 10.7461H10V0.597656H0.625V10.7461Z" fill="#356BA0"/>
</g>
</g>
<g id="Group_2">
<path id="path18857" d="M7.79627 1.95508L7.86639 2.17292H8.09512L7.90996 2.30747L7.98161 2.52531L7.79632 2.39063L7.60961 2.52531L7.68127 2.30747L7.49609 2.17292H7.72484L7.79627 1.95508Z" fill="white"/>
<path id="path18859" d="M7.79627 3.86914L7.86639 4.08685H8.09512L7.90996 4.22153L7.98161 4.43924L7.79632 4.30611L7.60961 4.43924L7.68127 4.22153L7.49609 4.08685H7.72484L7.79627 3.86914Z" fill="white"/>
<path id="path18861" d="M7.79627 5.7832L7.86639 6.00143H8.09512L7.90996 6.1356L7.98161 6.35382L7.79632 6.21915L7.60961 6.35382L7.68127 6.1356L7.49609 6.00143H7.72484L7.79627 5.7832Z" fill="white"/>
<path id="path18863" d="M7.79627 7.73828L7.86639 7.95754H8.09512L7.90996 8.09221L7.98161 8.31147L7.79632 8.17525L7.60961 8.31147L7.68127 8.09221L7.49609 7.95754H7.72484L7.79627 7.73828Z" fill="white"/>
<path id="path18865" d="M7.79627 9.60938L7.86639 9.82761H8.09512L7.90996 9.9633L7.98161 10.181L7.79632 10.0453L7.60961 10.181L7.68127 9.9633L7.49609 9.82761H7.72484L7.79627 9.60938Z" fill="white"/>
<path id="path18867" d="M6.08063 1.95508L6.15126 2.17292H6.38103L6.19522 2.30747L6.26585 2.52531L6.08069 2.39063L5.89501 2.52531L5.96544 2.30747L5.78027 2.17292H6.01003L6.08063 1.95508Z" fill="white"/>
<path id="path18869" d="M6.08063 3.86914L6.15126 4.08685H6.38103L6.19522 4.22153L6.26585 4.43924L6.08069 4.30611L5.89501 4.43924L5.96544 4.22153L5.78027 4.08685H6.01003L6.08063 3.86914Z" fill="white"/>
<path id="path18871" d="M6.08063 5.7832L6.15126 6.00143H6.38103L6.19522 6.1356L6.26585 6.35382L6.08069 6.21915L5.89501 6.35382L5.96544 6.1356L5.78027 6.00143H6.01003L6.08063 5.7832Z" fill="white"/>
<path id="path18873" d="M6.08063 7.73828L6.15126 7.95754H6.38103L6.19522 8.09221L6.26585 8.31147L6.08069 8.17525L5.89501 8.31147L5.96544 8.09221L5.78027 7.95754H6.01003L6.08063 7.73828Z" fill="white"/>
<path id="path18875" d="M6.08063 9.60938L6.15126 9.82761H6.38103L6.19522 9.9633L6.26585 10.181L6.08069 10.0453L5.89501 10.181L5.96544 9.9633L5.78027 9.82761H6.01003L6.08063 9.60938Z" fill="white"/>
<path id="path18879" d="M4.3658 3.86914L4.43591 4.08685H4.66464L4.47948 4.22153L4.55094 4.43924L4.36577 4.30611L4.17906 4.43924L4.25073 4.22153L4.06543 4.08685H4.29378L4.36574 3.86914" fill="white"/>
<path id="path18881" d="M4.3658 5.7832L4.43591 6.00143H4.66464L4.47948 6.1356L4.55094 6.35382L4.36577 6.21915L4.17906 6.35382L4.25073 6.1356L4.06543 6.00143H4.29378L4.36574 5.7832" fill="white"/>
<path id="path18883" d="M4.3658 7.73828L4.43591 7.95754H4.66464L4.47948 8.09221L4.55094 8.31147L4.36577 8.17525L4.17906 8.31147L4.25073 8.09221L4.06543 7.95754H4.29378L4.36574 7.73828" fill="white"/>
<path id="path18885" d="M4.3658 9.60938L4.43591 9.82761H4.66464L4.47948 9.9633L4.55094 10.181L4.36577 10.0453L4.17906 10.181L4.25073 9.9633L4.06543 9.82761H4.29378L4.36574 9.60938" fill="white"/>
<path id="path18891" d="M2.6489 5.7832L2.71944 6.00143H2.9492L2.76402 6.1356L2.83466 6.35382L2.64898 6.21915L2.46368 6.35382L2.53431 6.1356L2.34863 6.00143H2.57737L2.64903 5.7832" fill="white"/>
<path id="path18893" d="M2.6489 7.73828L2.71944 7.95754H2.9492L2.76402 8.09221L2.83466 8.31147L2.64898 8.17525L2.46368 8.31147L2.53431 8.09221L2.34863 7.95754H2.57737L2.64903 7.73828" fill="white"/>
<path id="path18895" d="M2.6489 9.60938L2.71944 9.82761H2.9492L2.76402 9.9633L2.83466 10.181L2.64898 10.0453L2.46368 10.181L2.53431 9.9633L2.34863 9.82761H2.57737L2.64903 9.60938" fill="white"/>
<path id="path18907" d="M8.67234 2.91211L8.74287 3.13137H8.97264L8.78695 3.2645L8.85758 3.48376L8.67241 3.34921L8.48661 3.48376L8.55775 3.2645L8.37207 3.13137H8.60132L8.67246 2.91211" fill="white"/>
<path id="path18909" d="M8.67234 4.88672L8.74287 5.10456H8.97264L8.78695 5.23911L8.85758 5.45695L8.67241 5.32228L8.48661 5.45695L8.55775 5.23911L8.37207 5.10456H8.60132L8.67246 4.88672" fill="white"/>
<path id="path18911" d="M8.65377 6.82422L8.72491 7.04194H8.95417L8.76887 7.17661L8.83951 7.39433L8.65383 7.25862L8.46866 7.39433L8.53919 7.17661L8.35352 7.04194H8.58327L8.6539 6.82422" fill="white"/>
<path id="path18913" d="M8.6363 8.73828L8.70745 8.95612H8.9372L8.75102 9.09067L8.82247 9.30852L8.63627 9.17435L8.45162 9.30852L8.52225 9.09067L8.33594 8.95612H8.5657L8.6363 8.73828Z" fill="white"/>
<path id="path18915" d="M6.95462 2.91211L7.02576 3.13137H7.25553L7.06933 3.2645L7.14078 3.48376L6.9546 3.34921L6.76891 3.48376L6.84057 3.2645L6.65527 3.13137H6.884L6.95462 2.91211Z" fill="white"/>
<path id="path18917" d="M6.95462 4.88672L7.02576 5.10456H7.25553L7.06933 5.23911L7.14078 5.45695L6.9546 5.32228L6.76891 5.45695L6.84057 5.23911L6.65527 5.10456H6.884L6.95462 4.88672Z" fill="white"/>
<path id="path18919" d="M6.93894 6.82422L7.00957 7.04194H7.23932L7.05416 7.17661L7.12469 7.39433L6.93901 7.25862L6.75385 7.39433L6.82448 7.17661L6.63867 7.04194H6.86754L6.93899 6.82422" fill="white"/>
<path id="path18921" d="M6.92127 8.73828L6.9919 8.95612H7.22115L7.03598 9.09067L7.10661 9.30852L6.92132 9.17435L6.73563 9.30852L6.80627 9.09067L6.62109 8.95612H6.85035L6.92139 8.73828" fill="white"/>
<path id="path18923" d="M5.2392 2.84375L5.31023 3.06146H5.53948L5.35432 3.19614L5.42546 3.41385L5.23927 3.2793L5.05398 3.41385L5.12512 3.19614L4.93945 3.06146H5.16869L5.23932 2.84375" fill="white"/>
<path id="path18925" d="M5.2392 4.81836L5.31023 5.03607H5.53948L5.35432 5.17178L5.42546 5.38846L5.23927 5.25533L5.05398 5.38846L5.12512 5.17178L4.93945 5.03607H5.16869L5.23932 4.81836" fill="white"/>
<path id="path18927" d="M5.22226 6.75391L5.29217 6.97162H5.52194L5.33625 7.1063L5.40739 7.32401L5.22223 7.18934L5.0359 7.32401L5.10705 7.1063L4.92188 6.97162H5.15113L5.22226 6.75391Z" fill="white"/>
<path id="path18929" d="M5.20553 8.66797L5.27667 8.8862H5.50592L5.32063 9.01934L5.39126 9.23859L5.20559 9.10391L5.02041 9.23859L5.09094 9.01934L4.90527 8.8862H5.13451L5.20566 8.66797" fill="white"/>
<path id="path18933" d="M3.52506 4.79883L3.59549 5.01654H3.82486L3.63905 5.15276L3.70968 5.37047L3.52503 5.23477L3.33884 5.37047L3.41029 5.15276L3.22461 5.01654H3.45386L3.52501 4.79883" fill="white"/>
<path id="path18935" d="M3.50726 6.73438L3.57739 6.95261H3.80715L3.62146 7.0883L3.69251 7.30603L3.50734 7.17045L3.32166 7.30603L3.39219 7.0883L3.20703 6.95261H3.43576L3.50742 6.73438" fill="white"/>
<path id="path18937" d="M3.48982 8.64648L3.56096 8.86472H3.7902L3.60453 9.00042L3.67496 9.21813L3.48978 9.08243L3.30462 9.21813L3.37526 9.00042L3.18945 8.86472H3.4187L3.48982 8.64648Z" fill="white"/>
<path id="path18943" d="M1.79039 6.70117L1.86153 6.91901H2.09077L1.9051 7.05356L1.97624 7.27141L1.79044 7.13673L1.60528 7.27141L1.67591 7.05356L1.49023 6.91901H1.71999L1.79052 6.70117" fill="white"/>
<path id="path18945" d="M1.7739 8.61523L1.84393 8.83295H2.07369L1.888 8.96763L1.95915 9.18535L1.77398 9.0508L1.58766 9.18535L1.6588 8.96763L1.47363 8.83295H1.70288L1.77403 8.61523" fill="white"/>
<path id="path18947" d="M9.51325 1.95508L9.58337 2.17292H9.81313L9.62797 2.30747L9.6984 2.52531L9.51322 2.39063L9.32755 2.52531L9.39818 2.30747L9.21289 2.17292H9.44214L9.51325 1.95508Z" fill="white"/>
<path id="path18949" d="M9.51325 3.86914L9.58337 4.08685H9.81313L9.62797 4.22153L9.6984 4.43924L9.51322 4.30611L9.32755 4.43924L9.39818 4.22153L9.21289 4.08685H9.44214L9.51325 3.86914Z" fill="white"/>
<path id="path18951" d="M9.51325 5.7832L9.58337 6.00143H9.81313L9.62797 6.1356L9.6984 6.35382L9.51322 6.21915L9.32755 6.35382L9.39818 6.1356L9.21289 6.00143H9.44214L9.51325 5.7832Z" fill="white"/>
<path id="path18953" d="M9.51325 7.73828L9.58337 7.95754H9.81313L9.62797 8.09221L9.6984 8.31147L9.51322 8.17525L9.32755 8.31147L9.39818 8.09221L9.21289 7.95754H9.44214L9.51325 7.73828Z" fill="white"/>
<path id="path18955" d="M9.51325 9.60938L9.58337 9.82761H9.81313L9.62797 9.9633L9.6984 10.181L9.51322 10.0453L9.32755 10.181L9.39818 9.9633L9.21289 9.82761H9.44214L9.51325 9.60938Z" fill="white"/>
<path id="path3711" d="M8.67234 1.08594L8.74287 1.30417H8.97264L8.78746 1.43987L8.8581 1.65759L8.67241 1.52188L8.48712 1.65759L8.55775 1.43987L8.37207 1.30417H8.60081L8.67246 1.08594" fill="white"/>
<path id="path3713" d="M1.07078 9.60938L1.14131 9.82761H1.37107L1.1859 9.9633L1.25654 10.181L1.07085 10.0453L0.885557 10.181L0.956188 9.9633L0.770508 9.82761H0.999247L1.0709 9.60938" fill="white"/>
<path id="path3715" d="M1.228 7.73828L1.29854 7.95754H1.5283L1.34313 8.09221L1.41376 8.31147L1.22808 8.17525L1.04278 8.31147L1.11341 8.09221L0.927734 7.95754H1.15647L1.22813 7.73828" fill="white"/>
<path id="path3719" d="M6.95462 1.25391L7.02576 1.47316H7.25553L7.06933 1.6063L7.14078 1.82556L6.9546 1.69101L6.76891 1.82556L6.84057 1.6063L6.65527 1.47316H6.884L6.95462 1.25391Z" fill="white"/>
</g>
</g>
</g>
</g>
<defs>
<clipPath id="clip0_1858_104426">
<rect width="20" height="20" fill="white"/>
</clipPath>
</defs>
</svg>
