<svg width="21" height="17" viewBox="0 0 21 17" fill="none" xmlns="http://www.w3.org/2000/svg">
<g id="fa:comments" clip-path="url(#clip0_22_319)">
<path id="Vector" d="M16.2406 6.10589C16.2406 7.14011 15.8909 8.09621 15.1915 8.97419C14.4921 9.85217 13.5378 10.546 12.3288 11.0557C11.1197 11.5653 9.80458 11.8202 8.38345 11.8202C7.74357 11.8202 7.08881 11.7606 6.41916 11.6416C5.49654 12.2964 4.46232 12.7726 3.31648 13.0702C3.04863 13.1371 2.72869 13.1967 2.35666 13.2487H2.32318C2.24134 13.2487 2.16507 13.219 2.09439 13.1595C2.0237 13.0999 1.98092 13.0218 1.96604 12.9251C1.9586 12.9028 1.95488 12.8786 1.95488 12.8525C1.95488 12.8265 1.95674 12.8023 1.96046 12.78C1.96418 12.7577 1.97162 12.7353 1.98278 12.713L2.01068 12.6572L2.04974 12.5958L2.09439 12.54L2.14461 12.4842L2.18925 12.434C2.22645 12.3894 2.31202 12.2964 2.44595 12.155C2.57988 12.0136 2.6766 11.9039 2.73613 11.8258C2.79565 11.7476 2.87936 11.6397 2.98724 11.5021C3.09513 11.3644 3.18814 11.2212 3.26626 11.0724C3.34439 10.9236 3.42065 10.7599 3.49506 10.5813C2.57244 10.0456 1.84699 9.38714 1.31872 8.60589C0.790443 7.82464 0.526306 6.9913 0.526306 6.10589C0.526306 5.07166 0.876009 4.11556 1.57541 3.23758C2.27482 2.35961 3.22906 1.66578 4.43814 1.15611C5.64721 0.646438 6.96232 0.391602 8.38345 0.391602C9.80458 0.391602 11.1197 0.646438 12.3288 1.15611C13.5378 1.66578 14.4921 2.35961 15.1915 3.23758C15.8909 4.11556 16.2406 5.07166 16.2406 6.10589ZM20.5263 8.96303C20.5263 9.85589 20.2622 10.6911 19.7339 11.4686C19.2056 12.2461 18.4802 12.9028 17.5576 13.4385C17.632 13.617 17.7082 13.7807 17.7864 13.9295C17.8645 14.0784 17.9575 14.2216 18.0654 14.3592C18.1733 14.4969 18.257 14.6048 18.3165 14.6829C18.376 14.761 18.4727 14.8708 18.6067 15.0121C18.7406 15.1535 18.8262 15.2465 18.8634 15.2912C18.8708 15.2986 18.8857 15.3153 18.908 15.3414C18.9303 15.3674 18.9471 15.386 18.9582 15.3972C18.9694 15.4083 18.9843 15.4269 19.0029 15.453C19.0215 15.479 19.0345 15.4995 19.0419 15.5144L19.0698 15.5702L19.0922 15.6371L19.0977 15.7097L19.0866 15.7822C19.0643 15.8864 19.0159 15.9682 18.9415 16.0278C18.8671 16.0873 18.7852 16.1133 18.6959 16.1059C18.3239 16.0538 18.004 15.9943 17.7361 15.9273C16.5903 15.6297 15.5561 15.1535 14.6334 14.4987C13.9638 14.6178 13.309 14.6773 12.6692 14.6773C10.6528 14.6773 8.89684 14.1862 7.40131 13.2041C7.83285 13.2339 8.16023 13.2487 8.38345 13.2487C9.58137 13.2487 10.7309 13.0813 11.8321 12.7465C12.9333 12.4117 13.9154 11.9318 14.7785 11.3068C15.7086 10.6223 16.4229 9.83356 16.9214 8.94071C17.4199 8.04785 17.6692 7.10291 17.6692 6.10589C17.6692 5.53297 17.5836 4.96749 17.4125 4.40946C18.3723 4.93773 19.1312 5.59993 19.6893 6.39606C20.2473 7.1922 20.5263 8.04785 20.5263 8.96303Z" fill="black"/>
</g>
<defs>
<clipPath id="clip0_22_319">
<rect width="20" height="15.7143" fill="white" transform="translate(0.526306 0.391602)"/>
</clipPath>
</defs>
</svg>
