<svg width="20" height="21" viewBox="0 0 20 21" fill="none" xmlns="http://www.w3.org/2000/svg">
<g id="mdi:person-circle-outline">
<path id="Vector" d="M10 1.91553C8.90567 1.91553 7.82204 2.13108 6.81099 2.54986C5.79994 2.96865 4.88129 3.58248 4.10746 4.3563C2.54466 5.91911 1.66669 8.03872 1.66669 10.2489C1.66669 12.459 2.54466 14.5786 4.10746 16.1414C4.88129 16.9152 5.79994 17.5291 6.81099 17.9479C7.82204 18.3666 8.90567 18.5822 10 18.5822C12.2102 18.5822 14.3298 17.7042 15.8926 16.1414C17.4554 14.5786 18.3334 12.459 18.3334 10.2489C18.3334 9.15451 18.1178 8.07088 17.699 7.05983C17.2802 6.04879 16.6664 5.13013 15.8926 4.3563C15.1188 3.58248 14.2001 2.96865 13.189 2.54986C12.178 2.13108 11.0944 1.91553 10 1.91553ZM5.89169 15.4822C6.25002 14.7322 8.43335 13.9989 10 13.9989C11.5667 13.9989 13.75 14.7322 14.1084 15.4822C12.9412 16.4122 11.4924 16.9177 10 16.9155C8.45002 16.9155 7.02502 16.3822 5.89169 15.4822ZM15.3 14.2739C14.1084 12.8239 11.2167 12.3322 10 12.3322C8.78335 12.3322 5.89169 12.8239 4.70002 14.2739C3.81351 13.1194 3.33308 11.7044 3.33335 10.2489C3.33335 6.57386 6.32502 3.58219 10 3.58219C13.675 3.58219 16.6667 6.57386 16.6667 10.2489C16.6667 11.7655 16.15 13.1655 15.3 14.2739ZM10 5.24886C8.38335 5.24886 7.08335 6.54886 7.08335 8.16553C7.08335 9.78219 8.38335 11.0822 10 11.0822C11.6167 11.0822 12.9167 9.78219 12.9167 8.16553C12.9167 6.54886 11.6167 5.24886 10 5.24886ZM10 9.41553C9.6685 9.41553 9.35056 9.28383 9.11614 9.04941C8.88172 8.81499 8.75002 8.49705 8.75002 8.16553C8.75002 7.83401 8.88172 7.51606 9.11614 7.28164C9.35056 7.04722 9.6685 6.91553 10 6.91553C10.3315 6.91553 10.6495 7.04722 10.8839 7.28164C11.1183 7.51606 11.25 7.83401 11.25 8.16553C11.25 8.49705 11.1183 8.81499 10.8839 9.04941C10.6495 9.28383 10.3315 9.41553 10 9.41553Z" fill="black"/>
</g>
</svg>
