<svg width="38" height="38" viewBox="0 0 38 38" fill="none" xmlns="http://www.w3.org/2000/svg">
<path d="M32.3687 14.3365C31.912 11.7638 30.7166 9.37948 28.9283 7.47434C28.1661 6.65258 27.3031 5.93041 26.3599 5.325C24.6237 4.19954 22.6511 3.49012 20.5958 3.25199C20.3405 3.23816 20.0863 3.20945 19.8344 3.16602H18.0381C18.0187 3.21135 17.9771 3.19482 17.944 3.1979C17.4815 3.23869 17.0212 3.29132 16.5647 3.37785C13.3208 3.95193 10.4026 5.70214 8.36863 8.29348C6.6517 10.4184 5.63443 13.0226 5.4564 15.7486C5.35532 17.0903 5.4539 18.4396 5.74894 19.7524C5.96701 20.7323 6.29873 21.6835 6.73735 22.5865C6.77611 22.6637 6.81428 22.7408 6.85371 22.8178C7.56626 24.2377 8.52177 25.522 9.67701 26.6126C12.1458 28.9476 15.404 30.2663 18.802 30.3056C18.9605 30.3078 19.0037 30.3469 19.0028 30.5091C18.9955 31.8921 18.9986 33.2754 18.999 34.6587C18.9991 34.7125 19.0033 34.766 19.0064 34.8327C19.0511 34.8145 19.0791 34.8042 19.1061 34.7914C21.698 33.5914 24.0947 32.0083 26.2157 30.0953C26.6385 29.7104 27.0443 29.308 27.4332 28.8881C27.5999 28.7087 27.7652 28.526 27.9323 28.3468C28.1904 28.0708 28.4138 27.7624 28.6571 27.4718C28.9381 27.1365 29.1904 26.7802 29.4393 26.4216C29.992 25.6322 30.4784 24.7984 30.8936 23.9288C31.1025 23.4873 31.3014 23.0422 31.4775 22.5868C31.4842 22.5789 31.49 22.5703 31.495 22.5613C31.9687 21.3177 32.288 20.0208 32.4459 18.6995C32.503 18.2384 32.54 17.7743 32.5634 17.3105C32.6137 16.315 32.5484 15.317 32.3687 14.3365ZM17.818 18.8005C17.8193 19.3618 17.7014 19.9171 17.4722 20.4295C17.2429 20.9419 16.9074 21.3998 16.488 21.7729C16.443 21.8146 16.3993 21.8582 16.3554 21.9009C15.9175 22.2495 15.415 22.5081 14.8769 22.662C14.6436 22.7209 14.407 22.7658 14.1683 22.7964C14.0875 22.8087 14.0051 22.7909 13.9366 22.7465C13.868 22.7021 13.8181 22.6342 13.7963 22.5555L13.7981 21.0226C13.8071 20.8722 13.7465 20.711 13.8671 20.5783C13.9243 20.5121 14.0008 20.4655 14.0858 20.4448C14.3583 20.3949 14.622 20.3051 14.8682 20.1781C15.0825 20.0543 15.2689 19.8874 15.4155 19.688C15.5621 19.4886 15.6659 19.261 15.7202 19.0196C15.7394 18.9402 15.7579 18.8604 15.7762 18.7807C14.6987 18.7787 13.6213 18.7769 12.544 18.7753C12.4511 18.7783 12.3583 18.7687 12.268 18.7468C12.1323 18.7107 12.0119 18.6319 11.9245 18.522C11.8371 18.4122 11.7874 18.2771 11.7827 18.1367C11.7807 16.5076 11.7815 14.8784 11.7851 13.249C11.7594 13.1248 11.766 12.9961 11.8044 12.8752C11.8427 12.7543 11.9115 12.6453 12.0042 12.5587C12.115 12.4568 12.2595 12.3993 12.41 12.3971C13.9942 12.3968 15.5785 12.3965 17.1628 12.3962C17.2641 12.3966 17.3641 12.4204 17.4547 12.4657C17.5454 12.511 17.6244 12.5767 17.6856 12.6575C17.7468 12.7384 17.7885 12.8322 17.8074 12.9318C17.8264 13.0314 17.8221 13.134 17.795 13.2317C17.8198 13.3098 17.8288 13.3922 17.8213 13.4739C17.8217 15.2492 17.8316 17.0252 17.818 18.8005ZM26.2146 18.8084C26.2068 19.5959 25.9695 20.364 25.5318 21.0187C25.094 21.6733 24.4748 22.1861 23.7501 22.4942C23.7131 22.51 23.6778 22.5305 23.6416 22.5487L23.5812 22.5656L23.547 22.585C23.2411 22.6736 22.9297 22.7421 22.6148 22.7898C22.5633 22.8031 22.5094 22.8041 22.4574 22.7929C22.4054 22.7816 22.3568 22.7584 22.3154 22.725C22.2739 22.6917 22.2409 22.6491 22.2188 22.6007C22.1967 22.5524 22.1862 22.4995 22.1882 22.4464C22.1858 22.2764 22.1845 22.1059 22.1832 21.9358L22.192 21.0218C22.1906 20.9544 22.1882 20.8877 22.1884 20.8207C22.1887 20.5867 22.2786 20.4879 22.5696 20.4215C22.9403 20.358 23.2869 20.1956 23.5728 19.9514C23.8984 19.6395 24.109 19.2268 24.1706 18.7803L21.1848 18.7746C21.0766 18.7744 20.9682 18.7759 20.8598 18.7741C20.7681 18.7772 20.6767 18.7612 20.5914 18.7271C20.5062 18.693 20.429 18.6416 20.3646 18.5762C20.3003 18.5107 20.2502 18.4326 20.2176 18.3468C20.1849 18.261 20.1705 18.1694 20.1751 18.0777C20.1756 16.4686 20.1769 14.8595 20.1789 13.2505L20.1762 13.204C20.1507 13.0661 20.1679 12.9237 20.2256 12.7959C20.2833 12.6681 20.3787 12.561 20.4989 12.4889C20.6 12.4265 20.7168 12.3945 20.8356 12.3968C22.4093 12.396 23.9831 12.3955 25.5569 12.3955C25.6582 12.3959 25.7581 12.4198 25.8487 12.4651C25.9394 12.5105 26.0184 12.5761 26.0795 12.6569C26.1406 12.7378 26.1823 12.8316 26.2013 12.9312C26.2203 13.0308 26.216 13.1334 26.1889 13.231C26.2135 13.3092 26.2224 13.3915 26.2151 13.4731C26.215 15.2515 26.2149 17.0299 26.2146 18.8084Z" fill="white"/>
</svg>
