<svg width="20" height="21" viewBox="0 0 20 21" fill="none" xmlns="http://www.w3.org/2000/svg">
<g id="fi_5549541" clip-path="url(#clip0_496_47498)">
<g id="Group">
<path id="Vector" d="M18.8005 13.0331C18.6394 12.8721 18.4681 12.7276 18.2888 12.599C18.8466 11.0274 18.9772 9.34036 18.6646 7.68899C18.3125 5.82866 17.4161 4.13502 16.0724 2.7913C14.2941 1.013 11.9298 0.0336914 9.41496 0.0336914C6.90015 0.0336914 4.53586 1.013 2.75761 2.7913C0.979351 4.56952 0 6.93384 0 9.44866C0 11.9635 0.979312 14.3278 2.75761 16.1061C4.10133 17.4498 5.79497 18.3462 7.6553 18.6983C8.24153 18.8093 8.83229 18.8644 9.42075 18.8644C10.4899 18.8644 11.5515 18.6821 12.5651 18.3223C12.6938 18.5017 12.8383 18.6731 12.9994 18.8342C13.7991 19.6339 14.8495 20.0337 15.8999 20.0337C16.9504 20.0337 18.0007 19.6339 18.8004 18.8342C20.3998 17.2348 20.3998 14.6325 18.8005 13.0331ZM13.4435 12.6485L12.3307 11.5357C13.8095 10.2544 15.7029 9.53874 17.6622 9.5221C17.6539 10.3709 17.5139 11.2253 17.2364 12.0561C15.9769 11.6242 14.5477 11.8218 13.4435 12.6485ZM17.5898 8.35109C15.3463 8.38555 13.1827 9.22113 11.5003 10.7053L10.2437 9.44866L15.6433 4.049C16.7182 5.28615 17.3798 6.78461 17.5898 8.35109ZM6.49945 7.36185C5.02197 8.64205 3.13065 9.3572 1.17289 9.37521C1.19007 7.39713 1.8994 5.52926 3.18659 4.049L6.49945 7.36185ZM4.01531 3.22029C5.49553 1.93313 7.36336 1.22381 9.34136 1.20658C9.32328 3.16423 8.60801 5.05542 7.32793 6.53287L4.01531 3.22029ZM10.5126 1.27822C12.1067 1.48903 13.5927 2.15772 14.8147 3.22025L9.41496 8.61994L8.15836 7.36334C9.64159 5.68204 10.4773 3.52012 10.5126 1.27822ZM1.24457 10.5463C3.48635 10.5109 5.64843 9.67524 7.32973 8.19209L8.58629 9.44866L3.18659 14.8484C2.12407 13.6265 1.45537 12.1404 1.24457 10.5463ZM4.01535 15.677L9.41496 10.2774L10.6715 11.5339C9.18736 13.2163 8.35154 15.38 8.31728 17.6235C6.75088 17.4134 5.25246 16.7519 4.01535 15.677ZM9.48853 17.6959C9.5054 15.7364 10.2208 13.8432 11.502 12.3644L12.6148 13.4772C11.7881 14.5813 11.5906 16.0105 12.0224 17.2701C11.1917 17.5477 10.3373 17.6876 9.48853 17.6959ZM17.9718 18.0055C16.8294 19.1478 14.9705 19.1478 13.8282 18.0055C12.6858 16.863 12.6858 15.0043 13.8282 13.8619C14.3993 13.2907 15.1497 13.0051 15.9 13.0051C16.6503 13.0051 17.4006 13.2907 17.9718 13.8619C19.1142 15.0043 19.1142 16.863 17.9718 18.0055Z" fill="#0E2236"/>
<path id="Vector_2" d="M15.3145 14.1758H16.4864V17.6917H15.3145V14.1758Z" fill="#0E2236"/>
</g>
</g>
<defs>
<clipPath id="clip0_496_47498">
<rect width="20" height="20" fill="white" transform="translate(0 0.0336914)"/>
</clipPath>
</defs>
</svg>
