<svg width="20" height="21" viewBox="0 0 20 21" fill="none" xmlns="http://www.w3.org/2000/svg">
<g id="fi_9487414" clip-path="url(#clip0_496_47448)">
<path id="Vector" fill-rule="evenodd" clip-rule="evenodd" d="M17.9151 10.0336C17.9148 10.1573 17.8668 10.279 17.773 10.3728L15.5918 12.5561L14.9114 11.8737L16.2721 10.5149H11.9796V16.6104H16.2721L14.9113 15.2516L15.5917 14.5712L17.773 16.7525C17.867 16.8466 17.915 16.9686 17.915 17.0927C17.915 17.2148 17.867 17.3388 17.773 17.4329L15.5917 19.6141L14.9113 18.9337L16.2721 17.573H11.4974C11.2313 17.573 11.0171 17.3568 11.0171 17.0927V10.5149H2.08594V10.0336V9.55238H11.0171V2.97457C11.0171 2.71043 11.2313 2.4943 11.4974 2.4943H16.2721L14.9114 1.13352L15.5918 0.453125L17.773 2.63438C17.8671 2.72844 17.9151 2.8525 17.9151 2.97457C17.9151 3.09863 17.867 3.2207 17.773 3.31477L15.5918 5.49602L14.9114 4.81563L16.2721 3.45684H11.9796V9.55238H16.2721L14.9113 8.19359L15.5917 7.51121L17.773 9.69445C17.8668 9.78824 17.9148 9.90992 17.9151 10.0336Z" fill="#0E2236"/>
</g>
<defs>
<clipPath id="clip0_496_47448">
<rect width="20" height="20" fill="white" transform="translate(0 0.0336914)"/>
</clipPath>
</defs>
</svg>
