<svg width="17" height="16" viewBox="0 0 17 16" fill="none" xmlns="http://www.w3.org/2000/svg">
<g clip-path="url(#clip0_397_18525)">
<path d="M8.66797 0C4.25677 0 0.667969 3.58885 0.667969 8.00005C0.667969 12.4112 4.25677 16 8.66797 16C13.0792 16 16.668 12.4112 16.668 8.00005C16.668 3.58885 13.0792 0 8.66797 0ZM8.66797 14.5455C5.05876 14.5455 2.12251 11.6092 2.12251 8.00005C2.12251 4.39088 5.05876 1.45455 8.66797 1.45455C12.2772 1.45455 15.2134 4.39088 15.2134 8.00005C15.2134 11.6092 12.2771 14.5455 8.66797 14.5455Z" fill="#4D4F4E"/>
<path d="M8.66872 3.39453C8.13413 3.39453 7.69922 3.82973 7.69922 4.36466C7.69922 4.89911 8.13413 5.33393 8.66872 5.33393C9.20332 5.33393 9.63823 4.89911 9.63823 4.36466C9.63823 3.82973 9.20332 3.39453 8.66872 3.39453Z" fill="#4D4F4E"/>
<path d="M8.66868 6.78711C8.26703 6.78711 7.94141 7.11273 7.94141 7.51438V11.878C7.94141 12.2797 8.26703 12.6053 8.66868 12.6053C9.07033 12.6053 9.39595 12.2797 9.39595 11.878V7.51438C9.39595 7.11273 9.07033 6.78711 8.66868 6.78711Z" fill="#4D4F4E"/>
</g>
<defs>
<clipPath id="clip0_397_18525">
<rect width="16" height="16" fill="white" transform="translate(0.667969)"/>
</clipPath>
</defs>
</svg>
