<svg width="20" height="20" viewBox="0 0 20 20" fill="none" xmlns="http://www.w3.org/2000/svg">
<path d="M10.166 10.8327L9.41602 11.5827C9.26324 11.7355 9.18685 11.9299 9.18685 12.166C9.18685 12.4021 9.26324 12.5966 9.41602 12.7493C9.56879 12.9021 9.76324 12.9785 9.99935 12.9785C10.2355 12.9785 10.4299 12.9021 10.5827 12.7493L12.7493 10.5827C12.916 10.416 12.9993 10.2216 12.9993 9.99935C12.9993 9.77713 12.916 9.58268 12.7493 9.41602L10.5827 7.24935C10.4299 7.09657 10.2355 7.02018 9.99935 7.02018C9.76324 7.02018 9.56879 7.09657 9.41602 7.24935C9.26324 7.40213 9.18685 7.59657 9.18685 7.83268C9.18685 8.06879 9.26324 8.26324 9.41602 8.41602L10.166 9.16602H7.49935C7.26324 9.16602 7.06518 9.24602 6.90518 9.40602C6.74518 9.56602 6.66546 9.76379 6.66602 9.99935C6.66602 10.2355 6.74602 10.4335 6.90602 10.5935C7.06602 10.7535 7.26379 10.8332 7.49935 10.8327H10.166ZM9.99935 18.3327C8.84657 18.3327 7.76324 18.1138 6.74935 17.676C5.73546 17.2382 4.85352 16.6446 4.10352 15.8952C3.35352 15.1452 2.7599 14.2632 2.32268 13.2493C1.88546 12.2355 1.66657 11.1521 1.66602 9.99935C1.66602 8.84657 1.8849 7.76324 2.32268 6.74935C2.76046 5.73546 3.35407 4.85352 4.10352 4.10352C4.85352 3.35352 5.73546 2.7599 6.74935 2.32268C7.76324 1.88546 8.84657 1.66657 9.99935 1.66602C11.1521 1.66602 12.2355 1.8849 13.2493 2.32268C14.2632 2.76046 15.1452 3.35407 15.8952 4.10352C16.6452 4.85352 17.2391 5.73546 17.6768 6.74935C18.1146 7.76324 18.3332 8.84657 18.3327 9.99935C18.3327 11.1521 18.1138 12.2355 17.676 13.2493C17.2382 14.2632 16.6446 15.1452 15.8952 15.8952C15.1452 16.6452 14.2632 17.2391 13.2493 17.6768C12.2355 18.1146 11.1521 18.3332 9.99935 18.3327ZM9.99935 16.666C11.8605 16.666 13.4368 16.0202 14.7285 14.7285C16.0202 13.4368 16.666 11.8605 16.666 9.99935C16.666 8.13824 16.0202 6.56185 14.7285 5.27018C13.4368 3.97852 11.8605 3.33268 9.99935 3.33268C8.13824 3.33268 6.56185 3.97852 5.27018 5.27018C3.97852 6.56185 3.33268 8.13824 3.33268 9.99935C3.33268 11.8605 3.97852 13.4368 5.27018 14.7285C6.56185 16.0202 8.13824 16.666 9.99935 16.666Z" fill="black"/>
</svg>
