<svg width="44" height="45" viewBox="0 0 44 45" fill="none" xmlns="http://www.w3.org/2000/svg">
<g id="Twitter">
<rect y="0.640625" width="44" height="44" rx="22" fill="#0EC547"/>
<path id="Vector" d="M17.9742 34.2463C27.7312 34.2463 33.0662 26.1613 33.0662 19.1543C33.0662 18.9233 33.0662 18.6923 33.0552 18.4723C34.0892 17.7243 34.9912 16.7893 35.7062 15.7223C34.7602 16.1403 33.7372 16.4263 32.6592 16.5583C33.7592 15.8983 34.5952 14.8643 34.9912 13.6213C33.9682 14.2263 32.8352 14.6663 31.6252 14.9083C30.6572 13.8743 29.2822 13.2363 27.7532 13.2363C24.8272 13.2363 22.4512 15.6123 22.4512 18.5383C22.4512 18.9563 22.4952 19.3633 22.5942 19.7483C18.1832 19.5283 14.2782 17.4163 11.6602 14.2043C11.2092 14.9853 10.9452 15.8983 10.9452 16.8663C10.9452 18.7033 11.8802 20.3313 13.3102 21.2773C12.4412 21.2553 11.6272 21.0133 10.9122 20.6173C10.9122 20.6393 10.9122 20.6613 10.9122 20.6833C10.9122 23.2573 12.7382 25.3913 15.1692 25.8863C14.7292 26.0073 14.2562 26.0733 13.7722 26.0733C13.4312 26.0733 13.1012 26.0403 12.7712 25.9743C13.4422 28.0863 15.4002 29.6153 17.7212 29.6593C15.9062 31.0783 13.6182 31.9253 11.1322 31.9253C10.7032 31.9253 10.2852 31.9033 9.86719 31.8483C12.1882 33.3663 14.9822 34.2463 17.9742 34.2463Z" fill="#0E2236"/>
</g>
</svg>
