<svg width="97" height="96" viewBox="0 0 97 96" fill="none" xmlns="http://www.w3.org/2000/svg">
<path fill-rule="evenodd" clip-rule="evenodd" d="M48.3357 18.9951L63.2066 29.9701L62.019 31.5793L48.3357 21.4808L25.0857 38.6397V48.8192H23.0857V40.1157L20.3753 42.116L19.1877 40.5068L29.8357 32.6484V22.7598H37.3982V27.0672L48.3357 18.9951ZM35.3982 24.7598V28.5432L31.8357 31.1724V24.7598H35.3982Z" fill="#2F54EB"/>
<path d="M76.296 42.116L73.5857 40.1157V52.7888H71.5857V38.6397L70.0999 37.5431L71.2875 35.9339L77.4837 40.5068L76.296 42.116Z" fill="#2F54EB"/>
<path d="M23.0857 50.8075V52.8036H25.0857V50.8075H23.0857Z" fill="#2F54EB"/>
<path fill-rule="evenodd" clip-rule="evenodd" d="M77.8898 78.2375V56.0668L87.0705 56.0668V54.0668L63.0705 54.0668V56.0668L71.5857 56.0668V71.9536H25.0857V56.0668L33.9294 56.0668V54.0668L9.92944 54.0668L9.92945 56.0668L18.7815 56.0668V78.2375H77.8898ZM23.0857 56.0668V73.9536H73.5857V56.0668H75.8898V76.2375H20.7815V56.0668H23.0857Z" fill="#2F54EB"/>
<path d="M53.9668 52.4015C52.6768 54.8676 51.127 56.837 49.8973 58.1906C49.2835 58.8663 48.7524 59.3854 48.3778 59.733C48.1906 59.9067 48.0427 60.0373 47.9435 60.123C47.894 60.1658 47.8566 60.1974 47.8325 60.2175L47.8066 60.239L47.8013 60.2434C47.8013 60.2434 47.8016 60.2431 48.4313 61.02C49.061 61.7969 49.0619 61.7961 49.0619 61.7961L49.0631 61.7951L49.0666 61.7923L49.0776 61.7832L49.1155 61.7518C49.1476 61.725 49.1932 61.6864 49.2512 61.6363C49.3671 61.5361 49.5326 61.3897 49.7381 61.199C50.149 60.8178 50.7209 60.2584 51.3777 59.5355C52.689 58.092 54.35 55.9838 55.739 53.3285L53.9668 52.4015Z" fill="#2F54EB"/>
<path fill-rule="evenodd" clip-rule="evenodd" d="M48.94 37.2672L48.3598 36.8602L47.7835 37.2728C46.471 38.2126 45.0887 39.045 43.6506 39.7639C42.1137 36.7193 40.1655 34.2831 39.7092 34.2831C38.9298 34.2832 33.7976 41.251 33.7976 46.4976C33.7976 48.0338 34.8829 49.7167 36.5207 50.7286C36.7353 51.5431 36.9933 52.3475 37.2941 53.1384L37.2961 53.1435C38.2957 55.7281 39.7024 58.1378 41.4631 60.2824C43.2594 62.5291 45.4021 64.4782 47.8114 66.0576L48.1303 66.2666L48.7307 66.1769L48.9142 66.0564C51.3227 64.4763 53.4651 62.5273 55.2621 60.2815C57.0227 58.1368 58.4294 55.727 59.4291 53.1423L59.4311 53.1371C60.6375 49.966 61.1544 46.5762 60.9476 43.1916L60.9021 42.4468L60.1751 42.2784C56.1401 41.3437 52.3251 39.642 48.94 37.2672ZM45.6208 46.4976C45.6208 44.9584 45.1546 43.2375 44.4818 41.5842C45.8272 40.9153 47.127 40.1533 48.3712 39.3024C51.61 41.4765 55.1997 43.0811 58.9838 44.0467C59.0622 46.9018 58.5805 49.7474 57.5628 52.4235C56.6392 54.8104 55.3395 57.0361 53.7123 59.0172L53.7042 59.0273C52.1749 60.9395 50.3751 62.6199 48.3617 64.0167C46.3486 62.6209 44.5495 60.9408 43.0214 59.0285L43.0128 59.0181C41.3856 57.0372 40.0859 54.8115 39.1625 52.4247C39.0576 52.1488 38.9584 51.8712 38.8649 51.5919C39.1406 51.6323 39.4225 51.6535 39.7092 51.6535C42.9741 51.6535 45.6208 48.8967 45.6208 46.4976ZM42.5316 48.5067C43.312 47.7851 43.6208 46.9946 43.6208 46.4976C43.6208 44.4847 42.5593 41.8094 41.2209 39.4678C40.695 38.5476 40.1608 37.739 39.6995 37.1152C39.2425 37.7263 38.7144 38.5175 38.1944 39.4208C36.8628 41.7336 35.7976 44.4113 35.7976 46.4976C35.7976 46.9946 36.1064 47.7851 36.8868 48.5067C37.6372 49.2005 38.6445 49.6535 39.7092 49.6535C40.7739 49.6535 41.7812 49.2005 42.5316 48.5067Z" fill="#2F54EB"/>
<path fill-rule="evenodd" clip-rule="evenodd" d="M61.0165 34.8256V32.8257C61.0225 32.8257 61.0285 32.8256 61.0345 32.8256C63.5633 32.816 65.5906 30.7908 65.5906 28.3251H67.5906C67.5906 30.7908 69.618 32.816 72.1468 32.8256L72.1648 32.8256V34.8256L72.1468 34.8256C69.618 34.8352 67.5907 36.8605 67.5907 39.3261H65.5907C65.5907 36.8605 63.5633 34.8352 61.0345 34.8256C61.0285 34.8257 61.0225 34.8256 61.0165 34.8256ZM64.5196 33.8256C65.3554 33.3041 66.0649 32.6014 66.5907 31.7725C67.1165 32.6014 67.826 33.3041 68.6617 33.8256C67.826 34.3471 67.1165 35.0498 66.5907 35.8787C66.0649 35.0498 65.3554 34.3472 64.5196 33.8256Z" fill="#FA8C16"/>
<path fill-rule="evenodd" clip-rule="evenodd" d="M12.9373 25.6776V23.6776C12.9433 23.6776 12.9493 23.6776 12.9553 23.6776C15.4841 23.668 17.5114 21.6428 17.5114 19.1771H19.5114C19.5114 21.6428 21.5388 23.668 24.0676 23.6776L24.0856 23.6776V25.6776L24.0676 25.6776C21.5388 25.6872 19.5115 27.7125 19.5115 30.1781H17.5115C17.5115 27.7125 15.4841 25.6872 12.9553 25.6776C12.9493 25.6776 12.9433 25.6776 12.9373 25.6776ZM16.4404 24.6776C17.2761 24.1561 17.9856 23.4534 18.5114 22.6245C19.0372 23.4534 19.7467 24.1561 20.5825 24.6776C19.7467 25.1991 19.0372 25.9018 18.5114 26.7307C17.9856 25.9018 17.2761 25.1991 16.4404 24.6776Z" fill="#FA8C16"/>
</svg>
