<svg xmlns="http://www.w3.org/2000/svg" width="96" height="96" fill="none" viewBox="0 0 96 96"><path fill="#2F54EB" fill-rule="evenodd" d="M34.69 29.8v6.19H32.7V29.8h1.98Z" clip-rule="evenodd"/><path fill="#2F54EB" d="M17.37 17.5h32.66V76h22.54v2h-55.2V42h1.97v34h28.7V19.5H34.82v5.63h5.07v2H27.51v-2h5.32V19.5H19.34V28h-1.97V17.5Z"/><path fill="#2F54EB" fill-rule="evenodd" d="M55.16 49.05c0 1.57.59 3 1.55 4.08H52.1V68h18.66v-2H54.08v-6.75h22.57V60h1.98v-6.88h-4.61a6.09 6.09 0 0 0 1.55-4.07 1.1 1.1 0 0 0-1.1-1.11H56.26c-.6 0-1.1.5-1.1 1.1Zm21.5 8.2v-2.13H54.07v2.13h22.57Zm-19.42-7.31a4.05 4.05 0 0 0 3.93 3.19h8.39a4.05 4.05 0 0 0 3.94-3.2H57.23Z" clip-rule="evenodd"/><path fill="#2F54EB" fill-rule="evenodd" d="M69.42 63h-7.24v-2h7.24v2Zm9.24 15h-3.03v-2h3.03v2ZM38.77 29.8v3.1h-1.98v-3.1h1.98Zm-8.2 0v3.1H28.6v-3.1h1.98Zm8.2 5.19v2.1h-1.98v-2.1h1.98Zm-8.2 0v2.1H28.6v-2.1h1.98Zm4.12 3.09v2.1H32.7v-2.1h1.98Z" clip-rule="evenodd"/><path fill="#2F54EB" d="m61.65 38.19 9.19-9.28-1.4-1.42-9.19 9.28 1.4 1.42Zm-.62-5.2-2.26 2.28-1.4-1.41 2.26-2.29 1.4 1.42Z"/><path fill="#2F54EB" fill-rule="evenodd" d="M53.15 31.34c0-6.81 5.47-12.34 12.22-12.34 6.74 0 12.21 5.53 12.21 12.34a12.3 12.3 0 0 1-11.2 12.3v2.17h-1.99v-2.16a12.3 12.3 0 0 1-11.24-12.3ZM65.37 21a10.3 10.3 0 0 0-10.24 10.34A10.3 10.3 0 0 0 65.37 41.7 10.3 10.3 0 0 0 75.6 31.34c0-3.55-1.77-6.7-4.48-8.55l-8.72 8.8-1.4-1.4 8.3-8.4c-1.2-.5-2.54-.79-3.93-.79Z" clip-rule="evenodd"/><path fill="#FA8C16" fill-rule="evenodd" d="M13.4 34c2.2 0 3.97-1.8 3.97-4h1.97a4 4 0 0 0 3.96 4v2a3.98 3.98 0 0 0-3.96 4h-1.97a4 4 0 0 0-3.96-4v-2Zm3.29 1a6 6 0 0 1 1.67 1.68A6 6 0 0 1 20.02 35a6 6 0 0 1-1.66-1.68A6 6 0 0 1 16.69 35ZM72.7 66c2.18 0 3.95-1.8 3.95-4h1.98a4 4 0 0 0 3.96 4v2a3.98 3.98 0 0 0-3.96 4h-1.98c0-2.2-1.77-4-3.95-4v-2Zm3.28 1a6 6 0 0 1 1.66 1.68A6 6 0 0 1 79.31 67a6 6 0 0 1-1.67-1.68A6 6 0 0 1 75.98 67Z" clip-rule="evenodd"/><path fill="#2F54EB" fill-rule="evenodd" d="M30.85 52.13h-1.98v-2h1.98v2Zm3.95 0h-1.97v-2h1.98v2Zm3.97 0h-1.98v-2h1.98v2Z" clip-rule="evenodd"/></svg>