<svg xmlns="http://www.w3.org/2000/svg" width="96" height="96" fill="none" viewBox="0 0 96 96"><path fill="#2F54EB" fill-rule="evenodd" d="M42 76h10v1h1a4 4 0 0 1-4 4h-3a4 4 0 0 1-4-4v-1Zm8.9 2H44a2 2 0 0 0 1.9 1h3a2 2 0 0 0 1.9-1Zm-.5-8.4H39.9v-2h10.5v2Zm6.2 0h-4.1v-2h4.1v2ZM43 73.8h-4v-2.1h4.2v2Zm12.6 0H45.2v-2.1h10.4v2Z" clip-rule="evenodd"/><path fill="#FA8C16" fill-rule="evenodd" d="M62.6 33.2c.9-.6 1.6-1.3 2.2-2.1.5.8 1.2 1.5 2.1 2-.9.6-1.6 1.3-2.1 2.2a6.8 6.8 0 0 0-2.2-2.1Zm-3.6 1v-2c2.6 0 4.7-2.2 4.7-4.7h2c0 2.5 2.2 4.6 4.8 4.6v2.1a4.7 4.7 0 0 0-4.7 4.6h-2c0-2.5-2.2-4.6-4.8-4.6ZM29.6 56.3c.9-.5 1.6-1.2 2.1-2a7 7 0 0 0 2.2 2c-.9.6-1.6 1.3-2.2 2.1a6.8 6.8 0 0 0-2.1-2Zm3.2 5.7h-2c0-2.5-2.2-4.6-4.8-4.6v-2.1c2.6 0 4.7-2 4.7-4.6h2c0 2.5 2.2 4.6 4.8 4.6v2a4.8 4.8 0 0 0-4.7 4.7Z" clip-rule="evenodd"/><path fill="#2F54EB" fill-rule="evenodd" d="M44.9 31.5h8.6l-2.8 7.7h8L44.3 58.3h-2.9l4-12.5h-6L45 31.5Zm1.4 2-3.8 10.3h5.7L45 53.9l9.6-12.7h-6.9l2.8-7.6h-4.2ZM18 44h6v2h-6v-2Zm60 0h-6v2h6v-2ZM26 22.5l4.3 4.3-1.4 1.4-4.2-4.3 1.4-1.4Zm46.6 0-4.3 4.3 1.4 1.4 4.3-4.3-1.4-1.4ZM47 20v-6h2v6h-2Z" clip-rule="evenodd"/><path fill="#2F54EB" fill-rule="evenodd" d="M48 24a20 20 0 0 0-18.8 26.7v.1l-1.7 1.3A22.1 22.1 0 0 1 48 22a21.9 21.9 0 0 1 14.2 5.2l-1.5 1.5A19.8 19.8 0 0 0 48 24ZM38 63.3c-1.1-.5-2.1-1-3-1.7l1.2-1.7c1 .7 2 1.3 3.2 1.7l.7.3V76h14.8V62.3l.7-.3A18.9 18.9 0 0 0 68 44a20 20 0 0 0-.6-4.9l1.9-1c.5 1.8.8 3.8.8 6a21 21 0 0 1-13 19.6V78H38V63.2Z" clip-rule="evenodd"/></svg>