<svg width="96" height="97" viewBox="0 0 96 97" fill="none" xmlns="http://www.w3.org/2000/svg">
    <path fill-rule="evenodd" clip-rule="evenodd" d="M73.2045 20.2566V18.2567L73.2247 18.2567C76.0433 18.2459 78.3054 15.9882 78.3054 13.2363H80.3054C80.3054 15.9882 82.5676 18.2459 85.3861 18.2567L85.4064 18.2566V20.2566L85.3859 20.2567C82.5674 20.2675 80.3055 22.5252 80.3055 25.277H78.3055C78.3055 22.5252 76.0434 20.2675 73.2249 20.2567L73.2045 20.2566ZM76.857 19.2567C77.8606 18.6601 78.704 17.8251 79.3054 16.8299C79.9069 17.8251 80.7502 18.6601 81.7538 19.2567C80.7502 19.8532 79.9069 20.6882 79.3054 21.6834C78.704 20.6882 77.8606 19.8532 76.857 19.2567Z" fill="#FA8C16"/>
    <path fill-rule="evenodd" clip-rule="evenodd" d="M27.9392 55.8682L27.9198 55.8681C25.1009 55.8784 22.8383 58.1363 22.8383 60.8885H20.8383C20.8383 58.1363 18.5756 55.8784 15.7567 55.8681C15.7502 55.8682 15.7438 55.8682 15.7373 55.8682V53.8682C15.7438 53.8682 15.7502 53.8681 15.7567 53.8681C18.5756 53.8578 20.8382 51.6 20.8382 48.8478H22.8382C22.8382 51.6 25.1009 53.8578 27.9198 53.8681L27.9392 53.8681V55.8682ZM19.3899 54.8681C20.3935 55.4647 21.2368 56.2997 21.8383 57.2948C22.4397 56.2997 23.283 55.4647 24.2867 54.8681C23.283 54.2716 22.4397 53.4366 21.8383 52.4414C21.2368 53.4366 20.3935 54.2716 19.3899 54.8681Z" fill="#FA8C16"/>
    <path fill-rule="evenodd" clip-rule="evenodd" d="M63.9327 18.8345H32.0658L28.1318 23.9487H20.8381V47.3947H22.8381V25.9487H73.1605V69.1916H22.8381V62.5197H20.8381V71.1916H24.772V73.1256H17.0615V78.8613H78.937V73.1256H71.2265V71.1916H75.1605V23.9487H67.8667L63.9327 18.8345ZM65.3434 23.9487L62.9479 20.8345H33.0506L30.655 23.9487H65.3434ZM69.2265 73.1256H26.772V71.1916H69.2265V73.1256ZM76.937 75.1256V76.8613H19.0615V75.1256H76.937Z" fill="#2F54EB"/>
    <path fill-rule="evenodd" clip-rule="evenodd" d="M69.2203 28.6695V66.6386H26.3457V57.4572H27.5246V57.4481H36.591V52.3142H28.3457V52.3322H26.3457V28.6695H69.2203ZM28.3457 64.582V59.4481H36.591V64.582H28.3457ZM57.1539 64.582H38.591V59.4481H57.1539V64.582ZM67.2203 64.582H59.1539V59.4481H67.2203V64.582ZM57.1539 57.4481H38.591V52.3142H57.1539V57.4481ZM59.1539 57.4481H67.2203V52.3142H59.1539V57.4481ZM28.3457 50.3142H36.591V45.1804H28.3457V50.3142ZM38.591 50.3142V45.1804H57.1539V50.3142H38.591ZM67.2203 50.3142V45.1804H59.1539V50.3142H67.2203ZM38.591 38.0465V43.1804H57.1539V38.0465H38.591ZM67.2203 38.0465V43.1804H59.1539V38.0465H67.2203ZM28.3457 43.1804H36.591V38.0465H28.3457V43.1804ZM38.591 30.9126V36.0465H57.1539V30.9126H38.591ZM59.1539 30.9126H67.2203V36.0465H59.1539V30.9126ZM28.3457 30.9126H36.591V36.0465H28.3457V30.9126Z" fill="#2F54EB"/>
</svg>
