<svg xmlns="http://www.w3.org/2000/svg" width="97" height="96" fill="none"><path fill="#2F54EB" fill-rule="evenodd" d="M80.206 19H35.853v4.143H16.794v8.25h2v-6.25h41.412V77H18.794V45.893h-2V79h45.412v-6.214h18v-8.25h-2v6.25h-16V66.57h6.647a5 5 0 0 0 5-5v-1.178h-2v1.178a3 3 0 0 1-3 3h-6.647V48.964h6.647a3 3 0 0 1 3 3v2.215h2v-2.215a5 5 0 0 0-5-5h-6.647v-3.178h6.647a5 5 0 0 0 5-5v-8.572a5 5 0 0 0-5-5h-6.647v-2.071H37.853V21h40.353v29.036h2V19Zm-18 22.786V27.214h6.647a3 3 0 0 1 3 3v8.572a3 3 0 0 1-3 3h-6.647Z" clip-rule="evenodd"/><path fill="#2F54EB" fill-rule="evenodd" d="M27.383 34.536h24.235v7.214h-2v-5.214H29.383v29.071h20.235V51.071h2v16.536H27.383V34.536Zm22.235 13.687v-3.366h2v3.366h-2Z" clip-rule="evenodd"/><path fill="#2F54EB" fill-rule="evenodd" d="M56.912 29.357H22.09v6.179h2v-4.179h30.823v39.429H24.09V41.75h-2v31.036h34.823V29.357Z" clip-rule="evenodd"/><path fill="#FA8C16" fill-rule="evenodd" d="M18.853 33.464c0 2.287 1.898 4.143 4.235 4.143v2.072c-2.337 0-4.235 1.856-4.235 4.142h-2.118c0-2.286-1.897-4.142-4.235-4.142v-2.072c2.338 0 4.235-1.856 4.235-4.143h2.118ZM17.794 36.9a6.326 6.326 0 0 1-1.782 1.744 6.325 6.325 0 0 1 1.782 1.743 6.322 6.322 0 0 1 1.783-1.743 6.324 6.324 0 0 1-1.783-1.744Zm62.471 15.207c0 2.287 1.898 4.143 4.235 4.143v2.071c-2.337 0-4.235 1.857-4.235 4.143h-2.118c0-2.286-1.897-4.143-4.235-4.143V56.25c2.338 0 4.235-1.856 4.235-4.143h2.118Zm-1.059 3.435a6.325 6.325 0 0 1-1.782 1.744 6.326 6.326 0 0 1 1.782 1.743 6.324 6.324 0 0 1 1.783-1.743 6.322 6.322 0 0 1-1.783-1.744Z" clip-rule="evenodd"/><path fill="#2F54EB" fill-rule="evenodd" d="m29.082 67.322-4.236 4.143-1.398-1.43 4.235-4.143 1.399 1.43Zm0-32.502-4.236-4.142-1.398 1.43 4.235 4.143 1.399-1.43Zm26.471 35.215-4.236-4.143-1.398 1.43 4.235 4.143 1.398-1.43Zm0-37.927-4.236 4.143-1.398-1.43 4.235-4.143 1.398 1.43Z" clip-rule="evenodd"/></svg>