<svg width="97" height="96" viewBox="0 0 97 96" fill="none" xmlns="http://www.w3.org/2000/svg"><path d="M85.335 76.8496H11.415" stroke="#2F54EB" stroke-width="2" stroke-miterlimit="10"></path><path d="M51.7949 33.5312C51.7949 36.2912 49.5549 38.5312 46.7949 38.5312" stroke="#FA8C16" stroke-width="2" stroke-miterlimit="10"></path><path d="M56.7949 38.5312C54.0349 38.5312 51.7949 36.2912 51.7949 33.5312" stroke="#FA8C16" stroke-width="2" stroke-miterlimit="10"></path><path d="M51.7949 43.5312C51.7949 40.7713 49.5549 38.5312 46.7949 38.5312" stroke="#FA8C16" stroke-width="2" stroke-miterlimit="10"></path><path d="M56.7949 38.5312C54.0349 38.5312 51.7949 40.7713 51.7949 43.5312" stroke="#FA8C16" stroke-width="2" stroke-miterlimit="10"></path><path d="M29.9453 19.1504C29.9453 21.9104 27.7053 24.1504 24.9453 24.1504" stroke="#FA8C16" stroke-width="2" stroke-miterlimit="10"></path><path d="M34.9453 24.1504C32.1853 24.1504 29.9453 21.9104 29.9453 19.1504" stroke="#FA8C16" stroke-width="2" stroke-miterlimit="10"></path><path d="M29.9453 29.1504C29.9453 26.3904 27.7053 24.1504 24.9453 24.1504" stroke="#FA8C16" stroke-width="2" stroke-miterlimit="10"></path><path d="M34.9453 24.1504C32.1853 24.1504 29.9453 26.3904 29.9453 29.1504" stroke="#FA8C16" stroke-width="2" stroke-miterlimit="10"></path><path d="M39.335 52.8613V45.8613C39.335 44.2013 40.675 42.8613 42.335 42.8613C43.995 42.8613 45.335 44.2013 45.335 45.8613V46.8613" stroke="#2F54EB" stroke-width="2" stroke-miterlimit="10"></path><path d="M43.335 49.8613V52.8613" stroke="#2F54EB" stroke-width="2" stroke-miterlimit="10"></path><path d="M35.335 49.8613V52.8613" stroke="#2F54EB" stroke-width="2" stroke-miterlimit="10"></path><path d="M64.585 53.8496V71.8496" stroke="#2F54EB" stroke-width="2" stroke-miterlimit="10"></path><path d="M35.3349 71.4805L34.5449 73.8505V75.8505" stroke="#2F54EB" stroke-width="2" stroke-miterlimit="10"></path><path d="M76.7949 71.4805L77.5849 73.8505V75.8505" stroke="#2F54EB" stroke-width="2" stroke-miterlimit="10"></path><path d="M55.6049 71.8496V73.8496L64.6049 71.8496H73.2549C75.9149 71.8496 78.3349 70.3496 79.5149 67.9796L83.5849 55.8496V53.8496H64.5849L55.6049 55.8496V71.8496H50.5449V53.8496H46.5449H28.5449V55.8496L32.6049 67.9796C33.7949 70.3496 36.2149 71.8496 38.8649 71.8496H51.5449" stroke="#2F54EB" stroke-width="2" stroke-miterlimit="10"></path><path d="M59.2051 59.6211V63.0211" stroke="#2F54EB" stroke-width="2" stroke-miterlimit="10"></path><path d="M59.2051 64.791V66.761" stroke="#2F54EB" stroke-width="2" stroke-miterlimit="10"></path><path d="M11.415 54.8496H23.415V56.6796C20.665 60.3496 15.535 62.1796 11.415 62.1796" stroke="#2F54EB" stroke-width="2" stroke-miterlimit="10"></path><path d="M12.415 53.8496V49.8496L13.415 48.8496H16.415V51.8496" stroke="#2F54EB" stroke-width="2" stroke-miterlimit="10"></path><path d="M19.415 50.8496H23.415V35.8496C23.415 29.7696 17.485 24.8496 11.415 24.8496H12.415" stroke="#2F54EB" stroke-width="2" stroke-miterlimit="10"></path><path d="M14.415 61.8496V63.8496L15.415 75.8496V76.8496" stroke="#2F54EB" stroke-width="2" stroke-miterlimit="10"></path></svg>