<svg width="97" height="96" viewBox="0 0 97 96" fill="none" xmlns="http://www.w3.org/2000/svg">
<path d="M85.437 19.0059H12.062V76.9945H85.437V19.0059Z" stroke="#2F54EB" stroke-width="2" stroke-miterlimit="10"/>
<path d="M54.7749 49.9433V42.8306" stroke="#2F54EB" stroke-width="2" stroke-miterlimit="10"/>
<path d="M54.7749 53.4317V51.5952" stroke="#2F54EB" stroke-width="2" stroke-miterlimit="10"/>
<path d="M78.6421 67.125V70.2049H51.1509V25.8052H78.6421V55.4141" stroke="#2F54EB" stroke-width="2" stroke-miterlimit="10"/>
<path d="M83.5655 61.2652C80.8478 61.2652 78.6421 59.0886 78.6421 56.4067" stroke="#FA8C16" stroke-width="2" stroke-miterlimit="10"/>
<path d="M78.6417 56.4067C78.6417 59.0886 76.436 61.2652 73.7183 61.2652" stroke="#FA8C16" stroke-width="2" stroke-miterlimit="10"/>
<path d="M83.5655 61.2651C80.8478 61.2651 78.6421 63.4417 78.6421 66.1236" stroke="#FA8C16" stroke-width="2" stroke-miterlimit="10"/>
<path d="M78.6417 66.1236C78.6417 63.4418 76.436 61.2652 73.7183 61.2652" stroke="#FA8C16" stroke-width="2" stroke-miterlimit="10"/>
<path d="M18.8637 28.8853V25.8053H46.355V70.2051H18.8637V40.5962" stroke="#2F54EB" stroke-width="2" stroke-miterlimit="10"/>
<path d="M13.9404 34.7451C16.6581 34.7451 18.8638 36.9217 18.8638 39.6035" stroke="#FA8C16" stroke-width="2" stroke-miterlimit="10"/>
<path d="M18.8642 39.6035C18.8642 36.9217 21.0699 34.7451 23.7876 34.7451" stroke="#FA8C16" stroke-width="2" stroke-miterlimit="10"/>
<path d="M13.9404 34.7451C16.6581 34.7451 18.8638 32.5685 18.8638 29.8867" stroke="#FA8C16" stroke-width="2" stroke-miterlimit="10"/>
<path d="M18.8642 29.8866C18.8642 32.5685 21.0699 34.7451 23.7876 34.7451" stroke="#FA8C16" stroke-width="2" stroke-miterlimit="10"/>
<path d="M42.8394 49.9433V42.8306" stroke="#2F54EB" stroke-width="2" stroke-miterlimit="10"/>
<path d="M42.8394 53.4317V51.5952" stroke="#2F54EB" stroke-width="2" stroke-miterlimit="10"/>
<path d="M69.0396 35.7373L78.9722 25.8047" stroke="#2F54EB" stroke-width="2"/>
<path d="M28.7964 60.2725L18.8638 70.2051" stroke="#2F54EB" stroke-width="2"/>
<path d="M68.2856 42.3252L75.0037 35.6072" stroke="#2F54EB" stroke-width="2"/>
<path d="M29.5503 53.6855L22.8323 60.4036" stroke="#2F54EB" stroke-width="2"/>
<line x1="65.3696" y1="39.4081" x2="67.6524" y2="37.1253" stroke="#2F54EB" stroke-width="2"/>
<line x1="32.4664" y1="56.6026" x2="30.1836" y2="58.8854" stroke="#2F54EB" stroke-width="2"/>
</svg>
