<svg width="199" height="423" viewBox="0 0 199 423" fill="none" xmlns="http://www.w3.org/2000/svg">
<g clip-path="url(#clip0_221_12048)">
<path d="M160.927 365.253C160.927 364.906 157.644 351.699 156.46 350.605C155.276 349.511 142.011 349.778 141.177 350.525C140.343 351.272 136.522 365.44 136.522 365.44L139.993 365.36C139.993 365.36 142.28 356.902 143.195 355.808C144.11 354.714 153.07 355.141 154.092 355.381C155.115 355.621 157.375 365.68 157.375 365.68L160.927 365.253Z" fill="#2C6BC4"/>
<path d="M157.563 365.253C157.563 364.906 154.281 351.699 153.097 350.605C151.913 349.511 138.648 349.778 137.814 350.525C136.98 351.272 133.159 365.44 133.159 365.44L136.63 365.36C136.63 365.36 138.917 356.902 139.832 355.808C140.747 354.714 149.707 355.141 150.729 355.381C151.751 355.621 154.012 365.68 154.012 365.68L157.563 365.253Z" fill="#2431A0"/>
<path d="M193.43 382.676L193.08 384.57L192.811 386.011L186.972 417.361C186.38 420.616 183.501 422.964 180.165 422.964H117.957C117.069 422.964 116.181 422.778 115.401 422.484C113.249 421.63 111.58 419.736 111.15 417.361L105.311 386.011L105.042 384.544L104.692 382.676H193.43Z" fill="#2431A0"/>
<path d="M152.666 382.676L156.218 417.335C156.567 420.59 158.128 422.938 159.958 422.938H180.137C183.474 422.938 186.353 420.59 186.945 417.335L193.402 382.676H152.666Z" fill="#2C6BC4"/>
<path d="M132.675 380.594L138.029 414.026C138.271 415.626 139.67 416.8 141.312 416.8C141.5 416.8 141.662 416.8 141.823 416.747C143.599 416.48 144.863 414.799 144.594 412.985L139.401 380.568H132.675V380.594Z" fill="#2A42B8"/>
<path d="M133.67 380.594L139.024 414.026C139.24 415.466 140.37 416.534 141.796 416.747C143.571 416.48 144.836 414.799 144.567 412.985L139.374 380.568H133.67V380.594Z" fill="#1B2578"/>
<path d="M113.194 380.594L118.549 414.026C118.791 415.626 120.19 416.8 121.831 416.8C122.02 416.8 122.181 416.8 122.342 416.747C124.118 416.48 125.383 414.799 125.114 412.985L119.921 380.568H113.194V380.594Z" fill="#2A42B8"/>
<path d="M114.217 380.594L119.571 414.026C119.786 415.466 120.916 416.534 122.343 416.747C124.118 416.48 125.383 414.799 125.114 412.985L119.921 380.568H114.217V380.594Z" fill="#1B2578"/>
<path d="M165.473 417.201C165.661 417.254 165.85 417.254 166.065 417.254C167.356 417.254 168.352 416.293 168.406 415.039L169.778 380.034H164.773L163.428 414.559C163.374 415.813 164.289 416.934 165.473 417.201Z" fill="#1F4E91"/>
<path d="M165.473 417.201C166.468 416.961 167.222 416.107 167.276 415.039L168.648 380.034H164.773L163.428 414.559C163.374 415.813 164.289 416.934 165.473 417.201Z" fill="#245CAB"/>
<path d="M177.904 417.201C178.092 417.254 178.28 417.254 178.469 417.254C179.76 417.254 180.89 416.293 181.079 415.039L186.729 380.034H181.724L176.155 414.559C175.94 415.813 176.72 416.934 177.904 417.201Z" fill="#1F4E91"/>
<path d="M177.904 417.201C178.926 416.961 179.787 416.107 179.949 415.039L185.599 380.034H181.724L176.155 414.559C175.94 415.813 176.72 416.934 177.904 417.201Z" fill="#245CAB"/>
<path opacity="0.4" d="M193.43 382.676L192.811 385.984H105.311L104.692 382.676H193.43Z" fill="#2431A0"/>
<path d="M101.194 376.752L101.732 379.394L102.271 382.035C102.567 383.503 103.858 384.543 105.338 384.543H193.483C194.99 384.543 196.281 383.503 196.55 382.035L197.089 379.394L197.627 376.752H101.194Z" fill="#F97314"/>
<path d="M148.979 376.752L150.056 382.035C150.352 383.503 151.643 384.543 153.123 384.543H193.483C194.989 384.543 196.281 383.503 196.55 382.035L197.626 376.752H148.979Z" fill="#FAAC37"/>
<path opacity="0.5" d="M101.194 376.752L101.732 379.421H197.142L197.681 376.752H101.194Z" fill="#F97314"/>
<path d="M196.766 375.525H101.437L101.598 374.965L102.002 373.577L103.966 366.96C104.342 365.68 105.526 364.799 106.872 364.799H191.331C192.676 364.799 193.86 365.68 194.237 366.96L196.201 373.577L196.604 374.965L196.766 375.525Z" fill="#F97314"/>
<path d="M148.979 375.525H196.765L194.209 366.96C193.832 365.68 192.648 364.799 191.303 364.799H154.441C153.096 364.799 151.912 365.68 151.536 366.96L148.979 375.525Z" fill="#FAAC37"/>
<path opacity="0.5" d="M101.437 375.525H196.766L196.201 373.577H102.028L101.437 375.525Z" fill="#F97314"/>
<path d="M99.499 376.592C99.499 377.5 100.225 378.22 101.14 378.22H197.277C198.191 378.22 198.945 377.5 198.945 376.592C198.945 375.685 198.218 374.965 197.277 374.965H101.14C100.225 374.965 99.499 375.685 99.499 376.592Z" fill="#FF8D14"/>
<path d="M147.419 376.592C147.419 377.5 148.145 378.22 149.06 378.22H197.276C198.191 378.22 198.945 377.5 198.945 376.592C198.945 375.685 198.218 374.965 197.276 374.965H149.06C148.145 374.965 147.419 375.685 147.419 376.592Z" fill="#FABC37"/>
<path d="M140.827 370.136H132.54C132.54 370.136 130.441 377.793 131.544 380.301C132.109 381.582 140.262 380.861 140.262 380.861C140.262 380.861 139.831 379.527 139.697 376.966C139.562 374.405 140.827 370.136 140.827 370.136Z" fill="#1B2578"/>
<path opacity="0.4" d="M133.428 373.311H138.11C138.379 373.311 138.567 373.097 138.567 372.857C138.567 372.617 138.352 372.403 138.11 372.403H133.428C133.159 372.403 132.971 372.617 132.971 372.857C132.971 373.097 133.159 373.311 133.428 373.311Z" fill="#1B2578"/>
<g opacity="0.4">
<path opacity="0.4" d="M133.159 375.792H137.84C138.109 375.792 138.298 375.578 138.298 375.338C138.298 375.071 138.082 374.885 137.84 374.885H133.159C132.89 374.885 132.701 375.098 132.701 375.338C132.701 375.578 132.89 375.792 133.159 375.792Z" fill="#1B2578"/>
</g>
<g opacity="0.4">
<path opacity="0.4" d="M133.051 378.327H137.733C138.002 378.327 138.19 378.113 138.19 377.873C138.19 377.606 137.975 377.419 137.733 377.419H133.051C132.782 377.419 132.594 377.633 132.594 377.873C132.594 378.113 132.782 378.327 133.051 378.327Z" fill="#1B2578"/>
</g>
<path d="M118.414 370.136H110.127C110.127 370.136 108.028 377.793 109.131 380.301C109.696 381.582 117.849 380.861 117.849 380.861C117.849 380.861 117.418 379.527 117.284 376.966C117.149 374.405 118.414 370.136 118.414 370.136Z" fill="#1B2578"/>
<path opacity="0.4" d="M111.015 373.311H115.697C115.966 373.311 116.154 373.097 116.154 372.857C116.154 372.617 115.939 372.403 115.697 372.403H111.015C110.746 372.403 110.558 372.617 110.558 372.857C110.558 373.097 110.746 373.311 111.015 373.311Z" fill="#1B2578"/>
<g opacity="0.4">
<path opacity="0.4" d="M110.745 375.792H115.427C115.696 375.792 115.885 375.578 115.885 375.338C115.885 375.071 115.669 374.885 115.427 374.885H110.745C110.476 374.885 110.288 375.098 110.288 375.338C110.288 375.578 110.503 375.792 110.745 375.792Z" fill="#1B2578"/>
</g>
<g opacity="0.4">
<path opacity="0.4" d="M110.638 378.327H115.32C115.589 378.327 115.777 378.113 115.777 377.873C115.777 377.606 115.562 377.419 115.32 377.419H110.638C110.369 377.419 110.181 377.633 110.181 377.873C110.181 378.113 110.369 378.327 110.638 378.327Z" fill="#1B2578"/>
</g>
<path opacity="0.6" d="M156.352 422.938H117.956C117.069 422.938 116.181 422.751 115.4 422.457L117.284 406.022L117.714 402.26L119.571 386.011L119.732 384.57L119.948 382.676L120.082 381.502L120.324 379.421L120.459 378.22L120.62 376.753L120.782 375.499L120.835 374.938L120.997 373.551L121.992 364.773H132.271L132.109 371.897L132.082 373.551L132.055 374.938V375.499L132.029 376.753L132.002 378.22L131.975 379.421L131.948 380.648L131.921 382.676L131.867 384.57L131.84 386.011L131.625 396.123L136.791 412.825C136.791 412.825 137.195 412.745 137.84 412.612C138.109 412.559 138.459 412.479 138.836 412.425C140.289 412.158 142.334 411.785 144.379 411.545C146.935 411.251 149.464 411.144 150.702 411.625C153.15 412.559 155.518 420.083 156.352 422.938Z" fill="#1E2986"/>
<path d="M165.93 181.634C165.93 181.634 159.473 192.813 154.146 201.378L154.119 201.404C151.697 205.327 149.491 208.688 148.28 210.183C144.378 214.958 138.056 211.116 138.056 211.116C138.056 211.116 130.576 187.023 127.912 172.829C127.535 170.881 127.266 169.12 127.105 167.653C126.782 164.611 127.185 160.476 127.993 155.94C130.441 142.039 136.549 124.51 136.549 124.51C139.751 127.871 142.71 133.394 144.19 138.544C145.24 142.199 147.796 156.954 149.571 168.907C150.298 173.816 150.917 178.272 151.24 181.26C156.459 178.192 162.944 175.551 162.944 175.551L165.93 181.634Z" fill="#FFC29E"/>
<path d="M149.598 168.907C142.064 172.509 131.786 172.829 127.938 172.829C127.723 171.762 127.562 170.775 127.427 169.841C127.293 169.04 127.212 168.32 127.131 167.653C125.84 155.326 136.575 124.51 136.575 124.51C139.777 127.871 142.737 133.394 144.217 138.544C145.212 141.932 147.446 154.819 149.194 166.185C149.329 167.119 149.464 168 149.598 168.907Z" fill="#DBE0F2"/>
<path d="M149.599 168.907C142.065 172.508 131.787 172.829 127.939 172.829C127.724 171.761 127.562 170.774 127.428 169.84C132.594 169.467 142.737 168.506 149.195 166.185C149.329 167.119 149.464 167.999 149.599 168.907Z" fill="#E3E9FF"/>
<path opacity="0.3" d="M154.119 201.405C151.697 205.327 149.491 208.689 148.28 210.183C144.378 214.959 138.056 211.117 138.056 211.117C138.056 211.117 130.576 187.024 127.912 172.829C127.535 170.882 127.266 169.121 127.105 167.653C126.782 164.612 127.185 160.476 127.993 155.94C130.253 151.004 132.271 147.402 132.271 147.402C132.271 147.402 136.522 164.292 137.087 169.334C137.679 174.377 140.127 182.995 141.284 189.905C142.441 196.816 141.876 205.727 143.302 209.463C144.298 211.917 150.217 205.781 154.119 201.405Z" fill="#9E6CA1"/>
<path d="M140.074 234.356C140.074 234.356 148.011 239.105 149.383 242.894C150.755 246.682 149.921 266.346 149.114 268.374C148.307 270.402 145.159 269.601 145.159 269.601L136.011 248.737L140.074 234.356Z" fill="#4A2206"/>
<path d="M140.369 244.521C140.369 244.521 146.53 248.176 147.741 250.338C148.952 252.499 144.19 291.827 143.086 294.655C141.983 297.51 134.342 299.404 134.342 299.404L140.369 244.521Z" fill="#5E2B07"/>
<path d="M106.871 412.158L106.494 420.136L118.602 421.443L119.355 417.494C119.355 417.494 123.042 420.509 125.14 421.336C127.212 422.19 152.881 420.109 152.881 420.109C152.881 420.109 151.266 415.787 148.71 414.292C146.154 412.798 142.468 414.959 137.436 414.773C132.405 414.586 124.952 406.422 124.952 406.422L106.871 412.158Z" fill="#8A3F0B"/>
<path d="M105.364 418.428V422.937H119.921L119.732 420.216L105.364 418.428Z" fill="#5E2B07"/>
<path d="M119.355 417.494C119.355 417.494 123.526 419.548 125.974 420.135C128.423 420.696 153.823 417.974 153.823 417.974V422.937C153.823 422.937 131.087 422.937 127.696 422.937C124.306 422.937 119.355 417.494 119.355 417.494Z" fill="#5E2B07"/>
<path d="M150.164 416.827C150.11 416.587 148.549 414.88 147.15 414.506C145.724 414.133 138.836 415.6 138.836 415.6C138.836 415.6 145.428 415.173 146.989 415.467C148.495 415.787 150.164 416.827 150.164 416.827Z" fill="#B0500E"/>
<path d="M136.36 414.506L132.62 416.454L131.894 415.76L134.988 413.973L136.36 414.506Z" fill="#5E2B07"/>
<path d="M132.89 412.772L129.769 414.533L128.935 413.866L131.733 412.185L132.89 412.772Z" fill="#5E2B07"/>
<path d="M47.7843 412.158L48.1609 420.136L36.0531 421.443L35.2997 417.494C35.2997 417.494 31.6135 420.509 29.5149 421.336C27.4431 422.19 1.77441 420.109 1.77441 420.109C1.77441 420.109 3.38879 415.787 5.9449 414.292C8.501 412.798 12.1872 414.959 17.2187 414.773C22.2501 414.586 29.7032 406.422 29.7032 406.422L47.7843 412.158Z" fill="#8A3F0B"/>
<path d="M49.3186 418.428V422.937H34.7354L34.9237 420.216L49.3186 418.428Z" fill="#5E2B07"/>
<path d="M35.3 417.494C35.3 417.494 31.1296 419.548 28.6811 420.135C26.2057 420.696 0.833008 417.974 0.833008 417.974V422.937C0.833008 422.937 23.5689 422.937 26.9591 422.937C30.3493 422.937 35.3 417.494 35.3 417.494Z" fill="#5E2B07"/>
<path d="M4.49219 416.827C4.546 416.587 6.10657 414.88 7.5057 414.506C8.90483 414.133 15.8198 415.6 15.8198 415.6C15.8198 415.6 9.2277 415.173 7.66714 415.467C6.10657 415.76 4.49219 416.827 4.49219 416.827Z" fill="#B0500E"/>
<path d="M18.2949 414.506L22.0349 416.454L22.7614 415.76L19.6671 413.973L18.2949 414.506Z" fill="#5E2B07"/>
<path d="M21.7666 412.772L24.9146 414.533L25.7218 413.866L22.9236 412.185L21.7666 412.772Z" fill="#5E2B07"/>
<path d="M54.6725 158.742C54.6725 158.742 68.2602 184.329 69.2288 199.724C69.2558 200.284 69.3903 200.791 69.5786 201.272C74.8523 213.812 135.58 196.842 135.58 196.842C135.58 196.842 135.849 192.76 135.661 186.037C135.58 182.995 135.418 179.393 135.096 175.391C134.504 167.92 133.992 158.715 132.27 147.402C134.611 139.718 139.67 129.313 136.575 124.51C134.504 121.308 120.432 113.144 111.31 108.048C110.207 107.434 109.185 106.874 108.27 106.367C105.337 104.766 103.4 103.726 103.4 103.726L100.09 87.1832L75.0675 79.4724L75.6595 101.031C75.6595 101.031 72.6998 102.445 68.3678 104.659C67.3454 105.166 66.2691 105.753 65.1122 106.34C54.7532 111.757 40.4929 120.641 36.4569 125.978C31.264 132.835 54.6725 158.742 54.6725 158.742Z" fill="#E6E9F4"/>
<path opacity="0.7" d="M52.2783 153.272C57.2829 157.515 67.1306 169.468 68.7988 171.309C70.467 173.15 72.5119 162.851 72.5119 159.169C72.5119 155.487 54.673 120.695 54.673 120.695C54.673 120.695 59.3278 117.386 59.6776 117.92C60.0543 118.48 79.9111 161.73 79.9111 161.73L70.4401 183.102L52.2783 153.272Z" fill="#C1CCD6"/>
<path opacity="0.7" d="M117.687 112.29C117.687 113.064 113.57 144.894 112.467 146.468C111.364 148.043 80.0449 148.496 80.0449 148.496L84.7804 158.848L116.88 151.805L117.687 112.29Z" fill="#C1CCD6"/>
<path d="M65.085 106.34C73.7757 111.65 92.0989 119.52 111.283 108.021C110.18 107.407 109.158 106.847 108.243 106.34C105.31 104.739 103.373 103.699 103.373 103.699L100.063 87.1563L75.0403 79.4454L75.6322 101.004C75.6322 101.004 72.6725 102.418 68.3406 104.632C67.3182 105.193 66.2419 105.753 65.085 106.34Z" fill="#E3E9FF"/>
<path d="M70.6016 235.503L74.5837 235.903L75.5254 236.01L141.042 242.627C141.042 242.627 141.015 241.346 140.989 239.185C140.8 230.22 140.181 206.1 138.917 195.881C137.841 187.183 131.518 169.734 127.051 158.981C125.598 155.433 124.334 152.631 123.526 151.084C123.203 150.47 122.961 150.07 122.8 149.883C122.316 149.35 118.441 149.189 113.114 149.216C104.208 149.296 91.158 149.937 83.0592 150.417C78.5928 150.657 75.6331 150.844 75.6331 150.844C75.6331 150.844 75.364 154.206 74.8259 159.195C73.9649 166.932 72.3774 178.565 69.9827 187.824C69.9827 187.85 69.9558 187.877 69.9558 187.904C69.7675 188.571 69.606 189.238 69.4446 189.878C69.4177 190.038 69.3639 190.172 69.3101 190.332C67.7495 196.362 66.6463 200.897 66.5118 201.831C66.1351 205.113 70.6016 235.503 70.6016 235.503Z" fill="url(#paint0_linear_221_12048)"/>
<path opacity="0.5" d="M112.629 155.94C112.629 158.368 114.539 160.449 117.122 160.796C120.109 161.196 122.826 159.142 123.069 156.314L123.499 151.111C123.176 150.497 122.934 150.097 122.773 149.91C122.288 149.377 118.414 149.216 113.086 149.243L112.629 155.593C112.629 155.7 112.629 155.807 112.629 155.94Z" fill="#0D2364"/>
<path d="M127.616 114.477L124.172 155.753C123.93 158.581 121.212 160.609 118.226 160.235C115.508 159.888 113.544 157.621 113.732 155.032L117.095 109.461L127.616 114.477Z" fill="url(#paint1_linear_221_12048)"/>
<path opacity="0.5" d="M74.7988 159.222L76.2249 161.783C77.2742 163.677 79.2384 164.718 81.2295 164.718C82.2519 164.718 83.2743 164.451 84.2161 163.864C86.7991 162.29 87.687 159.008 86.234 156.367L83.0053 150.417C78.5388 150.657 75.5791 150.844 75.5791 150.844C75.5791 150.844 75.3639 154.232 74.7988 159.222Z" fill="#0D2364"/>
<path d="M60.6191 106.927L86.6376 154.899C88.0636 157.541 87.1757 160.822 84.5927 162.397C81.8214 164.104 78.1621 163.144 76.6015 160.315L50.2871 113.01L60.6191 106.927Z" fill="url(#paint2_linear_221_12048)"/>
<path opacity="0.5" d="M120.056 149.616C120.594 154.685 118.845 158.207 118.845 158.207C118.845 158.207 117.769 154.098 120.056 149.616Z" fill="#0A163C"/>
<path opacity="0.5" d="M79.4805 154.099C82.8438 157.194 83.5702 160.716 83.5702 160.716C83.5702 160.716 80.3415 158.608 79.4805 154.099Z" fill="#0A163C"/>
<path d="M115.132 163.518L121.589 201.005L116.02 201.031L111.096 163.464L115.132 163.518Z" fill="#753131"/>
<path d="M120.755 164.264L121.454 170.161L109.965 170.454L104.826 169.2C103.938 168.987 103.642 167.866 104.369 167.413L108.782 164.664L120.755 164.264Z" fill="#C1CCD6"/>
<path d="M92.0729 182.994L98.5573 182.434L95.5707 166.479C95.2479 164.825 93.5528 163.597 91.7769 163.757C89.9742 163.917 88.7903 165.385 89.0863 167.039L92.0729 182.994Z" fill="#FFA001"/>
<path d="M94.2522 167.546C94.6827 167.52 95.0863 167.786 95.1401 168.187L97.8307 182.541L96.2971 182.674L93.6064 168.32C93.5526 167.92 93.8217 167.573 94.2522 167.546Z" fill="#C4611A"/>
<path d="M91.3196 167.759C91.7501 167.733 92.1537 167.999 92.2075 168.4L94.8981 182.754L93.3644 182.887L90.6738 168.533C90.62 168.133 90.8891 167.786 91.3196 167.759Z" fill="#C4611A"/>
<path d="M74.5025 235.263L74.5832 235.903L75.5249 236.01L75.4442 235.156L74.5025 235.263ZM74.0451 231.501L74.2603 233.395L75.2021 233.288L74.9868 231.394L74.0451 231.501ZM73.6146 227.712L73.8298 229.606L74.7447 229.499L74.5294 227.605L73.6146 227.712ZM73.1841 223.923L73.3993 225.818L74.3142 225.711L74.0989 223.816L73.1841 223.923ZM72.7536 220.161L72.9688 222.055L73.8837 221.949L73.6684 220.054L72.7536 220.161ZM72.3231 216.372L72.5383 218.267L73.4532 218.16L73.2379 216.266L72.3231 216.372ZM71.8657 212.584L72.0809 214.478L73.0227 214.371L72.8074 212.477L71.8657 212.584ZM71.4352 208.822L71.6504 210.716L72.5652 210.609L72.35 208.715L71.4352 208.822ZM71.0047 205.033L71.2199 206.927L72.1347 206.821L71.9195 204.926L71.0047 205.033ZM70.5742 201.271L70.7894 203.139L71.7042 203.032L71.489 201.137L70.5742 201.271ZM70.1437 197.482L70.3589 199.377L71.2737 199.27L71.0585 197.375L70.1437 197.482ZM69.6863 193.72L69.9015 195.614L70.8432 195.508L70.628 193.613L69.6863 193.72ZM69.3096 190.358L69.4979 191.826L70.4127 191.719L70.1975 189.825L69.4172 189.905C69.3903 190.065 69.3634 190.198 69.3096 190.358ZM69.9284 187.93H69.9553V187.85C69.9553 187.877 69.9284 187.904 69.9284 187.93Z" fill="#1890FF"/>
<path d="M81.3911 159.568C82.6691 159.568 83.705 158.541 83.705 157.274C83.705 156.007 82.6691 154.979 81.3911 154.979C80.1131 154.979 79.0771 156.007 79.0771 157.274C79.0771 158.541 80.1131 159.568 81.3911 159.568Z" fill="#FA8C16"/>
<path d="M119.221 156.5C120.499 156.5 121.535 155.473 121.535 154.206C121.535 152.938 120.499 151.911 119.221 151.911C117.943 151.911 116.907 152.938 116.907 154.206C116.907 155.473 117.943 156.5 119.221 156.5Z" fill="#FA8C16"/>
<path d="M106.736 174.27L111.768 202.765L112.979 202.712L114.028 202.685L125.759 202.365L122.826 174.163H121.669H120.62L109.05 174.243H108.001L106.736 174.27Z" fill="#1890FF"/>
<path d="M85.4805 174.403L92.1801 203.299L93.364 203.272L94.4134 203.246L106.979 202.899L101.517 174.297H100.36H99.3103L88.0366 174.377H86.9872H86.9603L85.4805 174.403Z" fill="#1890FF"/>
<path d="M122.503 182.755L121.454 182.781L121.266 180.94L122.315 180.914L122.503 182.755Z" fill="#1A3BBD"/>
<path d="M122.853 186.463H121.831L121.643 184.622L122.665 184.596L122.853 186.463Z" fill="#1A3BBD"/>
<path d="M122.127 179.072L121.104 179.099L120.916 177.258L121.965 177.231L122.127 179.072Z" fill="#1A3BBD"/>
<path d="M120.62 174.163L120.728 175.391H121.777L121.669 174.163H120.62Z" fill="#1A3BBD"/>
<path d="M123.23 190.145H122.181L121.992 188.304H123.042L123.23 190.145Z" fill="#1A3BBD"/>
<path d="M124.361 201.191H123.311L123.123 199.35H124.145L124.361 201.191Z" fill="#1A3BBD"/>
<path d="M123.957 197.509H122.934L122.746 195.668H123.769L123.957 197.509Z" fill="#1A3BBD"/>
<path d="M123.58 193.827H122.557L122.369 191.986H123.419L123.58 193.827Z" fill="#1A3BBD"/>
<path d="M108.001 174.243L108.243 175.657L109.266 175.577L109.05 174.243H108.001Z" fill="#FA8C16"/>
<path d="M111.311 187.237L110.288 187.318L109.938 185.37L110.988 185.29L111.311 187.237Z" fill="#1A3BBD"/>
<path d="M112.01 191.133L110.961 191.213L110.638 189.265L111.66 189.185L112.01 191.133Z" fill="#1A3BBD"/>
<path d="M109.965 179.473L108.916 179.553L108.593 177.605L109.615 177.525L109.965 179.473Z" fill="#FA8C16"/>
<path d="M112.683 195.028L111.633 195.108L111.311 193.16L112.333 193.08L112.683 195.028Z" fill="#1A3BBD"/>
<path d="M110.638 183.368L109.615 183.421L109.266 181.5L110.288 181.42L110.638 183.368Z" fill="#1A3BBD"/>
<path d="M113.356 198.923L112.333 199.003L111.983 197.056L113.006 196.976L113.356 198.923Z" fill="#1A3BBD"/>
<path d="M112.656 200.951L112.979 202.712L114.028 202.685L113.706 200.871L112.656 200.951Z" fill="#1A3BBD"/>
<path d="M100.037 178.032L101.06 177.926L101.409 179.847L100.387 179.927L100.037 178.032Z" fill="#FA8C16"/>
<path d="M99.3105 174.297L99.6603 176.111L100.683 176.004L100.36 174.297H99.3105Z" fill="#FA8C16"/>
<path d="M105.042 199.003L104.019 199.083L103.643 197.162L104.692 197.082L105.042 199.003Z" fill="#1A3BBD"/>
<path d="M102.862 187.504L101.84 187.611L101.49 185.689L102.513 185.583L102.862 187.504Z" fill="#FA8C16"/>
<path d="M103.589 191.346L102.566 191.426L102.189 189.505L103.239 189.425L103.589 191.346Z" fill="#FA8C16"/>
<path d="M104.315 195.161L103.293 195.268L102.916 193.347L103.965 193.24L104.315 195.161Z" fill="#1A3BBD"/>
<path d="M101.786 181.767L102.136 183.661L101.113 183.768L100.764 181.847L101.786 181.767Z" fill="#FA8C16"/>
<path d="M104.369 201.004L105.419 200.924L105.768 202.819L104.746 202.925L104.369 201.004Z" fill="#1A3BBD"/>
<path d="M89.678 181.874L88.6555 182.008L88.252 180.194L89.2744 180.06L89.678 181.874Z" fill="#1A3BBD"/>
<path d="M88.8704 178.245L87.8479 178.379L87.4443 176.564L88.4668 176.431L88.8704 178.245Z" fill="#1A3BBD"/>
<path d="M86.9873 174.377L87.0411 174.75L88.0905 174.617L88.0366 174.377H86.9873Z" fill="#1A3BBD"/>
<path d="M90.4846 185.503L89.4622 185.637L89.0586 183.822L90.081 183.689L90.4846 185.503Z" fill="#FA8C16"/>
<path d="M93.0947 201.992L93.3638 203.273L94.4131 203.246L94.1172 201.858L93.0947 201.992Z" fill="#FA8C16"/>
<path d="M92.9065 196.416L91.8841 196.523L91.4805 194.708L92.5029 194.602L92.9065 196.416Z" fill="#FA8C16"/>
<path d="M93.7141 200.044L92.6917 200.151L92.2881 198.336L93.3105 198.23L93.7141 200.044Z" fill="#FA8C16"/>
<path d="M92.0999 192.787L91.0774 192.894L90.6738 191.079L91.6963 190.973L92.0999 192.787Z" fill="#FA8C16"/>
<path d="M91.2923 189.158L90.2698 189.265L89.8662 187.451L90.8887 187.344L91.2923 189.158Z" fill="#FA8C16"/>
<path d="M27.9277 404.607C32.8516 412.265 48.9685 413.999 48.9685 413.999C48.9685 413.999 61.0225 373.177 69.4442 348.497C73.4264 336.784 78.2964 322.35 83.5431 308.475V308.449C89.3549 293.054 95.651 278.353 101.732 268.854C104.88 267.813 112.952 270.241 112.952 270.241C112.952 270.241 114.324 289.852 113.544 314.505C113.275 322.67 112.763 331.395 111.902 340.173C108.405 375.312 104.234 412.158 104.234 412.158C104.234 412.158 118.279 415.627 128.8 407.276C127.75 402.073 125.248 357.889 134.019 314.772C137.383 298.23 139.159 285.263 140.046 275.578C140.073 275.231 140.1 274.884 140.127 274.537C141.446 259.676 141.58 246.629 141.58 246.629L69.3097 238.624C69.3097 238.624 67.3993 252.872 65.4083 264.558C65.3545 264.852 65.3006 265.172 65.2468 265.492C63.7132 274.404 61.5876 285.316 58.9238 296.336C52.6009 322.403 44.0446 375.392 27.9277 404.607Z" fill="url(#paint3_linear_221_12048)"/>
<path d="M108.512 243L107.463 262.798L111.956 264.025L115.723 244.735L116.638 245.001L112.683 265.359L106.494 263.651L107.57 242.92L108.512 243Z" fill="#0B308F"/>
<path d="M143.302 238.891C143.329 239.318 142.657 247.536 142.657 247.536L67.7764 242.707L68.5297 234.356L143.302 238.891Z" fill="#78370A"/>
<path d="M91.2115 245.882L92.4492 234.195L87.6329 233.768L86.7988 245.241L91.2115 245.882Z" fill="#1890FF"/>
<path d="M133.751 248.977L134.639 237.131L130.064 237.264L129.526 249.004L133.751 248.977Z" fill="#1890FF"/>
<path d="M83.543 308.876C89.3547 293.481 95.6508 278.78 101.732 269.281C104.88 268.241 112.952 270.669 112.952 270.669C112.952 270.669 114.324 290.279 113.544 314.933C115.884 299.644 114.162 273.284 114.701 272.456C115.266 271.603 122.154 267.894 122.154 267.894C122.154 267.894 116.127 269.041 113.974 269.308C111.822 269.602 102.055 267.174 100.763 267.04C99.4715 266.88 93.875 262.611 93.875 262.611C93.875 262.611 98.6105 267.734 99.1756 268.881C99.7675 270.028 86.7179 295.776 83.543 308.876Z" fill="#0B308D"/>
<path d="M68.3408 104.659C76.8432 109.622 92.0991 115.305 108.243 106.367C105.31 104.766 103.373 103.726 103.373 103.726L100.063 87.1832L75.0405 79.4724L75.6324 101.031C75.6324 101.031 72.6727 102.445 68.3408 104.659Z" fill="#FFC29E"/>
<path d="M63.2822 238.011C67.9101 239.318 77.2466 244.574 78.4036 243.907C79.9911 243 85.8566 234.382 85.8566 234.382H85.8297C84.9687 234.222 66.7262 231.127 65.0042 233.235C64.7083 233.582 64.0894 235.343 63.2822 238.011Z" fill="#30130D"/>
<path d="M53.0042 291.16C55.1567 293.908 71.8924 294.842 71.8924 294.842L85.8568 234.356H85.8299C85.6416 234.356 78.4845 240.653 78.0271 241.026L78.0002 241.053C76.8163 241.72 67.8834 239.319 63.2555 238.011C59.6501 249.858 53.3809 280.061 52.7889 288.812C52.7351 290.066 52.7889 290.893 53.0042 291.16Z" fill="#8A3F0B"/>
<path d="M78.0273 241.052C79.6417 240.118 85.8571 234.382 85.8571 234.382H85.8302C85.6418 234.382 78.4848 240.652 78.0273 241.052Z" fill="#30130D"/>
<path d="M53.0042 291.16C55.1567 293.908 71.8924 294.842 71.8924 294.842L85.8568 234.356H85.8299C85.6416 234.356 78.4845 240.653 78.0271 241.026L78.0002 241.053C78.0002 241.053 69.5247 288.759 67.6951 289.773C66.8071 290.28 60.3765 289.719 52.7889 288.785C52.7351 290.066 52.7889 290.893 53.0042 291.16Z" fill="#5E2B07"/>
<path d="M85.857 234.382C85.857 234.382 74.1259 235.156 72.2962 237.317C70.4666 239.478 66.1078 258.449 66.1078 258.449C66.1078 258.449 57.2825 257.755 55.4529 255.941C53.6232 254.126 57.3901 238.118 59.9193 234.462C62.4485 230.834 66.2154 230.38 68.1796 230.594C70.1168 230.86 85.857 234.382 85.857 234.382Z" fill="#A1490D"/>
<path d="M64.0361 253.219L63.3365 255.274L56.8252 253.806L57.3902 252.099L64.0361 253.219Z" fill="#C48153"/>
<path d="M92.2338 205.247C85.9108 203.886 79.6685 207.861 78.2963 214.131L78.2694 214.318L66.1077 269.788C65.7041 271.576 66.8611 273.337 68.6638 273.71C69.5517 273.897 70.4396 273.71 71.1661 273.257C71.8926 272.803 72.4307 272.083 72.6191 271.175L84.7807 215.706L101.167 219.227L101.194 219.041C102.566 212.797 98.5568 206.607 92.2338 205.247Z" fill="#C1CCD6"/>
<path d="M80.0988 237.077L72.6188 271.202C72.4305 272.109 71.8924 272.83 71.1659 273.283C70.4394 273.737 69.5515 273.924 68.6636 273.737C66.8609 273.363 65.7308 271.602 66.1075 269.815L73.5875 235.69L80.0988 237.077Z" fill="#372F57"/>
<path d="M88.2605 223.39L87.7861 225.554L100.722 228.342L101.197 226.178L88.2605 223.39Z" fill="#697582"/>
<path d="M99.2291 228.032C98.8794 229.579 97.9376 230.86 96.6999 231.66C95.4353 232.461 93.9017 232.781 92.3142 232.434L81.6055 230.14L82.8432 224.51L99.2291 228.032Z" fill="#C1CCD6"/>
<path opacity="0.5" d="M98.6109 227.899C98.1535 229.099 97.3194 230.113 96.297 230.78C95.0593 231.581 93.4987 231.901 91.9113 231.554L81.7676 229.366L81.8483 228.993L91.5615 231.074C93.1221 231.421 94.6826 231.074 95.9472 230.3C96.8889 229.713 97.6423 228.832 98.0997 227.792L98.6109 227.899Z" fill="#C1CCD6"/>
<path d="M78.7734 218.203L76.7617 227.381L80.6268 228.214L82.6384 219.036L78.7734 218.203Z" fill="#888F96"/>
<path d="M78.8076 221.015C79.8301 219.6 81.7404 219.787 81.7404 219.787C81.7404 219.787 80.6911 220.988 78.8076 221.015Z" fill="#C1CCD6"/>
<path d="M78.5117 222.429C79.5342 221.015 81.4445 221.202 81.4445 221.202C81.4445 221.202 80.3952 222.376 78.5117 222.429Z" fill="#C1CCD6"/>
<path d="M78.2158 223.816C79.2383 222.402 81.1486 222.588 81.1486 222.588C81.1486 222.588 80.0724 223.789 78.2158 223.816Z" fill="#C1CCD6"/>
<path d="M77.8926 225.23C78.915 223.816 80.8254 224.003 80.8254 224.003C80.8254 224.003 79.776 225.177 77.8926 225.23Z" fill="#C1CCD6"/>
<path d="M77.5967 226.618C78.6191 225.204 80.5295 225.391 80.5295 225.391C80.5295 225.391 79.4801 226.591 77.5967 226.618Z" fill="#C1CCD6"/>
<path opacity="0.5" d="M100.037 219.681L100.01 219.868L99.0684 219.655C100.064 213.731 96.7814 208.155 91.5346 207.034C86.0727 205.86 80.5838 209.889 79.2384 216.053L67.4535 269.788C67.0768 271.469 67.9109 273.07 69.3369 273.497C69.2562 273.497 69.1755 273.47 69.0678 273.47C67.3997 273.123 66.3503 271.389 66.727 269.602L78.6734 215.092C80.0456 208.849 85.9381 204.82 91.8306 206.101C97.7231 207.355 101.409 213.438 100.037 219.681Z" fill="#C1CCD6"/>
<path d="M89.7214 216.767L89.2471 218.931L102.183 221.719L102.658 219.555L89.7214 216.767Z" fill="#697582"/>
<path d="M60.0537 293.561C65.4619 294.495 71.8656 294.868 71.8656 294.868L85.83 234.382H85.8031C85.6147 234.382 78.4577 240.679 78.0002 241.052L77.9733 241.079C77.3545 241.426 74.637 240.946 71.5158 240.199C70.2243 246.389 63.7399 277.259 60.9147 289.692C60.5918 291.346 60.2959 292.654 60.0537 293.561Z" fill="#8A3F0B"/>
<path d="M60.0537 293.561C65.4619 294.495 71.8656 294.868 71.8656 294.868L85.83 234.382H85.8031C85.6147 234.382 78.4577 240.679 78.0002 241.052L77.9733 241.079C77.9733 241.079 69.4978 288.785 67.6682 289.799C67.1301 290.092 64.574 290.012 60.9416 289.692C60.5918 291.346 60.2959 292.654 60.0537 293.561Z" fill="#5E2B07"/>
<path d="M57.3086 40.3844C57.6046 40.8113 57.9544 41.2915 58.2773 41.8518C58.6809 42.5455 59.1114 43.3193 59.515 44.1998C60.376 46.0408 61.2101 48.362 61.8827 51.2702C63.7393 59.2212 66.8604 64.3173 68.2864 67.7592C69.7394 71.201 72.3493 76.644 71.9188 79.8991C71.5152 82.914 72.2955 84.9951 75.7395 87.8767C76.0086 88.1168 76.3314 88.357 76.6543 88.5971C77.031 88.8906 77.3808 89.1307 77.7306 89.3708C81.1208 91.5053 83.5423 90.7316 86.6904 94.1734C86.8787 94.3869 87.094 94.627 87.3092 94.8671C87.9819 95.7209 88.6814 96.2546 89.4079 96.6548C89.4079 96.6548 89.4079 96.6548 89.4348 96.6548C92.7174 98.3357 96 95.8543 96 95.8543C96 95.8543 97.5875 96.3613 99.6862 96.6815C101.57 96.9749 103.83 97.0817 105.686 96.5214C106.332 96.3346 106.951 96.0678 107.462 95.6676C111.094 92.9995 108.915 90.9184 113.22 87.9034L113.247 87.8767C113.973 87.3698 114.565 86.8095 115.05 86.2225C117.391 83.3943 117.041 79.7923 115.991 75.9236C114.727 71.2277 117.229 69.7336 116.906 66.6386C116.691 64.7175 115.938 63.1967 115.346 62.2629C114.969 61.6759 114.646 61.3023 114.538 61.2223L114.135 60.2885L111.175 53.4314C111.175 53.4314 116.072 43.2126 114.458 38.4366C113.435 35.4217 113.032 33.2605 112.924 31.046C112.924 30.8058 112.897 30.5657 112.897 30.3256C112.87 29.285 112.897 28.1911 112.951 26.9638C112.978 26.2701 112.924 25.6564 112.79 25.1228C112.655 24.5091 112.44 23.9755 112.171 23.4952C111.229 21.761 109.588 20.6137 108.404 18.9328C107.731 18.0256 107.085 16.5315 106.305 14.8772C104.879 11.889 102.969 8.34037 99.5247 6.39265C98.1256 5.59222 96.9417 5.08527 95.9193 4.79178C93.0403 3.96467 91.4797 4.95187 90.242 6.55274C88.5469 8.74058 84.9146 6.31261 80.206 5.45881C78.8606 5.24536 77.7306 5.27204 76.735 5.53885C74.5556 6.12584 73.1834 7.80675 71.865 9.88787C71.7035 10.128 71.569 10.3948 71.4076 10.6616C70.6273 11.969 69.6587 12.3959 68.6093 12.7161C67.1564 13.143 65.5689 13.3831 64.0352 15.3842C63.7393 15.7844 63.4433 16.238 63.1473 16.7716C60.5643 21.5742 59.0845 22.8015 57.3894 24.936C56.3669 27.5241 56.8512 39.7707 57.3086 40.3844Z" fill="url(#paint4_linear_221_12048)"/>
<g opacity="0.2">
<path opacity="0.2" d="M81.4713 79.9258C80.7448 73.3355 77.3277 71.3344 78.4847 62.1561C78.4847 62.1561 82.2247 60.0217 80.8255 64.6108C79.4264 69.2 82.5206 75.8169 83.4893 80.8329C84.3503 85.3687 81.552 89.1307 77.7313 89.3442C77.3815 89.1307 77.0317 88.8639 76.6551 88.5704C76.3322 88.3303 76.0362 88.0902 75.7402 87.85C78.1618 87.5299 82.0632 85.2353 81.4713 79.9258Z" fill="#944734"/>
<path opacity="0.2" d="M91.6691 79.659C89.8664 73.8158 92.1534 67.8926 92.1534 67.8926L95.14 72.6419C95.14 72.6419 92.9337 74.9898 93.3373 80.5928C93.7409 86.1959 96.001 88.0635 95.3014 92.2525C94.6826 95.9345 92.2072 96.6815 89.4359 96.6815C89.4359 96.6815 89.4358 96.6815 89.4089 96.6815C88.6825 96.2813 87.9829 95.7477 87.3103 94.8939C87.095 94.6538 86.9067 94.4136 86.6914 94.2002C94.1983 92.7594 93.3911 85.182 91.6691 79.659Z" fill="#944734"/>
<path opacity="0.2" d="M103.292 84.4081C99.5255 78.5649 100.171 72.5617 100.171 72.5617L101.436 73.042C101.436 73.042 100.817 79.0986 103.804 83.7144C106.79 88.3035 108.243 91.5053 107.248 93.9866C106.817 95.0539 106.306 95.9076 105.714 96.5747C103.857 97.135 101.57 97.0016 99.7139 96.7348C106.467 93.3463 106.925 90.0111 103.292 84.4081Z" fill="#944734"/>
<path opacity="0.2" d="M111.23 65.7043C111.23 65.7043 113.57 68.1056 113.436 71.7876C113.274 75.4429 110.907 75.8431 111.875 79.7919C112.494 82.46 114.62 84.0609 115.104 86.2487C114.62 86.8357 114.028 87.396 113.301 87.903C113.597 84.9947 110.019 81.8197 110.315 77.6041C110.611 73.175 112.736 71.6809 108.593 67.1717L111.23 65.7043Z" fill="#944734"/>
</g>
<path d="M103.804 66.9852C103.804 67.1719 102.297 72.3481 102.297 72.3481C102.297 72.3481 100.548 73.1485 96.0008 72.9084C91.4805 72.6682 87.3369 67.1719 87.3369 67.1719L103.804 66.9852Z" fill="white"/>
<path d="M105.66 66.9584C103.991 69.1462 93.8477 67.9989 93.8477 67.9989C93.8477 67.9989 96.1347 65.8644 99.6863 65.4375C103.211 65.0373 105.66 66.9584 105.66 66.9584Z" fill="#F8B59A"/>
<path d="M102.592 71.7883C104.341 71.4948 104.153 73.3892 103.292 73.8961C101.973 74.6432 95.758 75.2035 92.7176 73.7093C89.6771 72.2152 88.4395 68.6666 88.4395 68.6666C88.4395 68.6666 92.2871 71.8417 95.5427 72.3486C98.7984 72.8556 101.516 71.9751 102.592 71.7883Z" fill="#F8B59A"/>
<path opacity="0.6" d="M76.9512 63.6504L77.1664 64.6643C77.1664 64.6643 81.0947 71.7081 89.8124 71.1211C98.5301 70.5074 100.844 66.8788 100.844 66.8788C100.844 66.8788 104.557 70.4274 109.4 69.6536C113.355 69.0133 114.781 64.184 115.32 62.3163C114.943 61.7293 114.62 61.3558 114.512 61.2758L114.109 60.3419L76.9512 63.6504Z" fill="#873F2A"/>
<g opacity="0.3">
<path opacity="0.3" d="M72.3761 16.9577C69.0397 16.931 66.0262 16.1039 64.0352 15.4102C65.5688 13.4091 67.1832 13.169 68.6092 12.7421C69.4971 12.8221 70.5196 12.9555 71.6496 13.1423C77.7843 14.2095 82.7889 19.0121 77.4614 25.3089L75.8739 25.5757C80.0713 21.7069 78.4031 17.011 72.3761 16.9577Z" fill="#944734"/>
<path opacity="0.3" d="M89.2736 13.81C81.7399 12.9295 78.9416 10.3681 76.8967 9.54103C74.8518 8.71392 73.9101 7.96685 72.511 9.54103C72.2957 9.78116 72.0805 9.88789 71.8652 9.91457C73.1836 7.80676 74.5559 6.12585 76.7353 5.56555C79.4528 5.91241 80.6636 8.55383 85.5337 9.62108C90.3768 10.6883 94.4128 12.1024 96.1078 15.5176C98.2334 19.8133 97.6415 23.682 93.4979 25.2028C98.6909 21.841 96.8074 14.6905 89.2736 13.81Z" fill="#944734"/>
<path opacity="0.3" d="M99.5244 6.39249C102.942 8.34021 104.879 11.8888 106.305 14.8771C106.628 17.5185 105.847 19.9198 103.964 20.5335C105.955 15.971 102.646 8.12676 95.9189 4.79163C96.9414 5.08512 98.1522 5.61874 99.5244 6.39249Z" fill="#944734"/>
<path opacity="0.3" d="M106.063 25.096C109.022 25.5496 110.933 24.7224 112.17 23.5218C112.439 24.002 112.655 24.5357 112.789 25.1493C111.121 25.8964 108.942 26.5368 106.87 26.2433C102.538 25.6563 104.529 27.8975 108.188 29.4717C109.856 30.1921 111.552 30.3788 112.897 30.3521C112.897 30.5923 112.897 30.8324 112.924 31.0725C111.39 30.9124 109.426 30.9658 107.785 31.7662C104.61 33.3404 101.946 27.1504 102.188 25.9764C102.484 24.8292 106.063 25.096 106.063 25.096Z" fill="#944734"/>
</g>
<path d="M68.6367 38.6765C68.6367 38.6765 70.0628 57.9669 74.9597 62.8495C79.8836 67.7322 90.3232 66.905 99.3369 65.2775C108.377 63.65 114.566 61.7823 114.566 61.7823C114.566 61.7823 114.404 59.4077 114.055 55.9124C113.57 50.9231 112.709 43.6391 111.472 37.5825C110.987 35.2079 110.449 33.0201 109.857 31.2324C106.682 21.7073 103.669 20.7201 103.669 20.7201C101.436 25.2559 84.7805 28.0841 71.4081 24.0285C73.3184 33.5804 68.6367 38.6765 68.6367 38.6765Z" fill="#FFC29E"/>
<path d="M98.9875 47.7216C99.7678 51.617 103.965 57.1934 103.965 57.1934L114.055 55.9394C113.571 50.95 112.71 43.6661 111.472 37.6095C107.893 36.1153 99.1758 37.2092 99.1758 37.2092C99.1758 37.2092 98.2072 43.8261 98.9875 47.7216Z" fill="url(#paint5_radial_221_12048)"/>
<path d="M91.9374 36.8897C96.1886 44.6006 95.1392 53.3786 94.3589 55.5398C93.5787 57.701 78.1344 57.9144 76.3048 55.7533C74.4752 53.5921 74.7711 42.5194 75.39 41.052C76.0088 39.5845 80.8789 36.5162 81.2287 36.3828C81.5784 36.2227 91.9374 36.8897 91.9374 36.8897Z" fill="url(#paint6_radial_221_12048)"/>
<path d="M99.0143 38.9434C99.0143 38.9434 98.6915 47.8548 100.198 51.4568C101.705 55.0587 105.902 58.714 106.198 60.4483C106.494 62.1826 100.225 64.0236 100.225 64.0236C100.225 64.0236 104.988 61.8624 104.988 60.3416C104.988 58.9275 101.113 56.4461 99.4717 51.4835C97.8035 46.5208 99.0143 38.9434 99.0143 38.9434Z" fill="#E88479"/>
<path d="M97.4266 63.4906C97.4266 63.4906 93.4175 61.0093 92.5027 61.7564C91.5879 62.5034 93.7942 63.7308 97.4266 63.4906Z" fill="#BD4F4F"/>
<path opacity="0.4" d="M93.6865 57.8334C93.6865 57.8334 89.3815 59.034 89.7313 61.5687C88.4667 58.8473 90.1887 57.6733 93.6865 57.8334Z" fill="#E88479"/>
<path d="M88.9508 45.4799L89.1123 46.974L79.0224 51.4831C79.0224 51.4831 78.7533 47.9078 79.9372 46.894C81.1211 45.8801 88.9508 45.4799 88.9508 45.4799Z" fill="#5E313B"/>
<path d="M88.9242 46.5744C90.0274 48.5221 89.7314 52.0707 89.7314 52.0707L78.9419 51.8573C78.9419 51.8573 78.8074 48.8156 80.0182 47.8017C81.2021 46.7612 88.9242 46.5744 88.9242 46.5744Z" fill="white"/>
<path d="M84.216 53.2447C86.133 53.2447 87.6869 51.7038 87.6869 49.8029C87.6869 47.902 86.133 46.361 84.216 46.361C82.2991 46.361 80.7451 47.902 80.7451 49.8029C80.7451 51.7038 82.2991 53.2447 84.216 53.2447Z" fill="url(#paint7_linear_221_12048)"/>
<path d="M87.0678 48.7894C87.4839 48.7894 87.8212 48.4549 87.8212 48.0423C87.8212 47.6297 87.4839 47.2952 87.0678 47.2952C86.6517 47.2952 86.3145 47.6297 86.3145 48.0423C86.3145 48.4549 86.6517 48.7894 87.0678 48.7894Z" fill="white"/>
<path d="M101.247 44.4665L101.382 45.9606L109.992 48.8155C109.992 48.8155 109.588 45.2669 108.485 44.4398C107.382 43.6393 101.247 44.4665 101.247 44.4665Z" fill="#5E313B"/>
<path d="M101.463 45.5339C100.951 47.6417 101.786 51.0569 101.786 51.0569L110.127 49.1625C110.127 49.1625 109.696 46.1476 108.593 45.3204C107.49 44.52 101.463 45.5339 101.463 45.5339Z" fill="white"/>
<path d="M105.633 47.695C105.956 49.5894 105.041 51.2703 103.561 51.4837C102.108 51.6972 100.655 50.3365 100.332 48.4688C100.009 46.5744 100.924 44.8935 102.404 44.6801C103.857 44.4666 105.31 45.8007 105.633 47.695Z" fill="url(#paint8_linear_221_12048)"/>
<path d="M105.238 47.2627C105.712 47.2249 106.069 46.8609 106.036 46.4496C106.002 46.0384 105.591 45.7356 105.117 45.7733C104.643 45.8111 104.286 46.1751 104.319 46.5864C104.352 46.9977 104.764 47.3005 105.238 47.2627Z" fill="white"/>
<path d="M74.7441 42.1449C74.9325 42.0381 77.0581 40.6241 78.9415 39.5835C79.1568 39.4501 79.372 39.3434 79.5604 39.2366C80.0178 38.9965 80.4483 38.7831 80.7981 38.623C81.1478 38.4629 81.686 38.3295 82.3317 38.1961C82.6815 38.116 83.0582 38.036 83.4618 37.9826C84.2959 37.8492 85.2376 37.6891 86.2062 37.5824C87.1211 37.449 88.009 37.3423 88.8431 37.2356C90.592 37.0221 91.9104 36.9154 91.9104 36.9154L91.3992 32.8599H89.9193L90.5382 36.4084L89.1121 33.02C89.1121 33.02 88.7354 33.0733 88.1166 33.2067C87.713 33.2868 87.1749 33.3935 86.5829 33.5002C86.3946 33.5269 86.1793 33.5803 85.9641 33.6336C85.6143 33.7137 85.2376 33.7937 84.8609 33.8737C84.1345 34.0338 83.3542 34.2206 82.6277 34.434C82.2241 34.5408 81.8205 34.6475 81.4707 34.7809C80.4214 35.1011 79.5066 35.4746 78.9415 35.8215C78.7801 35.9282 78.6187 36.0616 78.4572 36.195C78.2151 36.4084 77.946 36.6753 77.7038 36.9687C76.1164 38.8364 74.8249 41.9314 74.7441 42.1449Z" fill="#5E313B"/>
<path d="M98.2607 34.4347L99.0141 38.9438C99.0141 38.9438 100.171 38.8904 101.732 38.8637C102.512 38.837 103.373 38.8104 104.234 38.7837C104.584 38.7837 104.907 38.7837 105.229 38.757C106.494 38.7303 107.651 38.7303 108.458 38.757C108.862 38.757 109.158 38.7837 109.346 38.8104C109.642 38.8637 109.965 38.9704 110.261 39.1039C110.53 39.2373 110.826 39.3707 111.068 39.5307C111.875 39.9843 112.494 40.4646 112.494 40.4646C112.494 40.4646 112.037 37.1561 111.014 36.4891C110.987 36.4624 110.934 36.4357 110.853 36.4091C110.665 36.329 110.422 36.249 110.073 36.1689C109.588 36.0355 108.969 35.9288 108.27 35.7687C107.328 35.582 106.252 35.3952 105.176 35.2084C104.826 35.1551 104.503 35.1017 104.153 35.0483C103.723 34.995 103.319 34.9149 102.916 34.8616C102.7 34.8349 102.485 34.8082 102.297 34.7815C101.974 34.7282 101.678 34.6748 101.409 34.6481C100.575 34.5147 100.037 34.4347 100.037 34.4347L99.9558 37.4763L99.2563 34.3279L98.2607 34.4347Z" fill="#5E313B"/>
<path d="M53.4345 55.2725C53.4614 55.4326 53.4883 55.5927 53.569 55.7528C53.6498 55.9662 53.7843 56.1263 53.9457 56.2597C54.457 56.7667 55.2372 56.9267 55.9368 56.6066L57.309 55.9662L70.6277 49.6695L71.7577 47.6417L72.9147 45.5339L70.4931 45.3738L68.0178 45.2137L55.1834 53.0046L54.2686 53.5649C53.6498 53.9385 53.3269 54.6055 53.4345 55.2725Z" fill="#ED7A3C"/>
<path d="M53.4346 55.2724C53.4615 55.4325 53.4884 55.5926 53.5691 55.7527C53.6498 55.9661 53.7844 56.1262 53.9458 56.2596L70.5739 47.5616L69.8743 46.441L53.4346 55.2724Z" fill="#FAA357"/>
<path d="M68.2867 47.0547C67.9369 48.9224 69.928 48.122 69.928 48.122C69.928 48.122 68.8786 50.0964 70.5737 49.6962L71.7038 47.6684L72.8608 45.5606L70.4392 45.4005L67.9638 45.2404C68.0176 45.2404 66.4302 46.948 68.2867 47.0547Z" fill="#F1DEC1"/>
<path d="M71.7313 47.6419L72.8883 45.5341L70.4667 45.374C70.1976 46.2545 70.2514 47.5352 71.7313 47.6419Z" fill="#353C4D"/>
<path d="M53.4346 55.273C53.4615 55.4331 53.4884 55.5931 53.5692 55.7532C53.6499 55.9667 53.7844 56.1268 53.9458 56.2602C54.4571 56.7671 55.2374 56.9272 55.9369 56.607L56.4481 56.3669L57.2822 55.9667C55.6948 55.5665 55.049 54.179 55.1566 52.9784L54.4033 53.432L54.2149 53.5387C53.6499 53.9389 53.327 54.6059 53.4346 55.273Z" fill="#AEB6D1"/>
<path d="M53.4346 55.2727C53.4615 55.4328 53.4884 55.5929 53.5691 55.753C53.6498 55.9664 53.7844 56.1265 53.9458 56.2599C54.457 56.7668 55.2373 56.9269 55.9369 56.6067L56.4481 56.3666C54.9144 55.9397 54.2956 54.6057 54.4301 53.4317L54.2418 53.5384C53.6498 53.9386 53.3269 54.6057 53.4346 55.2727Z" fill="#EBD1D8"/>
<path opacity="0.6" d="M53.9189 56.2862C54.4302 56.7932 55.2104 56.9533 55.91 56.6331L57.2822 55.9927L70.6009 49.696L71.7309 47.6682L72.8879 45.5604C72.8879 45.5604 70.0358 48.5754 69.4439 49.1357C68.852 49.6426 53.9189 56.2862 53.9189 56.2862Z" fill="#8C52B0"/>
<path d="M57.9278 57.3003C58.8426 61.8094 65.0042 70.7475 66.4571 70.6942C66.5378 70.6942 66.6723 70.6675 66.78 70.6408C68.3405 70.2673 71.3809 67.7859 71.5962 66.7454C71.8384 65.6248 68.7172 54.5788 66.1611 52.1241C66.1611 52.1241 60.3225 50.6567 59.5691 51.5905C59.2193 52.0441 58.735 53.0046 58.3852 54.0719C58.0085 55.2458 57.7663 56.4998 57.9278 57.3003Z" fill="#FFC29E"/>
<path d="M57.9278 57.2999C58.8426 61.809 65.0042 70.7472 66.4571 70.6938C66.5378 70.6938 66.6723 70.6671 66.78 70.6404C62.9593 64.3704 68.3674 64.2903 68.3674 64.2903C68.3674 64.2903 64.6813 56.1793 58.8964 54.2316C58.735 54.1782 58.5466 54.1248 58.3852 54.0715C58.0085 55.2454 57.7663 56.4994 57.9278 57.2999Z" fill="url(#paint9_radial_221_12048)"/>
<path d="M67.103 63.5968C67.103 63.5968 64.8967 63.7302 64.8429 66.0515C64.7891 68.3727 65.9191 69.9202 66.7801 70.6406C62.9594 64.3706 68.3676 64.2905 68.3676 64.2905C68.3676 64.2905 64.6814 56.1795 58.8966 54.2318L58.8428 54.2851C64.6007 57.727 67.103 63.5968 67.103 63.5968Z" fill="#E88479"/>
<path d="M77.2734 63.0368C79.0762 67.6526 83.1121 69.6003 87.5517 69.9205H87.5786C89.2468 70.0539 90.9957 69.9472 92.6908 69.6537C96.3769 69.04 100.144 66.1584 100.655 65.7316C100.709 65.7049 100.709 65.6782 100.709 65.6782C100.709 65.6782 100.709 65.6782 100.736 65.7049C100.924 65.865 102.565 67.1723 105.148 68.0528C105.444 68.1595 105.794 68.2663 106.144 68.3463C106.709 68.5064 107.301 68.6131 107.92 68.6932C109.292 68.8799 110.476 68.4263 111.444 67.6526C112.494 66.8255 113.328 65.6782 113.947 64.5309C114.781 63.0101 115.265 61.5159 115.427 60.9556V60.929C115.454 60.8489 115.48 60.7955 115.48 60.7689C115.4 60.8489 114.673 61.4893 112.79 61.9962C112.709 62.0229 112.575 62.0496 112.494 62.0496C112.359 62.0762 112.225 62.1029 112.09 62.1296C110.718 62.3964 110.099 62.3964 109.238 62.3964C108.969 62.3964 108.673 62.3964 108.35 62.4231C107.731 62.4498 106.978 62.5298 105.875 62.6632C102.162 63.1702 101.516 64.0506 99.229 64.0506C94.2513 64.0506 93.9823 63.1168 90.027 63.4103C87.9284 63.5704 85.7489 64.2107 83.6502 64.4509C83.3812 64.4775 83.0852 64.5042 82.843 64.5309C80.852 64.691 78.9954 64.3975 77.2734 63.0368Z" fill="url(#paint10_linear_221_12048)"/>
<g opacity="0.2">
<path opacity="0.2" d="M112.467 62.0492C112.575 62.0225 112.683 62.0225 112.763 61.9958C113.705 62.6095 114.001 63.57 113.92 64.5306C113.274 65.6778 112.467 66.8518 111.418 67.6522C111.902 67.0919 112.36 66.3182 112.656 65.2776C113.14 63.49 112.79 62.5295 112.467 62.0492Z" fill="#BA6045"/>
<path opacity="0.2" d="M108.324 62.4498C108.674 62.4231 108.943 62.4231 109.212 62.4231C111.257 64.5843 109.992 68.373 106.118 68.3463C105.768 68.2663 105.445 68.1595 105.122 68.0528C108.458 67.7326 109.4 63.8105 108.324 62.4498Z" fill="#BA6045"/>
<path opacity="0.2" d="M104.934 62.9567C107.382 64.7444 104.665 66.9055 102.243 66.3986C104.692 65.945 105.849 64.8778 104.934 62.9567Z" fill="#BA6045"/>
<path opacity="0.2" d="M96.9965 66.612C96.9965 66.612 96.5122 65.4113 91.6152 64.4775C94.5749 63.9973 97.4539 64.4775 96.9965 66.612Z" fill="#BA6045"/>
<path opacity="0.2" d="M88.2781 63.9434C87.444 65.5443 90.0539 67.9189 95.2468 68.6126C88.4933 68.9061 83.2735 65.6243 88.2781 63.9434Z" fill="#BA6045"/>
<path opacity="0.2" d="M82.7895 64.5573C83.0585 64.5307 83.3276 64.5307 83.5967 64.4773C83.1662 65.758 82.9778 68.5061 87.4712 69.8935C86.6371 69.6801 82.2513 68.4261 82.1168 66.5051C82.0899 65.6246 82.4128 64.9842 82.7895 64.5573Z" fill="#BA6045"/>
</g>
<path opacity="0.5" d="M100.736 65.7045C100.925 65.8646 102.566 67.172 105.149 68.0524C105.445 68.1591 105.795 68.2659 106.144 68.3459C106.71 68.506 107.301 68.6127 107.92 68.6928C109.293 68.8795 110.476 68.426 111.445 67.6522C112.494 66.8251 113.328 65.6778 113.947 64.5305C114.781 63.0097 115.266 61.5156 115.427 60.9553V60.9286C115.427 60.9286 112.521 67.9457 109.185 68.2125C105.956 68.4793 101.059 65.8913 100.736 65.7045Z" fill="#873F2A"/>
<path opacity="0.5" d="M77.2734 63.0364C79.0762 67.6523 83.1121 69.6 87.5517 69.9202H87.5786C89.2468 70.0536 90.9957 69.9468 92.6908 69.6534C96.377 69.0397 100.144 66.1581 100.655 65.7312C99.9555 66.1848 93.8209 70.0002 88.6279 69.4666C81.1749 68.7462 78.9147 66.4783 77.2734 63.0364Z" fill="#873F2A"/>
<g opacity="0.3">
<path opacity="0.3" d="M111.068 39.53C110.826 39.37 110.53 39.2365 110.261 39.1031C110.261 38.9164 110.153 37.3422 110.072 36.1682C110.422 36.2483 110.664 36.3283 110.853 36.4083L111.068 39.53Z" fill="#73331C"/>
<path opacity="0.3" d="M108.458 38.7565C107.651 38.7298 106.467 38.7298 105.23 38.7565L105.176 35.2346C106.225 35.4214 107.328 35.6082 108.27 35.7949L108.458 38.7565Z" fill="#73331C"/>
<path opacity="0.3" d="M102.297 34.7811L102.646 38.2496L102.915 34.8611C103.319 34.9145 103.723 34.9945 104.153 35.0479C104.18 36.2752 104.207 37.796 104.234 38.7565C103.373 38.7832 102.512 38.8099 101.732 38.8366C101.651 37.6359 101.516 35.9817 101.436 34.621C101.678 34.6743 101.974 34.7277 102.297 34.7811Z" fill="#73331C"/>
</g>
<g opacity="0.3">
<path opacity="0.3" d="M87.1488 36.4622L86.6107 33.4472C87.2026 33.3138 87.7138 33.2338 88.1443 33.1537L88.8708 37.2093C88.0636 37.316 87.1488 37.4227 86.234 37.5561L84.8887 33.8475C85.2654 33.7674 85.642 33.6874 85.9918 33.6073L87.1488 36.4622Z" fill="#73331C"/>
<path opacity="0.3" d="M83.4891 37.9563C83.0855 38.0363 82.6819 38.1163 82.359 38.1697L81.498 34.7278C81.8747 34.5944 82.2514 34.4877 82.655 34.381C82.9241 35.4482 83.2739 36.9691 83.4891 37.9563Z" fill="#73331C"/>
<path opacity="0.3" d="M78.4848 36.1688L79.5611 39.2371C79.3727 39.3439 79.1575 39.4506 78.9422 39.584L77.7314 36.9426C77.9736 36.6224 78.2427 36.3823 78.4848 36.1688Z" fill="#73331C"/>
</g>
<path d="M115.965 32.967C112.79 34.0076 111.041 32.7802 110.18 32.4067C109.265 29.0716 109.454 28.1644 105.525 22.1879C120.916 19.333 130.79 28.1644 115.965 32.967Z" fill="url(#paint11_linear_221_12048)"/>
<path d="M57.3095 40.3841C61.1302 37.1824 65.0048 34.3809 69.1752 31.9529C79.4804 25.923 91.5613 21.9742 108.593 19.4128C106.925 12.0488 103.992 6.15228 100.709 4.25793C97.8305 2.57702 90.5927 0.549255 86.8796 0.229082C86.3953 0.17572 85.9648 0.17572 85.615 0.17572C85.4805 0.17572 85.2921 0.202401 85.0769 0.229082C82.3055 0.709342 73.9108 3.5909 67.2649 7.29957C63.6325 9.32733 60.5383 11.6219 59.1392 13.9165C54.2691 21.8941 56.4485 37.636 57.3095 40.3841Z" fill="#E4E7F3"/>
<path d="M90.2429 7.21954L93.2833 16.1043L90.485 16.638L89.3011 13.0093L85.4266 13.6764L86.5567 17.385L83.5701 17.972L80.8525 8.5536L83.7315 8.1267L84.754 11.4885L88.6016 10.8482L87.5253 7.53972L90.2429 7.21954Z" fill="url(#paint12_linear_221_12048)"/>
<path d="M103.238 12.9293C103.83 14.4501 102.915 15.4373 100.44 15.5707L95.274 15.9176L92.126 6.95272L96.8884 6.87268C99.2562 6.846 100.736 7.69979 101.247 8.98048C101.57 9.78092 101.382 10.4479 100.763 10.8482C101.92 11.1683 102.835 11.8887 103.238 12.9293ZM95.4086 8.66031L96.0274 10.3412L97.8301 10.2879C98.6911 10.2612 99.0409 9.96768 98.8256 9.40738C98.6104 8.87376 98.0723 8.60695 97.2113 8.63363L95.4086 8.66031ZM100.548 12.7959C100.306 12.1822 99.7405 11.9154 98.8526 11.9688L96.6462 12.0755L97.3189 13.8898L99.5521 13.7831C100.44 13.703 100.79 13.3829 100.548 12.7959Z" fill="url(#paint13_linear_221_12048)"/>
<path d="M57.3095 40.384C60.5114 37.6893 63.7671 35.288 67.238 33.1268C67.1035 32.7266 63.3635 20.9069 66.3501 7.8598C63.1213 9.75416 60.4307 11.8353 59.1392 13.9431C54.2691 21.8941 56.4485 37.6359 57.3095 40.384Z" fill="url(#paint14_linear_221_12048)"/>
<path d="M85.0771 0.255763C86.5839 1.00283 87.2027 0.469213 90.9158 6.5525C89.6243 2.84383 88.7633 1.37637 86.8799 0.229082C86.3956 0.17572 85.9651 0.17572 85.6153 0.17572C85.4807 0.202401 85.2924 0.229082 85.0771 0.255763Z" fill="#A1ABCF"/>
<path d="M119.948 22.4815C116.262 19.7868 108.594 19.4132 108.594 19.4132C108.594 19.4132 100.468 17.3855 85.0774 23.0418C72.4852 27.6577 67.1309 33.2073 67.1309 33.2073C67.1309 33.2073 70.2251 36.2223 76.6826 35.0483C83.1401 33.8744 88.3331 27.3108 98.4498 24.0024C108.567 20.6939 119.948 22.4815 119.948 22.4815Z" fill="#1890FF"/>
<path d="M67.2383 33.1533C67.2383 33.1533 69.1755 34.0071 73.8034 34.1939C79.9112 34.434 85.2924 28.5108 92.8262 24.8555C100.36 21.2002 115.67 18.2653 121.374 23.1479C129.042 29.7115 115.67 33.0466 115.67 33.0466C115.67 33.0466 126.674 28.5642 120.19 23.975C114.432 19.8928 99.5528 23.1212 94.0908 25.9228C87.9024 29.0978 81.6332 35.7147 73.3998 35.3945C68.7181 35.2078 67.2383 33.1533 67.2383 33.1533Z" fill="#1378D5"/>
<path d="M53.1661 409.757L51.7131 415.467C51.7131 415.467 38.529 414.08 24.9951 407.303C26.9055 403.754 27.1207 398.765 27.1207 398.765C27.1207 398.765 41.7578 406.982 53.1661 409.757Z" fill="#1890FF"/>
<path d="M131.275 400.339C121.884 405.755 101.436 407.916 101.436 407.916L103.884 415.494C103.884 415.494 120.378 415.494 129.633 408.743C129.929 403.994 131.275 400.339 131.275 400.339Z" fill="#1890FF"/>
<path d="M112.468 242.387C113.062 242.387 113.544 241.814 113.544 241.106C113.544 240.399 113.062 239.826 112.468 239.826C111.873 239.826 111.392 240.399 111.392 241.106C111.392 241.814 111.873 242.387 112.468 242.387Z" fill="#5E2B07"/>
<path d="M105.338 246.069C105.768 246.656 117.607 247.43 118.199 246.656C118.791 245.882 119.302 237.638 118.872 236.704C118.36 235.61 105.849 235.183 105.58 235.77C105.338 236.384 104.907 245.482 105.338 246.069ZM106.656 236.944C107.006 236.917 107.625 236.864 108.701 236.864C112.602 236.864 116.665 237.264 117.768 237.611C117.957 239.025 117.607 244.148 117.23 245.535C116.934 245.562 116.316 245.642 115.132 245.642C111.849 245.642 107.732 245.295 106.414 245.028C106.279 243.508 106.495 238.492 106.656 236.944Z" fill="#C1CCD6"/>
<path d="M105.957 239.959L112.468 240.332C112.468 240.332 112.872 240.572 112.818 241.079C112.764 241.586 112.387 241.8 112.387 241.8L105.876 241.533L105.957 239.959Z" fill="#C1CCD6"/>
<path d="M118.952 168.533C118.871 168.747 118.764 168.987 118.656 169.2C118.522 169.44 118.414 169.707 118.252 169.974C115.696 174.777 111.176 181.527 104.799 192.439C98.0996 203.939 83.3012 217.093 76.6822 217.44C70.0632 217.787 65.7582 216.346 51.471 200.39C48.592 197.162 46.009 193.48 43.7488 189.558C42.1075 186.703 40.6277 183.715 39.2824 180.7C33.3899 167.359 30.5647 153.218 30.2688 145.748C29.8113 134.248 36.4303 125.977 36.4303 125.977C36.4303 125.977 49.0225 145.748 55.0495 155.486C57.202 158.955 60.6191 164.211 64.1438 169.547C64.8972 170.694 65.6506 171.842 66.404 172.962C66.4309 173.016 66.4847 173.069 66.5116 173.122C72.0274 181.5 77.1665 189.104 77.1665 189.104C77.1665 189.104 84.0814 182.914 92.7722 178.032C101.463 173.176 105.929 168.96 111.284 164.744C116.369 160.769 120.674 163.997 118.952 168.533Z" fill="#FFC29E"/>
<path d="M119.275 144.147L112.683 139.05L113.624 137.983L119.84 143.346L119.275 144.147Z" fill="url(#paint15_linear_221_12048)"/>
<path d="M144.136 163.224L138.781 161.463L120.808 146.868L120.243 146.414L117.472 144.147L119.436 141.585L122.261 143.88L122.665 144.2L140.746 158.848V158.875L144.136 163.224Z" fill="url(#paint16_linear_221_12048)"/>
<path d="M144.136 163.224L138.809 161.49C138.809 161.49 139.427 159.702 140.773 158.875L144.136 163.224Z" fill="#577AFF"/>
<path d="M122.665 144.2L120.808 146.868L120.243 146.414L122.261 143.88L122.665 144.2Z" fill="url(#paint17_linear_221_12048)"/>
<path d="M117.257 145.214C117.391 144.947 120.755 140.651 120.755 140.651C120.755 140.651 123.445 143.933 125.275 144.813C127.105 145.694 129.741 145.694 130.279 146.814C130.818 147.962 128.45 149.216 127.508 148.015C126.566 146.814 128.046 146.147 128.046 146.147C128.046 146.147 126.297 145.934 124.818 145.347C123.338 144.76 120.97 141.878 120.97 141.878L118.064 145.961L117.257 145.214Z" fill="#D4DDFF"/>
<path d="M144.863 150.177C144.728 149.616 148.549 141.052 151.697 140.785C154.845 140.518 155.033 151.831 153.823 154.125C152.612 156.42 144.863 150.177 144.863 150.177Z" fill="#D6BFB6"/>
<path d="M176.558 157.407L172.845 169.441L163.455 199.697L135.688 196.415L135.392 196.362L134.02 195.001L144.863 150.177L146.666 150.577L147.58 150.791L176.558 157.407Z" fill="#FA8C16"/>
<path d="M176.559 157.407L172.846 169.44C166.765 169.333 157.402 170.481 157.402 170.481L154.792 168.053L151.59 169.787C151.59 169.787 146.289 162.77 147.581 150.844L176.559 157.407Z" fill="#D15D0A"/>
<g opacity="0.2">
<path opacity="0.2" d="M156.594 171.468L154.442 180.353L152.155 180.006L153.043 176.484L149.948 176.03L149.007 179.552L146.72 179.205L149.141 170.427L151.348 170.747L150.487 173.976L153.554 174.429L154.388 171.174L156.594 171.468Z" fill="#8295ED"/>
<path opacity="0.2" d="M164.397 179.232C164.074 180.806 162.702 181.58 160.496 181.26L156.083 180.593L158.182 171.708L162.218 172.295C164.316 172.589 165.124 173.683 164.854 175.017C164.666 175.87 164.155 176.484 163.375 176.778C164.209 177.258 164.612 178.112 164.397 179.232ZM159.984 173.789L159.608 175.497L161.168 175.737C161.922 175.844 162.379 175.604 162.514 175.043C162.621 174.483 162.298 174.136 161.545 174.03L159.984 173.789ZM162.11 178.592C162.245 177.978 161.895 177.605 161.114 177.498L159.204 177.205L158.774 179.046L160.711 179.339C161.491 179.446 161.975 179.206 162.11 178.592Z" fill="#8295ED"/>
</g>
<path d="M146.666 150.577L135.472 196.389L134.02 195.001L144.863 150.177L146.666 150.577Z" fill="url(#paint18_linear_221_12048)"/>
<path d="M151.697 140.785C154.388 141.879 149.76 150.257 149.276 155.967C148.818 161.677 151.697 167.76 151.697 167.76L158.666 164.451C158.666 164.451 157.644 144.761 157.375 143.267C157.079 141.799 151.697 140.785 151.697 140.785Z" fill="#F2DED2"/>
<path d="M184.469 168.667C177.231 166.639 158.854 169.041 158.854 169.041C158.854 169.041 152.531 164.078 152.638 157.621C152.719 151.164 155.975 142.333 151.724 140.785C151.724 140.785 163.805 141.346 169.912 143C176.047 144.654 184.119 146.415 181.805 152.098C179.437 157.808 179.437 163.251 184.469 168.667Z" fill="#FFF0DD"/>
<path d="M184.469 168.667C177.231 166.639 158.854 169.041 158.854 169.041C158.854 169.041 152.531 164.078 152.638 157.621C152.719 151.164 155.975 142.333 151.724 140.785C155.06 141.933 154.791 145.481 154.172 148.843C153.553 152.205 150.782 161.17 158.988 168.16C167.275 167.226 181.267 166.879 184.469 168.667Z" fill="#FFFEFC"/>
<path d="M166.71 181.874C166.414 181.981 166.091 182.221 165.822 182.541C164.988 183.448 164.396 184.889 164.881 185.102C165.526 185.396 169.643 187.13 170.692 186.49C171.15 186.223 172.011 184.515 171.93 183.501C171.903 183.208 171.822 182.994 171.607 182.861C171.15 182.541 167.921 181.42 166.71 181.874Z" fill="#FFC29E"/>
<path d="M166.711 181.874C166.415 181.981 166.092 182.221 165.823 182.541C167.599 183.021 170.72 183.768 171.931 183.475C171.904 183.181 171.823 182.968 171.608 182.834C171.151 182.541 167.922 181.42 166.711 181.874Z" fill="#E88479"/>
<path d="M173.007 179.712C172.442 179.392 168.352 178.058 166.872 178.458C166.63 178.538 166.388 178.645 166.173 178.805C165.016 179.605 164.182 181.34 164.881 181.633C165.688 181.953 170.935 183.954 172.173 183.367C172.818 183.074 174.002 180.753 173.222 179.872C173.168 179.819 173.114 179.765 173.007 179.712Z" fill="#FFC29E"/>
<path d="M173.007 179.712C172.442 179.392 168.352 178.058 166.872 178.458C166.63 178.538 166.388 178.645 166.173 178.805C168.002 179.312 171.85 180.219 173.222 179.872C173.168 179.819 173.115 179.766 173.007 179.712Z" fill="#E88479"/>
<path d="M174.272 176.11C173.653 175.79 169.267 174.376 167.707 174.776C167.438 174.829 167.196 174.963 166.953 175.123C165.769 175.923 164.908 177.658 165.662 177.925C166.523 178.271 172.146 180.352 173.465 179.765C174.057 179.499 175.079 177.711 174.756 176.67C174.675 176.457 174.514 176.244 174.272 176.11Z" fill="#FFC29E"/>
<path d="M174.272 176.11C173.653 175.79 169.267 174.376 167.706 174.776C167.437 174.829 167.195 174.963 166.953 175.123C167.922 175.523 173.438 177.311 174.675 176.724C174.702 176.724 174.729 176.697 174.729 176.67C174.675 176.457 174.514 176.244 174.272 176.11Z" fill="#E88479"/>
<path d="M174.891 176.617C173.653 177.204 168.406 175.23 167.599 174.883C166.792 174.536 168.137 172.108 169.617 171.708C171.097 171.308 175.16 172.615 175.752 172.962C176.935 173.602 175.59 176.297 174.891 176.617Z" fill="#FFC29E"/>
<path d="M139.024 158.528C138.19 159.062 136.817 159.302 135.633 158.421C134.154 157.327 131.382 157.221 129.768 157.274C129.149 157.301 128.665 157.327 128.503 157.354C127.965 157.434 126.862 163.037 125.544 165.919C125.409 166.185 125.301 166.426 125.167 166.666C123.983 168.694 119.813 169.654 118.252 169.948C117.875 170.028 117.633 170.054 117.633 170.054L116.934 169.467L111.283 164.745C111.283 164.745 120.754 153.058 122.315 152.098C123.875 151.111 131.113 152.098 132.674 152.178C134.234 152.285 136.548 155.46 139.535 157.141C140.046 157.461 139.723 158.101 139.024 158.528Z" fill="#FFC29E"/>
<path d="M138.997 158.528C138.163 159.061 136.818 159.302 135.607 158.421C134.127 157.327 131.356 157.22 129.741 157.274C128.046 156.287 126.62 155.46 126.62 155.46C126.62 155.46 130.468 154.899 132.378 155.273C134.288 155.646 135.741 158.234 136.737 158.528C137.383 158.715 138.351 158.635 138.997 158.528Z" fill="#E88479"/>
<path d="M135.741 161.623C135.391 161.997 135.014 162.264 134.665 162.317C133.992 162.45 130.306 161.17 127.911 160.076C126.781 159.569 125.92 159.062 125.812 158.795C125.463 157.915 126.028 155.914 126.27 155.433C126.377 155.247 129.31 155.3 131.543 155.78C133.777 156.26 136.198 158.929 136.602 159.516C136.898 159.916 136.414 160.93 135.741 161.623Z" fill="#FFC29E"/>
<path d="M135.741 161.623C135.391 161.996 135.014 162.263 134.664 162.317C133.992 162.45 130.305 161.169 127.911 160.075L126.027 158.181C126.108 158.181 129.337 158.128 131.355 158.581C133.077 158.981 135.122 160.075 135.741 161.623Z" fill="#E88479"/>
<path d="M135.499 162.823C135.445 163.704 134.638 164.478 133.938 164.931C133.535 165.198 133.158 165.385 133.023 165.438C132.808 165.518 130.36 164.664 128.261 163.891C126.566 163.277 125.059 162.69 125.059 162.69C125.059 162.69 123.929 158.875 126.082 158.208C126.082 158.208 130.871 158.875 132.297 159.542C133.669 160.209 135.58 161.409 135.499 162.823Z" fill="#FFC29E"/>
<path d="M133.912 164.932C133.508 165.198 133.132 165.385 132.997 165.438C132.782 165.518 130.333 164.665 128.235 163.891L125.49 162.103C125.49 162.103 128.665 162.077 129.876 162.21C130.952 162.317 133.051 163.491 133.912 164.932Z" fill="#E88479"/>
<path d="M124.548 165.546C124.548 165.546 130.413 167.68 131.624 167.547C132.835 167.413 133.642 166.079 133.507 165.279C133.373 164.478 127.776 162.397 126.162 162.13C124.548 161.864 122.718 162.477 124.548 165.546Z" fill="#FFC29E"/>
<path opacity="0.3" d="M125.544 165.945C125.409 166.212 125.302 166.452 125.167 166.692C123.983 168.72 119.813 169.681 118.252 169.974C115.696 174.777 111.176 181.527 104.799 192.44C98.0995 203.939 83.301 217.093 76.682 217.44C70.0631 217.787 65.7581 216.346 51.4708 200.391C48.5918 197.162 46.0088 193.48 43.7487 189.558C42.1074 186.703 40.6275 183.715 39.2822 180.7L44.2061 173.896L64.1168 169.547C64.8702 170.695 65.6235 171.842 66.3769 172.963L65.5697 173.443C64.4397 176.484 50.6367 188.918 48.5649 190.332C46.4662 191.773 63.3903 216.052 75.3098 215.732C81.3907 215.572 92.6913 205.327 101.813 193.454C109.589 183.341 115.616 171.495 116.961 169.467C117.122 169.227 117.203 169.094 117.203 169.094C117.203 169.094 117.929 168.854 118.952 168.507C121.078 167.813 124.522 166.586 125.544 165.945Z" fill="#E88479"/>
<path d="M66.4847 173.149C57.1213 182.248 46.5471 188.011 41.4349 190.465C40.7353 189.265 40.0896 188.037 39.4707 186.757C32.206 171.922 30.5916 154.232 30.2688 145.774C29.8113 134.275 36.4303 126.004 36.4303 126.004C36.4303 126.004 49.0225 145.774 55.0495 155.513C57.2827 159.115 60.8613 164.638 64.5205 170.161C65.1663 171.148 65.839 172.162 66.4847 173.149Z" fill="#DADFF2"/>
<path d="M66.4847 173.149C57.1213 182.248 46.5471 188.011 41.4349 190.465C40.7353 189.265 40.0895 188.037 39.4707 186.757C50.8521 182.061 60.6998 173.656 64.4936 170.161C65.1663 171.148 65.8389 172.162 66.4847 173.149Z" fill="#E3E9FF"/>
<path d="M119.463 173.656L114.028 180.273L108.135 172.802L106.978 172.669C106.252 172.589 105.633 172.215 105.256 171.655L103.911 169.601C103.507 168.987 103.669 168.133 104.288 167.599L110.153 162.69C110.88 162.076 111.956 162.157 112.467 162.824L114.404 165.278C115.104 166.185 114.566 167.973 114.566 167.973L119.463 173.656Z" fill="#273752"/>
<path d="M113.974 168.48L108.62 172.349L113.49 178.485L117.58 172.482L113.974 168.48Z" fill="url(#paint19_linear_221_12048)"/>
<path opacity="0.3" d="M112.952 166.399L106.951 171.041C106.467 171.415 105.768 171.335 105.445 170.855L104.261 169.2C103.965 168.774 104.046 168.187 104.449 167.84L110.261 162.93C110.745 162.53 111.472 162.584 111.822 163.091L113.194 165.012C113.49 165.438 113.382 166.052 112.952 166.399Z" fill="#63667A"/>
<path d="M115.741 176.35C116.086 176.145 116.247 175.785 116.102 175.544C115.957 175.304 115.56 175.275 115.216 175.48C114.872 175.684 114.71 176.045 114.856 176.285C115.001 176.525 115.397 176.554 115.741 176.35Z" fill="#182233"/>
<path d="M113.873 173.822C114.217 173.617 114.379 173.257 114.234 173.016C114.089 172.776 113.692 172.747 113.348 172.952C113.004 173.156 112.842 173.517 112.987 173.757C113.132 173.997 113.529 174.026 113.873 173.822Z" fill="#182233"/>
<path d="M104.181 169.808L103.556 170.224L104.455 171.554L105.08 171.137L104.181 169.808Z" fill="#182233"/>
</g>
<defs>
<linearGradient id="paint0_linear_221_12048" x1="99.3614" y1="242.627" x2="131.729" y2="107.969" gradientUnits="userSpaceOnUse">
<stop offset="0.0256343" stop-color="#0F3BA6"/>
<stop offset="1" stop-color="#0431D7"/>
</linearGradient>
<linearGradient id="paint1_linear_221_12048" x1="115.284" y1="173.657" x2="151.551" y2="144.901" gradientUnits="userSpaceOnUse">
<stop stop-color="#0F3BA6"/>
<stop offset="1" stop-color="#0741DF"/>
</linearGradient>
<linearGradient id="paint2_linear_221_12048" x1="84.3729" y1="163.245" x2="65.2226" y2="104.626" gradientUnits="userSpaceOnUse">
<stop stop-color="#0F3AA5"/>
<stop offset="1" stop-color="#0532D4"/>
</linearGradient>
<linearGradient id="paint3_linear_221_12048" x1="57.8938" y1="405.525" x2="141.508" y2="235.341" gradientUnits="userSpaceOnUse">
<stop stop-color="#042FD5"/>
<stop offset="1" stop-color="#0E389C"/>
</linearGradient>
<linearGradient id="paint4_linear_221_12048" x1="118.932" y1="25.9518" x2="58.3202" y2="80.8187" gradientUnits="userSpaceOnUse">
<stop stop-color="#8A5442"/>
<stop offset="1" stop-color="#380E24"/>
</linearGradient>
<radialGradient id="paint5_radial_221_12048" cx="0" cy="0" r="1" gradientUnits="userSpaceOnUse" gradientTransform="translate(101.894 29.1059) rotate(180) scale(24.4958 24.2907)">
<stop stop-color="#E66B5E"/>
<stop offset="1" stop-color="#FFC29E"/>
</radialGradient>
<radialGradient id="paint6_radial_221_12048" cx="0" cy="0" r="1" gradientUnits="userSpaceOnUse" gradientTransform="translate(85.5676 29.5564) rotate(180) scale(22.4229 22.2352)">
<stop stop-color="#E66B5E"/>
<stop offset="1" stop-color="#FFC29E"/>
</radialGradient>
<linearGradient id="paint7_linear_221_12048" x1="84.3438" y1="52.3016" x2="83.9999" y2="45.9834" gradientUnits="userSpaceOnUse">
<stop stop-color="#BD6745"/>
<stop offset="1" stop-color="#591624"/>
</linearGradient>
<linearGradient id="paint8_linear_221_12048" x1="103.428" y1="50.5734" x2="102.464" y2="45.086" gradientUnits="userSpaceOnUse">
<stop stop-color="#BD6745"/>
<stop offset="1" stop-color="#591624"/>
</linearGradient>
<radialGradient id="paint9_radial_221_12048" cx="0" cy="0" r="1" gradientUnits="userSpaceOnUse" gradientTransform="translate(72.1144 58.0357) rotate(180) scale(17.1054 16.9622)">
<stop stop-color="#E66B5E"/>
<stop offset="1" stop-color="#FFC29E"/>
</radialGradient>
<linearGradient id="paint10_linear_221_12048" x1="96.469" y1="62.8775" x2="98.4698" y2="82.045" gradientUnits="userSpaceOnUse">
<stop stop-color="#8A5442"/>
<stop offset="1" stop-color="#380E24"/>
</linearGradient>
<linearGradient id="paint11_linear_221_12048" x1="107.524" y1="36.4679" x2="111.257" y2="20.1033" gradientUnits="userSpaceOnUse">
<stop stop-color="#202B38"/>
<stop offset="1" stop-color="#193CCA"/>
</linearGradient>
<linearGradient id="paint12_linear_221_12048" x1="82.2517" y1="20.8024" x2="86.5696" y2="6.32816" gradientUnits="userSpaceOnUse">
<stop stop-color="#2F54EB"/>
<stop offset="1" stop-color="#193CCA"/>
</linearGradient>
<linearGradient id="paint13_linear_221_12048" x1="93.3963" y1="18.2986" x2="96.8013" y2="5.97974" gradientUnits="userSpaceOnUse">
<stop stop-color="#2F54EB"/>
<stop offset="1" stop-color="#193CCA"/>
</linearGradient>
<linearGradient id="paint14_linear_221_12048" x1="57.3299" y1="48.9455" x2="81.1688" y2="25.2175" gradientUnits="userSpaceOnUse">
<stop stop-color="#173A96"/>
<stop offset="1" stop-color="#0736C5"/>
</linearGradient>
<linearGradient id="paint15_linear_221_12048" x1="112.673" y1="141.058" x2="119.828" y2="141.058" gradientUnits="userSpaceOnUse">
<stop stop-color="#2F54EB"/>
<stop offset="1" stop-color="#22298F"/>
</linearGradient>
<linearGradient id="paint16_linear_221_12048" x1="131.835" y1="152.328" x2="130.291" y2="154.358" gradientUnits="userSpaceOnUse">
<stop stop-color="#2F54EB"/>
<stop offset="1" stop-color="#22298F"/>
</linearGradient>
<linearGradient id="paint17_linear_221_12048" x1="120.25" y1="145.377" x2="122.654" y2="145.377" gradientUnits="userSpaceOnUse">
<stop stop-color="#2F54EB"/>
<stop offset="1" stop-color="#22298F"/>
</linearGradient>
<linearGradient id="paint18_linear_221_12048" x1="151.469" y1="176.179" x2="141.037" y2="173.435" gradientUnits="userSpaceOnUse">
<stop stop-color="#F97314"/>
<stop offset="1" stop-color="#C4601A"/>
</linearGradient>
<linearGradient id="paint19_linear_221_12048" x1="111.038" y1="169.296" x2="115.441" y2="176.351" gradientUnits="userSpaceOnUse">
<stop stop-color="#636E7A" stop-opacity="0.4"/>
<stop offset="1" stop-color="#273752"/>
</linearGradient>
<clipPath id="clip0_221_12048">
<rect width="198.111" height="422.762" fill="white" transform="translate(0.833008 0.17572)"/>
</clipPath>
</defs>
</svg>
