<svg xmlns="http://www.w3.org/2000/svg" width="96" height="97" fill="none"><path stroke="#2F54EB" stroke-width="2.01041" d="M85.377 77.9476H10.6207"/><path fill="#2F54EB" d="M33.9375 30.1294v-1.0052c-.4035 0-.7679.2413-.9254.6128-.1576.3714-.0777.8011.2028 1.0912l.7226-.6988Zm28.1251 0 .7226-.6988-.7226-.3064v1.0052Zm22.0002 22.7501v1.0052l.7226-1.704-.7226.6988Zm-28.1252 0-.7226.6988.2963.3064h.4263v-1.0052Zm11.8546-16.8252-.7226.6988.7226-.6988Zm7.3109 7.5601-.7226.6988.7226-.6988Zm8.9597 8.2599H55.9376v2.0104h28.1252v-2.0104Zm-27.4026.3064L34.6601 29.4306l-1.4452 1.3976L55.215 53.5783l1.4452-1.3976ZM33.9375 31.1346h14.7501v-2.0104H33.9375v2.0104Zm24.5626 0h3.5625v-2.0104h-3.5625v2.0104Zm2.8399-.3064 5.7296 5.9249 1.4452-1.3976-5.7296-5.9249-1.4452 1.3976Zm13.0405 13.485 8.9597 9.2651 1.4452-1.3976-8.9597-9.2651-1.4452 1.3976Zm-7.3109-7.5601 7.3109 7.5601 1.4452-1.3976-7.3109-7.5601-1.4452 1.3976Z"/><path stroke="#2F54EB" stroke-linejoin="bevel" stroke-width="2.01041" d="m40.8691 30.1294 22.0002 22.7501"/><path fill="#2F54EB" fill-rule="evenodd" d="M58.7324 32.1812 78.056 52.1847l-1.4377 1.3903-17.8858-18.5658-.0001-2.828Z" clip-rule="evenodd"/><path stroke="#2F54EB" stroke-width="2.01041" d="M49.0527 33.8225v-7.0994h9.3751v11.3545h-5.2603l-4.1148-4.2551Z"/><path stroke="#2F54EB" stroke-linejoin="bevel" stroke-width="2.01041" d="M33.9362 30.1294 11.9361 52.8795h8.3751l12.2695-12.6877m3.433-3.5501-1.6463 1.7024"/><path stroke="#2F54EB" stroke-width="2.01041" d="M53.1751 26.5356v11.5419M20.3079 52.8799v22.3783M59.4329 52.8799v22.3783M78.4277 52.8799v18.3158m0 4.0625v-2.125M41.1856 75.2581V58.6055h-7.1251v16.6526"/><path stroke="#FA8C16" stroke-miterlimit="10" stroke-width="2.01041" d="M5.74031 53.5146c0 3.0363 2.49722 5.5005 5.57419 5.5005M.16609 59.0151c3.07692 0 5.57414-2.4642 5.57414-5.5005"/><path stroke="#FA8C16" stroke-miterlimit="10" stroke-width="2.01041" d="M5.74031 64.5156c0-3.0363 2.49722-5.5006 5.57419-5.5006M.16609 59.015c3.07692 0 5.57414 2.4643 5.57414 5.5006M77.4298 25.6293c0 3.0363 2.4972 5.5006 5.5741 5.5006M71.8555 31.1299c3.077 0 5.5742-2.4643 5.5742-5.5006"/><path stroke="#FA8C16" stroke-miterlimit="10" stroke-width="2.01041" d="M77.4298 36.6304c0-3.0363 2.4972-5.5006 5.5741-5.5006M71.8555 31.1298c3.077 0 5.5742 2.4643 5.5742 5.5006"/><path fill="#2F54EB" fill-rule="evenodd" d="m57.5469 41.0229 12.1381 12.552 1.4378-1.3903-10.7937-11.1617h-2.7822ZM40.5733 32.9927l-.856-.8115H38.5l.8115.8115h1.2618ZM47.5733 32.9927l-.856-.8115H45.5l.8115.8115h1.2618ZM62.2394 32.9927l-.8561-.8115H60.166l.8115.8115h1.2619ZM63.2168 49.8989l.7608.7608h1.2618l-.8025-.7608h-1.2201ZM55.8848 49.8989l.7608.7608h1.2618l-.8026-.7608h-1.22ZM70.5508 49.8989l.7608.7608h1.2618l-.8025-.7608h-1.2201ZM77.2168 49.8989l.7608.7608h1.2618l-.8025-.7608h-1.2201Z" clip-rule="evenodd"/></svg>