<svg width="97" height="96" viewBox="0 0 97 96" fill="none" xmlns="http://www.w3.org/2000/svg">
<line x1="85.8792" y1="77.0945" x2="11.1233" y2="77.0945" stroke="#2548D6" stroke-width="2"/>
<path d="M32.5588 73.407H22.8342" stroke="#2548D6" stroke-width="2"/>
<line x1="57.9299" y1="73.407" x2="43.678" y2="73.407" stroke="#2548D6" stroke-width="2"/>
<path d="M76.9299 73.407H61.9592" stroke="#2548D6" stroke-width="2"/>
<path d="M32.5588 65.407H22.8342" stroke="#2548D6" stroke-width="2"/>
<line x1="57.9299" y1="65.407" x2="43.678" y2="65.407" stroke="#2548D6" stroke-width="2"/>
<line x1="76.9299" y1="65.407" x2="61.9592" y2="65.407" stroke="#2548D6" stroke-width="2"/>
<path d="M32.5588 57.407H22.8342" stroke="#2548D6" stroke-width="2"/>
<path d="M57.9299 57.407H43.678" stroke="#2548D6" stroke-width="2"/>
<line x1="76.9299" y1="57.407" x2="61.9592" y2="57.407" stroke="#2548D6" stroke-width="2"/>
<line x1="49.887" y1="49.407" x2="27.2991" y2="49.407" stroke="#2548D6" stroke-width="2"/>
<line x1="42.4807" y1="41.407" x2="34.7092" y2="41.407" stroke="#2548D6" stroke-width="2"/>
<path d="M34.4387 29.282V28.282C34.0373 28.282 33.6748 28.522 33.5181 28.8916C33.3614 29.2611 33.4408 29.6886 33.7199 29.9771L34.4387 29.282ZM62.5637 29.282L63.2826 28.5868L62.5637 28.282V29.282ZM84.5637 52.032V53.032L85.2826 51.3368L84.5637 52.032ZM56.4387 52.032L55.7199 52.7271L56.0147 53.032H56.4387V52.032ZM84.5637 51.032H56.4387V53.032H84.5637V51.032ZM57.1576 51.3368L35.1576 28.5868L33.7199 29.9771L55.7199 52.7271L57.1576 51.3368ZM34.4387 30.282H45.5793V28.282H34.4387V30.282ZM54.97 30.282H62.5637V28.282H54.97V30.282ZM61.8449 29.9771L67.5744 35.902L69.0121 34.5117L63.2826 28.5868L61.8449 29.9771ZM74.8852 43.4621L83.8449 52.7271L85.2826 51.3368L76.3229 42.0717L74.8852 43.4621Z" fill="#2548D6"/>
<path d="M45.595 32.9751V25.8757H54.97V37.2301H49.7097L45.595 32.9751Z" stroke="#2548D6" stroke-width="2"/>
<path d="M34.4377 29.282L12.4377 52.032H20.8127L33.0821 39.3443M36.5151 35.7943L34.8689 37.4966" stroke="#2548D6" stroke-width="2" stroke-linejoin="bevel"/>
<line x1="49.7122" y1="25.6882" x2="49.7122" y2="37.23" stroke="#2548D6" stroke-width="2"/>
<line x1="20.8049" y1="52.032" x2="20.8049" y2="74.4102" stroke="#2548D6" stroke-width="2"/>
<line x1="59.9299" y1="52.032" x2="59.9299" y2="74.4102" stroke="#2548D6" stroke-width="2"/>
<path d="M78.9299 52.032L78.9299 70.3477M78.9299 74.4102L78.9299 72.4062" stroke="#2548D6" stroke-width="2"/>
<path d="M41.6877 74.4102V57.375H34.5627V74.4102" stroke="#2548D6" stroke-width="2"/>
<path d="M71.9183 33.437C71.9183 36.4733 74.4155 38.9376 77.4924 38.9376" stroke="#FA8C16" stroke-width="2" stroke-miterlimit="10"/>
<path d="M66.3441 38.9376C69.421 38.9376 71.9182 36.4733 71.9182 33.437" stroke="#FA8C16" stroke-width="2" stroke-miterlimit="10"/>
<path d="M71.9183 44.438C71.9183 41.4017 74.4155 38.9375 77.4924 38.9375" stroke="#FA8C16" stroke-width="2" stroke-miterlimit="10"/>
<path d="M66.3441 38.9375C69.421 38.9375 71.9182 41.4017 71.9182 44.438" stroke="#FA8C16" stroke-width="2" stroke-miterlimit="10"/>
<path d="M28.9027 17.3203C28.9027 20.3566 31.3999 22.8209 34.4768 22.8209" stroke="#FA8C16" stroke-width="2" stroke-miterlimit="10"/>
<path d="M23.3285 22.8209C26.4054 22.8209 28.9026 20.3566 28.9026 17.3203" stroke="#FA8C16" stroke-width="2" stroke-miterlimit="10"/>
<path d="M28.9027 28.3214C28.9027 25.285 31.3999 22.8208 34.4768 22.8208" stroke="#FA8C16" stroke-width="2" stroke-miterlimit="10"/>
<path d="M23.3285 22.8208C26.4054 22.8208 28.9026 25.285 28.9026 28.3214" stroke="#FA8C16" stroke-width="2" stroke-miterlimit="10"/>
</svg>
