<svg width="97" height="96" viewBox="0 0 97 96" fill="none" xmlns="http://www.w3.org/2000/svg">
<line x1="85.8779" y1="77.0945" x2="11.1221" y2="77.0945" stroke="#2548D6" stroke-width="2"/>
<path d="M34.4375 29.282V28.282C34.0361 28.282 33.6736 28.522 33.5169 28.8916C33.3601 29.2611 33.4396 29.6886 33.7186 29.9771L34.4375 29.282ZM62.5625 29.282L63.2814 28.5868L62.5625 28.282V29.282ZM84.5625 52.032V53.032L85.2814 51.3368L84.5625 52.032ZM56.4375 52.032L55.7186 52.7271L56.0134 53.032H56.4375V52.032ZM68.2921 35.2069L67.5732 35.902L68.2921 35.2069ZM75.6029 42.7669L74.884 43.4621L75.6029 42.7669ZM84.5625 51.032H56.4375V53.032H84.5625V51.032ZM57.1564 51.3368L35.1564 28.5868L33.7186 29.9771L55.7186 52.7271L57.1564 51.3368ZM34.4375 30.282H49.1875V28.282H34.4375V30.282ZM59 30.282H62.5625V28.282H59V30.282ZM61.8436 29.9771L67.5732 35.902L69.0109 34.5117L63.2814 28.5868L61.8436 29.9771ZM74.884 43.4621L83.8436 52.7271L85.2814 51.3368L76.3217 42.0717L74.884 43.4621ZM67.5732 35.902L74.884 43.4621L76.3217 42.0717L69.0109 34.5117L67.5732 35.902Z" fill="#2548D6"/>
<path d="M62.7565 51.3368L40.7565 28.5868L39.3187 29.9771L61.3187 52.7271L62.7565 51.3368Z" fill="#2548D6"/>
<path fill-rule="evenodd" clip-rule="evenodd" d="M59.6093 30.7098L79.5563 51.3368L78.1186 52.7272L58.1716 32.1002L59.6093 30.7098Z" fill="#2548D6"/>
<path d="M49.5537 32.9751V25.8757H58.9287V37.2301H53.6684L49.5537 32.9751Z" stroke="#2548D6" stroke-width="2"/>
<path d="M34.4365 29.282L12.4365 52.032H20.8115L33.0809 39.3443M36.5139 35.7943L34.8677 37.4966" stroke="#2548D6" stroke-width="2" stroke-linejoin="bevel"/>
<line x1="53.6709" y1="25.6882" x2="53.6709" y2="37.23" stroke="#2548D6" stroke-width="2"/>
<line x1="20.8037" y1="52.032" x2="20.8037" y2="74.4102" stroke="#2548D6" stroke-width="2"/>
<line x1="59.9287" y1="52.032" x2="59.9287" y2="74.4102" stroke="#2548D6" stroke-width="2"/>
<path d="M78.9287 52.032L78.9287 70.3477M78.9287 74.4102L78.9287 72.2852" stroke="#2548D6" stroke-width="2"/>
<path d="M41.6865 74.4102V57.7576H34.5615V74.4102" stroke="#2548D6" stroke-width="2"/>
<path d="M38.1241 42.3472C38.1241 45.3835 40.6213 47.8478 43.6982 47.8478" stroke="#FA8C16" stroke-width="2" stroke-miterlimit="10"/>
<path d="M32.5499 47.8478C35.6268 47.8478 38.124 45.3835 38.124 42.3472" stroke="#FA8C16" stroke-width="2" stroke-miterlimit="10"/>
<path d="M38.1241 53.3483C38.1241 50.312 40.6213 47.8477 43.6982 47.8477" stroke="#FA8C16" stroke-width="2" stroke-miterlimit="10"/>
<path d="M32.5499 47.8477C35.6268 47.8477 38.124 50.312 38.124 53.3483" stroke="#FA8C16" stroke-width="2" stroke-miterlimit="10"/>
<path d="M77.9288 24.7815C77.9288 27.8178 80.426 30.282 83.5029 30.282" stroke="#FA8C16" stroke-width="2" stroke-miterlimit="10"/>
<path d="M72.3546 30.282C75.4315 30.282 77.9287 27.8178 77.9287 24.7815" stroke="#FA8C16" stroke-width="2" stroke-miterlimit="10"/>
<path d="M77.9288 35.7825C77.9288 32.7462 80.426 30.282 83.5029 30.282" stroke="#FA8C16" stroke-width="2" stroke-miterlimit="10"/>
<path d="M72.3546 30.282C75.4315 30.282 77.9287 32.7462 77.9287 35.7825" stroke="#FA8C16" stroke-width="2" stroke-miterlimit="10"/>
<path fill-rule="evenodd" clip-rule="evenodd" d="M54.5793 39.9673L66.9185 52.7271L68.3563 51.3368L57.3615 39.9673H54.5793Z" fill="#2548D6"/>
<path fill-rule="evenodd" clip-rule="evenodd" d="M60.1794 39.9673L72.5186 52.7271L73.9564 51.3368L62.9616 39.9673H60.1794Z" fill="#2548D6"/>
</svg>
