<svg width="71" height="71" viewBox="0 0 71 71" fill="none" xmlns="http://www.w3.org/2000/svg">
    <path d="M35.832 0.435547C16.8585 0.435547 0.832031 16.462 0.832031 35.4355C0.832031 54.409 16.8585 70.4355 35.832 70.4355C54.8055 70.4355 70.832 54.409 70.832 35.4355C70.832 16.462 54.8055 0.435547 35.832 0.435547ZM35.832 17.9355C41.8765 17.9355 46.332 22.3875 46.332 28.4355C46.332 34.4835 41.8765 38.9355 35.832 38.9355C29.791 38.9355 25.332 34.4835 25.332 28.4355C25.332 22.3875 29.791 17.9355 35.832 17.9355ZM17.961 52.1375C21.1005 47.5175 26.3365 44.4375 32.332 44.4375H39.332C45.331 44.4375 50.5635 47.5175 53.703 52.1375C49.23 56.9255 42.8845 59.9355 35.832 59.9355C28.7795 59.9355 22.434 56.9255 17.961 52.1375Z"
          fill="#F1F1F1"/>
</svg>
