<svg width="38" height="38" viewBox="0 0 38 38" fill="none" xmlns="http://www.w3.org/2000/svg">
<path d="M34.8346 10.3702C34.8168 9.68709 34.764 9.00536 34.6763 8.32768C34.5581 7.73413 34.3611 7.15904 34.0905 6.61768C33.8075 6.03043 33.4274 5.49514 32.9663 5.03435C32.5009 4.57867 31.9666 4.19928 31.383 3.91018C30.8409 3.64489 30.2658 3.45319 29.673 3.34018C29.0017 3.23964 28.3248 3.18147 27.6463 3.16602H10.3721C9.68904 3.18381 9.00731 3.23665 8.32964 3.32435C7.73608 3.44257 7.16099 3.6396 6.61963 3.91018C6.03238 4.19318 5.49709 4.57324 5.0363 5.03435C4.58063 5.49971 4.20124 6.03406 3.91214 6.61768C3.64684 7.15976 3.45514 7.73484 3.34214 8.32768C3.24159 8.99891 3.18342 9.67581 3.16797 10.3543C3.16797 10.6552 3.16797 11.0827 3.16797 11.2093V26.7893C3.16797 26.9635 3.16797 27.3435 3.16797 27.6285C3.18576 28.3116 3.23861 28.9933 3.3263 29.671C3.44453 30.2646 3.64155 30.8397 3.91214 31.381C4.19514 31.9683 4.57519 32.5036 5.0363 32.9643C5.50166 33.42 6.03601 33.7994 6.61963 34.0885C7.16171 34.3538 7.7368 34.5455 8.32964 34.6585C9.00086 34.7591 9.67776 34.8172 10.3563 34.8327H27.6305C28.3136 34.8149 28.9953 34.762 29.673 34.6743C30.2665 34.5561 30.8416 34.3591 31.383 34.0885C31.9702 33.8055 32.5055 33.4255 32.9663 32.9643C33.422 32.499 33.8014 31.9646 34.0905 31.381C34.3558 30.8389 34.5475 30.2639 34.6605 29.671C34.761 28.9998 34.8192 28.3229 34.8346 27.6443C34.8346 27.3435 34.8346 26.9635 34.8346 26.7893V11.2093C34.8346 11.0827 34.8346 10.6552 34.8346 10.3702ZM19.3655 30.0827C17.464 30.0733 15.5958 29.5831 13.9346 28.6577L7.91797 30.241L9.5013 24.351C8.48023 22.6354 7.93378 20.6791 7.91797 18.6827C7.92427 16.439 8.59437 14.2473 9.84387 12.3837C11.0934 10.5201 12.8664 9.06794 14.9396 8.21007C17.0129 7.35219 19.2936 7.12699 21.4946 7.56283C23.6955 7.99868 25.7183 9.07606 27.3082 10.6593C28.898 12.2425 29.9838 14.2608 30.4288 16.46C30.8738 18.6591 30.658 20.9408 29.8088 23.0175C28.9596 25.0943 27.5148 26.8734 25.6564 28.1306C23.798 29.3878 21.6091 30.067 19.3655 30.0827ZM19.3655 9.29352C17.6868 9.31272 16.0433 9.77641 14.6021 10.6373C13.1609 11.4983 11.9736 12.7258 11.1611 14.1948C10.3486 15.6638 9.93981 17.3218 9.97644 19.0002C10.0131 20.6785 10.4938 22.3172 11.3696 23.7493L11.5913 24.1135L10.6413 27.581L14.2513 26.5993L14.5996 26.8052C16.0398 27.6535 17.6783 28.1068 19.3496 28.1193C21.8692 28.1193 24.2856 27.1185 26.0671 25.3369C27.8487 23.5553 28.8496 21.1389 28.8496 18.6193C28.8496 16.0998 27.8487 13.6834 26.0671 11.9018C24.2856 10.1202 21.8692 9.11935 19.3496 9.11935L19.3655 9.29352ZM24.9071 22.7835C24.6998 23.1294 24.4221 23.4279 24.0921 23.6598C23.762 23.8916 23.387 24.0516 22.9913 24.1293C22.4 24.2374 21.7912 24.1994 21.218 24.0185C20.6786 23.8499 20.1499 23.649 19.6346 23.4168C17.6772 22.4346 16.0079 20.9617 14.7896 19.1418C14.1276 18.2987 13.7259 17.2807 13.6338 16.2127C13.6244 15.769 13.7083 15.3283 13.8801 14.9192C14.052 14.51 14.3079 14.1416 14.6313 13.8377C14.7266 13.7297 14.8434 13.6429 14.9743 13.5829C15.1053 13.5229 15.2473 13.491 15.3913 13.4893H15.8346C16.0088 13.4893 16.2463 13.4893 16.468 13.9802C16.6896 14.471 17.2755 15.9435 17.3546 16.086C17.3935 16.162 17.4138 16.2461 17.4138 16.3314C17.4138 16.4168 17.3935 16.5009 17.3546 16.5768C17.2846 16.7489 17.1885 16.9091 17.0696 17.0518C16.9271 17.226 16.7688 17.4318 16.6421 17.5585C16.5155 17.6852 16.3571 17.8435 16.5155 18.1285C16.9463 18.8556 17.4795 19.5168 18.0988 20.0918C18.7732 20.6877 19.5442 21.1643 20.3788 21.501C20.6638 21.6435 20.838 21.6277 20.9963 21.501C21.1546 21.3743 21.7088 20.6777 21.8988 20.3927C22.0888 20.1077 22.2788 20.1552 22.5321 20.2502C22.7855 20.3452 24.1946 21.026 24.4796 21.1685C24.7646 21.311 24.9388 21.3743 25.018 21.501C25.0866 21.9154 25.0485 22.3405 24.9071 22.736V22.7835Z" fill="white"/>
</svg>
