<svg width="18" height="18" viewBox="0 0 18 18" fill="none" xmlns="http://www.w3.org/2000/svg">
<path d="M7.83073 10.4993L6.03906 8.70768C5.88628 8.5549 5.69184 8.47852 5.45573 8.47852C5.21962 8.47852 5.02517 8.5549 4.8724 8.70768C4.71962 8.86046 4.64323 9.0549 4.64323 9.29102C4.64323 9.52713 4.71962 9.72157 4.8724 9.87435L7.2474 12.2493C7.41406 12.416 7.60851 12.4993 7.83073 12.4993C8.05295 12.4993 8.2474 12.416 8.41406 12.2493L13.1224 7.54102C13.2752 7.38824 13.3516 7.19379 13.3516 6.95768C13.3516 6.72157 13.2752 6.52713 13.1224 6.37435C12.9696 6.22157 12.7752 6.14518 12.5391 6.14518C12.303 6.14518 12.1085 6.22157 11.9557 6.37435L7.83073 10.4993ZM8.9974 17.3327C7.84462 17.3327 6.76128 17.1138 5.7474 16.676C4.73351 16.2382 3.85156 15.6446 3.10156 14.8952C2.35156 14.1452 1.75795 13.2632 1.32073 12.2493C0.883507 11.2355 0.664618 10.1521 0.664062 8.99935C0.664062 7.84657 0.882951 6.76324 1.32073 5.74935C1.75851 4.73546 2.35212 3.85352 3.10156 3.10352C3.85156 2.35352 4.73351 1.7599 5.7474 1.32268C6.76128 0.88546 7.84462 0.666571 8.9974 0.666016C10.1502 0.666016 11.2335 0.884905 12.2474 1.32268C13.2613 1.76046 14.1432 2.35407 14.8932 3.10352C15.6432 3.85352 16.2371 4.73546 16.6749 5.74935C17.1127 6.76324 17.3313 7.84657 17.3307 8.99935C17.3307 10.1521 17.1118 11.2355 16.6741 12.2493C16.2363 13.2632 15.6427 14.1452 14.8932 14.8952C14.1432 15.6452 13.2613 16.2391 12.2474 16.6768C11.2335 17.1146 10.1502 17.3332 8.9974 17.3327Z" fill="#F7F7F7"/>
</svg>
