<svg width="28" height="28" viewBox="0 0 28 28" fill="none" xmlns="http://www.w3.org/2000/svg">
<g id="fi_3418754" clip-path="url(#clip0_70_833)">
<g id="Group">
<path id="Vector" d="M26.2426 18.5862V9.8772L24.602 10.4241V18.5862C23.5818 18.9297 22.8447 19.8946 22.8447 21.0291V25.4223C22.8447 25.8754 23.212 26.2426 23.665 26.2426H27.1796C27.6326 26.2426 27.9999 25.8754 27.9999 25.4223V21.0291C27.9999 19.8946 27.2628 18.9297 26.2426 18.5862Z" fill="#96423F"/>
<path id="Vector_2" d="M13.2222 13.6988L5.27197 11.0487V16.6359C5.27197 16.8535 5.35843 17.0621 5.51227 17.216C7.77972 19.4832 10.7943 20.7318 14.0005 20.7318C17.2068 20.7318 20.221 19.4832 22.488 17.2159C22.6418 17.062 22.7282 16.8534 22.7282 16.6359V11.0487L14.7783 13.6987C14.2349 13.8797 13.6878 13.8539 13.2222 13.6988Z" fill="#96423F"/>
<path id="Vector_3" d="M14 12.1844C14.0876 12.1844 14.1752 12.1703 14.2594 12.1423L27.4391 7.74904C27.774 7.63737 28 7.3239 28 6.97084C28 6.61778 27.7741 6.30431 27.4391 6.19264L14.2594 1.79943C14.0911 1.74337 13.9089 1.74337 13.7406 1.79943L0.56093 6.19264C0.225914 6.30426 0 6.61772 0 6.97084C0 7.32396 0.225914 7.63737 0.56093 7.74904L13.7406 12.1423C13.8248 12.1703 13.9124 12.1844 14 12.1844Z" fill="#96423F"/>
</g>
</g>
<defs>
<clipPath id="clip0_70_833">
<rect width="28" height="28" fill="white"/>
</clipPath>
</defs>
</svg>
