<svg width="18" height="18" viewBox="0 0 18 18" fill="none" xmlns="http://www.w3.org/2000/svg">
<g id="fi_11495264">
<g id="Shield">
<path id="Vector" d="M14.8052 5.24087C14.8018 5.03162 14.682 4.84487 14.4952 4.75037L9.25275 2.11618C9.09412 2.03631 8.90681 2.03631 8.74762 2.11618L3.50512 4.75037C3.31781 4.84487 3.19856 5.03162 3.19518 5.24087C3.171 6.75006 3.41737 12.8346 8.81062 14.6672C8.931 14.7083 9.06881 14.7083 9.18919 14.6672C14.583 12.8346 14.8294 6.75006 14.8052 5.24087ZM11.4274 7.87112L10.5847 8.69237C10.5054 8.76999 10.4689 8.88137 10.488 8.99049L10.6871 10.1498C10.7344 10.4249 10.4458 10.6347 10.1983 10.5047L9.15712 9.95743C9.05925 9.90568 8.94168 9.90568 8.84381 9.95743L7.80262 10.5047C7.55569 10.6347 7.26712 10.4249 7.31381 10.1498L7.51293 8.99049C7.5315 8.88137 7.4955 8.76999 7.41618 8.69237L6.57356 7.87112C6.37387 7.67649 6.48412 7.33674 6.76031 7.29681L7.92469 7.12749C8.03437 7.11174 8.12943 7.04256 8.17837 6.94299L8.69925 5.88831C8.823 5.63799 9.17962 5.63799 9.30337 5.88831L9.82425 6.94299C9.87318 7.04256 9.96825 7.11118 10.0779 7.12749L11.2423 7.29681C11.5168 7.33731 11.6271 7.67649 11.4274 7.87112Z" fill="#333333"/>
<path id="Vector_2" d="M14.5997 11.0334C14.0558 12.1573 13.3105 13.1873 12.3284 14.0271L14.242 15.9407L14.9564 14.0282L16.8751 13.3088L14.5997 11.0334Z" fill="#333333"/>
<path id="Vector_3" d="M3.40031 11.0334L1.125 13.3088L3.04312 14.0288L3.7575 15.9413L5.67112 14.0276C4.68956 13.1878 3.94425 12.1579 3.40031 11.0334Z" fill="#333333"/>
</g>
</g>
</svg>
