<svg width="20" height="20" viewBox="0 0 20 20" fill="none" xmlns="http://www.w3.org/2000/svg">
<g id="fi_10381179">
<path id="Vector" d="M8.74995 15.0771C7.30524 15.0759 5.9056 14.574 4.78949 13.6566C3.67338 12.7393 2.90984 11.4634 2.62895 10.0462C2.34806 8.62907 2.56719 7.15837 3.24901 5.88467C3.93084 4.61097 5.03317 3.61306 6.36823 3.06095C7.70328 2.50883 9.18846 2.43667 10.5708 2.85675C11.953 3.27683 13.1469 4.16317 13.949 5.36477C14.7511 6.56637 15.1118 8.0089 14.9696 9.4466C14.8274 10.8843 14.1912 12.2282 13.1693 13.2495C12.5894 13.8302 11.9004 14.2906 11.142 14.6043C10.3836 14.9179 9.57066 15.0786 8.74995 15.0771ZM8.74995 4.24904C7.69065 4.24998 6.66443 4.61816 5.84613 5.29085C5.02783 5.96353 4.46806 6.89912 4.26218 7.93823C4.0563 8.97733 4.21705 10.0557 4.71704 10.9896C5.21703 11.9234 6.02533 12.6551 7.00425 13.0599C7.98317 13.4647 9.07214 13.5175 10.0857 13.2095C11.0992 12.9014 11.9746 12.2515 12.5627 11.3705C13.1508 10.4894 13.4152 9.43169 13.311 8.37753C13.2067 7.32337 12.7402 6.33795 11.9909 5.58916C11.5656 5.16337 11.0603 4.82579 10.5041 4.59581C9.94793 4.36583 9.3518 4.24798 8.74995 4.24904Z" fill="#291622"/>
<path id="Vector_2" d="M16.5864 17.5001C16.4754 17.5003 16.3654 17.4782 16.2631 17.4352C16.1608 17.3922 16.0681 17.3291 15.9905 17.2496L12.3207 13.4996C12.1661 13.3416 12.0806 13.1287 12.0831 12.9076C12.0855 12.6866 12.1756 12.4755 12.3337 12.3209C12.4917 12.1664 12.7046 12.0809 12.9257 12.0833C13.1467 12.0857 13.3578 12.1759 13.5124 12.3339L17.1822 16.0839C17.297 16.2012 17.3746 16.3497 17.4053 16.5109C17.4359 16.6721 17.4184 16.8387 17.3548 16.9899C17.2911 17.1412 17.1843 17.2703 17.0476 17.361C16.9109 17.4518 16.7504 17.5002 16.5864 17.5001Z" fill="#291622"/>
</g>
</svg>
