<svg width="20" height="20" viewBox="0 0 20 20" fill="none" xmlns="http://www.w3.org/2000/svg">
<g id="fi_9538385" clip-path="url(#clip0_27_213)">
<g id="Group">
<path id="XMLID_27_" d="M7.93925 10.1514C7.96955 10.1514 7.96955 10.1817 7.96955 10.1817L11.2423 6.909L11.212 6.8787L7.4544 3.12112C7.42409 3.12112 7.42409 3.09082 7.42409 3.09082L4.15137 6.36355L4.18167 6.39385L7.93925 10.1514Z" fill="#96423F"/>
<path id="XMLID_783_" d="M5.36353 12.7272C5.69687 13.0605 6.27262 13.0605 6.63626 12.7272C6.75747 12.4848 8.42414 11.4848 7.51505 10.5757L3.75747 6.81812C3.39384 6.48478 2.84838 6.48478 2.48474 6.81812L1.60596 7.6969C1.27262 8.03024 1.27262 8.60599 1.60596 8.96963L5.36353 12.7272Z" fill="#96423F"/>
<path id="XMLID_784_" d="M11.6365 6.4545C11.9698 6.78783 12.5456 6.78783 12.9092 6.4545L13.788 5.57571C14.1516 5.21208 14.1213 4.66662 13.788 4.30299L10.0304 0.54541C9.69709 0.212077 9.12133 0.212077 8.75769 0.54541L7.87891 1.4545C7.54557 1.78783 7.54557 2.36359 7.87891 2.72723L11.6365 6.4545Z" fill="#96423F"/>
<path id="XMLID_818_" d="M18.909 15.4545L10.9696 8.06055L9.12109 9.90903L16.515 17.8787C17.1514 18.5757 18.2726 18.6363 18.9696 17.909C19.6665 17.2121 19.6362 16.1212 18.909 15.4545Z" fill="#96423F"/>
<path id="XMLID_819_" d="M11.1818 17.2121C11.303 17.0303 11.3636 16.8181 11.3636 16.606C11.3636 16.0303 10.909 15.5454 10.3636 15.5454H2.84844C2.30299 15.5454 1.84844 16 1.84844 16.606C1.84844 16.8484 1.90905 17.0606 2.03026 17.2121C1.15147 17.5454 0.54541 18.3939 0.54541 19.3939C0.54541 19.5454 0.666622 19.6969 0.84844 19.6969H12.3939C12.5454 19.6969 12.6969 19.5454 12.6969 19.3939C12.6666 18.3939 12.0606 17.5454 11.1818 17.2121Z" fill="#96423F"/>
</g>
</g>
<defs>
<clipPath id="clip0_27_213">
<rect width="20" height="20" fill="white"/>
</clipPath>
</defs>
</svg>
