<svg width="28" height="28" viewBox="0 0 28 28" fill="none" xmlns="http://www.w3.org/2000/svg">
<g id="fi_11495264">
<g id="Shield">
<path id="Vector" d="M23.0301 8.15227C23.0248 7.82677 22.8385 7.53627 22.548 7.38927L14.393 3.29164C14.1462 3.16739 13.8548 3.16739 13.6072 3.29164L5.45222 7.38927C5.16085 7.53627 4.97535 7.82677 4.9701 8.15227C4.93247 10.4999 5.31572 19.9648 13.7052 22.8155C13.8925 22.8794 14.1068 22.8794 14.2941 22.8155C22.6845 19.9648 23.0677 10.4999 23.0301 8.15227ZM17.7757 12.2438L16.465 13.5213C16.3416 13.642 16.2847 13.8153 16.3145 13.985L16.6242 15.7884C16.6977 16.2163 16.2488 16.5426 15.8638 16.3405L14.2442 15.4891C14.092 15.4086 13.9091 15.4086 13.7568 15.4891L12.1372 16.3405C11.7531 16.5426 11.3042 16.2163 11.3768 15.7884L11.6866 13.985C11.7155 13.8153 11.6595 13.642 11.5361 13.5213L10.2253 12.2438C9.91472 11.941 10.0862 11.4125 10.5158 11.3504L12.3271 11.087C12.4977 11.0625 12.6456 10.9549 12.7217 10.8L13.532 9.15939C13.7245 8.77002 14.2792 8.77002 14.4717 9.15939L15.282 10.8C15.3581 10.9549 15.506 11.0616 15.6766 11.087L17.4878 11.3504C17.9148 11.4134 18.0863 11.941 17.7757 12.2438Z" fill="#96423F"/>
<path id="Vector_2" d="M22.7105 17.1631C21.8644 18.9113 20.705 20.5134 19.1772 21.8198L22.154 24.7966L23.2652 21.8216L26.2499 20.7024L22.7105 17.1631Z" fill="#96423F"/>
<path id="Vector_3" d="M5.28938 17.1631L1.75 20.7024L4.73375 21.8224L5.845 24.7974L8.82175 21.8207C7.29487 20.5143 6.1355 18.9122 5.28938 17.1631Z" fill="#96423F"/>
</g>
</g>
</svg>
