<svg width="20" height="21" viewBox="0 0 20 21" fill="none" xmlns="http://www.w3.org/2000/svg">
<g id="fi_3759325">
<path id="Vector" d="M9.99993 15.4999C9.77931 15.4979 9.56807 15.4104 9.41077 15.2557L1.07743 6.92236C0.925634 6.7652 0.841639 6.55469 0.843537 6.3362C0.845436 6.1177 0.933077 5.90869 1.08758 5.75418C1.24209 5.59968 1.4511 5.51203 1.6696 5.51014C1.8881 5.50824 2.0986 5.59223 2.25577 5.74403L9.99993 13.4882L17.7441 5.74403C17.821 5.66444 17.9129 5.60095 18.0146 5.55728C18.1163 5.51361 18.2256 5.49062 18.3363 5.48966C18.4469 5.48869 18.5566 5.50978 18.6591 5.55168C18.7615 5.59358 18.8545 5.65546 18.9328 5.7337C19.011 5.81195 19.0729 5.90499 19.1148 6.0074C19.1567 6.10982 19.1778 6.21955 19.1768 6.3302C19.1758 6.44085 19.1529 6.5502 19.1092 6.65187C19.0655 6.75354 19.002 6.84549 18.9224 6.92236L10.5891 15.2557C10.4318 15.4104 10.2206 15.4979 9.99993 15.4999Z" fill="#291622"/>
</g>
</svg>
