<svg width="28" height="28" viewBox="0 0 28 28" fill="none" xmlns="http://www.w3.org/2000/svg">
<g id="fi_6519133">
<path id="Vector" d="M3.57984 10.6405C5.19531 11.2355 7.21875 11.62 9.40625 11.7578C11.1475 8.23047 14.782 5.79688 18.9766 5.79688C20.0922 5.79623 21.201 5.97119 22.2622 6.31531C21.9341 5.46492 21.0241 4.49148 18.842 3.69031C16.7891 2.9318 14.0809 2.51562 11.2109 2.51562C8.34094 2.51562 5.63281 2.9318 3.57984 3.68758C0.62125 4.7775 0 6.17969 0 7.16406C0 8.14844 0.62125 9.55063 3.57984 10.6405Z" fill="#96423F"/>
<path id="Vector_2" d="M3.57984 17.4765C4.97273 17.9894 6.66914 18.346 8.5132 18.5221C8.17546 16.8044 8.26504 15.0301 8.77406 13.3552C6.62867 13.1797 4.63859 12.7794 3.01273 12.18C1.76148 11.719 0.753047 11.1562 0 10.4956V14C0 14.9844 0.62125 16.3865 3.57984 17.4765Z" fill="#96423F"/>
<path id="Vector_3" d="M8.99281 20.2081C6.7643 20.044 4.69383 19.6355 3.01273 19.0159C1.76148 18.5549 0.753047 17.9922 0 17.3315V20.8359C0 21.8203 0.62125 23.2225 3.57984 24.3124C5.63281 25.0682 8.34094 25.4844 11.2109 25.4844C11.8825 25.4844 12.5453 25.4614 13.1934 25.4165C11.2733 24.1731 9.80134 22.348 8.99281 20.2081Z" fill="#96423F"/>
<path id="Vector_4" d="M18.9766 7.4375C14 7.4375 9.95312 11.4844 9.95312 16.4609C9.95312 21.4375 14 25.4844 18.9766 25.4844C23.9531 25.4844 28 21.4375 28 16.4609C28 11.4844 23.9531 7.4375 18.9766 7.4375ZM18.3094 15.6406H19.6438C20.3294 15.6486 20.9854 15.9215 21.4744 16.4022C21.9635 16.8828 22.2476 17.534 22.2674 18.2194C22.2872 18.9049 22.0411 19.5714 21.5806 20.0794C21.1201 20.5875 20.4809 20.8978 19.7969 20.9453V21.3828C19.7969 21.6004 19.7104 21.809 19.5566 21.9629C19.4028 22.1167 19.1941 22.2031 18.9766 22.2031C18.759 22.2031 18.5504 22.1167 18.3965 21.9629C18.2427 21.809 18.1562 21.6004 18.1562 21.3828V20.9519H16.4741C16.2565 20.9519 16.0479 20.8654 15.894 20.7116C15.7402 20.5578 15.6537 20.3491 15.6537 20.1316C15.6537 19.914 15.7402 19.7054 15.894 19.5515C16.0479 19.3977 16.2565 19.3112 16.4741 19.3112H19.6459C19.9151 19.3112 20.1733 19.2043 20.3637 19.014C20.554 18.8236 20.6609 18.5654 20.6609 18.2962C20.6609 18.0271 20.554 17.7689 20.3637 17.5785C20.1733 17.3882 19.9151 17.2812 19.6459 17.2812H18.3094C17.6237 17.2733 16.9677 17.0004 16.4787 16.5197C15.9897 16.039 15.7055 15.3878 15.6857 14.7024C15.666 14.017 15.9121 13.3505 16.3725 12.8424C16.833 12.3343 17.4722 12.0241 18.1562 11.9766V11.5391C18.1562 11.3215 18.2427 11.1129 18.3965 10.959C18.5504 10.8052 18.759 10.7188 18.9766 10.7188C19.1941 10.7188 19.4028 10.8052 19.5566 10.959C19.7104 11.1129 19.7969 11.3215 19.7969 11.5391V11.97H21.4791C21.6966 11.97 21.9053 12.0564 22.0591 12.2103C22.2129 12.3641 22.2994 12.5728 22.2994 12.7903C22.2994 13.0079 22.2129 13.2165 22.0591 13.3704C21.9053 13.5242 21.6966 13.6106 21.4791 13.6106H18.3072C18.038 13.6106 17.7798 13.7176 17.5895 13.9079C17.3991 14.0983 17.2922 14.3564 17.2922 14.6256C17.2922 14.8948 17.3991 15.153 17.5895 15.3433C17.7798 15.5337 18.038 15.6406 18.3072 15.6406H18.3094Z" fill="#96423F"/>
</g>
</svg>
