<svg width="19" height="19" viewBox="0 0 19 19" fill="none" xmlns="http://www.w3.org/2000/svg">
<g id="fi_483947" clip-path="url(#clip0_46_356)">
<g id="Group">
<g id="Group_2">
<path id="Vector" d="M17.0557 12.3149C15.9537 12.3149 14.8716 12.1426 13.8462 11.8037C13.3438 11.6323 12.7261 11.7896 12.4194 12.1045L10.3955 13.6324C8.04833 12.3794 6.60252 10.9341 5.3667 8.60455L6.84959 6.63336C7.23486 6.24861 7.37305 5.68658 7.20748 5.15923C6.86717 4.12845 6.6943 3.04691 6.6943 1.94441C6.69434 1.14795 6.04639 0.5 5.24998 0.5H1.94436C1.14795 0.5 0.5 1.14795 0.5 1.94436C0.5 11.0733 7.92678 18.5 17.0557 18.5C17.8521 18.5 18.5 17.852 18.5 17.0556V13.7593C18.5 12.9629 17.852 12.3149 17.0557 12.3149Z" fill="#291622"/>
</g>
</g>
</g>
<defs>
<clipPath id="clip0_46_356">
<rect width="18" height="18" fill="white" transform="translate(0.5 0.5)"/>
</clipPath>
</defs>
</svg>
