<svg width="17" height="17" viewBox="0 0 17 17" fill="none" xmlns="http://www.w3.org/2000/svg">
<g id="fi_2989988">
<g id="layer1">
<path id="path9429" d="M6.18944 3.81339C6.05091 3.81035 5.91486 3.85051 5.80023 3.92835C5.68559 4.0062 5.59805 4.11788 5.54979 4.24777C5.50153 4.37767 5.49494 4.51935 5.53093 4.65316C5.56693 4.78697 5.64372 4.90619 5.75064 4.99434L9.83007 8.48913L5.75064 11.9827C5.67668 12.037 5.61474 12.1061 5.5687 12.1855C5.52266 12.2649 5.49351 12.3529 5.48308 12.4441C5.47265 12.5353 5.48116 12.6277 5.50807 12.7154C5.53499 12.8032 5.57973 12.8844 5.6395 12.9541C5.69927 13.0238 5.77278 13.0803 5.85543 13.1202C5.93807 13.1601 6.02807 13.1825 6.11979 13.1861C6.21151 13.1896 6.30297 13.1742 6.38844 13.1408C6.47392 13.1074 6.55156 13.0566 6.61652 12.9918L11.2871 8.99563C11.3604 8.93304 11.4193 8.85535 11.4597 8.7678C11.5001 8.68024 11.521 8.58494 11.521 8.48851C11.521 8.39209 11.5001 8.29679 11.4597 8.20923C11.4193 8.12167 11.3604 8.04391 11.2871 7.98132L6.61652 3.98133C6.49854 3.87653 6.34721 3.81711 6.18944 3.81339Z" fill="#291622"/>
</g>
</g>
</svg>
