<svg width="32" height="32" viewBox="0 0 32 32" fill="none" xmlns="http://www.w3.org/2000/svg">
<g id="Twitter">
<rect width="32" height="32" rx="16" fill="#96423F"/>
<path id="Vector" d="M13.072 24.4399C20.168 24.4399 24.048 18.5599 24.048 13.4639C24.048 13.2959 24.048 13.1279 24.04 12.9679C24.792 12.4239 25.448 11.7439 25.968 10.9679C25.28 11.2719 24.536 11.4799 23.752 11.5759C24.552 11.0959 25.16 10.3439 25.448 9.43991C24.704 9.87991 23.88 10.1999 23 10.3759C22.296 9.62391 21.296 9.15991 20.184 9.15991C18.056 9.15991 16.328 10.8879 16.328 13.0159C16.328 13.3199 16.36 13.6159 16.432 13.8959C13.224 13.7359 10.384 12.1999 8.48003 9.86391C8.15203 10.4319 7.96003 11.0959 7.96003 11.7999C7.96003 13.1359 8.64003 14.3199 9.68003 15.0079C9.04803 14.9919 8.45603 14.8159 7.93603 14.5279C7.93603 14.5439 7.93603 14.5599 7.93603 14.5759C7.93603 16.4479 9.26403 17.9999 11.032 18.3599C10.712 18.4479 10.368 18.4959 10.016 18.4959C9.76803 18.4959 9.52803 18.4719 9.28803 18.4239C9.77603 19.9599 11.2 21.0719 12.888 21.1039C11.568 22.1359 9.90403 22.7519 8.09603 22.7519C7.78403 22.7519 7.48003 22.7359 7.17603 22.6959C8.86403 23.7999 10.896 24.4399 13.072 24.4399Z" fill="white"/>
</g>
</svg>
