<svg width="18" height="18" viewBox="0 0 18 18" fill="none" xmlns="http://www.w3.org/2000/svg">
<g id="fi_711245" clip-path="url(#clip0_47_656)">
<g id="Group">
<g id="Group_2">
<path id="Vector" d="M10.1816 3.71228H1.96937C0.886214 3.71228 0 4.59849 0 5.68165V12.3184C0 13.4016 0.886214 14.2878 1.96937 14.2878H10.1816C11.2648 14.2878 12.151 13.4016 12.151 12.3184V5.68165C12.151 4.5788 11.2648 3.71228 10.1816 3.71228Z" fill="#333333"/>
</g>
</g>
<g id="Group_3">
<g id="Group_4">
<path id="Vector_2" d="M16.5427 4.79551C16.4246 4.81521 16.3064 4.87429 16.208 4.93337L13.1357 6.7058V11.2747L16.2276 13.0472C16.7988 13.3819 17.5077 13.185 17.8425 12.6139C17.941 12.4367 18.0001 12.2397 18.0001 12.0231V5.93775C18.0001 5.20908 17.3108 4.61827 16.5427 4.79551Z" fill="#333333"/>
</g>
</g>
</g>
<defs>
<clipPath id="clip0_47_656">
<rect width="18" height="18" fill="white"/>
</clipPath>
</defs>
</svg>
