<svg width="38" height="38" viewBox="0 0 38 38" fill="none" xmlns="http://www.w3.org/2000/svg">
<path d="M21.8196 14.9777C21.7406 14.9777 21.6624 14.9932 21.5894 15.0235C21.5164 15.0537 21.4501 15.098 21.3942 15.1539C21.3383 15.2098 21.294 15.2761 21.2638 15.3491C21.2335 15.4221 21.218 15.5003 21.218 15.5793V18.2235L19.0013 15.2785C18.9461 15.1889 18.8694 15.1145 18.7781 15.0619C18.6869 15.0094 18.584 14.9805 18.4788 14.9777C18.3998 14.9777 18.3216 14.9932 18.2486 15.0235C18.1756 15.0537 18.1092 15.098 18.0534 15.1539C17.9975 15.2098 17.9532 15.2761 17.9229 15.3491C17.8927 15.4221 17.8771 15.5003 17.8771 15.5793V20.076C17.8771 20.155 17.8927 20.2333 17.9229 20.3063C17.9532 20.3793 17.9975 20.4456 18.0534 20.5015C18.1092 20.5573 18.1756 20.6016 18.2486 20.6319C18.3216 20.6621 18.3998 20.6777 18.4788 20.6777C18.5578 20.6777 18.6361 20.6621 18.7091 20.6319C18.782 20.6016 18.8484 20.5573 18.9042 20.5015C18.9601 20.4456 19.0044 20.3793 19.0347 20.3063C19.0649 20.2333 19.0805 20.155 19.0805 20.076V17.416L21.2813 20.4402C21.3373 20.5245 21.4215 20.5863 21.5188 20.6143C21.5918 20.6307 21.6675 20.6307 21.7405 20.6143C21.8099 20.6396 21.8839 20.6498 21.9576 20.6444C22.0313 20.6389 22.103 20.6179 22.168 20.5827L22.3263 20.4718C22.4374 20.3572 22.4999 20.204 22.5005 20.0443V15.5793C22.5012 15.4932 22.4835 15.4079 22.4484 15.3292C22.4133 15.2505 22.3618 15.1803 22.2972 15.1233C22.2327 15.0662 22.1567 15.0237 22.0743 14.9986C21.9919 14.9735 21.905 14.9663 21.8196 14.9777ZM14.568 19.4268H12.8896V15.5793C12.8896 15.4198 12.8262 15.2667 12.7134 15.1539C12.6006 15.0411 12.4475 14.9777 12.288 14.9777C12.1284 14.9777 11.9754 15.0411 11.8625 15.1539C11.7497 15.2667 11.6863 15.4198 11.6863 15.5793V20.076C11.6863 20.2356 11.7497 20.3886 11.8625 20.5015C11.9754 20.6143 12.1284 20.6777 12.288 20.6777H14.568C14.729 20.6777 14.8837 20.6149 14.9991 20.5025C15.1145 20.3901 15.1813 20.237 15.1855 20.076C15.1898 19.9923 15.177 19.9086 15.1479 19.83C15.1188 19.7514 15.074 19.6795 15.0162 19.6188C14.9584 19.558 14.8889 19.5097 14.8118 19.4767C14.7348 19.4437 14.6518 19.4267 14.568 19.4268ZM16.3255 14.9777C16.1644 14.9776 16.0097 15.0405 15.8943 15.1529C15.779 15.2653 15.7121 15.4183 15.708 15.5793V20.076C15.7121 20.237 15.779 20.3901 15.8943 20.5025C16.0097 20.6149 16.1644 20.6777 16.3255 20.6777C16.485 20.6777 16.6381 20.6143 16.7509 20.5015C16.8637 20.3886 16.9271 20.2356 16.9271 20.076V15.5793C16.9271 15.4198 16.8637 15.2667 16.7509 15.1539C16.6381 15.0411 16.485 14.9777 16.3255 14.9777ZM28.3588 3.16602H9.6438C7.92759 3.1702 6.28286 3.85381 5.06931 5.06736C3.85577 6.28091 3.17215 7.92564 3.16797 9.64185V28.3568C3.17215 30.0731 3.85577 31.7178 5.06931 32.9313C6.28286 34.1449 7.92759 34.8285 9.6438 34.8327H28.3588C30.075 34.8285 31.7197 34.1449 32.9333 32.9313C34.1468 31.7178 34.8305 30.0731 34.8346 28.3568V9.64185C34.8305 7.92564 34.1468 6.28091 32.9333 5.06736C31.7197 3.85381 30.075 3.1702 28.3588 3.16602ZM28.8496 22.6093C28.7873 22.7037 28.7185 22.7936 28.6438 22.8785C28.2662 23.3432 27.8418 23.7676 27.3771 24.1452C24.2105 27.106 18.8905 30.6527 18.178 30.0985C17.4655 29.5443 19.1913 27.3118 17.3388 26.9318C17.2074 26.9484 17.0744 26.9484 16.943 26.9318C11.4963 26.1718 7.44297 22.356 7.44297 17.7802C7.44297 12.6343 12.6521 8.47018 19.0646 8.47018C25.4771 8.47018 30.6863 12.6343 30.6863 17.7802C30.6314 19.55 29.9847 21.2503 28.8496 22.6093ZM26.1421 14.9935H23.7513C23.5917 14.9935 23.4387 15.0569 23.3259 15.1697C23.213 15.2826 23.1496 15.4356 23.1496 15.5952V20.0918C23.1496 20.1709 23.1652 20.2491 23.1954 20.3221C23.2257 20.3951 23.27 20.4614 23.3259 20.5173C23.3817 20.5732 23.4481 20.6175 23.5211 20.6477C23.594 20.678 23.6723 20.6935 23.7513 20.6935H26.0946C26.1736 20.6935 26.2519 20.678 26.3249 20.6477C26.3979 20.6175 26.4642 20.5732 26.5201 20.5173C26.5759 20.4614 26.6203 20.3951 26.6505 20.3221C26.6807 20.2491 26.6963 20.1709 26.6963 20.0918C26.6963 19.9323 26.6329 19.7792 26.5201 19.6664C26.4072 19.5536 26.2542 19.4902 26.0946 19.4902H24.4638V18.5402H26.1421C26.3031 18.5361 26.4562 18.4692 26.5686 18.3538C26.681 18.2385 26.7439 18.0837 26.7438 17.9227C26.7438 17.7631 26.6804 17.6101 26.5676 17.4972C26.4547 17.3844 26.3017 17.321 26.1421 17.321H24.4638V16.3552H26.1421C26.3017 16.3552 26.4547 16.2918 26.5676 16.179C26.6804 16.0661 26.7438 15.9131 26.7438 15.7535C26.7687 15.6625 26.7718 15.5669 26.753 15.4745C26.7341 15.382 26.6937 15.2953 26.6352 15.2213C26.5766 15.1474 26.5015 15.0882 26.4158 15.0486C26.3302 15.0091 26.2364 14.9902 26.1421 14.9935Z" fill="white"/>
</svg>
