<svg width="18" height="18" viewBox="0 0 18 18" fill="none" xmlns="http://www.w3.org/2000/svg">
<g id="fi_1828739" clip-path="url(#clip0_60_2085)">
<path id="Vector" d="M9.00194 0C4.03915 0 0.00195312 4.0372 0.00195312 9C0.00195312 13.9628 4.03915 18 9.00194 18C13.9647 18 18.0019 13.9628 18.0019 9C18.0019 4.0372 13.9647 0 9.00194 0ZM13.5635 7.09277L8.68842 11.9677C8.54217 12.1139 8.35018 12.1875 8.15819 12.1875C7.96621 12.1875 7.77422 12.1139 7.62797 11.9677L5.19052 9.53023C4.89718 9.23703 4.89718 8.76297 5.19052 8.46977C5.48371 8.17644 5.95764 8.17644 6.25097 8.46977L8.15819 10.377L12.503 6.03232C12.7962 5.73898 13.2701 5.73898 13.5635 6.03232C13.8567 6.32552 13.8567 6.79944 13.5635 7.09277Z" fill="#DFAB3E"/>
</g>
<defs>
<clipPath id="clip0_60_2085">
<rect width="18" height="18" fill="white"/>
</clipPath>
</defs>
</svg>
