<svg width="17" height="16" viewBox="0 0 17 16" fill="none" xmlns="http://www.w3.org/2000/svg">
<path d="M12.1207 4.93204L8.99578 8.05701L5.87081 4.93204C5.79625 4.85748 5.70773 4.79833 5.6103 4.75797C5.51288 4.71762 5.40846 4.69685 5.303 4.69685C5.19755 4.69685 5.09313 4.71762 4.99571 4.75797C4.89828 4.79833 4.80976 4.85748 4.73519 4.93204C4.66063 5.00661 4.60148 5.09513 4.56113 5.19256C4.52077 5.28998 4.5 5.3944 4.5 5.49985C4.5 5.6053 4.52077 5.70972 4.56113 5.80715C4.60148 5.90457 4.66063 5.9931 4.73519 6.06766L8.432 9.76446C8.50651 9.83913 8.59501 9.89836 8.69245 9.93878C8.78988 9.9792 8.89433 10 8.99981 10C9.10529 10 9.20974 9.9792 9.30717 9.93878C9.4046 9.89836 9.49311 9.83913 9.56762 9.76446L13.2644 6.06766C13.5785 5.75355 13.5785 5.24615 13.2644 4.93204C12.9503 4.62599 12.4349 4.61793 12.1207 4.93204Z" fill="white"/>
</svg>
