<svg width="79" height="79" viewBox="0 0 79 79" fill="none" xmlns="http://www.w3.org/2000/svg">
<mask id="mask0_340_3687" style="mask-type:luminance" maskUnits="userSpaceOnUse" x="2" y="2" width="75" height="75">
<path d="M76.4917 39.5877C76.4917 49.4115 72.5892 58.8329 65.6427 65.7794C58.6962 72.7259 49.2748 76.6284 39.4509 76.6284C29.6271 76.6284 20.2057 72.7259 13.2592 65.7794C6.31266 58.8329 2.41016 49.4115 2.41016 39.5877C2.41016 29.7638 6.31266 20.3424 13.2592 13.3959C20.2057 6.44937 29.6271 2.54688 39.4509 2.54688C49.2748 2.54688 58.6962 6.44937 65.6427 13.3959C72.5892 20.3424 76.4917 29.7638 76.4917 39.5877Z" fill="white"/>
</mask>
<g mask="url(#mask0_340_3687)">
<path d="M-16.0195 59.5239H95.0674V53.8242H-16.0195V59.5239Z" fill="white"/>
<path d="M-16.0195 53.8225H95.0674V48.125H-16.0195V53.8225Z" fill="#DD2D2F"/>
<path d="M-16.0195 70.9143H95.0674V65.2168H-16.0195V70.9143Z" fill="white"/>
<path d="M-16.0195 76.6138H95.0674V70.9141H-16.0195V76.6138Z" fill="#DD2D2F"/>
<path d="M-16.0195 65.2166H95.0674V59.5234H-16.0195V65.2166Z" fill="#DD2D2F"/>
<path d="M-16.0195 47.8573H95.0674V42.1641H-16.0195V47.8573Z" fill="white"/>
<path d="M-16.0195 31.035H95.0674V25.3418H-16.0195V31.035Z" fill="#DD2D2F"/>
<path d="M-16.0195 13.9458H95.0674V8.24609H-16.0195V13.9458Z" fill="white"/>
<path d="M-16.0195 19.6429H95.0674V13.9453H-16.0195V19.6429Z" fill="#DD2D2F"/>
<path d="M-16.0195 42.4326H95.0674V36.7285H-16.0195V42.4326Z" fill="#DD2D2F"/>
<path d="M-16.0195 8.24531H95.0674V2.55859H-16.0195V8.24531Z" fill="#DD2D2F"/>
<path d="M-16.0195 25.3423H95.0674V19.6426H-16.0195V25.3423Z" fill="white"/>
<path d="M-16.0195 36.7284H95.0674V31.0352H-16.0195V36.7284Z" fill="white"/>
</g>
<mask id="mask1_340_3687" style="mask-type:luminance" maskUnits="userSpaceOnUse" x="2" y="2" width="75" height="75">
<path d="M76.5103 39.4016C76.5103 49.2243 72.6083 58.6447 65.6626 65.5903C58.7169 72.536 49.2966 76.4381 39.4739 76.4381C29.6512 76.4381 20.2309 72.536 13.2852 65.5903C6.33955 58.6447 2.4375 49.2243 2.4375 39.4016C2.4375 29.579 6.33955 20.1586 13.2852 13.2129C20.2309 6.26727 29.6512 2.36523 39.4739 2.36523C49.2966 2.36523 58.7169 6.26727 65.6626 13.2129C72.6083 20.1586 76.5103 29.579 76.5103 39.4016Z" fill="white"/>
</mask>
<g mask="url(#mask1_340_3687)">
<path d="M2.47266 42.4556H39.5039V2.36914H2.47266V42.4556Z" fill="#153F6C"/>
</g>
<path d="M30.8029 7.73242L31.0798 8.5929H31.9834L31.2519 9.12437L31.535 9.98485L30.8031 9.45285L30.0656 9.98485L30.3486 9.12437L29.6172 8.5929H30.5207L30.8029 7.73242Z" fill="white"/>
<path d="M30.8029 15.2891L31.0798 16.149H31.9834L31.2519 16.681L31.535 17.541L30.8031 17.0151L30.0656 17.541L30.3486 16.681L29.6172 16.149H30.5207L30.8029 15.2891Z" fill="white"/>
<path d="M30.8029 22.8496L31.0798 23.7116H31.9834L31.2519 24.2416L31.535 25.1035L30.8031 24.5716L30.0656 25.1035L30.3486 24.2416L29.6172 23.7116H30.5207L30.8029 22.8496Z" fill="white"/>
<path d="M30.8029 30.5781L31.0798 31.4442H31.9834L31.2519 31.9761L31.535 32.8422L30.8031 32.3041L30.0656 32.8422L30.3486 31.9761L29.6172 31.4442H30.5207L30.8029 30.5781Z" fill="white"/>
<path d="M30.8029 37.9629L31.0798 38.8249H31.9834L31.2519 39.3609L31.535 40.2209L30.8031 39.6849L30.0656 40.2209L30.3486 39.3609L29.6172 38.8249H30.5207L30.8029 37.9629Z" fill="white"/>
<path d="M24.0223 7.73242L24.3013 8.5929H25.2089L24.475 9.12437L24.754 9.98485L24.0226 9.45285L23.2891 9.98485L23.5673 9.12437L22.8359 8.5929H23.7435L24.0223 7.73242Z" fill="white"/>
<path d="M24.0223 15.2891L24.3013 16.149H25.2089L24.475 16.681L24.754 17.541L24.0226 17.0151L23.2891 17.541L23.5673 16.681L22.8359 16.149H23.7435L24.0223 15.2891Z" fill="white"/>
<path d="M24.0223 22.8496L24.3013 23.7116H25.2089L24.475 24.2416L24.754 25.1035L24.0226 24.5716L23.2891 25.1035L23.5673 24.2416L22.8359 23.7116H23.7435L24.0223 22.8496Z" fill="white"/>
<path d="M24.0223 30.5781L24.3013 31.4442H25.2089L24.475 31.9761L24.754 32.8422L24.0226 32.3041L23.2891 32.8422L23.5673 31.9761L22.8359 31.4442H23.7435L24.0223 30.5781Z" fill="white"/>
<path d="M24.0223 37.9629L24.3013 38.8249H25.2089L24.475 39.3609L24.754 40.2209L24.0226 39.6849L23.2891 40.2209L23.5673 39.3609L22.8359 38.8249H23.7435L24.0223 37.9629Z" fill="white"/>
<path d="M17.249 15.2891L17.5259 16.149H18.4294L17.698 16.681L17.9802 17.541L17.2488 17.0151L16.5113 17.541L16.7944 16.681L16.0625 16.149H16.9645L17.2487 15.2891" fill="white"/>
<path d="M17.249 22.8496L17.5259 23.7116H18.4294L17.698 24.2416L17.9802 25.1035L17.2488 24.5716L16.5113 25.1035L16.7944 24.2416L16.0625 23.7116H16.9645L17.2487 22.8496" fill="white"/>
<path d="M17.249 30.5781L17.5259 31.4442H18.4294L17.698 31.9761L17.9802 32.8422L17.2488 32.3041L16.5113 32.8422L16.7944 31.9761L16.0625 31.4442H16.9645L17.2487 30.5781" fill="white"/>
<path d="M17.249 37.9629L17.5259 38.8249H18.4294L17.698 39.3609L17.9802 40.2209L17.2488 39.6849L16.5113 40.2209L16.7944 39.3609L16.0625 38.8249H16.9645L17.2487 37.9629" fill="white"/>
<path d="M10.4673 22.8496L10.7459 23.7116H11.6535L10.922 24.2416L11.2011 25.1035L10.4676 24.5716L9.73568 25.1035L10.0147 24.2416L9.28125 23.7116H10.1848L10.4678 22.8496" fill="white"/>
<path d="M10.4673 30.5781L10.7459 31.4442H11.6535L10.922 31.9761L11.2011 32.8422L10.4676 32.3041L9.73568 32.8422L10.0147 31.9761L9.28125 31.4442H10.1848L10.4678 30.5781" fill="white"/>
<path d="M10.4673 37.9629L10.7459 38.8249H11.6535L10.922 39.3609L11.2011 40.2209L10.4676 39.6849L9.73568 40.2209L10.0147 39.3609L9.28125 38.8249H10.1848L10.4678 37.9629" fill="white"/>
<path d="M34.2564 11.5059L34.535 12.3719H35.4425L34.7091 12.8978L34.9881 13.7639L34.2567 13.2324L33.5227 13.7639L33.8037 12.8978L33.0703 12.3719H33.9758L34.2569 11.5059" fill="white"/>
<path d="M34.2564 19.3125L34.535 20.173H35.4425L34.7091 20.7044L34.9881 21.5649L34.2567 21.033L33.5227 21.5649L33.8037 20.7044L33.0703 20.173H33.9758L34.2569 19.3125" fill="white"/>
<path d="M34.1899 26.9609L34.4709 27.8209H35.3765L34.6446 28.3529L34.9236 29.2129L34.1901 28.6768L33.4587 29.2129L33.7373 28.3529L33.0039 27.8209H33.9114L34.1904 26.9609" fill="white"/>
<path d="M34.12 34.5176L34.4011 35.3781H35.3086L34.5732 35.9095L34.8554 36.77L34.1199 36.24L33.3906 36.77L33.6695 35.9095L32.9336 35.3781H33.8412L34.12 34.5176Z" fill="white"/>
<path d="M27.4754 11.5059L27.7564 12.3719H28.664L27.9285 12.8978L28.2107 13.7639L27.4753 13.2324L26.7418 13.7639L27.0249 12.8978L26.293 12.3719H27.1964L27.4754 11.5059Z" fill="white"/>
<path d="M27.4754 19.3125L27.7564 20.173H28.664L27.9285 20.7044L28.2107 21.5649L27.4753 21.033L26.7418 21.5649L27.0249 20.7044L26.293 20.173H27.1964L27.4754 19.3125Z" fill="white"/>
<path d="M27.4126 26.9609L27.6916 27.8209H28.5991L27.8677 28.3529L28.1463 29.2129L27.4129 28.6768L26.6815 29.2129L26.9605 28.3529L26.2266 27.8209H27.1306L27.4128 26.9609" fill="white"/>
<path d="M27.3458 34.5176L27.6248 35.3781H28.5304L27.799 35.9095L28.078 36.77L27.346 36.24L26.6126 36.77L26.8916 35.9095L26.1602 35.3781H27.0657L27.3463 34.5176" fill="white"/>
<path d="M20.6996 11.2402L20.9802 12.1002H21.8857L21.1543 12.6322L21.4354 13.4921L20.6999 12.9607L19.968 13.4921L20.249 12.6322L19.5156 12.1002H20.4211L20.7001 11.2402" fill="white"/>
<path d="M20.6996 19.0391L20.9802 19.899H21.8857L21.1543 20.4351L21.4354 21.291L20.6999 20.7651L19.968 21.291L20.249 20.4351L19.5156 19.899H20.4211L20.7001 19.0391" fill="white"/>
<path d="M20.6357 26.6875L20.9119 27.5475H21.8195L21.086 28.0794L21.367 28.9394L20.6356 28.4074L19.8996 28.9394L20.1807 28.0794L19.4492 27.5475H20.3548L20.6357 26.6875Z" fill="white"/>
<path d="M20.5649 34.248L20.8459 35.1101H21.7515L21.0196 35.6359L21.2985 36.502L20.5651 35.97L19.8337 36.502L20.1123 35.6359L19.3789 35.1101H20.2844L20.5654 34.248" fill="white"/>
<path d="M13.9251 18.9629L14.2032 19.8228H15.1093L14.3753 20.3609L14.6543 21.2209L13.9249 20.6849L13.1895 21.2209L13.4717 20.3609L12.7383 19.8228H13.6438L13.9249 18.9629" fill="white"/>
<path d="M13.8578 26.6094L14.1348 27.4714H15.0423L14.3089 28.0074L14.5895 28.8674L13.8581 28.3319L13.1247 28.8674L13.4033 28.0074L12.6719 27.4714H13.5754L13.8584 26.6094" fill="white"/>
<path d="M13.788 34.168L14.069 35.03H14.9745L14.2411 35.566L14.5193 36.426L13.7879 35.8899L13.0565 36.426L13.3355 35.566L12.6016 35.03H13.5071L13.788 34.168Z" fill="white"/>
<path d="M7.07624 26.4785L7.35724 27.339H8.26274L7.52933 27.8705L7.81036 28.7309L7.07642 28.199L6.34504 28.7309L6.62402 27.8705L5.89062 27.339H6.79816L7.07674 26.4785" fill="white"/>
<path d="M7.01028 34.0371L7.28687 34.8971H8.19443L7.46099 35.4291L7.74201 36.2891L7.01057 35.7576L6.27462 36.2891L6.55563 35.4291L5.82422 34.8971H6.72976L7.0108 34.0371" fill="white"/>
<path d="M37.5771 7.73242L37.854 8.5929H38.7616L38.0302 9.12437L38.3084 9.98485L37.5769 9.45285L36.8435 9.98485L37.1225 9.12437L36.3906 8.5929H37.2962L37.5771 7.73242Z" fill="white"/>
<path d="M37.5771 15.2891L37.854 16.149H38.7616L38.0302 16.681L38.3084 17.541L37.5769 17.0151L36.8435 17.541L37.1225 16.681L36.3906 16.149H37.2962L37.5771 15.2891Z" fill="white"/>
<path d="M37.5771 22.8496L37.854 23.7116H38.7616L38.0302 24.2416L38.3084 25.1035L37.5769 24.5716L36.8435 25.1035L37.1225 24.2416L36.3906 23.7116H37.2962L37.5771 22.8496Z" fill="white"/>
<path d="M37.5771 30.5781L37.854 31.4442H38.7616L38.0302 31.9761L38.3084 32.8422L37.5769 32.3041L36.8435 32.8422L37.1225 31.9761L36.3906 31.4442H37.2962L37.5771 30.5781Z" fill="white"/>
<path d="M37.5771 37.9629L37.854 38.8249H38.7616L38.0302 39.3609L38.3084 40.2209L37.5769 39.6849L36.8435 40.2209L37.1225 39.3609L36.3906 38.8249H37.2962L37.5771 37.9629Z" fill="white"/>
<path d="M34.2564 4.29688L34.535 5.15889H35.4425L34.7111 5.6949L34.9901 6.55489L34.2567 6.01884L33.5248 6.55489L33.8037 5.6949L33.0703 5.15889H33.9738L34.2569 4.29688" fill="white"/>
<path d="M4.23295 37.9629L4.51156 38.8249H5.41911L4.68768 39.3609L4.9667 40.2209L4.23324 39.6849L3.50132 40.2209L3.78031 39.3609L3.04688 38.8249H3.95039L4.23344 37.9629" fill="white"/>
<path d="M4.85794 30.5781L5.13655 31.4442H6.0441L5.31267 31.9761L5.59169 32.8422L4.85823 32.3041L4.12631 32.8422L4.4053 31.9761L3.67188 31.4442H4.57538L4.85843 30.5781" fill="white"/>
<path d="M27.4754 4.95898L27.7564 5.82505H28.664L27.9285 6.35094L28.2107 7.217L27.4753 6.68553L26.7418 7.217L27.0249 6.35094L26.293 5.82505H27.1964L27.4754 4.95898Z" fill="white"/>
<rect x="1.5" y="1.5" width="76" height="76" rx="38" stroke="white" stroke-width="3"/>
</svg>
