<svg width="32" height="32" viewBox="0 0 32 32" fill="none" xmlns="http://www.w3.org/2000/svg">
<g id="CloseOutlined">
<path id="Vector" fill-rule="evenodd" clip-rule="evenodd" d="M24.9954 5.19731C24.9961 5.19753 24.9968 5.19787 24.998 5.19915L26.8008 7.00197C26.8021 7.00325 26.8025 7.00384 26.8027 7.00459C26.8029 7.00529 26.8029 7.00604 26.8027 7.00675C26.8025 7.00747 26.8021 7.00806 26.8008 7.00934L17.8101 16.0001L26.8008 24.9908C26.8021 24.992 26.8025 24.9927 26.8027 24.9934C26.8029 24.9941 26.8029 24.9948 26.8027 24.9956C26.8025 24.9962 26.8021 24.9969 26.8008 24.9982L24.998 26.801C24.9968 26.8022 24.9962 26.8026 24.9954 26.8028C24.9947 26.803 24.994 26.803 24.9932 26.8028C24.9925 26.8026 24.9919 26.8022 24.9907 26.801L15.9999 17.8102L7.00922 26.801C7.00797 26.8022 7.00734 26.8026 7.00663 26.8028C7.00591 26.803 7.00515 26.803 7.00444 26.8028C7.00375 26.8026 7.00313 26.8022 7.00184 26.801L5.19903 24.9982C5.19775 24.9969 5.19741 24.9963 5.19719 24.9955C5.19697 24.9948 5.19697 24.9941 5.19719 24.9934C5.19741 24.9927 5.19775 24.9921 5.19903 24.9908L14.1897 16.0001L5.19903 7.00934C5.19775 7.00809 5.19741 7.00747 5.19719 7.00675C5.19697 7.00603 5.19697 7.00527 5.19719 7.00456C5.19741 7.00387 5.19775 7.00325 5.19903 7.00197L7.00184 5.19915C7.00313 5.19787 7.00372 5.19753 7.00447 5.19731C7.00517 5.19709 7.00592 5.19709 7.00663 5.19731C7.00734 5.19753 7.00794 5.19787 7.00922 5.19915L15.9999 14.1898L24.9907 5.19915C24.9919 5.19787 24.9925 5.19753 24.9932 5.19731C24.994 5.19709 24.9947 5.19709 24.9954 5.19731H24.9954Z" fill="black"/>
</g>
</svg>
