<svg width="29" height="28" viewBox="0 0 29 28" fill="none" xmlns="http://www.w3.org/2000/svg">
<g clip-path="url(#clip0_734_3196)">
<path d="M14.7773 28C22.5093 28 28.7773 21.732 28.7773 14C28.7773 6.26801 22.5093 0 14.7773 0C7.04536 0 0.777344 6.26801 0.777344 14C0.777344 21.732 7.04536 28 14.7773 28Z" fill="#417DF7"/>
<path d="M24.1105 14.0007C24.1105 12.8708 23.1935 11.9539 22.0637 11.9539C21.507 11.9539 21.0157 12.1667 20.6555 12.527C19.2637 11.5281 17.3315 10.8732 15.2029 10.7913L16.1362 6.41937L19.1655 7.05796C19.1982 7.82755 19.8368 8.44978 20.6228 8.44978C21.4251 8.44978 22.0801 7.79481 22.0801 6.99247C22.0801 6.19013 21.4251 5.53516 20.6228 5.53516C20.0497 5.53516 19.5584 5.86264 19.3292 6.35387L15.9397 5.6334C15.8415 5.61703 15.7432 5.6334 15.6614 5.68252C15.5795 5.73165 15.5304 5.81352 15.4976 5.91176L14.466 10.7913C12.2883 10.8568 10.3397 11.4954 8.93153 12.527C8.5713 12.1831 8.0637 11.9539 7.52335 11.9539C6.39352 11.9539 5.47656 12.8708 5.47656 14.0007C5.47656 14.8357 5.96779 15.5398 6.68826 15.8673C6.65551 16.0638 6.63914 16.2767 6.63914 16.4895C6.63914 19.6334 10.2906 22.1714 14.8099 22.1714C19.3292 22.1714 22.9807 19.6334 22.9807 16.4895C22.9807 16.2767 22.9643 16.0802 22.9315 15.8837C23.6029 15.5562 24.1105 14.8357 24.1105 14.0007ZM10.1105 15.458C10.1105 14.6556 10.7655 14.0007 11.5678 14.0007C12.3701 14.0007 13.0251 14.6556 13.0251 15.458C13.0251 16.2603 12.3701 16.9153 11.5678 16.9153C10.7655 16.9153 10.1105 16.2603 10.1105 15.458ZM18.2485 19.3059C17.2497 20.3047 15.3502 20.3702 14.7935 20.3702C14.2368 20.3702 12.321 20.2884 11.3386 19.3059C11.1912 19.1585 11.1912 18.9129 11.3386 18.7656C11.4859 18.6182 11.7315 18.6182 11.8789 18.7656C12.5011 19.3878 13.8438 19.617 14.8099 19.617C15.776 19.617 17.1023 19.3878 17.7409 18.7656C17.8883 18.6182 18.1339 18.6182 18.2812 18.7656C18.3959 18.9293 18.3959 19.1585 18.2485 19.3059ZM17.9865 16.9153C17.1842 16.9153 16.5292 16.2603 16.5292 15.458C16.5292 14.6556 17.1842 14.0007 17.9865 14.0007C18.7888 14.0007 19.4438 14.6556 19.4438 15.458C19.4438 16.2603 18.7888 16.9153 17.9865 16.9153Z" fill="white"/>
</g>
<defs>
<clipPath id="clip0_734_3196">
<rect width="28" height="28" fill="white" transform="translate(0.777344)"/>
</clipPath>
</defs>
</svg>
