<svg width="29" height="28" viewBox="0 0 29 28" fill="none" xmlns="http://www.w3.org/2000/svg">
<rect x="0.890625" width="28" height="28" rx="14" fill="#417DF7"/>
<path d="M12.327 21.3837C18.536 21.3837 21.931 16.2387 21.931 11.7797C21.931 11.6327 21.931 11.4857 21.924 11.3457C22.582 10.8697 23.156 10.2747 23.611 9.59567C23.009 9.86167 22.358 10.0437 21.672 10.1277C22.372 9.70767 22.904 9.04967 23.156 8.25867C22.505 8.64367 21.784 8.92367 21.014 9.07767C20.398 8.41967 19.523 8.01367 18.55 8.01367C16.688 8.01367 15.176 9.52567 15.176 11.3877C15.176 11.6537 15.204 11.9127 15.267 12.1577C12.46 12.0177 9.97497 10.6737 8.30897 8.62967C8.02197 9.12667 7.85397 9.70767 7.85397 10.3237C7.85397 11.4927 8.44897 12.5287 9.35897 13.1307C8.80597 13.1167 8.28797 12.9627 7.83297 12.7107C7.83297 12.7247 7.83297 12.7387 7.83297 12.7527C7.83297 14.3907 8.99497 15.7487 10.542 16.0637C10.262 16.1407 9.96097 16.1827 9.65297 16.1827C9.43597 16.1827 9.22597 16.1617 9.01597 16.1197C9.44297 17.4637 10.689 18.4367 12.166 18.4647C11.011 19.3677 9.55497 19.9067 7.97297 19.9067C7.69997 19.9067 7.43397 19.8927 7.16797 19.8577C8.64497 20.8237 10.423 21.3837 12.327 21.3837Z" fill="white"/>
</svg>
