<svg width="28" height="28" viewBox="0 0 28 28" fill="none" xmlns="http://www.w3.org/2000/svg">
<g id="fi_3496888" clip-path="url(#clip0_2_1611)">
<g id="Group">
<path id="Vector" d="M8.5449 8.54509C8.49479 8.945 8.46875 9.3523 8.46875 9.76562C8.46875 10.2052 8.49846 10.6379 8.55502 11.0622H16.3853C14.6437 9.45351 12.3175 8.46899 9.76537 8.46899C9.35211 8.46899 8.94482 8.49504 8.5449 8.54509Z" fill="#04143A"/>
<path id="Vector_2" d="M17.8092 12.7034H8.9209C9.21577 13.6361 9.6473 14.5084 10.1916 15.2974H19.0796C18.7849 14.3647 18.3534 13.4924 17.8092 12.7034Z" fill="#04143A"/>
<path id="Vector_3" d="M9.7655 28C14.1387 28 17.8497 25.1105 19.0896 21.1404C18.8072 21.1614 18.522 21.1723 18.2344 21.1723C11.9447 21.1723 6.82766 16.0553 6.82766 9.76559C6.82766 9.47794 6.8386 9.19275 6.85966 8.9104C2.88954 10.1503 0 13.8612 0 18.2345C0 23.6192 4.38081 28 9.7655 28Z" fill="#04143A"/>
<path id="Vector_4" d="M19.445 16.9387H11.6155C13.357 18.5469 15.6828 19.5311 18.2345 19.5311C18.6478 19.5311 19.0551 19.5051 19.455 19.455C19.5051 19.0551 19.5312 18.6478 19.5312 18.2345C19.5312 17.7952 19.5015 17.3628 19.445 16.9387Z" fill="#04143A"/>
<path id="Vector_5" d="M18.2345 0C13.8613 0 10.1503 2.88954 8.9104 6.85966C9.19275 6.83865 9.47794 6.82771 9.76559 6.82771C16.0553 6.82771 21.1723 11.9447 21.1723 18.2344C21.1723 18.5221 21.1614 18.8073 21.1403 19.0896C25.1104 17.8497 28 14.1388 28 9.76556C28 4.38081 23.6192 0 18.2345 0Z" fill="#04143A"/>
</g>
</g>
<defs>
<clipPath id="clip0_2_1611">
<rect width="28" height="28" fill="white"/>
</clipPath>
</defs>
</svg>
