<svg width="28" height="28" viewBox="0 0 28 28" fill="none" xmlns="http://www.w3.org/2000/svg">
<g id="fi_4334331" clip-path="url(#clip0_2_1592)">
<g id="Group">
<path id="Vector" d="M12.3988 14.4406L15.0062 11.8332C14.4199 11.4589 13.7246 11.241 12.9788 11.241C10.8947 11.241 9.19922 12.9365 9.19922 15.0206C9.19922 17.1047 10.8947 18.8002 12.9788 18.8002C15.0629 18.8002 16.7585 17.1047 16.7585 15.0206C16.7585 14.2749 16.5405 13.5796 16.1662 12.9932L13.5589 15.6006L12.3988 14.4406Z" fill="#04143A"/>
<path id="Vector_2" d="M25.9594 15.0206C25.9594 12.7914 25.39 10.6115 24.3088 8.68226L21.0769 9.12512C22.2855 10.7806 23.0001 12.8186 23.0001 15.0206C23.0001 20.5458 18.505 25.0409 12.9798 25.0409C7.45453 25.0409 2.95955 20.5458 2.95955 15.0206C2.95955 9.49541 7.45464 5.00037 12.9798 5.00037C15.1819 5.00037 17.2199 5.71492 18.8753 6.92357L19.3182 3.69165C17.389 2.61048 15.209 2.04102 12.9798 2.04102C9.51286 2.04102 6.25338 3.39114 3.8019 5.84267C1.35037 8.29415 0.000244141 11.5536 0.000244141 15.0206C0.000244141 18.4876 1.35037 21.7471 3.8019 24.1985C6.25338 26.6501 9.51281 28.0002 12.9798 28.0002C16.4469 28.0002 19.7063 26.6501 22.1578 24.1985C24.6093 21.7471 25.9594 18.4876 25.9594 15.0206Z" fill="#04143A"/>
<path id="Vector_3" d="M12.9783 6.64087C8.35774 6.64087 4.59863 10.3999 4.59863 15.0205C4.59863 19.6411 8.35769 23.4002 12.9783 23.4002C17.5989 23.4002 21.3579 19.6411 21.3579 15.0205C21.3579 13.005 20.6425 11.1536 19.4525 9.70638L17.3452 11.8137C18.007 12.7123 18.3986 13.8214 18.3986 15.0205C18.3986 18.0093 15.9671 20.4408 12.9783 20.4408C9.98962 20.4408 7.5581 18.0093 7.5581 15.0205C7.5581 12.0318 9.98962 9.60028 12.9783 9.60028C14.1774 9.60028 15.2865 9.9919 16.1852 10.6536L18.2925 8.54635C16.8452 7.35624 14.9938 6.64087 12.9783 6.64087Z" fill="#04143A"/>
<path id="Vector_4" d="M24.6262 0L20.9801 3.64607L20.4443 7.55568L24.3539 7.01991L28 3.37384L25.539 2.46105L24.6262 0Z" fill="#04143A"/>
</g>
</g>
<defs>
<clipPath id="clip0_2_1592">
<rect width="28" height="28" fill="white"/>
</clipPath>
</defs>
</svg>
