<svg width="226" height="78" viewBox="0 0 226 78" fill="none" xmlns="http://www.w3.org/2000/svg">
<path d="M68.0233 0V3.73122H63.0965V20.281H58.4401V3.73122H53.4832V0H68.0233Z" fill="#2563EB"/>
<path d="M74.5106 -4.65981e-05V7.61289C75.2917 5.7874 76.8138 4.87466 79.0769 4.87466C80.559 4.87466 81.7606 5.34608 82.6819 6.28891C83.6232 7.23175 84.0939 8.65603 84.0939 10.5618V20.281H79.7078V11.2538C79.7078 10.3712 79.4875 9.6791 79.0469 9.1776C78.6063 8.67609 78.0355 8.42533 77.3345 8.42533C77.0341 8.42533 76.7437 8.47549 76.4633 8.57579C76.203 8.65603 75.9126 8.81651 75.5921 9.05723C75.2717 9.2779 75.0113 9.66907 74.811 10.2308C74.6108 10.7724 74.5106 11.4344 74.5106 12.2167V20.281H70.1246V-4.65981e-05H74.5106Z" fill="#2563EB"/>
<path d="M95.7523 11.2538V10.8928C95.6121 9.10739 94.831 8.2147 93.4091 8.2147C92.7081 8.2147 92.0872 8.47549 91.5465 8.99705C91.0057 9.49856 90.6452 10.2508 90.465 11.2538H95.7523ZM98.9067 15.7373V19.4084C97.8652 20.0904 96.273 20.4314 94.1301 20.4314C91.6266 20.4314 89.6739 19.7093 88.272 18.2649C86.8901 16.8005 86.1991 14.9249 86.1991 12.638C86.1991 10.2107 86.87 8.315 88.2119 6.9509C89.5738 5.56674 91.2461 4.87466 93.2288 4.87466C95.2716 4.87466 96.8839 5.47647 98.0655 6.68009C99.2471 7.86365 99.8379 9.63898 99.8379 12.0061C99.8379 12.4675 99.7578 13.2599 99.5976 14.3832H90.6452C90.9457 15.2258 91.4664 15.8777 92.2074 16.3391C92.9484 16.8005 93.8397 17.0312 94.8811 17.0312C96.4232 17.0312 97.7651 16.5999 98.9067 15.7373Z" fill="#2563EB"/>
<path d="M53.4832 48.432V44.3397C54.2242 44.8011 54.9953 45.0318 55.7964 45.0318C57.2184 45.0318 57.9294 44.2695 57.9294 42.7449V28.7528H62.5557V42.8653C62.5557 44.8111 62.035 46.3257 60.9936 47.4089C59.9722 48.4922 58.5402 49.0338 56.6977 49.0338C55.3157 49.0338 54.2443 48.8332 53.4832 48.432Z" fill="#2563EB"/>
<path d="M74.981 33.7478H79.367V49.0037H74.981V46.5664C74.1799 48.2715 72.6377 49.1241 70.3546 49.1241C68.7924 49.1241 67.5707 48.6928 66.6895 47.8302C65.8283 46.9475 65.3977 45.6536 65.3977 43.9485V33.7478H69.7838V42.9555C69.7838 44.7409 70.5649 45.6336 72.127 45.6336C74.0296 45.6336 74.981 44.3598 74.981 41.8121V33.7478Z" fill="#2563EB"/>
<path d="M91.9868 34.1992V37.9605C90.9253 37.3386 89.6836 37.0277 88.2616 37.0277C87.7409 37.0277 87.3404 37.138 87.06 37.3587C86.7796 37.5593 86.6394 37.8201 86.6394 38.1411C86.6394 38.3216 86.6895 38.4921 86.7896 38.6526C86.8898 38.8131 87.05 38.9635 87.2703 39.1039C87.5106 39.2444 87.7309 39.3748 87.9312 39.4951C88.1515 39.5954 88.4419 39.7258 88.8024 39.8863C89.1829 40.0468 89.4833 40.1872 89.7036 40.3076C90.6249 40.789 91.3659 41.3507 91.9267 41.9926C92.4875 42.6145 92.7679 43.4169 92.7679 44.3999C92.7679 45.9044 92.2271 47.0679 91.1456 47.8904C90.0641 48.7128 88.6322 49.1241 86.8497 49.1241C85.0071 49.1241 83.465 48.8131 82.2233 48.1913V44.2795C83.6052 45.2424 85.0672 45.7239 86.6094 45.7239C87.7109 45.7239 88.2616 45.3728 88.2616 44.6707C88.2616 44.4901 88.2116 44.3196 88.1114 44.1591C88.0113 43.9987 87.8411 43.8482 87.6007 43.7078C87.3604 43.5674 87.1401 43.457 86.9398 43.3768C86.7395 43.2765 86.4491 43.1461 86.0686 42.9856C85.6881 42.8251 85.3977 42.6947 85.1974 42.5944C83.1746 41.6315 82.1632 40.1872 82.1632 38.2614C82.1632 36.7769 82.724 35.6235 83.8455 34.801C84.9871 33.9785 86.3991 33.5673 88.0814 33.5673C89.6436 33.5673 90.9454 33.7779 91.9868 34.1992Z" fill="#2563EB"/>
<path d="M99.9342 36.9675V43.9786C99.9342 44.5202 100.084 44.9315 100.385 45.2123C100.705 45.4932 101.116 45.6336 101.616 45.6336C102.418 45.6336 103.129 45.433 103.749 45.0318V48.6727C103.008 48.9937 102.007 49.1542 100.745 49.1542C97.2805 49.1542 95.5481 47.4189 95.5481 43.9485V36.9675H93.3551V33.7478H95.5481V30.137H99.9342V33.7478H103.479V36.9675H99.9342Z" fill="#2563EB"/>
<path d="M105.995 49.0037V33.7478H110.381V49.0037H105.995ZM106.385 31.13C105.885 30.6285 105.634 30.0267 105.634 29.3245C105.634 28.6224 105.885 28.0206 106.385 27.5191C106.886 27.0176 107.487 26.7669 108.188 26.7669C108.889 26.7669 109.49 27.0176 109.99 27.5191C110.491 28.0206 110.741 28.6224 110.741 29.3245C110.741 30.0267 110.491 30.6285 109.99 31.13C109.49 31.6315 108.889 31.8822 108.188 31.8822C107.487 31.8822 106.886 31.6315 106.385 31.13Z" fill="#2563EB"/>
<path d="M117.241 41.4209C117.321 42.765 117.722 43.8081 118.443 44.5503C119.164 45.2926 120.115 45.6637 121.297 45.6637C122.559 45.6637 123.77 45.3126 124.932 44.6105V48.2815C123.75 48.9235 122.328 49.2444 120.666 49.2444C118.383 49.2444 116.5 48.5223 115.018 47.0779C113.536 45.6135 112.795 43.7279 112.795 41.4209C112.835 39.134 113.576 37.2484 115.018 35.7639C116.46 34.2594 118.433 33.5071 120.936 33.5071C122.479 33.5071 123.81 33.798 124.932 34.3797V38.1411C123.871 37.4791 122.689 37.1481 121.387 37.1481C120.165 37.1481 119.174 37.5192 118.413 38.2614C117.652 38.9836 117.261 40.0368 117.241 41.4209Z" fill="#2563EB"/>
<path d="M135.83 39.9766V39.6155C135.689 37.8301 134.908 36.9374 133.486 36.9374C132.785 36.9374 132.164 37.1982 131.624 37.7198C131.083 38.2213 130.722 38.9736 130.542 39.9766H135.83ZM138.984 44.4601V48.1311C137.942 48.8131 136.35 49.1542 134.207 49.1542C131.704 49.1542 129.751 48.432 128.349 46.9877C126.967 45.5233 126.276 43.6476 126.276 41.3607C126.276 38.9334 126.947 37.0377 128.289 35.6736C129.651 34.2895 131.323 33.5974 133.306 33.5974C135.349 33.5974 136.961 34.1992 138.143 35.4028C139.324 36.5864 139.915 38.3617 139.915 40.7288C139.915 41.1902 139.835 41.9826 139.675 43.106H130.722C131.023 43.9485 131.544 44.6005 132.285 45.0619C133.026 45.5233 133.917 45.7539 134.958 45.7539C136.5 45.7539 137.842 45.3227 138.984 44.4601Z" fill="#2563EB"/>
<path d="M69.4953 58.3181V62.7715C67.9933 61.8487 66.3209 61.3873 64.4784 61.3873C62.8562 61.3873 61.4943 61.959 60.3928 63.1025C59.2912 64.2259 58.7405 65.7404 58.7405 67.6461C58.7405 69.5117 59.2912 70.9962 60.3928 72.0995C61.4943 73.1828 62.9162 73.7244 64.6587 73.7244C66.5413 73.7244 68.1535 73.243 69.4953 72.2801V76.8237C68.2736 77.586 66.5112 77.9672 64.208 77.9672C61.2439 77.9672 58.7605 77.0143 56.7577 75.1086C54.775 73.1828 53.7836 70.6953 53.7836 67.6461C53.7836 64.5568 54.745 62.0393 56.6676 60.0934C58.6103 58.1476 61.1338 57.1746 64.2381 57.1746C66.5212 57.1746 68.2736 57.5558 69.4953 58.3181Z" fill="#2563EB"/>
<path d="M78.9365 78C76.5532 78 74.711 77.255 73.4092 75.8307C72.1074 74.3864 71.4565 72.5409 71.4565 70.2941C71.4565 67.947 72.1374 66.0212 73.4993 64.5167C74.8612 62.9921 76.6737 62.2298 78.9368 62.2298C81.3001 62.2298 83.1326 62.962 84.4344 64.4265C85.7362 65.8909 86.3871 67.7565 86.3871 70.0233C86.3871 72.3302 85.7262 74.236 84.4044 75.7405C83.1026 77.2249 81.2798 78 78.9365 78ZM78.9068 65.6903C77.9454 65.6903 77.2244 66.1015 76.7438 66.924C76.2631 67.7464 76.0228 68.8096 76.0228 70.1136C76.0228 71.4175 76.2631 72.4907 76.7438 73.3332C77.2445 74.1557 77.9855 74.567 78.9669 74.567C79.9282 74.567 80.6392 74.1657 81.0998 73.3633C81.5805 72.5409 81.8208 71.4777 81.8208 70.1737C81.8208 67.1848 80.8495 65.6903 78.9068 65.6903Z" fill="#2563EB"/>
<path d="M88.8019 78V56.4525H93.188V78H88.8019Z" fill="#2563EB"/>
<path d="M96.5036 78V56.4525H100.89V78H96.5036Z" fill="#2563EB"/>
<path d="M111.595 71.4676H110.183C109.442 71.4676 108.872 71.6281 108.471 71.9491C108.071 72.27 107.87 72.6813 107.87 73.1828C107.87 74.2059 108.461 74.7174 109.643 74.7174C110.264 74.7174 110.744 74.5268 111.085 74.1457C111.425 73.7645 111.595 73.243 111.595 72.581V71.4676ZM104.476 67.1647V63.2228C105.677 62.5408 107.41 62.1998 109.673 62.1998C111.836 62.1998 113.448 62.6712 114.509 63.614C115.571 64.5368 116.102 65.9811 116.102 67.947V78H111.806V75.8608C111.165 77.1648 109.905 78 108.022 78C106.54 78 105.377 77.3955 104.536 76.5529C103.715 75.7104 103.304 74.6572 103.304 73.3934C103.304 71.929 103.835 70.7956 104.896 69.9932C105.978 69.1707 107.57 68.7595 109.673 68.7595H111.595V67.7063C111.595 66.4225 110.744 65.7805 109.042 65.7805C107.4 65.7805 105.878 66.2419 104.476 67.1647Z" fill="#2563EB"/>
<path d="M126.695 74.236C127.616 74.236 128.397 73.8648 129.038 73.1226C129.679 72.3603 130 71.3673 130 70.1436C130 68.8197 129.679 67.7866 129.038 67.0443C128.417 66.3021 127.646 65.931 126.725 65.931C125.804 65.931 125.003 66.282 124.322 66.9841C123.661 67.6863 123.33 68.6692 123.33 69.933C123.33 71.2369 123.641 72.2801 124.262 73.0624C124.883 73.8448 125.694 74.236 126.695 74.236ZM123.33 56.4525V64.8176C124.372 63.1326 125.884 62.29 127.867 62.29C129.769 62.29 131.341 62.9821 132.583 64.3663C133.825 65.7504 134.446 67.6461 134.446 70.0534C134.446 72.1998 133.845 74.0454 132.643 75.59C131.462 77.1347 129.942 78 127.959 78C125.936 78 124.352 77.0544 123.33 75.3493V78H118.944V56.4525H123.33Z" fill="#2563EB"/>
<path d="M143.389 78C141.006 78 139.212 77.255 137.91 75.8307C136.609 74.3864 135.958 72.5409 135.958 70.2941C135.958 67.947 136.639 66.0212 138.001 64.5167C139.362 62.9921 141.175 62.2298 143.438 62.2298C145.801 62.2298 147.634 62.962 148.936 64.4265C150.237 65.8909 150.888 67.7565 150.888 70.0233C150.888 72.3302 150.227 74.236 148.906 75.7405C147.604 77.2249 145.732 78 143.389 78ZM143.408 65.6903C142.447 65.6903 141.726 66.1015 141.245 66.924C140.764 67.7464 140.524 68.8096 140.524 70.1136C140.524 71.4175 140.764 72.4907 141.245 73.3332C141.746 74.1557 142.487 74.567 143.468 74.567C144.429 74.567 145.14 74.1657 145.601 73.3633C146.082 72.5409 146.322 71.4777 146.322 70.1737C146.322 67.1848 145.351 65.6903 143.408 65.6903Z" fill="#2563EB"/>
<path d="M157.509 62.4706V65.2991C157.789 64.4164 158.25 63.7143 158.891 63.1927C159.552 62.6511 160.313 62.3803 161.174 62.3803C161.655 62.3803 162.035 62.4204 162.316 62.5007V66.6531C161.835 66.4325 161.284 66.3222 160.663 66.3222C159.722 66.3222 158.961 66.6732 158.38 67.3753C157.799 68.0574 157.509 68.9701 157.509 70.1136V78H153.123L153.153 62.4706H157.509Z" fill="#2563EB"/>
<path d="M171.211 71.4676H169.799C169.058 71.4676 168.488 71.6281 168.087 71.9491C167.687 72.27 167.486 72.6813 167.486 73.1828C167.486 74.2059 168.077 74.7174 169.259 74.7174C169.88 74.7174 170.36 74.5268 170.701 74.1457C171.041 73.7645 171.211 73.243 171.211 72.581V71.4676ZM164.092 67.1647V63.2228C165.293 62.5408 167.026 62.1998 169.289 62.1998C171.452 62.1998 173.064 62.6712 174.125 63.614C175.187 64.5368 175.718 65.9811 175.718 67.947V78H171.422V75.8608C170.781 77.1648 169.578 78 167.696 78C166.213 78 164.993 77.3955 164.152 76.5529C163.33 75.7104 162.92 74.6572 162.92 73.3934C162.92 71.929 163.451 70.7956 164.512 69.9932C165.594 69.1707 167.186 68.7595 169.289 68.7595H171.211V67.7063C171.211 66.4225 170.36 65.7805 168.658 65.7805C167.016 65.7805 165.493 66.2419 164.092 67.1647Z" fill="#2563EB"/>
<path d="M183.637 65.6903V72.7013C183.637 73.243 183.788 73.6542 184.088 73.9351C184.408 74.2159 184.819 74.3563 185.32 74.3563C186.121 74.3563 186.832 74.1557 187.453 73.7545V77.3955C186.712 77.7164 185.753 78 184.491 78C181.027 78 179.251 76.1417 179.251 72.6712V65.6903H177.058V62.4706H179.251V58.8597H183.637V62.4706H187.182V65.6903H183.637Z" fill="#2563EB"/>
<path d="M189.698 78V62.4706H194.084V78H189.698ZM190.088 59.8527C189.588 59.3512 189.337 58.7494 189.337 58.0473C189.337 57.3452 189.588 56.7434 190.088 56.2418C190.589 55.7403 191.19 55.4896 191.891 55.4896C192.592 55.4896 193.193 55.7403 193.693 56.2418C194.194 56.7434 194.444 57.3452 194.444 58.0473C194.444 58.7494 194.194 59.3512 193.693 59.8527C193.193 60.3542 192.592 60.605 191.891 60.605C191.19 60.605 190.589 60.3542 190.088 59.8527Z" fill="#2563EB"/>
<path d="M201.287 78L195.597 62.4706H200.193L202.176 68.9701C202.477 69.9731 202.737 70.926 202.957 71.8287C203.178 72.7114 203.318 73.3533 203.378 73.7545L203.498 74.3262C203.678 73.0223 204.129 71.2369 204.85 68.9701L206.893 62.4706H211.399L205.794 78H201.287Z" fill="#2563EB"/>
<path d="M221.557 68.6993V68.3382C221.417 66.5528 220.636 65.6602 219.214 65.6602C218.513 65.6602 217.892 65.921 217.351 66.4425C216.81 66.944 216.45 67.6963 216.27 68.6993H221.557ZM224.711 73.1828V76.8538C223.67 77.5359 222.138 78 219.995 78C217.492 78 215.479 77.1547 214.077 75.7104C212.695 74.246 212.004 72.3703 212.004 70.0835C212.004 67.6562 212.675 65.7605 214.016 64.3964C215.378 63.0122 217.051 62.3201 219.033 62.3201C221.076 62.3201 222.688 62.9219 223.87 64.1255C225.052 65.3091 225.643 67.0844 225.643 69.4516C225.643 69.9129 225.562 70.7053 225.402 71.8287H216.45C216.75 72.6712 217.271 73.3232 218.012 73.7846C218.753 74.246 219.644 74.4767 220.686 74.4767C222.228 74.4767 223.57 74.0454 224.711 73.1828Z" fill="#2563EB"/>
<path d="M39.2818 0V19.9021H3.2836L39.2818 0Z" fill="#0A1C87"/>
<path d="M3.36423 25.7319H39.2818V29.7526H3.9105L3.36423 25.7319Z" fill="#0A1C87"/>
<path d="M3.36423 68.0825H39.2818V64.0619H4.38316L3.36423 68.0825Z" fill="#0A1C87"/>
<path d="M0.415833 73.9795H39.2818V78.0001H1.50235L0.415833 73.9795Z" fill="#0A1C87"/>
<path d="M0.415833 21.7114H39.2818V23.8558H0.955638L0.415833 21.7114Z" fill="#0A1C87"/>
<path d="M0.685735 69.959H39.2818V72.1033H0.415833L0.685735 69.959Z" fill="#0A1C87"/>
<rect x="9.26117" y="33.5051" width="6.70103" height="26.8041" fill="#0A1C87"/>
<rect x="9.26117" y="31.3608" width="6.70103" height="1.60825" rx="0.804124" fill="#0A1C87"/>
<rect x="21.055" y="31.3608" width="6.70103" height="1.60825" rx="0.804124" fill="#0A1C87"/>
<rect x="32.5807" y="31.3608" width="6.70103" height="1.60825" rx="0.804124" fill="#0A1C87"/>
<rect x="9.26117" y="60.8455" width="6.70103" height="1.60825" rx="0.804124" fill="#0A1C87"/>
<rect x="21.055" y="60.8455" width="6.70103" height="1.60825" rx="0.804124" fill="#0A1C87"/>
<rect x="32.5807" y="60.8455" width="6.70103" height="1.60825" rx="0.804124" fill="#0A1C87"/>
<rect x="21.055" y="33.5051" width="6.70103" height="26.8041" fill="#0A1C87"/>
<rect x="32.5807" y="33.5051" width="6.70103" height="26.8041" fill="#0A1C87"/>
</svg>
