<svg class="relative h-5 w-5 text-gray-800" width="24" height="24" viewBox="0 0 24 24" fill="none" xmlns="http://www.w3.org/2000/svg"><path d="M16.5 3H7.5C6.30653 3 5.16193 3.47411 4.31802 4.31802C3.47411 5.16193 3 6.30653 3 7.5V16.5C3 17.6935 3.47411 18.8381 4.31802 19.682C5.16193 20.5259 6.30653 21 7.5 21H16.5C17.6935 21 18.8381 20.5259 19.682 19.682C20.5259 18.8381 21 17.6935 21 16.5V7.5C21 6.30653 20.5259 5.16193 19.682 4.31802C18.8381 3.47411 17.6935 3 16.5 3V3ZM19.2 16.5C19.2 17.2161 18.9155 17.9028 18.4092 18.4092C17.9028 18.9155 17.2161 19.2 16.5 19.2H7.5C6.78392 19.2 6.09716 18.9155 5.59081 18.4092C5.08446 17.9028 4.8 17.2161 4.8 16.5V7.5C4.8 6.78392 5.08446 6.09716 5.59081 5.59081C6.09716 5.08446 6.78392 4.8 7.5 4.8H16.5C17.2161 4.8 17.9028 5.08446 18.4092 5.59081C18.9155 6.09716 19.2 6.78392 19.2 7.5V16.5ZM8.4 14.7C8.222 14.7 8.04799 14.7528 7.89999 14.8517C7.75198 14.9506 7.63663 15.0911 7.56851 15.2556C7.50039 15.42 7.48257 15.601 7.51729 15.7756C7.55202 15.9502 7.63774 16.1105 7.7636 16.2364C7.88947 16.3623 8.04984 16.448 8.22442 16.4827C8.399 16.5174 8.57996 16.4996 8.74442 16.4315C8.90887 16.3634 9.04943 16.248 9.14832 16.1C9.24722 15.952 9.3 15.778 9.3 15.6C9.3 15.3613 9.20518 15.1324 9.0364 14.9636C8.86761 14.7948 8.63869 14.7 8.4 14.7V14.7ZM12 11.1C11.822 11.1 11.648 11.1528 11.5 11.2517C11.352 11.3506 11.2366 11.4911 11.1685 11.6556C11.1004 11.82 11.0826 12.001 11.1173 12.1756C11.152 12.3502 11.2377 12.5105 11.3636 12.6364C11.4895 12.7623 11.6498 12.848 11.8244 12.8827C11.999 12.9174 12.18 12.8996 12.3444 12.8315C12.5089 12.7634 12.6494 12.648 12.7483 12.5C12.8472 12.352 12.9 12.178 12.9 12C12.9 11.7613 12.8052 11.5324 12.6364 11.3636C12.4676 11.1948 12.2387 11.1 12 11.1ZM8.4 7.5C8.222 7.5 8.04799 7.55278 7.89999 7.65168C7.75198 7.75057 7.63663 7.89113 7.56851 8.05558C7.50039 8.22004 7.48257 8.401 7.51729 8.57558C7.55202 8.75016 7.63774 8.91053 7.7636 9.0364C7.88947 9.16226 8.04984 9.24798 8.22442 9.28271C8.399 9.31743 8.57996 9.29961 8.74442 9.23149C8.90887 9.16337 9.04943 9.04802 9.14832 8.90001C9.24722 8.75201 9.3 8.578 9.3 8.4C9.3 8.16131 9.20518 7.93239 9.0364 7.7636C8.86761 7.59482 8.63869 7.5 8.4 7.5V7.5ZM15.6 14.7C15.422 14.7 15.248 14.7528 15.1 14.8517C14.952 14.9506 14.8366 15.0911 14.7685 15.2556C14.7004 15.42 14.6826 15.601 14.7173 15.7756C14.752 15.9502 14.8377 16.1105 14.9636 16.2364C15.0895 16.3623 15.2498 16.448 15.4244 16.4827C15.599 16.5174 15.78 16.4996 15.9444 16.4315C16.1089 16.3634 16.2494 16.248 16.3483 16.1C16.4472 15.952 16.5 15.778 16.5 15.6C16.5 15.3613 16.4052 15.1324 16.2364 14.9636C16.0676 14.7948 15.8387 14.7 15.6 14.7ZM15.6 7.5C15.422 7.5 15.248 7.55278 15.1 7.65168C14.952 7.75057 14.8366 7.89113 14.7685 8.05558C14.7004 8.22004 14.6826 8.401 14.7173 8.57558C14.752 8.75016 14.8377 8.91053 14.9636 9.0364C15.0895 9.16226 15.2498 9.24798 15.4244 9.28271C15.599 9.31743 15.78 9.29961 15.9444 9.23149C16.1089 9.16337 16.2494 9.04802 16.3483 8.90001C16.4472 8.75201 16.5 8.578 16.5 8.4C16.5 8.16131 16.4052 7.93239 16.2364 7.7636C16.0676 7.59482 15.8387 7.5 15.6 7.5Z" fill="currentColor"></path></svg>