<svg class="relative h-5 w-5 text-gray-800" width="24" height="24" viewBox="0 0 24 24" fill="none" xmlns="http://www.w3.org/2000/svg"><path d="M20.1026 14.3262C20.0311 14.2914 19.7088 14.1396 19.2029 13.9635C20.4937 12.0573 20.9318 10.2934 20.9559 10.1931C21.0833 9.66537 20.9301 9.10982 20.5499 8.71938C20.2452 8.40669 19.8286 8.23496 19.3991 8.23496C19.2929 8.23496 19.1857 8.24555 19.0795 8.26706C18.9769 8.2879 17.2418 8.64956 15.2952 9.7054C14.8161 6.8661 13.3893 4.78849 13.3169 4.6846C13.0178 4.2561 12.5257 4 12 4C11.4742 4 10.9822 4.2561 10.6834 4.68493C10.6109 4.78882 9.18418 6.8661 8.70506 9.70574C6.75849 8.64989 5.02335 8.2879 4.92078 8.26739C4.81557 8.24607 4.70849 8.23532 4.60115 8.23529C4.17166 8.23529 3.75508 8.40702 3.45034 8.71971C3.06983 9.10982 2.91663 9.66537 3.04402 10.1931C3.06818 10.2934 3.50659 12.0573 4.79703 13.9635C4.29111 14.1396 3.96883 14.2914 3.89736 14.3262C3.34876 14.5925 3.00034 15.1458 3.00001 15.7519C2.99968 16.3581 3.34711 16.9117 3.89538 17.1787C3.96718 17.2135 5.4267 17.9146 7.38485 18.1274C7.36058 18.3566 7.38677 18.5884 7.46159 18.8065C7.53642 19.0246 7.65805 19.2236 7.81797 19.3897C8.12437 19.709 8.54525 19.8824 8.97705 19.8824C9.12495 19.8824 9.27385 19.8618 9.42043 19.8201C9.54186 19.7854 10.2751 19.5631 11.2059 19.0833V20.4118C11.2059 20.7043 11.4428 20.9412 11.7353 20.9412H12.2647C12.5572 20.9412 12.7941 20.7043 12.7941 20.4118V19.0833C13.7249 19.5631 14.4581 19.7854 14.5795 19.8201C14.7258 19.8622 14.875 19.8824 15.0229 19.8824C15.4547 19.8824 15.8756 19.709 16.182 19.3897C16.5099 19.0482 16.6637 18.585 16.6151 18.1274C18.5733 17.9143 20.0328 17.2135 20.1046 17.1787C20.6528 16.9117 21.0003 16.3581 20.9999 15.7519C20.9996 15.1458 20.6512 14.5925 20.1026 14.3262ZM15.5146 16.6C14.9422 16.6 14.4846 16.5715 14.111 16.5229C14.1037 16.5265 14.0978 16.5279 14.0905 16.5318C14.7446 17.4851 15.0229 18.2941 15.0229 18.2941C15.0229 18.2941 13.4347 17.8398 12 16.69C10.5649 17.8398 8.97705 18.2941 8.97705 18.2941C8.97705 18.2941 9.25565 17.4851 9.90947 16.5318C9.90219 16.5282 9.89624 16.5269 9.88896 16.5229C9.51539 16.5712 9.05778 16.6 8.48536 16.6C6.33993 16.6 4.60082 15.7529 4.60082 15.7529C4.60082 15.7529 5.95346 15.0965 7.74319 14.9403C7.71507 14.9148 7.69125 14.8973 7.66279 14.8711C5.29534 12.7029 4.60082 9.82353 4.60082 9.82353C4.60082 9.82353 7.74485 10.4595 10.1123 12.6278C10.1431 12.6559 10.1642 12.6797 10.1944 12.7075C10.1662 12.3492 10.1504 11.9557 10.1504 11.5176C10.1504 8.2429 12 5.58824 12 5.58824C12 5.58824 13.8496 8.2429 13.8496 11.5176C13.8496 11.9554 13.8337 12.3492 13.8056 12.7075C13.8357 12.6797 13.8566 12.6559 13.8877 12.6278C16.2551 10.4595 19.3991 9.82353 19.3991 9.82353C19.3991 9.82353 18.7046 12.7029 16.3372 14.8711C16.3087 14.8973 16.2849 14.9148 16.2568 14.9403C18.0465 15.0961 19.3991 15.7529 19.3991 15.7529C19.3991 15.7529 17.66 16.6 15.5146 16.6Z" fill="currentColor"></path></svg>