<svg class="relative h-5 w-5 text-gray-400" width="24" height="24" viewBox="0 0 24 24" fill="none" xmlns="http://www.w3.org/2000/svg"><path d="M16.9091 6.27494H17.7272V7.09312C17.7272 7.31011 17.8134 7.51822 17.9669 7.67166C18.1203 7.82509 18.3284 7.9113 18.5454 7.9113C18.7624 7.9113 18.9705 7.82509 19.124 7.67166C19.2774 7.51822 19.3636 7.31011 19.3636 7.09312V6.27494H20.1818C20.3988 6.27494 20.6069 6.18873 20.7603 6.0353C20.9138 5.88186 21 5.67375 21 5.45676C21 5.23976 20.9138 5.03165 20.7603 4.87822C20.6069 4.72478 20.3988 4.63858 20.1818 4.63858H19.3636V3.8204C19.3636 3.6034 19.2774 3.39529 19.124 3.24186C18.9705 3.08842 18.7624 3.00222 18.5454 3.00222C18.3284 3.00222 18.1203 3.08842 17.9669 3.24186C17.8134 3.39529 17.7272 3.6034 17.7272 3.8204V4.63858H16.9091C16.6921 4.63858 16.484 4.72478 16.3305 4.87822C16.1771 5.03165 16.0909 5.23976 16.0909 5.45676C16.0909 5.67375 16.1771 5.88186 16.3305 6.0353C16.484 6.18873 16.6921 6.27494 16.9091 6.27494ZM7.90908 7.9113V16.0931C7.90908 16.3101 7.99528 16.5182 8.14872 16.6716C8.30216 16.8251 8.51027 16.9113 8.72726 16.9113C8.94426 16.9113 9.15237 16.8251 9.3058 16.6716C9.45924 16.5182 9.54544 16.3101 9.54544 16.0931V7.9113C9.54544 7.6943 9.45924 7.48619 9.3058 7.33276C9.15237 7.17932 8.94426 7.09312 8.72726 7.09312C8.51027 7.09312 8.30216 7.17932 8.14872 7.33276C7.99528 7.48619 7.90908 7.6943 7.90908 7.9113ZM19.8545 9.54766C19.7492 9.56912 19.6492 9.61113 19.5601 9.67127C19.471 9.73142 19.3947 9.80852 19.3354 9.89817C19.2761 9.98783 19.2351 10.0883 19.2147 10.1938C19.1943 10.2993 19.1948 10.4078 19.2163 10.5131C19.5358 12.0645 19.3464 13.6776 18.6764 15.1129C18.0064 16.5482 16.8914 17.7292 15.497 18.4806C14.1026 19.232 12.503 19.5137 10.9358 19.2839C9.36855 19.0541 7.9172 18.3251 6.79715 17.205C5.6771 16.085 4.94808 14.6336 4.71829 13.0664C4.4885 11.4992 4.77021 9.89962 5.52158 8.50518C6.27295 7.11075 7.45394 5.99577 8.88924 5.32575C10.3245 4.65573 11.9376 4.4664 13.4891 4.78585C13.7061 4.82925 13.9314 4.78467 14.1155 4.66192C14.2997 4.53917 14.4275 4.3483 14.4709 4.1313C14.5143 3.91431 14.4697 3.68896 14.347 3.50484C14.2242 3.32071 14.0333 3.19289 13.8163 3.14949C13.2176 3.03793 12.6089 2.98858 12 3.00222C10.22 3.00222 8.4799 3.53006 6.99986 4.51899C5.51982 5.50792 4.36627 6.91352 3.68509 8.55805C3.0039 10.2026 2.82567 12.0122 3.17294 13.758C3.5202 15.5038 4.37737 17.1075 5.63604 18.3661C6.89471 19.6248 8.49835 20.482 10.2442 20.8292C11.99 21.1765 13.7996 20.9983 15.4441 20.3171C17.0887 19.6359 18.4943 18.4824 19.4832 17.0023C20.4721 15.5223 21 13.7822 21 12.0022C21.0017 11.3976 20.9414 10.7945 20.82 10.2022C20.8004 10.0954 20.7597 9.99361 20.7004 9.9027C20.641 9.81179 20.5642 9.7336 20.4744 9.67268C20.3845 9.61176 20.2834 9.56933 20.177 9.54787C20.0706 9.5264 19.961 9.52633 19.8545 9.54766ZM11.1818 9.54766V10.3658C11.1854 10.9713 11.4127 11.5541 11.82 12.0022C11.4127 12.4503 11.1854 13.0331 11.1818 13.6386V14.4567C11.1818 15.1077 11.4404 15.732 11.9007 16.1924C12.361 16.6527 12.9854 16.9113 13.6363 16.9113H14.4545C15.1055 16.9113 15.7298 16.6527 16.1901 16.1924C16.6505 15.732 16.9091 15.1077 16.9091 14.4567V13.6386C16.9055 13.0331 16.6782 12.4503 16.2709 12.0022C16.6782 11.5541 16.9055 10.9713 16.9091 10.3658V9.54766C16.9091 8.89667 16.6505 8.27235 16.1901 7.81203C15.7298 7.35172 15.1055 7.09312 14.4545 7.09312H13.6363C12.9854 7.09312 12.361 7.35172 11.9007 7.81203C11.4404 8.27235 11.1818 8.89667 11.1818 9.54766ZM15.2727 14.4567C15.2727 14.6737 15.1865 14.8818 15.0331 15.0353C14.8796 15.1887 14.6715 15.2749 14.4545 15.2749H13.6363C13.4193 15.2749 13.2112 15.1887 13.0578 15.0353C12.9044 14.8818 12.8182 14.6737 12.8182 14.4567V13.6386C12.8182 13.4216 12.9044 13.2135 13.0578 13.06C13.2112 12.9066 13.4193 12.8204 13.6363 12.8204H14.4545C14.6715 12.8204 14.8796 12.9066 15.0331 13.06C15.1865 13.2135 15.2727 13.4216 15.2727 13.6386V14.4567ZM15.2727 9.54766V10.3658C15.2727 10.5828 15.1865 10.7909 15.0331 10.9444C14.8796 11.0978 14.6715 11.184 14.4545 11.184H13.6363C13.4193 11.184 13.2112 11.0978 13.0578 10.9444C12.9044 10.7909 12.8182 10.5828 12.8182 10.3658V9.54766C12.8182 9.33066 12.9044 9.12255 13.0578 8.96911C13.2112 8.81568 13.4193 8.72948 13.6363 8.72948H14.4545C14.6715 8.72948 14.8796 8.81568 15.0331 8.96911C15.1865 9.12255 15.2727 9.33066 15.2727 9.54766Z" fill="currentColor"></path></svg>