<svg width="35" height="35" viewBox="0 0 35 35" fill="none" xmlns="http://www.w3.org/2000/svg">
<g id="&#240;&#159;&#166;&#134; icon &#34;arrow ios downward&#34;">
<path id="Vector" d="M11.6667 17.5002C11.6661 17.1595 11.7847 16.8292 12.0021 16.5669L19.2938 7.81687C19.5414 7.51905 19.8971 7.33176 20.2827 7.29621C20.6683 7.26066 21.0523 7.37975 21.3501 7.62728C21.6479 7.87482 21.8352 8.23052 21.8707 8.61614C21.9063 9.00176 21.7872 9.38572 21.5396 9.68353L15.0063 17.5002L21.3063 25.3169C21.4275 25.466 21.5179 25.6377 21.5725 25.8219C21.6271 26.0062 21.6447 26.1994 21.6244 26.3905C21.6041 26.5815 21.5462 26.7667 21.4541 26.9354C21.3619 27.104 21.2374 27.2528 21.0876 27.3731C20.9376 27.5067 20.7617 27.6078 20.5708 27.6702C20.38 27.7326 20.1783 27.7549 19.9784 27.7358C19.7785 27.7166 19.5848 27.6564 19.4092 27.5588C19.2337 27.4613 19.0802 27.3286 18.9584 27.1689L11.9146 18.4189C11.7316 18.149 11.6443 17.8256 11.6667 17.5002Z" fill="#383838"/>
</g>
</svg>
