<svg width="24" height="24" viewBox="0 0 24 24" fill="none" xmlns="http://www.w3.org/2000/svg">
<g id="fi_2682835" clip-path="url(#clip0_2_1316)">
<g id="Group">
<path id="Vector" d="M9.6133 23.943C9.93078 24.0787 10.2999 23.9654 10.4854 23.6725L18.9229 10.2662C19.0595 10.0492 19.0678 9.77524 18.9441 9.55141C18.8205 9.32688 18.5843 9.18747 18.3282 9.18747H12.697L14.7913 0.876114C14.8758 0.540348 14.7048 0.193567 14.3869 0.0569266C14.071 -0.0790109 13.6995 0.0349422 13.5148 0.327442L5.0773 13.7337C4.94066 13.9507 4.93241 14.2247 5.05602 14.4485C5.17963 14.673 5.41583 14.8124 5.67195 14.8124H11.3031L9.20886 23.1238C9.12439 23.4596 9.29535 23.8063 9.6133 23.943Z" fill="#BCA8F4"/>
</g>
</g>
<defs>
<clipPath id="clip0_2_1316">
<rect width="24" height="24" fill="white"/>
</clipPath>
</defs>
</svg>
