<svg width="9" height="14" viewBox="0 0 9 14" fill="none" xmlns="http://www.w3.org/2000/svg">
<path d="M4.24574 13.2727V0.545454H5.06108V13.2727H4.24574ZM6.40838 4.74645C6.36861 4.34541 6.19792 4.03385 5.89631 3.81179C5.5947 3.58972 5.18537 3.47869 4.66832 3.47869C4.317 3.47869 4.02036 3.52841 3.77841 3.62784C3.53646 3.72396 3.35085 3.85819 3.22159 4.03054C3.09564 4.20289 3.03267 4.39844 3.03267 4.61719C3.02604 4.79948 3.06416 4.95857 3.14702 5.09446C3.23319 5.23035 3.35085 5.34801 3.5 5.44744C3.64915 5.54356 3.8215 5.62808 4.01705 5.70099C4.21259 5.7706 4.4214 5.83026 4.64347 5.87997L5.55824 6.09872C6.00237 6.19815 6.41004 6.33073 6.78125 6.49645C7.15246 6.66217 7.47396 6.866 7.74574 7.10795C8.01752 7.34991 8.22798 7.63494 8.37713 7.96307C8.52959 8.29119 8.60748 8.66738 8.6108 9.09162C8.60748 9.71473 8.44839 10.255 8.13352 10.7124C7.82197 11.1664 7.37121 11.5194 6.78125 11.7713C6.1946 12.0199 5.48698 12.1442 4.65838 12.1442C3.83641 12.1442 3.1205 12.0182 2.51065 11.7663C1.90412 11.5144 1.43016 11.1416 1.08878 10.6477C0.75071 10.1506 0.57339 9.53575 0.556818 8.80327H2.63991C2.66312 9.14465 2.76089 9.42969 2.93324 9.65838C3.1089 9.88376 3.34257 10.0545 3.63423 10.1705C3.92921 10.2831 4.26231 10.3395 4.63352 10.3395C4.99811 10.3395 5.31463 10.2865 5.5831 10.1804C5.85488 10.0743 6.06534 9.92685 6.21449 9.73793C6.36364 9.54901 6.43821 9.33191 6.43821 9.08665C6.43821 8.85795 6.37027 8.66572 6.23438 8.50994C6.1018 8.35417 5.90625 8.22159 5.64773 8.11222C5.39252 8.00284 5.07931 7.90341 4.7081 7.81392L3.59943 7.53551C2.741 7.3267 2.06321 7.00024 1.56605 6.55611C1.06889 6.11198 0.82197 5.51373 0.825284 4.76136C0.82197 4.14489 0.986032 3.6063 1.31747 3.1456C1.65223 2.6849 2.11127 2.32528 2.6946 2.06676C3.27794 1.80824 3.94081 1.67898 4.68324 1.67898C5.43892 1.67898 6.09849 1.80824 6.66193 2.06676C7.22869 2.32528 7.66951 2.6849 7.98438 3.1456C8.29924 3.6063 8.46165 4.13991 8.47159 4.74645H6.40838Z" fill="#731B9C"/>
</svg>
