<svg width="32" height="32" viewBox="0 0 32 32" fill="none" xmlns="http://www.w3.org/2000/svg">
<path d="M30.093 0.166016H1.90964C1.44772 0.166016 1.00472 0.349512 0.678091 0.676138C0.351465 1.00276 0.167969 1.44576 0.167969 1.90768V30.091C0.167969 30.3197 0.213018 30.5462 0.300545 30.7575C0.388072 30.9688 0.516363 31.1608 0.678091 31.3226C0.83982 31.4843 1.03182 31.6126 1.24313 31.7001C1.45444 31.7876 1.68092 31.8327 1.90964 31.8327H17.078V19.5618H12.9613V14.8118H17.078V11.2493C16.9927 10.413 17.0914 9.56805 17.3673 8.77387C17.6431 7.97968 18.0893 7.25546 18.6747 6.652C19.2601 6.04854 19.9704 5.58045 20.7558 5.28056C21.5412 4.98067 22.3827 4.85625 23.2213 4.91602C24.4537 4.90843 25.6854 4.97187 26.9105 5.10602V9.38102H24.393C22.398 9.38102 22.018 10.331 22.018 11.7085V14.7643H26.768L26.1505 19.5143H22.018V31.8327H30.093C30.3217 31.8327 30.5482 31.7876 30.7595 31.7001C30.9708 31.6126 31.1628 31.4843 31.3245 31.3226C31.4862 31.1608 31.6145 30.9688 31.7021 30.7575C31.7896 30.5462 31.8346 30.3197 31.8346 30.091V1.90768C31.8346 1.67896 31.7896 1.45248 31.7021 1.24118C31.6145 1.02987 31.4862 0.837867 31.3245 0.676138C31.1628 0.514409 30.9708 0.386119 30.7595 0.298592C30.5482 0.211065 30.3217 0.166016 30.093 0.166016Z" fill="white"/>
</svg>
