<svg width="20" height="21" viewBox="0 0 20 21" fill="none" xmlns="http://www.w3.org/2000/svg">
<g id="fi_2420229">
<g id="mathematic, calc, calculate">
<path id="Vector" d="M8.75 5.97119H6.875V4.09619C6.875 3.93043 6.80915 3.77146 6.69194 3.65425C6.57473 3.53704 6.41576 3.47119 6.25 3.47119C6.08424 3.47119 5.92527 3.53704 5.80806 3.65425C5.69085 3.77146 5.625 3.93043 5.625 4.09619V5.97119H3.75C3.58424 5.97119 3.42527 6.03704 3.30806 6.15425C3.19085 6.27146 3.125 6.43043 3.125 6.59619C3.125 6.76195 3.19085 6.92092 3.30806 7.03813C3.42527 7.15534 3.58424 7.22119 3.75 7.22119H5.625V9.09619C5.625 9.26195 5.69085 9.42092 5.80806 9.53813C5.92527 9.65534 6.08424 9.72119 6.25 9.72119C6.41576 9.72119 6.57473 9.65534 6.69194 9.53813C6.80915 9.42092 6.875 9.26195 6.875 9.09619V7.22119H8.75C8.91576 7.22119 9.07473 7.15534 9.19194 7.03813C9.30915 6.92092 9.375 6.76195 9.375 6.59619C9.375 6.43043 9.30915 6.27146 9.19194 6.15425C9.07473 6.03704 8.91576 5.97119 8.75 5.97119Z" fill="#0E2236"/>
<path id="Vector_2" d="M11.25 7.22119H16.25C16.4158 7.22119 16.5747 7.15534 16.6919 7.03813C16.8092 6.92092 16.875 6.76195 16.875 6.59619C16.875 6.43043 16.8092 6.27146 16.6919 6.15425C16.5747 6.03704 16.4158 5.97119 16.25 5.97119H11.25C11.0842 5.97119 10.9253 6.03704 10.8081 6.15425C10.6908 6.27146 10.625 6.43043 10.625 6.59619C10.625 6.76195 10.6908 6.92092 10.8081 7.03813C10.9253 7.15534 11.0842 7.22119 11.25 7.22119Z" fill="#0E2236"/>
<path id="Vector_3" d="M16.25 12.2212H11.25C11.0842 12.2212 10.9253 12.287 10.8081 12.4042C10.6908 12.5215 10.625 12.6804 10.625 12.8462C10.625 13.012 10.6908 13.1709 10.8081 13.2881C10.9253 13.4053 11.0842 13.4712 11.25 13.4712H16.25C16.4158 13.4712 16.5747 13.4053 16.6919 13.2881C16.8092 13.1709 16.875 13.012 16.875 12.8462C16.875 12.6804 16.8092 12.5215 16.6919 12.4042C16.5747 12.287 16.4158 12.2212 16.25 12.2212Z" fill="#0E2236"/>
<path id="Vector_4" d="M16.25 14.7212H11.25C11.0842 14.7212 10.9253 14.787 10.8081 14.9042C10.6908 15.0215 10.625 15.1804 10.625 15.3462C10.625 15.512 10.6908 15.6709 10.8081 15.7881C10.9253 15.9053 11.0842 15.9712 11.25 15.9712H16.25C16.4158 15.9712 16.5747 15.9053 16.6919 15.7881C16.8092 15.6709 16.875 15.512 16.875 15.3462C16.875 15.1804 16.8092 15.0215 16.6919 14.9042C16.5747 14.787 16.4158 14.7212 16.25 14.7212Z" fill="#0E2236"/>
<path id="Vector_5" d="M8.56674 11.7793C8.50873 11.7213 8.43985 11.6752 8.36403 11.6438C8.28821 11.6124 8.20694 11.5962 8.12487 11.5962C8.04279 11.5962 7.96152 11.6124 7.8857 11.6438C7.80989 11.6752 7.741 11.7213 7.68299 11.7793L6.24987 13.2124L4.81674 11.7793C4.69887 11.6655 4.54099 11.6025 4.37712 11.6039C4.21324 11.6053 4.05649 11.6711 3.94061 11.787C3.82473 11.9028 3.759 12.0596 3.75757 12.2235C3.75615 12.3873 3.81914 12.5452 3.93299 12.6631L5.36606 14.0962L3.93299 15.5293C3.8733 15.587 3.82568 15.656 3.79293 15.7322C3.76017 15.8085 3.74293 15.8905 3.74221 15.9735C3.74149 16.0564 3.7573 16.1387 3.78873 16.2156C3.82015 16.2924 3.86656 16.3622 3.92525 16.4208C3.98393 16.4795 4.05371 16.5259 4.13052 16.5574C4.20733 16.5888 4.28963 16.6046 4.37262 16.6039C4.45561 16.6031 4.53762 16.5859 4.61387 16.5532C4.69012 16.5204 4.75909 16.4728 4.81674 16.4131L6.24987 14.98L7.68299 16.4131C7.80087 16.5269 7.95875 16.5899 8.12262 16.5885C8.28649 16.5871 8.44325 16.5214 8.55913 16.4055C8.67501 16.2896 8.74074 16.1328 8.74216 15.969C8.74359 15.8051 8.68059 15.6472 8.56674 15.5293L7.13368 14.0962L8.56674 12.6631C8.6248 12.6051 8.67086 12.5362 8.70229 12.4604C8.73371 12.3846 8.74989 12.3033 8.74989 12.2212C8.74989 12.1391 8.73371 12.0579 8.70229 11.982C8.67086 11.9062 8.6248 11.8373 8.56674 11.7793Z" fill="#0E2236"/>
</g>
</g>
</svg>
