<svg width="20" height="21" viewBox="0 0 20 21" fill="none" xmlns="http://www.w3.org/2000/svg">
<g id="fi_1632867" clip-path="url(#clip0_496_47483)">
<g id="Group">
<path id="Vector" d="M18.0047 0.0336914H1.99643C1.03764 0.0336914 0.257812 0.813929 0.257812 1.77272V18.2947C0.257812 19.2535 1.03764 20.0337 1.99643 20.0337H18.0047C18.9635 20.0337 19.7434 19.2535 19.7434 18.2947V1.77272C19.7434 0.813929 18.9635 0.0336914 18.0047 0.0336914ZM18.5204 18.2947C18.5204 18.5792 18.2889 18.8107 18.0047 18.8107H1.99643C1.7123 18.8107 1.48076 18.5792 1.48076 18.2947V1.77272C1.48076 1.48818 1.7123 1.25663 1.99643 1.25663H18.0047C18.2889 1.25663 18.5204 1.48818 18.5204 1.77272V18.2947Z" fill="#0E2236"/>
<path id="Vector_2" d="M16.798 2.21387H3.20131C2.86378 2.21387 2.58984 2.48781 2.58984 2.82534V6.40571C2.58984 6.74324 2.86378 7.01718 3.20131 7.01718H16.798C17.1355 7.01718 17.4095 6.74324 17.4095 6.40571V2.82534C17.4095 2.48781 17.1355 2.21387 16.798 2.21387ZM16.1865 5.79424H3.81279V3.43681H16.1865V5.79424Z" fill="#0E2236"/>
<path id="Vector_3" d="M6.28109 8.12256H3.20131C2.86378 8.12256 2.58984 8.3965 2.58984 8.73403V11.8138C2.58984 12.1513 2.86378 12.4253 3.20131 12.4253H6.28109C6.61862 12.4253 6.89256 12.1513 6.89256 11.8138V8.73403C6.89256 8.3965 6.61862 8.12256 6.28109 8.12256ZM5.66962 11.2023H3.81279V9.3455H5.66962V11.2023Z" fill="#0E2236"/>
<path id="Vector_4" d="M11.5404 8.12256H8.46108C8.12314 8.12256 7.84961 8.3965 7.84961 8.73403V11.8138C7.84961 12.1513 8.12314 12.4253 8.46108 12.4253H11.5404C11.8784 12.4253 12.1519 12.1513 12.1519 11.8138V8.73403C12.1519 8.3965 11.8784 8.12256 11.5404 8.12256ZM10.929 11.2023H9.07255V9.3455H10.929V11.2023Z" fill="#0E2236"/>
<path id="Vector_5" d="M16.7987 8.12256H13.7189C13.3814 8.12256 13.1074 8.3965 13.1074 8.73403V16.7957C13.1074 17.1332 13.3814 17.4071 13.7189 17.4071H16.7987C17.1362 17.4071 17.4101 17.1332 17.4101 16.7957V8.73403C17.4101 8.3965 17.1362 8.12256 16.7987 8.12256ZM16.1872 16.1842H14.3304V9.3455H16.1872V16.1842Z" fill="#0E2236"/>
<path id="Vector_6" d="M6.28109 13.1045H3.20131C2.86378 13.1045 2.58984 13.3784 2.58984 13.716V16.7957C2.58984 17.1333 2.86378 17.4072 3.20131 17.4072H6.28109C6.61862 17.4072 6.89256 17.1333 6.89256 16.7957V13.716C6.89256 13.3784 6.61862 13.1045 6.28109 13.1045ZM5.66962 16.1843H3.81279V14.3274H5.66962V16.1843Z" fill="#0E2236"/>
<path id="Vector_7" d="M11.5404 13.1045H8.46108C8.12314 13.1045 7.84961 13.3784 7.84961 13.716V16.7957C7.84961 17.1333 8.12314 17.4072 8.46108 17.4072H11.5404C11.8784 17.4072 12.1519 17.1333 12.1519 16.7957V13.716C12.1519 13.3784 11.8784 13.1045 11.5404 13.1045ZM10.929 16.1843H9.07255V14.3274H10.929V16.1843Z" fill="#0E2236"/>
</g>
</g>
<defs>
<clipPath id="clip0_496_47483">
<rect width="20" height="20" fill="white" transform="translate(0 0.0336914)"/>
</clipPath>
</defs>
</svg>
