<svg width="16" height="18" viewBox="0 0 16 18" fill="none" xmlns="http://www.w3.org/2000/svg">
<path d="M4.66667 9H4.404C4.14062 8.99993 3.88313 9.08762 3.664 9.252L2 10.5V3.75C2 3.35218 2.14048 2.97064 2.39052 2.68934C2.64057 2.40804 2.97971 2.25 3.33333 2.25H8C8.35362 2.25 8.69276 2.40804 8.94281 2.68934C9.19286 2.97064 9.33333 3.35218 9.33333 3.75V5.25M8 7.5H12.6667C13.0203 7.5 13.3594 7.65804 13.6095 7.93934C13.8595 8.22064 14 8.60218 14 9V15.75L12.336 14.502C12.1169 14.3376 11.8594 14.2499 11.596 14.25H8C7.64638 14.25 7.30724 14.092 7.05719 13.8107C6.80714 13.5294 6.66667 13.1478 6.66667 12.75V9C6.66667 8.60218 6.80714 8.22064 7.05719 7.93934C7.30724 7.65804 7.64638 7.5 8 7.5Z" stroke="#F7F7F7" stroke-width="1.5" stroke-linecap="round" stroke-linejoin="round"/>
</svg>
