<svg width="18" height="18" viewBox="0 0 18 18" fill="none" xmlns="http://www.w3.org/2000/svg">
<path d="M9 13.5C13.1422 13.5 16.5 9 16.5 9C16.5 9 13.1422 4.5 9 4.5C4.85775 4.5 1.5 9 1.5 9C1.5 9 4.85775 13.5 9 13.5Z" stroke="#4D4F4E" stroke-width="1.5" stroke-linejoin="round"/>
<path d="M9 10.875C9.49728 10.875 9.97419 10.6775 10.3258 10.3258C10.6775 9.97419 10.875 9.49728 10.875 9C10.875 8.50272 10.6775 8.02581 10.3258 7.67417C9.97419 7.32254 9.49728 7.125 9 7.125C8.50272 7.125 8.02581 7.32254 7.67417 7.67417C7.32254 8.02581 7.125 8.50272 7.125 9C7.125 9.49728 7.32254 9.97419 7.67417 10.3258C8.02581 10.6775 8.50272 10.875 9 10.875Z" stroke="#4D4F4E" stroke-width="1.5" stroke-linejoin="round"/>
</svg>
