<svg width="32" height="33" viewBox="0 0 32 33" fill="none" xmlns="http://www.w3.org/2000/svg">
<g id="fi_2224395" clip-path="url(#clip0_496_47345)">
<path id="Vector" d="M31.0916 7.66842C31.0315 7.66635 29.7956 7.62463 27.9814 7.66472V3.94506C27.9814 3.39674 27.5132 2.96185 26.9619 3.00715C23.3445 3.30914 18.7422 4.90757 16 7.82303C13.2578 4.90757 8.6555 3.30914 5.03812 3.00715C4.48784 2.96235 4.01864 3.39529 4.01864 3.94506V7.7653C2.98786 7.7264 2.01286 7.69898 0.969098 7.6683C0.442667 7.65167 0 8.0757 0 8.60903V25.7491C0 26.2444 0.383812 26.655 0.877992 26.6882C4.62187 26.9401 10.8932 26.9685 15.6308 28.9891C16.053 29.1695 16.4321 28.9624 16.3693 28.9891C21.1068 26.9686 27.377 26.9403 31.1221 26.6882C31.6163 26.655 32.0001 26.2444 32.0001 25.7491V8.60903C32 8.10199 31.5984 7.68612 31.0916 7.66842ZM26.099 5.00364V21.1347C23.3849 21.7418 19.9453 23.0373 16.9412 25.7844C16.9412 24.9558 16.9412 10.0545 16.9412 9.60637C19.0005 7.03696 22.9005 5.48828 26.099 5.00364ZM5.90099 5.00364C9.09955 5.48828 12.9995 7.03696 15.0588 9.60637V25.7844C12.0547 23.0373 8.61509 21.7418 5.90099 21.1347V5.00364ZM1.88235 24.8635V9.57832C2.5563 9.59827 3.27711 9.6208 4.01864 9.6491V21.9018C4.01864 22.3546 4.34115 22.7432 4.7862 22.8268C6.93528 23.2301 9.72995 24.1057 12.3346 25.9909C8.61854 25.1575 4.72885 25.0235 1.88235 24.8635ZM30.1176 24.8635C27.2758 25.0233 23.3829 25.1571 19.6653 25.9909C22.27 24.1057 25.0647 23.2301 27.2137 22.8268C27.6588 22.7432 27.9813 22.3546 27.9813 21.9018V9.5477C28.8476 9.52831 29.5854 9.52806 30.1176 9.53289V24.8635H30.1176Z" fill="white"/>
<path id="Vector_2" d="M12.6184 11.7743C11.8894 11.2665 10.6327 10.6431 9.29152 10.4165C8.77921 10.3295 8.29331 10.6752 8.20666 11.1877C8.12007 11.7002 8.46536 12.1859 8.97792 12.2725C10.0134 12.4475 11.0065 12.9455 11.5424 13.3188C11.9687 13.6158 12.5554 13.5112 12.8526 13.0846C13.1497 12.6581 13.0449 12.0714 12.6184 11.7743Z" fill="white"/>
<path id="Vector_3" d="M12.5241 17.0743C11.8535 16.6647 10.5417 15.9461 9.29152 15.7348C8.77921 15.648 8.29331 15.9934 8.20666 16.506C8.12007 17.0186 8.46536 17.5042 8.97792 17.5908C9.95179 17.7554 11.0962 18.4078 11.543 18.6807C11.9872 18.9519 12.5662 18.8112 12.8368 18.3681C13.1077 17.9245 12.9678 17.3453 12.5241 17.0743Z" fill="white"/>
<path id="Vector_4" d="M20.4578 13.3189C20.9936 12.9455 21.9867 12.4475 23.0222 12.2725C23.5347 12.1859 23.88 11.7002 23.7935 11.1877C23.7069 10.6752 23.221 10.3294 22.7086 10.4165C21.3674 10.6431 20.1107 11.2665 19.3817 11.7744C18.9553 12.0715 18.8504 12.6582 19.1475 13.0846C19.4448 13.5114 20.0317 13.6158 20.4578 13.3189Z" fill="white"/>
<path id="Vector_5" d="M22.7088 15.7349C21.4586 15.9461 20.1468 16.6648 19.4761 17.0744C19.0325 17.3453 18.8926 17.9246 19.1635 18.3682C19.4344 18.8117 20.0136 18.9517 20.4573 18.6808C20.9041 18.4079 22.0485 17.7555 23.0224 17.5909C23.5349 17.5043 23.8802 17.0186 23.7936 16.5061C23.707 15.9935 23.2211 15.6477 22.7088 15.7349Z" fill="white"/>
</g>
<defs>
<clipPath id="clip0_496_47345">
<rect width="32" height="32" fill="white" transform="translate(0 0.0336914)"/>
</clipPath>
</defs>
</svg>
