<svg width="28" height="29" viewBox="0 0 28 29" fill="none" xmlns="http://www.w3.org/2000/svg">
<path d="M24.5 3.125H3.5C3.017 3.125 2.625 3.517 2.625 4C2.625 4.483 3.017 4.875 3.5 4.875H22.3873L2.88137 24.3814C2.53969 24.7231 2.53969 25.2769 2.88137 25.6186C3.05244 25.7897 3.276 25.875 3.5 25.875C3.724 25.875 3.948 25.7897 4.11862 25.6186L23.625 6.11225V25C23.625 25.483 24.017 25.875 24.5 25.875C24.983 25.875 25.375 25.483 25.375 25V4C25.375 3.517 24.983 3.125 24.5 3.125Z" fill="#1B9C43"/>
</svg>
