<svg width="26" height="27" viewBox="0 0 26 27" fill="none" xmlns="http://www.w3.org/2000/svg">
<g id="Instagram">
<rect y="0.320312" width="26" height="26" rx="13" fill="white"/>
<g id="Vector">
<path d="M13.0022 6.92551C15.0864 6.92551 15.3311 6.9348 16.1548 6.97197C16.9167 7.00603 17.3285 7.133 17.6042 7.24139C17.9696 7.38385 18.2297 7.55108 18.5023 7.82361C18.7748 8.09613 18.9451 8.35627 19.0845 8.7217C19.1898 8.99732 19.3198 9.40921 19.3539 10.171C19.3911 10.9948 19.4004 11.2395 19.4004 13.3237C19.4004 15.4079 19.3911 15.6525 19.3539 16.4763C19.3198 17.2381 19.1929 17.65 19.0845 17.9256C18.942 18.291 18.7748 18.5512 18.5023 18.8237C18.2297 19.0962 17.9696 19.2666 17.6042 19.4059C17.3285 19.5112 16.9167 19.6413 16.1548 19.6754C15.3311 19.7125 15.0864 19.7218 13.0022 19.7218C10.918 19.7218 10.6734 19.7125 9.84959 19.6754C9.08775 19.6413 8.67587 19.5143 8.40025 19.4059C8.03482 19.2635 7.77468 19.0962 7.50215 18.8237C7.22963 18.5512 7.0593 18.291 6.91994 17.9256C6.81465 17.65 6.68458 17.2381 6.65051 16.4763C6.61335 15.6525 6.60406 15.4079 6.60406 13.3237C6.60406 11.2395 6.61335 10.9948 6.65051 10.171C6.68458 9.40921 6.81155 8.99732 6.91994 8.7217C7.0624 8.35627 7.22963 8.09613 7.50215 7.82361C7.77468 7.55108 8.03482 7.38075 8.40025 7.24139C8.67587 7.1361 9.08775 7.00603 9.84959 6.97197C10.6734 6.93171 10.9211 6.92551 13.0022 6.92551ZM13.0022 5.51953C10.8839 5.51953 10.6176 5.52882 9.78455 5.56598C8.95459 5.60315 8.38786 5.73631 7.89236 5.92832C7.37828 6.12652 6.94471 6.39595 6.51115 6.82951C6.07759 7.26307 5.81126 7.69973 5.60996 8.21072C5.41795 8.70622 5.28479 9.27295 5.24763 10.106C5.21046 10.936 5.20117 11.2023 5.20117 13.3206C5.20117 15.4388 5.21046 15.7052 5.24763 16.5382C5.28479 17.3682 5.41795 17.9349 5.60996 18.4335C5.80816 18.9476 6.07759 19.3812 6.51115 19.8147C6.94471 20.2483 7.38137 20.5146 7.89236 20.7159C8.38786 20.9079 8.95459 21.0411 9.78765 21.0782C10.6207 21.1154 10.8839 21.1247 13.0053 21.1247C15.1267 21.1247 15.3899 21.1154 16.223 21.0782C17.0529 21.0411 17.6197 20.9079 18.1183 20.7159C18.6323 20.5177 19.0659 20.2483 19.4995 19.8147C19.933 19.3812 20.1994 18.9445 20.4007 18.4335C20.5927 17.938 20.7258 17.3713 20.763 16.5382C20.8001 15.7052 20.8094 15.4419 20.8094 13.3206C20.8094 11.1992 20.8001 10.936 20.763 10.1029C20.7258 9.27295 20.5927 8.70622 20.4007 8.20762C20.2025 7.69354 19.933 7.25998 19.4995 6.82641C19.0659 6.39285 18.6292 6.12652 18.1183 5.92522C17.6228 5.73322 17.056 5.60005 16.223 5.56289C15.3868 5.52882 15.1205 5.51953 13.0022 5.51953Z" fill="#1B9C43"/>
<path d="M13.0022 6.92551C15.0864 6.92551 15.3311 6.9348 16.1548 6.97197C16.9167 7.00603 17.3285 7.133 17.6042 7.24139C17.9696 7.38385 18.2297 7.55108 18.5023 7.82361C18.7748 8.09613 18.9451 8.35627 19.0845 8.7217C19.1898 8.99732 19.3198 9.40921 19.3539 10.171C19.3911 10.9948 19.4004 11.2395 19.4004 13.3237C19.4004 15.4079 19.3911 15.6525 19.3539 16.4763C19.3198 17.2381 19.1929 17.65 19.0845 17.9256C18.942 18.291 18.7748 18.5512 18.5023 18.8237C18.2297 19.0962 17.9696 19.2666 17.6042 19.4059C17.3285 19.5112 16.9167 19.6413 16.1548 19.6754C15.3311 19.7125 15.0864 19.7218 13.0022 19.7218C10.918 19.7218 10.6734 19.7125 9.84959 19.6754C9.08775 19.6413 8.67587 19.5143 8.40025 19.4059C8.03482 19.2635 7.77468 19.0962 7.50215 18.8237C7.22963 18.5512 7.0593 18.291 6.91994 17.9256C6.81465 17.65 6.68458 17.2381 6.65051 16.4763C6.61335 15.6525 6.60406 15.4079 6.60406 13.3237C6.60406 11.2395 6.61335 10.9948 6.65051 10.171C6.68458 9.40921 6.81155 8.99732 6.91994 8.7217C7.0624 8.35627 7.22963 8.09613 7.50215 7.82361C7.77468 7.55108 8.03482 7.38075 8.40025 7.24139C8.67587 7.1361 9.08775 7.00603 9.84959 6.97197C10.6734 6.93171 10.9211 6.92551 13.0022 6.92551Z" fill="#1B9C43"/>
</g>
<path id="Vector_2" d="M13.0015 9.31641C10.7903 9.31641 8.99414 11.1095 8.99414 13.3238C8.99414 15.538 10.7872 17.3311 13.0015 17.3311C15.2158 17.3311 17.0089 15.538 17.0089 13.3238C17.0089 11.1095 15.2158 9.31641 13.0015 9.31641ZM13.0015 15.922C11.5645 15.922 10.4001 14.7576 10.4001 13.3207C10.4001 11.8837 11.5645 10.7193 13.0015 10.7193C14.4384 10.7193 15.6029 11.8837 15.6029 13.3207C15.6029 14.7576 14.4384 15.922 13.0015 15.922Z" fill="white"/>
<path id="Vector_3" d="M17.1677 10.0912C17.6842 10.0912 18.1029 9.67249 18.1029 9.15596C18.1029 8.63943 17.6842 8.2207 17.1677 8.2207C16.6512 8.2207 16.2324 8.63943 16.2324 9.15596C16.2324 9.67249 16.6512 10.0912 17.1677 10.0912Z" fill="white"/>
</g>
</svg>
