<svg width="16" height="16" viewBox="0 0 16 16" fill="none" xmlns="http://www.w3.org/2000/svg">
<path d="M2.03084 7.60158L7.21678 13.5781C7.26365 13.6322 7.32161 13.6756 7.38671 13.7053C7.45182 13.735 7.52255 13.7504 7.59412 13.7504C7.66569 13.7504 7.73642 13.735 7.80153 13.7053C7.86663 13.6756 7.92459 13.6322 7.97146 13.5781L13.1558 7.60158C13.1715 7.58356 13.1817 7.56143 13.1851 7.5378C13.1885 7.51418 13.1851 7.49006 13.1752 7.46833C13.1654 7.44659 13.1494 7.42816 13.1294 7.41522C13.1093 7.40227 13.086 7.39537 13.0621 7.39533H11.7965C11.7246 7.39533 11.6558 7.42658 11.6074 7.48127L8.18709 11.4235L8.18709 2.62502C8.18709 2.55627 8.13084 2.50002 8.06209 2.50002H7.12459C7.05584 2.50002 6.99959 2.55627 6.99959 2.62502L6.99959 11.4235L3.57928 7.48127C3.5324 7.42658 3.46365 7.39533 3.39021 7.39533L2.12459 7.39533C2.01834 7.39533 1.96053 7.52033 2.03084 7.60158Z" fill="white" fill-opacity="0.9"/>
</svg>
