<svg width="16" height="16" viewBox="0 0 16 16" fill="none" xmlns="http://www.w3.org/2000/svg">
<path d="M13.1556 8.14885L7.96962 2.17229C7.92275 2.11821 7.86479 2.07483 7.79969 2.04511C7.73458 2.01538 7.66385 2 7.59228 2C7.52071 2 7.44998 2.01538 7.38487 2.04511C7.31977 2.07483 7.26182 2.11821 7.21494 2.17229L2.03056 8.14885C2.0149 8.16686 2.00474 8.189 2.0013 8.21263C1.99786 8.23625 2.00128 8.26037 2.01116 8.2821C2.02104 8.30383 2.03696 8.32227 2.05702 8.33521C2.07708 8.34815 2.10044 8.35506 2.12431 8.3551H3.38994C3.46181 8.3551 3.53056 8.32385 3.579 8.26916L6.99931 4.32697V13.1254C6.99931 13.1942 7.05556 13.2504 7.12431 13.2504H8.06181C8.13056 13.2504 8.18681 13.1942 8.18681 13.1254V4.32697L11.6071 8.26916C11.654 8.32385 11.7228 8.3551 11.7962 8.3551H13.0618C13.1681 8.3551 13.2259 8.2301 13.1556 8.14885Z" fill="white"/>
</svg>
