<svg width="20" height="20" viewBox="0 0 20 20" fill="none" xmlns="http://www.w3.org/2000/svg">
<path d="M17.1875 2.1875H2.8125C2.4668 2.1875 2.1875 2.4668 2.1875 2.8125V17.1875C2.1875 17.5332 2.4668 17.8125 2.8125 17.8125H17.1875C17.5332 17.8125 17.8125 17.5332 17.8125 17.1875V2.8125C17.8125 2.4668 17.5332 2.1875 17.1875 2.1875ZM16.4062 16.4062H3.59375V3.59375H16.4062V16.4062Z" fill="white" fill-opacity="0.9"/>
<path d="M12.0312 8.59375C12.0312 8.78023 12.1053 8.95907 12.2372 9.09093C12.3691 9.2228 12.5479 9.29687 12.7344 9.29687C12.9209 9.29687 13.0997 9.2228 13.2316 9.09093C13.3634 8.95907 13.4375 8.78023 13.4375 8.59375C13.4375 8.40727 13.3634 8.22843 13.2316 8.09657C13.0997 7.9647 12.9209 7.89062 12.7344 7.89062C12.5479 7.89062 12.3691 7.9647 12.2372 8.09657C12.1053 8.22843 12.0312 8.40727 12.0312 8.59375ZM6.64844 11.748L6.67773 11.7949C6.67773 11.7969 6.67969 11.7969 6.67969 11.7988L6.69727 11.8223C6.69922 11.8242 6.70117 11.8262 6.70117 11.8281C6.7207 11.8535 6.74023 11.877 6.76367 11.8984L6.76758 11.9023C6.77539 11.9102 6.7832 11.918 6.79102 11.9238C6.80664 11.9395 6.82422 11.9531 6.8418 11.9648H6.84375L6.86719 11.9824C6.86914 11.9844 6.87305 11.9863 6.875 11.9883C6.89844 12.0039 6.92383 12.0195 6.95117 12.0312C6.95508 12.0332 6.96094 12.0352 6.96484 12.0391C6.97266 12.043 6.97852 12.0449 6.98633 12.0488C6.99219 12.0508 7 12.0547 7.00586 12.0566C7.01563 12.0605 7.02539 12.0645 7.03516 12.0664C7.04297 12.0684 7.05273 12.0723 7.06055 12.0742L7.07813 12.0801L7.10547 12.0859C7.10938 12.0879 7.11523 12.0879 7.11914 12.0898C7.13281 12.0918 7.14648 12.0957 7.16016 12.0977C7.16406 12.0977 7.16797 12.0977 7.17188 12.0996C7.18359 12.1016 7.19336 12.1016 7.20508 12.1035C7.20898 12.1035 7.21289 12.1035 7.21875 12.1055C7.23438 12.1055 7.24805 12.1074 7.26367 12.1074C7.2793 12.1074 7.29297 12.1074 7.30859 12.1055C7.3125 12.1055 7.31641 12.1055 7.32227 12.1035C7.33398 12.1035 7.3457 12.1016 7.35547 12.0996C7.35938 12.0996 7.36328 12.0996 7.36719 12.0977C7.38086 12.0957 7.39453 12.0937 7.4082 12.0898C7.41211 12.0879 7.41797 12.0879 7.42188 12.0859L7.44922 12.0801L7.4668 12.0742C7.47461 12.0723 7.48438 12.0684 7.49219 12.0664C7.50195 12.0625 7.51172 12.0586 7.52148 12.0566C7.52734 12.0547 7.53516 12.0508 7.54102 12.0488C7.54883 12.0449 7.55469 12.043 7.5625 12.0391C7.56641 12.0371 7.57227 12.0352 7.57617 12.0312C7.60156 12.0176 7.62695 12.0039 7.65234 11.9883C7.6543 11.9863 7.6582 11.9844 7.66016 11.9824L7.68359 11.9648H7.68555C7.70313 11.9512 7.7207 11.9375 7.73633 11.9238C7.74414 11.916 7.75195 11.9102 7.75977 11.9023L7.76367 11.8984C7.78516 11.877 7.80664 11.8516 7.82617 11.8281C7.82813 11.8262 7.83008 11.8242 7.83008 11.8223L7.84766 11.7988C7.84766 11.7969 7.84961 11.7969 7.84961 11.7949L7.87891 11.748C7.88086 11.7441 7.88281 11.7422 7.88477 11.7383C7.9375 11.6387 7.96875 11.5254 7.96875 11.4062C7.96875 11.2871 7.9375 11.1719 7.88477 11.0742C7.88281 11.0703 7.88086 11.0664 7.87891 11.0645L7.84961 11.0176C7.84961 11.0156 7.84766 11.0156 7.84766 11.0137L7.83008 10.9902C7.82813 10.9883 7.82617 10.9863 7.82617 10.9844C7.80664 10.959 7.78711 10.9355 7.76367 10.9141L7.75977 10.9102C7.75195 10.9023 7.74414 10.8945 7.73633 10.8887C7.7207 10.873 7.70313 10.8594 7.68555 10.8477H7.68359L7.66016 10.8301C7.6582 10.8281 7.6543 10.8262 7.65234 10.8242C7.62891 10.8086 7.60352 10.793 7.57617 10.7812C7.57227 10.7793 7.56641 10.7773 7.5625 10.7734C7.55469 10.7695 7.54883 10.7676 7.54102 10.7637C7.53516 10.7617 7.52734 10.7578 7.52148 10.7559C7.51172 10.752 7.50195 10.748 7.49219 10.7461C7.48438 10.7441 7.47461 10.7402 7.4668 10.7383L7.44922 10.7324L7.42188 10.7266C7.41797 10.7246 7.41211 10.7246 7.4082 10.7227C7.39453 10.7207 7.38086 10.7168 7.36719 10.7148C7.36328 10.7148 7.35938 10.7148 7.35547 10.7129C7.34375 10.7109 7.33398 10.7109 7.32227 10.709C7.31836 10.709 7.31445 10.709 7.30859 10.707C7.29297 10.707 7.2793 10.7051 7.26367 10.7051C7.24805 10.7051 7.23438 10.7051 7.21875 10.707C7.21484 10.707 7.21094 10.707 7.20508 10.709C7.19336 10.709 7.18164 10.7109 7.17188 10.7129C7.16797 10.7129 7.16406 10.7129 7.16016 10.7148C7.14648 10.7168 7.13281 10.7187 7.11914 10.7227C7.11523 10.7246 7.10938 10.7246 7.10547 10.7266L7.07813 10.7324L7.06055 10.7383C7.05273 10.7402 7.04297 10.7441 7.03516 10.7461C7.02539 10.75 7.01563 10.7539 7.00586 10.7559C7 10.7578 6.99219 10.7617 6.98633 10.7637C6.97852 10.7676 6.97266 10.7695 6.96484 10.7734C6.96094 10.7754 6.95508 10.7773 6.95117 10.7812C6.92578 10.7949 6.90039 10.8086 6.875 10.8242C6.87305 10.8262 6.86914 10.8281 6.86719 10.8301L6.84375 10.8477H6.8418C6.82422 10.8613 6.80664 10.875 6.79102 10.8887C6.7832 10.8965 6.77539 10.9023 6.76758 10.9102L6.76367 10.9141C6.74182 10.9366 6.72096 10.96 6.70117 10.9844C6.69922 10.9863 6.69727 10.9883 6.69727 10.9902L6.67969 11.0137C6.67969 11.0156 6.67773 11.0156 6.67773 11.0176L6.64844 11.0645C6.64648 11.0684 6.64453 11.0703 6.64258 11.0742C6.58984 11.1738 6.55859 11.2871 6.55859 11.4062C6.55859 11.5254 6.58984 11.6406 6.64258 11.7383C6.64453 11.7422 6.64648 11.7441 6.64844 11.748Z" fill="black" fill-opacity="0.15"/>
<path d="M3.59375 16.4062H16.4062V3.59375H3.59375V16.4062ZM12.1172 6.6582C12.1133 6.6582 12.1113 6.66016 12.1094 6.66016V5.15625C12.1094 5.07031 12.1797 5 12.2656 5H13.2031C13.2891 5 13.3594 5.07031 13.3594 5.15625V6.66016C13.3555 6.66016 13.3535 6.6582 13.3516 6.6582C14.1719 6.91992 14.7656 7.6875 14.7656 8.59375C14.7656 9.5 14.1719 10.2676 13.3516 10.5293C13.3555 10.5293 13.3574 10.5273 13.3594 10.5273V14.8438C13.3594 14.9297 13.2891 15 13.2031 15H12.2656C12.1797 15 12.1094 14.9297 12.1094 14.8438V10.5273C12.1133 10.5273 12.1152 10.5293 12.1172 10.5293C11.2969 10.2676 10.7031 9.5 10.7031 8.59375C10.7031 7.6875 11.2969 6.91992 12.1172 6.6582ZM6.64062 9.47266V5.15625C6.64062 5.07031 6.71094 5 6.79688 5H7.73438C7.82031 5 7.89062 5.07031 7.89062 5.15625V9.47266C8.70508 9.73828 9.29688 10.5039 9.29688 11.4062C9.29688 12.3086 8.70508 13.0762 7.89062 13.3398V14.8438C7.89062 14.9297 7.82031 15 7.73438 15H6.79688C6.71094 15 6.64062 14.9297 6.64062 14.8438V13.3398C5.82617 13.0742 5.23438 12.3086 5.23438 11.4062C5.23438 10.5039 5.82617 9.73633 6.64062 9.47266Z" fill="black" fill-opacity="0.15"/>
<path d="M6.64062 13.3398V14.8438C6.64062 14.9297 6.71094 15 6.79688 15H7.73438C7.82031 15 7.89062 14.9297 7.89062 14.8438V13.3398C8.70508 13.0762 9.29688 12.3086 9.29688 11.4062C9.29688 10.5039 8.70508 9.73828 7.89062 9.47266V5.15625C7.89062 5.07031 7.82031 5 7.73438 5H6.79688C6.71094 5 6.64062 5.07031 6.64062 5.15625V9.47266C5.82617 9.73633 5.23438 10.5039 5.23438 11.4062C5.23438 12.3086 5.82617 13.0742 6.64062 13.3398ZM6.64258 11.0742C6.64453 11.0703 6.64648 11.0684 6.64844 11.0645L6.67773 11.0176C6.67773 11.0156 6.67969 11.0156 6.67969 11.0137L6.69727 10.9902C6.69727 10.9883 6.69922 10.9863 6.70117 10.9844C6.7207 10.9609 6.74219 10.9355 6.76367 10.9141L6.76758 10.9102C6.77539 10.9023 6.7832 10.8965 6.79102 10.8887C6.80664 10.875 6.82422 10.8613 6.8418 10.8477H6.84375L6.86719 10.8301C6.86914 10.8281 6.87305 10.8262 6.875 10.8242C6.90039 10.8086 6.92578 10.7949 6.95117 10.7812C6.95508 10.7773 6.96094 10.7754 6.96484 10.7734C6.97266 10.7695 6.97852 10.7676 6.98633 10.7637C6.99219 10.7617 7 10.7578 7.00586 10.7559C7.01563 10.7539 7.02539 10.75 7.03516 10.7461C7.04297 10.7441 7.05273 10.7402 7.06055 10.7383L7.07812 10.7324L7.10547 10.7266C7.10937 10.7246 7.11523 10.7246 7.11914 10.7227C7.13281 10.7188 7.14648 10.7168 7.16016 10.7148C7.16406 10.7129 7.16797 10.7129 7.17188 10.7129C7.18164 10.7109 7.19336 10.709 7.20508 10.709C7.21094 10.707 7.21484 10.707 7.21875 10.707C7.23438 10.7051 7.24805 10.7051 7.26367 10.7051C7.2793 10.7051 7.29297 10.707 7.30859 10.707C7.31445 10.709 7.31836 10.709 7.32227 10.709C7.33398 10.7109 7.34375 10.7109 7.35547 10.7129C7.35938 10.7148 7.36328 10.7148 7.36719 10.7148C7.38086 10.7168 7.39453 10.7207 7.4082 10.7227C7.41211 10.7246 7.41797 10.7246 7.42188 10.7266L7.44922 10.7324L7.4668 10.7383C7.47461 10.7402 7.48438 10.7441 7.49219 10.7461C7.50195 10.748 7.51172 10.752 7.52148 10.7559C7.52734 10.7578 7.53516 10.7617 7.54102 10.7637C7.54883 10.7676 7.55469 10.7695 7.5625 10.7734C7.56641 10.7773 7.57227 10.7793 7.57617 10.7812C7.60352 10.793 7.62891 10.8086 7.65234 10.8242C7.6543 10.8262 7.6582 10.8281 7.66016 10.8301L7.68359 10.8477H7.68555C7.70312 10.8594 7.7207 10.873 7.73633 10.8887C7.74414 10.8945 7.75195 10.9023 7.75977 10.9102L7.76367 10.9141C7.78711 10.9355 7.80664 10.959 7.82617 10.9844C7.82617 10.9863 7.82812 10.9883 7.83008 10.9902L7.84766 11.0137C7.84766 11.0156 7.84961 11.0156 7.84961 11.0176L7.87891 11.0645C7.93744 11.1689 7.96836 11.2865 7.96875 11.4062C7.96875 11.5254 7.9375 11.6387 7.88477 11.7383C7.88281 11.7422 7.88086 11.7441 7.87891 11.748L7.84961 11.7949C7.84961 11.7969 7.84766 11.7969 7.84766 11.7988L7.83008 11.8223C7.83008 11.8242 7.82813 11.8262 7.82617 11.8281C7.80664 11.8516 7.78516 11.877 7.76367 11.8984L7.75977 11.9023C7.75195 11.9102 7.74414 11.916 7.73633 11.9238C7.7207 11.9375 7.70312 11.9512 7.68555 11.9648H7.68359L7.66016 11.9824C7.6582 11.9844 7.6543 11.9863 7.65234 11.9883C7.62695 12.0039 7.60156 12.0176 7.57617 12.0312C7.57227 12.0352 7.56641 12.0371 7.5625 12.0391C7.55469 12.043 7.54883 12.0449 7.54102 12.0488C7.53516 12.0508 7.52734 12.0547 7.52148 12.0566C7.51172 12.0586 7.50195 12.0625 7.49219 12.0664C7.48438 12.0684 7.47461 12.0723 7.4668 12.0742L7.44922 12.0801L7.42188 12.0859C7.41797 12.0879 7.41211 12.0879 7.4082 12.0898C7.39453 12.0938 7.38086 12.0957 7.36719 12.0977C7.36328 12.0996 7.35938 12.0996 7.35547 12.0996C7.3457 12.1016 7.33398 12.1035 7.32227 12.1035C7.31641 12.1055 7.3125 12.1055 7.30859 12.1055C7.29297 12.1074 7.2793 12.1074 7.26367 12.1074C7.24805 12.1074 7.23438 12.1055 7.21875 12.1055C7.21289 12.1035 7.20898 12.1035 7.20508 12.1035C7.19336 12.1016 7.18359 12.1016 7.17188 12.0996C7.16797 12.0977 7.16406 12.0977 7.16016 12.0977C7.14648 12.0957 7.13281 12.0918 7.11914 12.0898C7.11523 12.0879 7.10937 12.0879 7.10547 12.0859L7.07812 12.0801L7.06055 12.0742C7.05273 12.0723 7.04297 12.0684 7.03516 12.0664C7.02539 12.0645 7.01563 12.0605 7.00586 12.0566C7 12.0547 6.99219 12.0508 6.98633 12.0488C6.97852 12.0449 6.97266 12.043 6.96484 12.0391C6.96094 12.0352 6.95508 12.0332 6.95117 12.0312C6.92383 12.0195 6.89844 12.0039 6.875 11.9883C6.87305 11.9863 6.86914 11.9844 6.86719 11.9824L6.84375 11.9648H6.8418C6.82422 11.9531 6.80664 11.9395 6.79102 11.9238C6.7832 11.918 6.77539 11.9102 6.76758 11.9023L6.76367 11.8984C6.74023 11.877 6.7207 11.8535 6.70117 11.8281C6.70117 11.8262 6.69922 11.8242 6.69727 11.8223L6.67969 11.7988C6.67969 11.7969 6.67773 11.7969 6.67773 11.7949L6.64844 11.748C6.64648 11.7441 6.64453 11.7422 6.64258 11.7383C6.58984 11.6406 6.55859 11.5254 6.55859 11.4062C6.55859 11.2871 6.58984 11.1738 6.64258 11.0742ZM12.1172 10.5293C12.1152 10.5293 12.1133 10.5273 12.1094 10.5273V14.8438C12.1094 14.9297 12.1797 15 12.2656 15H13.2031C13.2891 15 13.3594 14.9297 13.3594 14.8438V10.5273C13.3574 10.5273 13.3555 10.5293 13.3516 10.5293C14.1719 10.2676 14.7656 9.5 14.7656 8.59375C14.7656 7.6875 14.1719 6.91992 13.3516 6.6582C13.3535 6.6582 13.3555 6.66016 13.3594 6.66016V5.15625C13.3594 5.07031 13.2891 5 13.2031 5H12.2656C12.1797 5 12.1094 5.07031 12.1094 5.15625V6.66016C12.1113 6.66016 12.1133 6.6582 12.1172 6.6582C11.2969 6.91992 10.7031 7.6875 10.7031 8.59375C10.7031 9.5 11.2969 10.2676 12.1172 10.5293ZM12.7344 7.89062C13.123 7.89062 13.4375 8.20508 13.4375 8.59375C13.4375 8.98242 13.123 9.29688 12.7344 9.29688C12.3457 9.29688 12.0312 8.98242 12.0312 8.59375C12.0312 8.20508 12.3457 7.89062 12.7344 7.89062Z" fill="white" fill-opacity="0.9"/>
</svg>
