<svg width="49" height="60" viewBox="0 0 49 60" fill="none" xmlns="http://www.w3.org/2000/svg">
<path d="M44.5 33.1912C44.5 34.1117 43.8284 34.8579 43 34.8579C42.1716 34.8579 41.5 34.1117 41.5 33.1912C41.5 32.2708 43 29.8579 43 29.8579C43 29.8579 44.5 32.2708 44.5 33.1912Z" fill="white"/>
<path d="M35.5 49.8579C35.5 51.2386 34.3807 52.3579 33 52.3579C31.6193 52.3579 30.5 51.2386 30.5 49.8579C30.5 48.4772 33 44.8579 33 44.8579C33 44.8579 35.5 48.4772 35.5 49.8579Z" fill="white"/>
<path d="M1.31215 3.54659C1.76067 1.66635 3.6485 0.505711 5.52875 0.95423L27.901 6.29099C29.7813 6.7395 30.9419 8.62734 30.4934 10.5076C30.0449 12.3878 28.157 13.5485 26.2768 13.0999L3.90452 7.76319C2.02427 7.31467 0.863634 5.42684 1.31215 3.54659Z" fill="white"/>
<path d="M0.5 17.7079C0.5 14.5636 3.36782 12.1997 6.45435 12.7999L14.4543 14.3554C16.8038 14.8123 18.5 16.87 18.5 19.2635V54.1421C18.5 56.9035 16.2614 59.1421 13.5 59.1421H5.5C2.73858 59.1421 0.5 56.9035 0.5 54.1421V17.7079Z" fill="white"/>
<path d="M45.2381 14.4657C46.8101 14.0738 48.4354 15.0367 48.4917 16.6559C48.5252 17.6214 48.4588 18.5903 48.292 19.5472C47.9565 21.4709 47.2224 23.3031 46.1367 24.9262C45.2815 26.2046 44.2232 27.3309 43.0061 28.262L42.4412 25.2927L39.6176 25.9883L38.4448 24.2546C38.5819 24.1785 38.717 24.0984 38.8499 24.0143C39.8084 23.4076 40.6294 22.6071 41.2601 21.6642C41.8908 20.7213 42.3173 19.6569 42.5122 18.5394C42.5384 18.389 42.5604 18.2381 42.5781 18.0869C42.7662 16.4777 43.666 14.8575 45.2381 14.4657Z" fill="white"/>
<path d="M38.0759 24.447C37.3264 24.8139 36.5233 25.064 35.6945 25.1871C34.5724 25.3537 33.4278 25.2837 32.3344 24.9816C31.241 24.6795 30.2228 24.152 29.3454 23.4331C28.4679 22.7141 27.7506 21.8195 27.2395 20.8068C27.1707 20.6705 27.1059 20.5325 27.045 20.3929C26.3974 18.9079 25.0658 17.619 23.4477 17.7007C21.8296 17.7825 20.5542 19.1761 20.9707 20.7417C21.2191 21.6753 21.5641 22.5832 22.0018 23.4503C22.8816 25.1936 24.1165 26.7335 25.6269 27.9712C27.1373 29.2088 28.8899 30.1168 30.7721 30.6368C31.1272 30.7348 31.4854 30.8187 31.8459 30.8883L31.655 34.4082L24.814 38.2366C24.2165 38.571 23.6972 39.0075 23.2729 39.5173L24.5 41.3579L28.5 40.3579L29.1512 43.831L35.794 40.1134C37.4389 39.1929 38.4978 37.4941 38.5999 35.6118L38.8805 30.4393C39.9698 30.0805 41.0137 29.5882 41.9878 28.9716C42.1542 28.8663 42.3181 28.7576 42.4796 28.6456L41.7353 27.0318L39.2647 27.7275L38.0759 24.447Z" fill="white"/>
<path d="M27.5 42.8579L29 46.1579V55.1422C29 57.0752 27.433 58.6422 25.5 58.6422C23.567 58.6422 22 57.0752 22 55.1422V43.0361C22 42.0585 22.2594 41.1184 22.7292 40.2995L24 43.8579L27.5 42.8579Z" fill="white"/>
</svg>
