<svg width="28" height="28" viewBox="0 0 28 28" fill="none" xmlns="http://www.w3.org/2000/svg">
<g id="fi_9538385" clip-path="url(#clip0_556_8589)">
<g id="Group">
<path id="XMLID_27_" d="M11.115 14.212C11.1575 14.212 11.1575 14.2544 11.1575 14.2544L15.7393 9.6726L15.6969 9.63018L10.4363 4.36957C10.3938 4.36957 10.3938 4.32715 10.3938 4.32715L5.81201 8.90897L5.85444 8.95139L11.115 14.212Z" fill="#2B4C65"/>
<path id="XMLID_783_" d="M7.50904 17.8183C7.97571 18.285 8.78177 18.285 9.29086 17.8183C9.46056 17.4789 11.7939 16.0789 10.5212 14.8062L5.26056 9.54556C4.75147 9.07889 3.98783 9.07889 3.47874 9.54556L2.24844 10.7759C1.78177 11.2425 1.78177 12.0486 2.24844 12.5577L7.50904 17.8183Z" fill="#2B4C65"/>
<path id="XMLID_784_" d="M16.2908 9.0363C16.7574 9.50297 17.5635 9.50297 18.0726 9.0363L19.3029 7.806C19.812 7.29691 19.7696 6.53327 19.3029 6.02418L14.0423 0.763574C13.5756 0.296908 12.7696 0.296908 12.2605 0.763574L11.0302 2.0363C10.5635 2.50297 10.5635 3.30903 11.0302 3.81812L16.2908 9.0363Z" fill="#2B4C65"/>
<path id="XMLID_818_" d="M26.4726 21.6364L15.3574 11.2849L12.7695 13.8728L23.121 25.0304C24.012 26.0061 25.5817 26.091 26.5574 25.0728C27.5332 24.097 27.4907 22.5698 26.4726 21.6364Z" fill="#2B4C65"/>
<path id="XMLID_819_" d="M15.6546 24.097C15.8243 23.8425 15.9091 23.5455 15.9091 23.2485C15.9091 22.4425 15.2728 21.7637 14.5091 21.7637H3.98791C3.22428 21.7637 2.58791 22.4 2.58791 23.2485C2.58791 23.5879 2.67276 23.8849 2.84246 24.097C1.61216 24.5637 0.763672 25.7516 0.763672 27.1516C0.763672 27.3637 0.933369 27.5758 1.18791 27.5758H17.3516C17.5637 27.5758 17.7758 27.3637 17.7758 27.1516C17.7334 25.7516 16.8849 24.5637 15.6546 24.097Z" fill="#2B4C65"/>
</g>
</g>
<defs>
<clipPath id="clip0_556_8589">
<rect width="28" height="28" fill="white"/>
</clipPath>
</defs>
</svg>
