<svg width="28" height="28" viewBox="0 0 28 28" fill="none" xmlns="http://www.w3.org/2000/svg">
<g id="fi_3418754" clip-path="url(#clip0_556_8636)">
<g id="Group">
<path id="Vector" d="M26.2426 18.5859V9.87695L24.602 10.4238V18.5859C23.5818 18.9294 22.8447 19.8944 22.8447 21.0289V25.4221C22.8447 25.8751 23.212 26.2424 23.665 26.2424H27.1796C27.6326 26.2424 27.9999 25.8751 27.9999 25.4221V21.0289C27.9999 19.8944 27.2628 18.9294 26.2426 18.5859Z" fill="#2B4C65"/>
<path id="Vector_2" d="M13.2222 13.6989L5.27197 11.0488V16.636C5.27197 16.8536 5.35843 17.0623 5.51227 17.2161C7.77972 19.4833 10.7943 20.7319 14.0005 20.7319C17.2068 20.7319 20.221 19.4833 22.488 17.216C22.6418 17.0622 22.7282 16.8535 22.7282 16.636V11.0488L14.7783 13.6988C14.2349 13.8798 13.6878 13.854 13.2222 13.6989Z" fill="#2B4C65"/>
<path id="Vector_3" d="M14 12.1843C14.0876 12.1843 14.1752 12.1702 14.2594 12.1422L27.4391 7.74898C27.774 7.63731 28 7.32384 28 6.97078C28 6.61772 27.7741 6.30425 27.4391 6.19258L14.2594 1.79937C14.0911 1.74331 13.9089 1.74331 13.7406 1.79937L0.56093 6.19258C0.225914 6.30419 0 6.61766 0 6.97078C0 7.3239 0.225914 7.63731 0.56093 7.74898L13.7406 12.1422C13.8248 12.1702 13.9124 12.1843 14 12.1843Z" fill="#2B4C65"/>
</g>
</g>
<defs>
<clipPath id="clip0_556_8636">
<rect width="28" height="28" fill="white"/>
</clipPath>
</defs>
</svg>
