<svg width="18" height="18" viewBox="0 0 18 18" fill="none" xmlns="http://www.w3.org/2000/svg">
<g id="fi_9538385" clip-path="url(#clip0_47_668)">
<g id="Group">
<path id="XMLID_27_" d="M7.14566 9.13628C7.17294 9.13628 7.17294 9.16356 7.17294 9.16356L10.1184 6.2181L10.0911 6.19083L6.7093 2.80901C6.68203 2.80901 6.68203 2.78174 6.68203 2.78174L3.73657 5.72719L3.76385 5.75447L7.14566 9.13628Z" fill="#333333"/>
<path id="XMLID_783_" d="M4.82728 11.4544C5.12728 11.7544 5.64546 11.7544 5.97273 11.4544C6.08182 11.2363 7.58182 10.3363 6.76364 9.51807L3.38182 6.13625C3.05455 5.83625 2.56364 5.83625 2.23637 6.13625L1.44546 6.92716C1.14546 7.22716 1.14546 7.74535 1.44546 8.07262L4.82728 11.4544Z" fill="#333333"/>
<path id="XMLID_784_" d="M10.4728 5.80905C10.7728 6.10905 11.291 6.10905 11.6182 5.80905L12.4091 5.01814C12.7364 4.69087 12.7091 4.19996 12.4091 3.87269L9.02733 0.490869C8.72733 0.190869 8.20915 0.190869 7.88188 0.490869L7.09097 1.30905C6.79097 1.60905 6.79097 2.12723 7.09097 2.45451L10.4728 5.80905Z" fill="#333333"/>
<path id="XMLID_818_" d="M17.0183 13.9091L9.87287 7.25452L8.20923 8.91815L14.8638 16.0909C15.4365 16.7182 16.4456 16.7727 17.0729 16.1182C17.7001 15.4909 17.6729 14.5091 17.0183 13.9091Z" fill="#333333"/>
<path id="XMLID_819_" d="M10.0637 15.4908C10.1728 15.3272 10.2273 15.1363 10.2273 14.9454C10.2273 14.4272 9.81824 13.9908 9.32733 13.9908H2.56369C2.07278 13.9908 1.66369 14.3999 1.66369 14.9454C1.66369 15.1636 1.71824 15.3545 1.82733 15.4908C1.03642 15.7908 0.490967 16.5545 0.490967 17.4545C0.490967 17.5908 0.600058 17.7272 0.763694 17.7272H11.1546C11.291 17.7272 11.4273 17.5908 11.4273 17.4545C11.4001 16.5545 10.8546 15.7908 10.0637 15.4908Z" fill="#333333"/>
</g>
</g>
<defs>
<clipPath id="clip0_47_668">
<rect width="18" height="18" fill="white"/>
</clipPath>
</defs>
</svg>
