<svg width="28" height="28" viewBox="0 0 28 28" fill="none" xmlns="http://www.w3.org/2000/svg">
<g id="fi_1063299">
<path id="Vector" d="M11.5391 14.8203H16.4609V16.4609H11.5391V14.8203Z" fill="#2B4C65"/>
<path id="Vector_2" d="M22.716 16.461H18.1016V17.2813C18.1016 17.7346 17.7346 18.1016 17.2812 18.1016H10.7188C10.2654 18.1016 9.89844 17.7346 9.89844 17.2813V16.461H5.28397C4.22333 16.461 3.28531 15.7849 2.94949 14.7787L0 5.92871V23.8438C0 25.2007 1.104 26.3047 2.46094 26.3047H25.5391C26.896 26.3047 28 25.2007 28 23.8438V5.92935L25.0503 14.7787C24.7147 15.7849 23.7767 16.461 22.716 16.461Z" fill="#2B4C65"/>
<path id="Vector_3" d="M17.2815 1.69531H10.719C9.36203 1.69531 8.25803 2.79932 8.25803 4.15625V4.97656H1.41162L4.50552 14.2596C4.61768 14.5952 4.93085 14.8203 5.28418 14.8203H9.89865V14C9.89865 13.5467 10.2657 13.1797 10.719 13.1797H17.2815C17.7348 13.1797 18.1018 13.5467 18.1018 14V14.8203H22.7162C23.0696 14.8203 23.3828 14.5952 23.4949 14.2596L26.589 4.97656H19.7424V4.15625C19.7424 2.79932 18.6384 1.69531 17.2815 1.69531ZM9.89865 4.97656V4.15625C9.89865 3.70358 10.2663 3.33594 10.719 3.33594H17.2815C17.7341 3.33594 18.1018 3.70358 18.1018 4.15625V4.97656H9.89865Z" fill="#2B4C65"/>
</g>
</svg>
