<svg width="108" height="18" viewBox="0 0 108 18" fill="none" xmlns="http://www.w3.org/2000/svg">
<g clip-path="url(#clip0_556_5092)">
<path d="M4.66248 11.2436L3.80725 16.4863C3.73907 16.9028 4.1839 17.2153 4.55178 17.0108L9.00006 14.5525L13.4483 17.0115C13.8128 17.214 14.2617 16.9075 14.1929 16.487L13.3376 11.2443L16.9557 7.53578C17.2425 7.24215 17.0778 6.744 16.6701 6.6819L11.69 5.92117L9.45771 1.16644C9.29099 0.811383 8.70846 0.811383 8.54173 1.16644L6.31017 5.92049L1.32998 6.68122C0.920928 6.744 0.757577 7.24148 1.04445 7.53511L4.66248 11.2436Z" fill="#2B4C65"/>
</g>
<path d="M27.1625 11.2436L26.3072 16.4863C26.2391 16.9028 26.6839 17.2153 27.0518 17.0108L31.5001 14.5525L35.9483 17.0115C36.3128 17.214 36.7617 16.9075 36.6929 16.487L35.8376 11.2443L39.4557 7.53578C39.7425 7.24215 39.5778 6.744 39.1701 6.6819L34.19 5.92117L31.9577 1.16644C31.791 0.811383 31.2085 0.811383 31.0417 1.16644L28.8102 5.92049L23.83 6.68122C23.4209 6.744 23.2576 7.24148 23.5445 7.53511L27.1625 11.2436Z" fill="#2B4C65"/>
<g clip-path="url(#clip1_556_5092)">
<path d="M49.6625 11.2436L48.8072 16.4863C48.7391 16.9028 49.1839 17.2153 49.5518 17.0108L54.0001 14.5525L58.4483 17.0115C58.8128 17.214 59.2617 16.9075 59.1929 16.487L58.3376 11.2443L61.9557 7.53578C62.2425 7.24215 62.0778 6.744 61.6701 6.6819L56.69 5.92117L54.4577 1.16644C54.291 0.811383 53.7085 0.811383 53.5417 1.16644L51.3102 5.92049L46.33 6.68122C45.9209 6.744 45.7576 7.24148 46.0445 7.53511L49.6625 11.2436Z" fill="#DCE4ED"/>
</g>
<path d="M72.1625 11.2436L71.3072 16.4863C71.2391 16.9028 71.6839 17.2153 72.0518 17.0108L76.5001 14.5525L80.9483 17.0115C81.3128 17.214 81.7617 16.9075 81.6929 16.487L80.8376 11.2443L84.4557 7.53578C84.7425 7.24215 84.5778 6.744 84.1701 6.6819L79.19 5.92117L76.9577 1.16644C76.791 0.811383 76.2085 0.811383 76.0417 1.16644L73.8102 5.92049L68.83 6.68122C68.4209 6.744 68.2576 7.24148 68.5445 7.53511L72.1625 11.2436Z" fill="#DCE4ED"/>
<g clip-path="url(#clip2_556_5092)">
<path d="M94.6625 11.2436L93.8072 16.4863C93.7391 16.9028 94.1839 17.2153 94.5518 17.0108L99.0001 14.5525L103.448 17.0115C103.813 17.214 104.262 16.9075 104.193 16.487L103.338 11.2443L106.956 7.53578C107.243 7.24215 107.078 6.744 106.67 6.6819L101.69 5.92117L99.4577 1.16644C99.291 0.811383 98.7085 0.811383 98.5417 1.16644L96.3102 5.92049L91.33 6.68122C90.9209 6.744 90.7576 7.24148 91.0445 7.53511L94.6625 11.2436Z" fill="#DCE4ED"/>
</g>
<defs>
<clipPath id="clip0_556_5092">
<rect width="18" height="18" fill="white"/>
</clipPath>
<clipPath id="clip1_556_5092">
<rect width="18" height="18" fill="white" transform="translate(45)"/>
</clipPath>
<clipPath id="clip2_556_5092">
<rect width="18" height="18" fill="white" transform="translate(90)"/>
</clipPath>
</defs>
</svg>
