<svg width="32" height="32" viewBox="0 0 32 32" fill="none" xmlns="http://www.w3.org/2000/svg">
<g id="fi_5969020" clip-path="url(#clip0_556_8212)">
<g id="Group">
<path id="Vector" d="M16 0C7.16375 0 0 7.16375 0 16C0 24.8363 7.16375 32 16 32C24.8363 32 32 24.8363 32 16C32 7.16375 24.8363 0 16 0Z" fill="#D4AF37"/>
<path id="Vector_2" d="M17.7504 14.552L24.5998 6.59009H22.9767L17.0293 13.5033L12.2792 6.59009H6.80054L13.9836 17.044L6.80054 25.3933H8.42372L14.7043 18.0927L19.7207 25.3933H25.1994L17.75 14.552H17.7504ZM9.00856 7.81201H11.5017L22.9774 24.227H20.4843L9.00856 7.81201Z" fill="white"/>
</g>
</g>
<defs>
<clipPath id="clip0_556_8212">
<rect width="32" height="32" fill="white"/>
</clipPath>
</defs>
</svg>
