<svg width="18" height="18" viewBox="0 0 18 18" fill="none" xmlns="http://www.w3.org/2000/svg">
<g id="fi_2115330" clip-path="url(#clip0_556_8326)">
<g id="Group 7">
<path id="Vector" d="M8.52441 8.49717V5.61279H5.52741C5.36544 6.46378 5.26525 7.42609 5.24341 8.49717H8.52441Z" fill="#2B4C65"/>
<path id="Vector_2" d="M8.5244 4.66177V0.899902C7.41156 1.1775 6.34796 2.4492 5.74585 4.66177H8.5244Z" fill="#2B4C65"/>
<path id="Vector_3" d="M4.29339 9.448H0.899902C0.957685 10.4444 1.19652 11.4079 1.60097 12.3007H4.56212C4.40633 11.4224 4.31574 10.467 4.29339 9.448Z" fill="#2B4C65"/>
<path id="Vector_4" d="M0.899902 8.49717H4.29241C4.31251 7.46609 4.40252 6.49982 4.55987 5.61279H1.61555C1.20235 6.5145 0.958351 7.48897 0.899902 8.49717Z" fill="#2B4C65"/>
<path id="Vector_5" d="M9.47534 0.904053V4.66196H12.2456C12.0178 3.83348 11.7449 3.21013 11.4931 2.75497C10.9301 1.73742 10.2269 1.09734 9.47534 0.904053Z" fill="#2B4C65"/>
<path id="Vector_6" d="M8.52458 9.448H5.24463C5.26957 10.5571 5.37569 11.5014 5.52758 12.3007H8.52462L8.52458 9.448Z" fill="#2B4C65"/>
<path id="Vector_7" d="M12.3251 2.29433C12.7005 2.97286 13.0025 3.76812 13.2278 4.66168H15.8689C15.5475 4.1538 15.1672 3.67744 14.731 3.24129C13.8473 2.3575 12.7984 1.70262 11.6562 1.30518C11.897 1.59456 12.1205 1.92465 12.3251 2.29433Z" fill="#2B4C65"/>
<path id="Vector_8" d="M12.7554 8.49717C12.7301 7.37334 12.6214 6.41884 12.4663 5.61279H9.47534V8.49717H12.7554Z" fill="#2B4C65"/>
<path id="Vector_9" d="M13.2456 13.2517C13.0199 14.1644 12.7142 14.9754 12.332 15.665C12.1321 16.0256 11.9138 16.3482 11.6792 16.632C12.8125 16.2337 13.8532 15.5817 14.731 14.7038C15.1762 14.2586 15.563 13.7714 15.8885 13.2517H13.2456Z" fill="#2B4C65"/>
<path id="Vector_10" d="M4.76218 4.66187C4.98716 3.76214 5.29008 2.96196 5.66787 2.28036C5.86778 1.91971 6.08601 1.59707 6.32073 1.31323C5.18739 1.71144 4.14663 2.36356 3.26873 3.24146C2.83259 3.6776 2.45223 4.15397 2.13086 4.66184L4.76218 4.66187Z" fill="#2B4C65"/>
<path id="Vector_11" d="M13.4319 5.61279C13.5912 6.49985 13.6839 7.4658 13.7065 8.49717H17.0999C17.0415 7.48897 16.7975 6.5145 16.3843 5.61279H13.4319Z" fill="#2B4C65"/>
<path id="Vector_12" d="M5.67474 15.6509C5.29486 14.9643 4.99029 14.1582 4.76417 13.2517H2.11133C2.43685 13.7714 2.82364 14.2586 3.26879 14.7038C4.15255 15.5876 5.20136 16.2424 6.34354 16.6399C6.10284 16.3505 5.87925 16.0205 5.67474 15.6509Z" fill="#2B4C65"/>
<path id="Vector_13" d="M9.47534 9.448V12.3007H12.4784C12.6369 11.4575 12.7349 10.5058 12.7564 9.448H9.47534Z" fill="#2B4C65"/>
<path id="Vector_14" d="M17.0998 9.448H13.7074C13.6876 10.4669 13.5994 11.4223 13.4456 12.3007H16.3988C16.8032 11.4079 17.0421 10.4444 17.0998 9.448Z" fill="#2B4C65"/>
<path id="Vector_15" d="M9.47534 13.2517V17.0453C10.5936 16.7664 11.6622 15.4841 12.2628 13.2517H9.47534Z" fill="#2B4C65"/>
<path id="Vector_16" d="M8.52453 17.0413V13.2517H5.74561C5.97521 14.0961 6.25183 14.7296 6.50686 15.1905C7.06985 16.208 7.77304 16.848 8.52453 17.0413Z" fill="#2B4C65"/>
</g>
</g>
<defs>
<clipPath id="clip0_556_8326">
<rect width="18" height="18" fill="white"/>
</clipPath>
</defs>
</svg>
