<svg width="26" height="27" viewBox="0 0 26 27" fill="none" xmlns="http://www.w3.org/2000/svg">
<g id="Twitter">
<rect y="0.320312" width="26" height="26" rx="13" fill="white"/>
<path id="Vector" d="M10.6206 20.1787C16.3861 20.1787 19.5386 15.4012 19.5386 11.2607C19.5386 11.1242 19.5386 10.9877 19.5321 10.8577C20.1431 10.4157 20.6761 9.86317 21.0986 9.23267C20.5396 9.47967 19.9351 9.64867 19.2981 9.72667C19.9481 9.33667 20.4421 8.72567 20.6761 7.99117C20.0716 8.34867 19.4021 8.60867 18.6871 8.75167C18.1151 8.14067 17.3026 7.76367 16.3991 7.76367C14.6701 7.76367 13.2661 9.16767 13.2661 10.8967C13.2661 11.1437 13.2921 11.3842 13.3506 11.6117C10.7441 11.4817 8.43658 10.2337 6.88958 8.33567C6.62308 8.79717 6.46708 9.33667 6.46708 9.90867C6.46708 10.9942 7.01958 11.9562 7.86458 12.5152C7.35108 12.5022 6.87008 12.3592 6.44758 12.1252C6.44758 12.1382 6.44758 12.1512 6.44758 12.1642C6.44758 13.6852 7.52658 14.9462 8.96308 15.2387C8.70308 15.3102 8.42358 15.3492 8.13758 15.3492C7.93608 15.3492 7.74108 15.3297 7.54608 15.2907C7.94258 16.5387 9.09958 17.4422 10.4711 17.4682C9.39858 18.3067 8.04658 18.8072 6.57758 18.8072C6.32408 18.8072 6.07708 18.7942 5.83008 18.7617C7.20158 19.6587 8.85258 20.1787 10.6206 20.1787Z" fill="#1B9C43"/>
</g>
</svg>
