<svg width="17" height="16" viewBox="0 0 17 16" fill="none" xmlns="http://www.w3.org/2000/svg">
<g id="fi_11502464">
<path id="Vector" fill-rule="evenodd" clip-rule="evenodd" d="M14.8662 7.4868C15.1488 7.76939 15.1488 8.23064 14.8662 8.51324L9.3308 14.0484C9.04777 14.3315 8.58737 14.3315 8.30437 14.0484L7.99474 13.7388C7.71146 13.4555 7.7114 12.9954 7.99471 12.712L12.1938 8.51336C12.4771 8.23008 12.4771 7.76983 12.1938 7.48655L7.99474 3.28786C7.7114 3.00455 7.71143 2.54443 7.99477 2.26111L8.3044 1.95149C8.58699 1.66889 9.04824 1.66889 9.33084 1.95149L14.8662 7.4868ZM3.46799 1.95143C3.18512 1.66852 2.72427 1.66855 2.4414 1.95143L2.13177 2.26105C1.84902 2.5438 1.84899 3.00505 2.13177 3.28783L6.33062 7.48655C6.61393 7.76986 6.61393 8.23005 6.33062 8.51336L2.13174 12.7121C1.84887 12.9949 1.8489 13.456 2.13174 13.7388L2.44137 14.0485C2.72437 14.3315 3.18496 14.3315 3.46796 14.0485L8.51165 9.00461C9.92646 10.418 9.56859 10.0596 8.51268 9.00358L9.00299 8.51324C9.28577 8.23046 9.28574 7.76955 9.00299 7.48677L3.46799 1.95143Z" fill="#F8781B"/>
</g>
</svg>
