<svg width="44" height="45" viewBox="0 0 44 45" fill="none" xmlns="http://www.w3.org/2000/svg">
<g id="Instagram">
<rect y="0.640625" width="44" height="44" rx="22" fill="#0EC547"/>
<g id="Vector">
<path d="M22.0025 11.8208C25.5296 11.8208 25.9437 11.8365 27.3377 11.8994C28.627 11.957 29.324 12.1719 29.7905 12.3553C30.4089 12.5964 30.8491 12.8794 31.3103 13.3406C31.7715 13.8018 32.0598 14.242 32.2956 14.8605C32.4738 15.3269 32.6939 16.0239 32.7516 17.3132C32.8145 18.7073 32.8302 19.1213 32.8302 22.6484C32.8302 26.1755 32.8145 26.5895 32.7516 27.9836C32.6939 29.2729 32.479 29.9699 32.2956 30.4363C32.0545 31.0547 31.7715 31.495 31.3103 31.9562C30.8491 32.4174 30.4089 32.7056 29.7905 32.9415C29.324 33.1196 28.627 33.3398 27.3377 33.3974C25.9437 33.4603 25.5296 33.476 22.0025 33.476C18.4754 33.476 18.0614 33.4603 16.6673 33.3974C15.3781 33.3398 14.681 33.1249 14.2146 32.9415C13.5962 32.7004 13.1559 32.4174 12.6947 31.9562C12.2336 31.495 11.9453 31.0547 11.7095 30.4363C11.5313 29.9699 11.3112 29.2729 11.2535 27.9836C11.1906 26.5895 11.1749 26.1755 11.1749 22.6484C11.1749 19.1213 11.1906 18.7073 11.2535 17.3132C11.3112 16.0239 11.526 15.3269 11.7095 14.8605C11.9505 14.242 12.2336 13.8018 12.6947 13.3406C13.1559 12.8794 13.5962 12.5912 14.2146 12.3553C14.681 12.1771 15.3781 11.957 16.6673 11.8994C18.0614 11.8312 18.4807 11.8208 22.0025 11.8208ZM22.0025 9.44141C18.4178 9.44141 17.9671 9.45713 16.5573 9.52002C15.1527 9.58291 14.1936 9.80827 13.3551 10.1332C12.4851 10.4686 11.7514 10.9246 11.0177 11.6583C10.2839 12.392 9.83323 13.131 9.49258 13.9957C9.16764 14.8343 8.94228 15.7933 8.87939 17.2031C8.8165 18.6077 8.80078 19.0584 8.80078 22.6432C8.80078 26.2279 8.8165 26.6786 8.87939 28.0884C8.94228 29.493 9.16764 30.452 9.49258 31.2958C9.82799 32.1658 10.2839 32.8995 11.0177 33.6333C11.7514 34.367 12.4904 34.8177 13.3551 35.1583C14.1936 35.4833 15.1527 35.7086 16.5625 35.7715C17.9723 35.8344 18.4178 35.8501 22.0078 35.8501C25.5978 35.8501 26.0432 35.8344 27.453 35.7715C28.8576 35.7086 29.8167 35.4833 30.6605 35.1583C31.5304 34.8229 32.2642 34.367 32.9979 33.6333C33.7316 32.8995 34.1823 32.1606 34.523 31.2958C34.8479 30.4573 35.0733 29.4982 35.1362 28.0884C35.199 26.6786 35.2148 26.2331 35.2148 22.6432C35.2148 19.0532 35.199 18.6077 35.1362 17.1979C35.0733 15.7933 34.8479 14.8343 34.523 13.9905C34.1876 13.1205 33.7316 12.3868 32.9979 11.6531C32.2642 10.9193 31.5252 10.4686 30.6605 10.128C29.8219 9.80303 28.8628 9.57767 27.453 9.51478C26.038 9.45713 25.5873 9.44141 22.0025 9.44141Z" fill="#0E2236"/>
<path d="M22.0025 11.8208C25.5296 11.8208 25.9437 11.8365 27.3377 11.8994C28.627 11.957 29.324 12.1719 29.7905 12.3553C30.4089 12.5964 30.8491 12.8794 31.3103 13.3406C31.7715 13.8018 32.0598 14.242 32.2956 14.8605C32.4738 15.3269 32.6939 16.0239 32.7516 17.3132C32.8145 18.7073 32.8302 19.1213 32.8302 22.6484C32.8302 26.1755 32.8145 26.5895 32.7516 27.9836C32.6939 29.2729 32.479 29.9699 32.2956 30.4363C32.0545 31.0547 31.7715 31.495 31.3103 31.9562C30.8491 32.4174 30.4089 32.7056 29.7905 32.9415C29.324 33.1196 28.627 33.3398 27.3377 33.3974C25.9437 33.4603 25.5296 33.476 22.0025 33.476C18.4754 33.476 18.0614 33.4603 16.6673 33.3974C15.3781 33.3398 14.681 33.1249 14.2146 32.9415C13.5962 32.7004 13.1559 32.4174 12.6947 31.9562C12.2336 31.495 11.9453 31.0547 11.7095 30.4363C11.5313 29.9699 11.3112 29.2729 11.2535 27.9836C11.1906 26.5895 11.1749 26.1755 11.1749 22.6484C11.1749 19.1213 11.1906 18.7073 11.2535 17.3132C11.3112 16.0239 11.526 15.3269 11.7095 14.8605C11.9505 14.242 12.2336 13.8018 12.6947 13.3406C13.1559 12.8794 13.5962 12.5912 14.2146 12.3553C14.681 12.1771 15.3781 11.957 16.6673 11.8994C18.0614 11.8312 18.4807 11.8208 22.0025 11.8208Z" fill="#0E2236"/>
</g>
<path id="Vector_2" d="M22.0043 15.8652C18.2624 15.8652 15.2227 18.8997 15.2227 22.6469C15.2227 26.3941 18.2571 29.4286 22.0043 29.4286C25.7516 29.4286 28.786 26.3941 28.786 22.6469C28.786 18.8997 25.7516 15.8652 22.0043 15.8652ZM22.0043 27.044C19.5726 27.044 17.602 25.0734 17.602 22.6417C17.602 20.2099 19.5726 18.2393 22.0043 18.2393C24.4361 18.2393 26.4067 20.2099 26.4067 22.6417C26.4067 25.0734 24.4361 27.044 22.0043 27.044Z" fill="#0EC547"/>
<path id="Vector_3" d="M29.0515 17.1753C29.9256 17.1753 30.6342 16.4666 30.6342 15.5925C30.6342 14.7184 29.9256 14.0098 29.0515 14.0098C28.1774 14.0098 27.4688 14.7184 27.4688 15.5925C27.4688 16.4666 28.1774 17.1753 29.0515 17.1753Z" fill="#0EC547"/>
</g>
</svg>
