<svg width="20" height="20" viewBox="0 0 20 20" fill="none" xmlns="http://www.w3.org/2000/svg">
<path d="M8.83268 11.5L7.04102 9.70835C6.88824 9.55558 6.69379 9.47919 6.45768 9.47919C6.22157 9.47919 6.02713 9.55558 5.87435 9.70835C5.72157 9.86113 5.64518 10.0556 5.64518 10.2917C5.64518 10.5278 5.72157 10.7222 5.87435 10.875L8.24935 13.25C8.41602 13.4167 8.61046 13.5 8.83268 13.5C9.0549 13.5 9.24935 13.4167 9.41602 13.25L14.1243 8.54169C14.2771 8.38891 14.3535 8.19446 14.3535 7.95835C14.3535 7.72224 14.2771 7.5278 14.1243 7.37502C13.9716 7.22224 13.7771 7.14585 13.541 7.14585C13.3049 7.14585 13.1105 7.22224 12.9577 7.37502L8.83268 11.5ZM9.99935 18.3334C8.84657 18.3334 7.76324 18.1145 6.74935 17.6767C5.73546 17.2389 4.85352 16.6453 4.10352 15.8959C3.35352 15.1459 2.7599 14.2639 2.32268 13.25C1.88546 12.2361 1.66657 11.1528 1.66602 10C1.66602 8.84724 1.8849 7.76391 2.32268 6.75002C2.76046 5.73613 3.35407 4.85419 4.10352 4.10419C4.85352 3.35419 5.73546 2.76058 6.74935 2.32335C7.76324 1.88613 8.84657 1.66724 9.99935 1.66669C11.1521 1.66669 12.2355 1.88558 13.2493 2.32335C14.2632 2.76113 15.1452 3.35474 15.8952 4.10419C16.6452 4.85419 17.2391 5.73613 17.6768 6.75002C18.1146 7.76391 18.3332 8.84724 18.3327 10C18.3327 11.1528 18.1138 12.2361 17.676 13.25C17.2382 14.2639 16.6446 15.1459 15.8952 15.8959C15.1452 16.6459 14.2632 17.2397 13.2493 17.6775C12.2355 18.1153 11.1521 18.3339 9.99935 18.3334Z" fill="#F7F7F7"/>
</svg>
