<svg width="105" height="130" viewBox="0 0 105 130" fill="none" xmlns="http://www.w3.org/2000/svg">
<g id="Frame 748">
<path id="Union" fill-rule="evenodd" clip-rule="evenodd" d="M105 0.5H0V91.5H0.000976562L52.5008 129.5L105.001 91.5H105V0.5Z" fill="#0971E7"/>
<path id="Union_2" fill-rule="evenodd" clip-rule="evenodd" d="M105 10.5C105 8.84315 103.657 7.5 102 7.5H3C1.34315 7.5 0 8.84314 0 10.5V91.4993C0 91.4997 0.000330245 91.5 0.000737624 91.5C0.000892943 91.5 0.0010443 91.5 0.00117012 91.5001L50.7418 128.227C51.7914 128.987 53.2102 128.987 54.2598 128.227L105 91.5004C105.001 91.5003 105 91.5 105 91.5C105 91.5 105 91.4999 105 91.4998V10.5Z" fill="#0971E7"/>
</g>
</svg>
