<svg width="35" height="35" viewBox="0 0 35 35" fill="none" xmlns="http://www.w3.org/2000/svg">
<path d="M21.3344 25.2433C20.2491 26.0392 18.9045 26.3985 17.5669 26.25C16.2309 26.3988 14.8878 26.04 13.804 25.2448C13.5052 24.9482 13.1011 24.782 12.6801 24.7826C12.2591 24.7832 11.8555 24.9506 11.5576 25.2481C11.2597 25.5456 11.0917 25.949 11.0906 26.37C11.0894 26.791 11.255 27.1953 11.5513 27.4945C12.3739 28.2026 13.33 28.7388 14.3631 29.0716C15.3963 29.4043 16.4856 29.5268 17.5669 29.4318C18.6482 29.5264 19.7376 29.4038 20.7709 29.0714C21.8042 28.739 22.7606 28.2034 23.584 27.496C23.7325 27.3484 23.8504 27.173 23.9309 26.9798C24.0115 26.7866 24.0532 26.5794 24.0535 26.37C24.0539 26.1607 24.013 25.9533 23.9331 25.7598C23.8532 25.5663 23.736 25.3905 23.5881 25.2424C23.4401 25.0942 23.2645 24.9767 23.0711 24.8966C22.8777 24.8165 22.6704 24.7753 22.461 24.7754C22.2517 24.7754 22.0444 24.8168 21.8511 24.8971C21.6578 24.9774 21.4822 25.0951 21.3344 25.2433L21.3344 25.2433ZM13.0463 22.2754C13.361 22.2753 13.6685 22.1819 13.9301 22.007C14.1917 21.8321 14.3955 21.5836 14.5158 21.2929C14.6361 21.0021 14.6675 20.6823 14.6061 20.3737C14.5446 20.0651 14.393 19.7817 14.1704 19.5592C13.9479 19.3368 13.6644 19.1854 13.3557 19.1241C13.0471 19.0628 12.7272 19.0944 12.4366 19.2149C12.1459 19.3354 11.8975 19.5394 11.7228 19.801C11.548 20.0627 11.4548 20.3703 11.4549 20.685C11.4554 21.1068 11.6232 21.5112 11.9216 21.8094C12.22 22.1076 12.6245 22.2752 13.0463 22.2754ZM22.5917 19.0936C22.2771 19.0935 21.9695 19.1867 21.7078 19.3615C21.4461 19.5362 21.2421 19.7846 21.1216 20.0753C21.0011 20.3659 20.9695 20.6858 21.0308 20.9944C21.0921 21.303 21.2435 21.5866 21.466 21.8091C21.6884 22.0317 21.9718 22.1833 22.2804 22.2448C22.589 22.3062 22.9089 22.2748 23.1996 22.1545C23.4904 22.0342 23.7389 21.8303 23.9138 21.5688C24.0887 21.3072 24.1821 20.9996 24.1822 20.685C24.1817 20.2632 24.014 19.8589 23.7159 19.5606C23.4177 19.2622 23.0135 19.0943 22.5917 19.0936ZM35 17.1505C35.0029 15.8888 34.608 14.6583 33.8715 13.6339C33.1349 12.6095 32.0942 11.8434 30.8973 11.4444C29.7003 11.0454 28.4081 11.0339 27.2042 11.4115C26.0003 11.789 24.9461 12.5365 24.1914 13.5476C22.6013 13.1428 20.9767 12.8879 19.339 12.7863L20.7005 3.71022L24.0216 4.83951C24.0367 6.10288 24.5527 7.30859 25.4562 8.19178C26.3597 9.07498 27.5768 9.56344 28.8402 9.54988C30.1036 9.53632 31.31 9.02185 32.1943 8.11946C33.0787 7.21708 33.5686 6.00058 33.5567 4.73717V4.7014C33.5263 3.45178 33.0115 2.26287 32.121 1.38569C31.2304 0.508507 30.0339 0.0116999 28.784 0.000159226C28.0668 0.00551862 27.3602 0.173697 26.7175 0.492004C26.0748 0.810311 25.5128 1.27043 25.0738 1.83765L19.9221 0.0856065C19.7016 0.0101569 19.4673 -0.0158835 19.2356 0.00933034C19.0039 0.0345441 18.7806 0.110395 18.5816 0.23151C18.3825 0.352624 18.2124 0.516038 18.0835 0.710175C17.9546 0.904312 17.87 1.12442 17.8356 1.35491L16.1231 12.7703C14.3299 12.8488 12.5493 13.1093 10.8087 13.5476C9.88704 12.3044 8.52026 11.4659 6.99441 11.2075C5.46857 10.9492 3.90193 11.291 2.62239 12.1615C1.34285 13.032 0.449593 14.3636 0.129572 15.8777C-0.190448 17.3918 0.0875739 18.9711 0.905449 20.2848C0.319247 21.3872 0.00861675 22.6152 9.76532e-05 23.8637C9.76532e-05 30.1077 7.68735 35 17.5 35C27.3127 35 35 30.1077 35 23.8637C34.9915 22.6156 34.6811 21.388 34.0953 20.2859C34.6798 19.344 34.9929 18.259 35 17.1505ZM28.784 3.18196C29.0986 3.18196 29.4062 3.27527 29.6678 3.45008C29.9294 3.62489 30.1333 3.87335 30.2538 4.16405C30.3742 4.45475 30.4057 4.77463 30.3443 5.08323C30.2829 5.39184 30.1314 5.67531 29.9089 5.8978C29.6864 6.12029 29.4029 6.27181 29.0943 6.3332C28.7857 6.39458 28.4658 6.36308 28.1751 6.24267C27.8844 6.12226 27.636 5.91835 27.4612 5.65672C27.2864 5.3951 27.1931 5.08752 27.1931 4.77287C27.1999 4.35307 27.3697 3.95238 27.6666 3.6555C27.9635 3.35862 28.3642 3.18881 28.784 3.18196ZM6.01414 14.3183C6.50857 14.3244 6.99256 14.4614 7.41688 14.7152C5.88126 15.3756 4.45956 16.2743 3.20434 17.3782C3.19797 17.3021 3.18191 17.2271 3.18191 17.1505C3.18287 16.3997 3.48157 15.6798 4.01251 15.1489C4.54345 14.6179 5.26328 14.3192 6.01414 14.3183ZM17.5 31.8182C9.73816 31.8182 3.18191 28.175 3.18191 23.8637C3.18191 19.5523 9.73816 15.9092 17.5 15.9092C25.2619 15.9092 31.8182 19.5523 31.8182 23.8637C31.8182 28.175 25.2619 31.8182 17.5 31.8182ZM31.7957 17.3783C30.5405 16.2744 29.1188 15.3756 27.5832 14.7152C28.0075 14.4614 28.4915 14.3244 28.9859 14.3183C29.7368 14.3192 30.4566 14.6179 30.9876 15.1489C31.5185 15.6798 31.8172 16.3997 31.8182 17.1505C31.8182 17.227 31.8022 17.3022 31.7957 17.3783Z" fill="white"/>
</svg>
